<?xml version="1.0" encoding="UTF-8" standalone="no"?>
<!DOCTYPE svg PUBLIC "-//W3C//DTD SVG 1.1//EN" "http://www.w3.org/Graphics/SVG/1.1/DTD/svg11.dtd">
<svg width="100%" height="100%" viewBox="0 0 466 138" version="1.1" xmlns="http://www.w3.org/2000/svg" xmlns:xlink="http://www.w3.org/1999/xlink" xml:space="preserve" xmlns:serif="http://www.serif.com/" style="fill-rule:evenodd;clip-rule:evenodd;stroke-linejoin:round;stroke-miterlimit:2;">
    <g transform="matrix(1,0,0,1,-3617.785288,-3001.464706)">
        <g transform="matrix(0.938089,0,0,0.938089,-2064.928872,2367.03641)">
            <g transform="matrix(1,0,0,1,-7.64569,516.864523)">
                <g transform="matrix(1.205672,0,0,1.411158,-4698.840124,-207.099944)">
                    <g transform="matrix(0.976024,0,0,1,214.212776,0)">
                        <g transform="matrix(151.081141,0,0,151.081141,8934.560534,357.692308)">
                            <path d="M0.258,0.008C0.188,0.008 0.132,-0.007 0.09,-0.038C0.049,-0.07 0.025,-0.111 0.018,-0.162L0.172,-0.192C0.174,-0.166 0.182,-0.146 0.197,-0.133C0.211,-0.12 0.231,-0.113 0.258,-0.113C0.281,-0.113 0.299,-0.119 0.313,-0.132C0.327,-0.145 0.334,-0.16 0.334,-0.178C0.334,-0.196 0.328,-0.21 0.315,-0.219C0.301,-0.228 0.282,-0.233 0.256,-0.233C0.25,-0.233 0.233,-0.232 0.229,-0.232L0.251,-0.33C0.256,-0.329 0.262,-0.329 0.268,-0.328C0.274,-0.327 0.28,-0.327 0.286,-0.327C0.312,-0.327 0.332,-0.333 0.346,-0.345C0.359,-0.356 0.366,-0.371 0.366,-0.39C0.366,-0.403 0.363,-0.413 0.356,-0.421C0.35,-0.43 0.342,-0.436 0.332,-0.44C0.321,-0.444 0.31,-0.446 0.298,-0.446C0.275,-0.446 0.257,-0.441 0.244,-0.431C0.231,-0.421 0.221,-0.405 0.215,-0.383L0.071,-0.431C0.088,-0.476 0.117,-0.51 0.158,-0.533C0.199,-0.557 0.25,-0.568 0.31,-0.568C0.352,-0.568 0.389,-0.562 0.42,-0.55C0.451,-0.539 0.476,-0.522 0.493,-0.499C0.51,-0.476 0.519,-0.449 0.519,-0.418C0.519,-0.379 0.507,-0.346 0.483,-0.32C0.459,-0.294 0.429,-0.28 0.392,-0.278L0.392,-0.274C0.419,-0.269 0.443,-0.258 0.462,-0.24C0.48,-0.223 0.49,-0.197 0.49,-0.164C0.49,-0.127 0.48,-0.095 0.46,-0.07C0.439,-0.045 0.411,-0.025 0.377,-0.012C0.341,0.001 0.302,0.008 0.258,0.008Z" style="fill:none;fill-rule:nonzero;stroke:rgb(243,109,33);stroke-width:0.07px;"/>
                        </g>
                        <g transform="matrix(151.081141,0,0,151.081141,8934.560534,357.692308)">
                        </g>
                        <g transform="matrix(151.081141,0,0,151.081141,9016.295431,357.692308)">
                            <path d="M0.011,-0L0.141,-0.56L0.353,-0.56C0.408,-0.56 0.454,-0.55 0.493,-0.531C0.532,-0.512 0.561,-0.484 0.582,-0.449C0.602,-0.413 0.612,-0.37 0.612,-0.321C0.612,-0.257 0.599,-0.201 0.574,-0.152C0.549,-0.104 0.512,-0.067 0.465,-0.04C0.417,-0.013 0.359,-0 0.291,-0L0.011,-0ZM0.208,-0.127L0.283,-0.127C0.318,-0.127 0.348,-0.136 0.372,-0.153C0.396,-0.17 0.414,-0.193 0.426,-0.222C0.439,-0.25 0.445,-0.281 0.445,-0.315C0.445,-0.352 0.436,-0.381 0.419,-0.402C0.402,-0.423 0.374,-0.433 0.337,-0.433L0.279,-0.433L0.208,-0.127Z" style="fill:none;fill-rule:nonzero;stroke:rgb(243,109,33);stroke-width:0.07px;"/>
                        </g>
                        <g transform="matrix(151.081141,0,0,151.081141,9016.295431,357.692308)">
                        </g>
                        <g transform="matrix(151.081141,0,0,151.081141,9154.987919,357.692308)">
                            <path d="M0.315,0.008C0.264,0.008 0.219,-0.002 0.178,-0.021C0.137,-0.04 0.105,-0.069 0.081,-0.106C0.057,-0.144 0.045,-0.19 0.045,-0.243C0.045,-0.29 0.052,-0.333 0.067,-0.372C0.081,-0.412 0.102,-0.447 0.129,-0.476C0.156,-0.505 0.19,-0.527 0.229,-0.543C0.268,-0.56 0.313,-0.568 0.363,-0.568C0.407,-0.568 0.446,-0.561 0.481,-0.546C0.517,-0.532 0.546,-0.511 0.569,-0.483C0.592,-0.456 0.608,-0.422 0.615,-0.381L0.455,-0.347C0.452,-0.378 0.442,-0.402 0.426,-0.417C0.411,-0.432 0.389,-0.44 0.36,-0.44C0.335,-0.44 0.312,-0.433 0.293,-0.42C0.275,-0.408 0.259,-0.391 0.246,-0.37C0.234,-0.349 0.225,-0.327 0.219,-0.303C0.213,-0.28 0.21,-0.257 0.21,-0.234C0.21,-0.21 0.215,-0.19 0.224,-0.173C0.233,-0.155 0.246,-0.143 0.263,-0.134C0.28,-0.125 0.299,-0.121 0.32,-0.121C0.346,-0.121 0.368,-0.128 0.386,-0.142C0.404,-0.155 0.419,-0.174 0.43,-0.198L0.579,-0.142C0.554,-0.095 0.521,-0.059 0.478,-0.032C0.435,-0.005 0.38,0.008 0.315,0.008Z" style="fill:none;fill-rule:nonzero;stroke:rgb(243,109,33);stroke-width:0.07px;"/>
                        </g>
                        <g transform="matrix(151.081141,0,0,151.081141,9154.987919,357.692308)">
                        </g>
                        <g transform="matrix(151.081141,0,0,151.081141,9246.996334,357.692308)">
                            <path d="M0.282,0.008C0.238,0.008 0.198,-0.002 0.162,-0.022C0.126,-0.041 0.097,-0.07 0.076,-0.106C0.055,-0.143 0.044,-0.188 0.044,-0.24C0.044,-0.285 0.051,-0.328 0.065,-0.367C0.079,-0.406 0.1,-0.441 0.127,-0.471C0.154,-0.501 0.188,-0.525 0.228,-0.542C0.268,-0.559 0.314,-0.568 0.365,-0.568C0.409,-0.568 0.449,-0.561 0.484,-0.547C0.52,-0.534 0.549,-0.513 0.573,-0.486C0.596,-0.46 0.61,-0.427 0.617,-0.388L0.461,-0.361C0.457,-0.385 0.447,-0.405 0.431,-0.419C0.415,-0.435 0.392,-0.442 0.361,-0.442C0.337,-0.442 0.316,-0.437 0.296,-0.426C0.278,-0.416 0.261,-0.402 0.247,-0.384C0.234,-0.365 0.224,-0.344 0.216,-0.321C0.21,-0.297 0.206,-0.272 0.206,-0.245C0.206,-0.215 0.211,-0.19 0.222,-0.171C0.233,-0.151 0.248,-0.136 0.267,-0.127C0.286,-0.117 0.309,-0.112 0.336,-0.112C0.357,-0.112 0.375,-0.115 0.391,-0.121C0.406,-0.128 0.419,-0.137 0.43,-0.148C0.441,-0.159 0.449,-0.173 0.455,-0.19L0.458,-0.201L0.32,-0.201L0.342,-0.302L0.606,-0.302L0.531,-0L0.425,-0L0.439,-0.063C0.422,-0.04 0.401,-0.023 0.376,-0.011C0.351,0.002 0.319,0.008 0.282,0.008Z" style="fill:none;fill-rule:nonzero;stroke:rgb(243,109,33);stroke-width:0.07px;"/>
                        </g>
                        <g transform="matrix(151.081141,0,0,151.081141,9246.996334,357.692308)">
                        </g>
                        <g transform="matrix(151.081141,0,0,151.081141,9342.177453,357.692308)">
                        </g>
                    </g>
                    <g transform="matrix(0.976024,0,0,1,214.212776,0)">
                        <g transform="matrix(151.081141,0,0,151.081141,8934.560534,357.692308)">
                            <path d="M0.258,0.008C0.188,0.008 0.132,-0.007 0.09,-0.038C0.049,-0.07 0.025,-0.111 0.018,-0.162L0.172,-0.192C0.174,-0.166 0.182,-0.146 0.197,-0.133C0.211,-0.12 0.231,-0.113 0.258,-0.113C0.281,-0.113 0.299,-0.119 0.313,-0.132C0.327,-0.145 0.334,-0.16 0.334,-0.178C0.334,-0.196 0.328,-0.21 0.315,-0.219C0.301,-0.228 0.282,-0.233 0.256,-0.233C0.25,-0.233 0.233,-0.232 0.229,-0.232L0.251,-0.33C0.256,-0.329 0.262,-0.329 0.268,-0.328C0.274,-0.327 0.28,-0.327 0.286,-0.327C0.312,-0.327 0.332,-0.333 0.346,-0.345C0.359,-0.356 0.366,-0.371 0.366,-0.39C0.366,-0.403 0.363,-0.413 0.356,-0.421C0.35,-0.43 0.342,-0.436 0.332,-0.44C0.321,-0.444 0.31,-0.446 0.298,-0.446C0.275,-0.446 0.257,-0.441 0.244,-0.431C0.231,-0.421 0.221,-0.405 0.215,-0.383L0.071,-0.431C0.088,-0.476 0.117,-0.51 0.158,-0.533C0.199,-0.557 0.25,-0.568 0.31,-0.568C0.352,-0.568 0.389,-0.562 0.42,-0.55C0.451,-0.539 0.476,-0.522 0.493,-0.499C0.51,-0.476 0.519,-0.449 0.519,-0.418C0.519,-0.379 0.507,-0.346 0.483,-0.32C0.459,-0.294 0.429,-0.28 0.392,-0.278L0.392,-0.274C0.419,-0.269 0.443,-0.258 0.462,-0.24C0.48,-0.223 0.49,-0.197 0.49,-0.164C0.49,-0.127 0.48,-0.095 0.46,-0.07C0.439,-0.045 0.411,-0.025 0.377,-0.012C0.341,0.001 0.302,0.008 0.258,0.008Z" style="fill:rgb(243,109,33);fill-rule:nonzero;"/>
                        </g>
                        <g transform="matrix(151.081141,0,0,151.081141,8934.560534,357.692308)">
                        </g>
                        <g transform="matrix(151.081141,0,0,151.081141,9016.295431,357.692308)">
                            <path d="M0.011,-0L0.141,-0.56L0.353,-0.56C0.408,-0.56 0.454,-0.55 0.493,-0.531C0.532,-0.512 0.561,-0.484 0.582,-0.449C0.602,-0.413 0.612,-0.37 0.612,-0.321C0.612,-0.257 0.599,-0.201 0.574,-0.152C0.549,-0.104 0.512,-0.067 0.465,-0.04C0.417,-0.013 0.359,-0 0.291,-0L0.011,-0ZM0.208,-0.127L0.283,-0.127C0.318,-0.127 0.348,-0.136 0.372,-0.153C0.396,-0.17 0.414,-0.193 0.426,-0.222C0.439,-0.25 0.445,-0.281 0.445,-0.315C0.445,-0.352 0.436,-0.381 0.419,-0.402C0.402,-0.423 0.374,-0.433 0.337,-0.433L0.279,-0.433L0.208,-0.127Z" style="fill:rgb(243,109,33);fill-rule:nonzero;"/>
                        </g>
                        <g transform="matrix(151.081141,0,0,151.081141,9016.295431,357.692308)">
                        </g>
                        <g transform="matrix(151.081141,0,0,151.081141,9154.987919,357.692308)">
                            <path d="M0.315,0.008C0.264,0.008 0.219,-0.002 0.178,-0.021C0.137,-0.04 0.105,-0.069 0.081,-0.106C0.057,-0.144 0.045,-0.19 0.045,-0.243C0.045,-0.29 0.052,-0.333 0.067,-0.372C0.081,-0.412 0.102,-0.447 0.129,-0.476C0.156,-0.505 0.19,-0.527 0.229,-0.543C0.268,-0.56 0.313,-0.568 0.363,-0.568C0.407,-0.568 0.446,-0.561 0.481,-0.546C0.517,-0.532 0.546,-0.511 0.569,-0.483C0.592,-0.456 0.608,-0.422 0.615,-0.381L0.455,-0.347C0.452,-0.378 0.442,-0.402 0.426,-0.417C0.411,-0.432 0.389,-0.44 0.36,-0.44C0.335,-0.44 0.312,-0.433 0.293,-0.42C0.275,-0.408 0.259,-0.391 0.246,-0.37C0.234,-0.349 0.225,-0.327 0.219,-0.303C0.213,-0.28 0.21,-0.257 0.21,-0.234C0.21,-0.21 0.215,-0.19 0.224,-0.173C0.233,-0.155 0.246,-0.143 0.263,-0.134C0.28,-0.125 0.299,-0.121 0.32,-0.121C0.346,-0.121 0.368,-0.128 0.386,-0.142C0.404,-0.155 0.419,-0.174 0.43,-0.198L0.579,-0.142C0.554,-0.095 0.521,-0.059 0.478,-0.032C0.435,-0.005 0.38,0.008 0.315,0.008Z" style="fill:rgb(243,109,33);fill-rule:nonzero;"/>
                        </g>
                        <g transform="matrix(151.081141,0,0,151.081141,9154.987919,357.692308)">
                        </g>
                        <g transform="matrix(151.081141,0,0,151.081141,9246.996334,357.692308)">
                            <path d="M0.282,0.008C0.238,0.008 0.198,-0.002 0.162,-0.022C0.126,-0.041 0.097,-0.07 0.076,-0.106C0.055,-0.143 0.044,-0.188 0.044,-0.24C0.044,-0.285 0.051,-0.328 0.065,-0.367C0.079,-0.406 0.1,-0.441 0.127,-0.471C0.154,-0.501 0.188,-0.525 0.228,-0.542C0.268,-0.559 0.314,-0.568 0.365,-0.568C0.409,-0.568 0.449,-0.561 0.484,-0.547C0.52,-0.534 0.549,-0.513 0.573,-0.486C0.596,-0.46 0.61,-0.427 0.617,-0.388L0.461,-0.361C0.457,-0.385 0.447,-0.405 0.431,-0.419C0.415,-0.435 0.392,-0.442 0.361,-0.442C0.337,-0.442 0.316,-0.437 0.296,-0.426C0.278,-0.416 0.261,-0.402 0.247,-0.384C0.234,-0.365 0.224,-0.344 0.216,-0.321C0.21,-0.297 0.206,-0.272 0.206,-0.245C0.206,-0.215 0.211,-0.19 0.222,-0.171C0.233,-0.151 0.248,-0.136 0.267,-0.127C0.286,-0.117 0.309,-0.112 0.336,-0.112C0.357,-0.112 0.375,-0.115 0.391,-0.121C0.406,-0.128 0.419,-0.137 0.43,-0.148C0.441,-0.159 0.449,-0.173 0.455,-0.19L0.458,-0.201L0.32,-0.201L0.342,-0.302L0.606,-0.302L0.531,-0L0.425,-0L0.439,-0.063C0.422,-0.04 0.401,-0.023 0.376,-0.011C0.351,0.002 0.319,0.008 0.282,0.008Z" style="fill:rgb(243,109,33);fill-rule:nonzero;"/>
                        </g>
                        <g transform="matrix(151.081141,0,0,151.081141,9246.996334,357.692308)">
                        </g>
                        <g transform="matrix(151.081141,0,0,151.081141,9342.177453,357.692308)">
                        </g>
                    </g>
                </g>
                <g transform="matrix(1.22895,0,0,1.411158,-4911.514667,-217.759915)">
                    <g transform="matrix(0.976024,0,0,1,214.212776,0)">
                        <g transform="matrix(151.081141,0,0,151.081141,8934.560534,357.692308)">
                            <path d="M0.258,0.008C0.188,0.008 0.132,-0.007 0.09,-0.038C0.049,-0.07 0.025,-0.111 0.018,-0.162L0.172,-0.192C0.174,-0.166 0.182,-0.146 0.197,-0.133C0.211,-0.12 0.231,-0.113 0.258,-0.113C0.281,-0.113 0.299,-0.119 0.313,-0.132C0.327,-0.145 0.334,-0.16 0.334,-0.178C0.334,-0.196 0.328,-0.21 0.315,-0.219C0.301,-0.228 0.282,-0.233 0.256,-0.233C0.25,-0.233 0.233,-0.232 0.229,-0.232L0.251,-0.33C0.256,-0.329 0.262,-0.329 0.268,-0.328C0.274,-0.327 0.28,-0.327 0.286,-0.327C0.312,-0.327 0.332,-0.333 0.346,-0.345C0.359,-0.356 0.366,-0.371 0.366,-0.39C0.366,-0.403 0.363,-0.413 0.356,-0.421C0.35,-0.43 0.342,-0.436 0.332,-0.44C0.321,-0.444 0.31,-0.446 0.298,-0.446C0.275,-0.446 0.257,-0.441 0.244,-0.431C0.231,-0.421 0.221,-0.405 0.215,-0.383L0.071,-0.431C0.088,-0.476 0.117,-0.51 0.158,-0.533C0.199,-0.557 0.25,-0.568 0.31,-0.568C0.352,-0.568 0.389,-0.562 0.42,-0.55C0.451,-0.539 0.476,-0.522 0.493,-0.499C0.51,-0.476 0.519,-0.449 0.519,-0.418C0.519,-0.379 0.507,-0.346 0.483,-0.32C0.459,-0.294 0.429,-0.28 0.392,-0.278L0.392,-0.274C0.419,-0.269 0.443,-0.258 0.462,-0.24C0.48,-0.223 0.49,-0.197 0.49,-0.164C0.49,-0.127 0.48,-0.095 0.46,-0.07C0.439,-0.045 0.411,-0.025 0.377,-0.012C0.341,0.001 0.302,0.008 0.258,0.008Z" style="fill:none;fill-rule:nonzero;stroke:white;stroke-width:0.07px;"/>
                        </g>
                        <g transform="matrix(151.081141,0,0,151.081141,8934.560534,357.692308)">
                        </g>
                        <g transform="matrix(151.081141,0,0,151.081141,9016.295431,357.692308)">
                            <path d="M0.011,-0L0.141,-0.56L0.353,-0.56C0.408,-0.56 0.454,-0.55 0.493,-0.531C0.532,-0.512 0.561,-0.484 0.582,-0.449C0.602,-0.413 0.612,-0.37 0.612,-0.321C0.612,-0.257 0.599,-0.201 0.574,-0.152C0.549,-0.104 0.512,-0.067 0.465,-0.04C0.417,-0.013 0.359,-0 0.291,-0L0.011,-0ZM0.208,-0.127L0.283,-0.127C0.318,-0.127 0.348,-0.136 0.372,-0.153C0.396,-0.17 0.414,-0.193 0.426,-0.222C0.439,-0.25 0.445,-0.281 0.445,-0.315C0.445,-0.352 0.436,-0.381 0.419,-0.402C0.402,-0.423 0.374,-0.433 0.337,-0.433L0.279,-0.433L0.208,-0.127Z" style="fill:none;fill-rule:nonzero;stroke:white;stroke-width:0.07px;"/>
                        </g>
                        <g transform="matrix(151.081141,0,0,151.081141,9016.295431,357.692308)">
                        </g>
                        <g transform="matrix(151.081141,0,0,151.081141,9154.987919,357.692308)">
                            <path d="M0.315,0.008C0.264,0.008 0.219,-0.002 0.178,-0.021C0.137,-0.04 0.105,-0.069 0.081,-0.106C0.057,-0.144 0.045,-0.19 0.045,-0.243C0.045,-0.29 0.052,-0.333 0.067,-0.372C0.081,-0.412 0.102,-0.447 0.129,-0.476C0.156,-0.505 0.19,-0.527 0.229,-0.543C0.268,-0.56 0.313,-0.568 0.363,-0.568C0.407,-0.568 0.446,-0.561 0.481,-0.546C0.517,-0.532 0.546,-0.511 0.569,-0.483C0.592,-0.456 0.608,-0.422 0.615,-0.381L0.455,-0.347C0.452,-0.378 0.442,-0.402 0.426,-0.417C0.411,-0.432 0.389,-0.44 0.36,-0.44C0.335,-0.44 0.312,-0.433 0.293,-0.42C0.275,-0.408 0.259,-0.391 0.246,-0.37C0.234,-0.349 0.225,-0.327 0.219,-0.303C0.213,-0.28 0.21,-0.257 0.21,-0.234C0.21,-0.21 0.215,-0.19 0.224,-0.173C0.233,-0.155 0.246,-0.143 0.263,-0.134C0.28,-0.125 0.299,-0.121 0.32,-0.121C0.346,-0.121 0.368,-0.128 0.386,-0.142C0.404,-0.155 0.419,-0.174 0.43,-0.198L0.579,-0.142C0.554,-0.095 0.521,-0.059 0.478,-0.032C0.435,-0.005 0.38,0.008 0.315,0.008Z" style="fill:none;fill-rule:nonzero;stroke:white;stroke-width:0.07px;"/>
                        </g>
                        <g transform="matrix(151.081141,0,0,151.081141,9154.987919,357.692308)">
                        </g>
                        <g transform="matrix(151.081141,0,0,151.081141,9246.996334,357.692308)">
                            <path d="M0.282,0.008C0.238,0.008 0.198,-0.002 0.162,-0.022C0.126,-0.041 0.097,-0.07 0.076,-0.106C0.055,-0.143 0.044,-0.188 0.044,-0.24C0.044,-0.285 0.051,-0.328 0.065,-0.367C0.079,-0.406 0.1,-0.441 0.127,-0.471C0.154,-0.501 0.188,-0.525 0.228,-0.542C0.268,-0.559 0.314,-0.568 0.365,-0.568C0.409,-0.568 0.449,-0.561 0.484,-0.547C0.52,-0.534 0.549,-0.513 0.573,-0.486C0.596,-0.46 0.61,-0.427 0.617,-0.388L0.461,-0.361C0.457,-0.385 0.447,-0.405 0.431,-0.419C0.415,-0.435 0.392,-0.442 0.361,-0.442C0.337,-0.442 0.316,-0.437 0.296,-0.426C0.278,-0.416 0.261,-0.402 0.247,-0.384C0.234,-0.365 0.224,-0.344 0.216,-0.321C0.21,-0.297 0.206,-0.272 0.206,-0.245C0.206,-0.215 0.211,-0.19 0.222,-0.171C0.233,-0.151 0.248,-0.136 0.267,-0.127C0.286,-0.117 0.309,-0.112 0.336,-0.112C0.357,-0.112 0.375,-0.115 0.391,-0.121C0.406,-0.128 0.419,-0.137 0.43,-0.148C0.441,-0.159 0.449,-0.173 0.455,-0.19L0.458,-0.201L0.32,-0.201L0.342,-0.302L0.606,-0.302L0.531,-0L0.425,-0L0.439,-0.063C0.422,-0.04 0.401,-0.023 0.376,-0.011C0.351,0.002 0.319,0.008 0.282,0.008Z" style="fill:none;fill-rule:nonzero;stroke:white;stroke-width:0.07px;"/>
                        </g>
                        <g transform="matrix(151.081141,0,0,151.081141,9246.996334,357.692308)">
                        </g>
                        <g transform="matrix(151.081141,0,0,151.081141,9342.177453,357.692308)">
                        </g>
                    </g>
                    <g transform="matrix(0.976024,0,0,1,214.212776,0)">
                        <g transform="matrix(151.081141,0,0,151.081141,8934.560534,357.692308)">
                            <path d="M0.258,0.008C0.188,0.008 0.132,-0.007 0.09,-0.038C0.049,-0.07 0.025,-0.111 0.018,-0.162L0.172,-0.192C0.174,-0.166 0.182,-0.146 0.197,-0.133C0.211,-0.12 0.231,-0.113 0.258,-0.113C0.281,-0.113 0.299,-0.119 0.313,-0.132C0.327,-0.145 0.334,-0.16 0.334,-0.178C0.334,-0.196 0.328,-0.21 0.315,-0.219C0.301,-0.228 0.282,-0.233 0.256,-0.233C0.25,-0.233 0.233,-0.232 0.229,-0.232L0.251,-0.33C0.256,-0.329 0.262,-0.329 0.268,-0.328C0.274,-0.327 0.28,-0.327 0.286,-0.327C0.312,-0.327 0.332,-0.333 0.346,-0.345C0.359,-0.356 0.366,-0.371 0.366,-0.39C0.366,-0.403 0.363,-0.413 0.356,-0.421C0.35,-0.43 0.342,-0.436 0.332,-0.44C0.321,-0.444 0.31,-0.446 0.298,-0.446C0.275,-0.446 0.257,-0.441 0.244,-0.431C0.231,-0.421 0.221,-0.405 0.215,-0.383L0.071,-0.431C0.088,-0.476 0.117,-0.51 0.158,-0.533C0.199,-0.557 0.25,-0.568 0.31,-0.568C0.352,-0.568 0.389,-0.562 0.42,-0.55C0.451,-0.539 0.476,-0.522 0.493,-0.499C0.51,-0.476 0.519,-0.449 0.519,-0.418C0.519,-0.379 0.507,-0.346 0.483,-0.32C0.459,-0.294 0.429,-0.28 0.392,-0.278L0.392,-0.274C0.419,-0.269 0.443,-0.258 0.462,-0.24C0.48,-0.223 0.49,-0.197 0.49,-0.164C0.49,-0.127 0.48,-0.095 0.46,-0.07C0.439,-0.045 0.411,-0.025 0.377,-0.012C0.341,0.001 0.302,0.008 0.258,0.008Z" style="fill:rgb(35,31,32);fill-rule:nonzero;"/>
                        </g>
                        <g transform="matrix(151.081141,0,0,151.081141,8934.560534,357.692308)">
                        </g>
                        <g transform="matrix(151.081141,0,0,151.081141,9016.295431,357.692308)">
                            <path d="M0.011,-0L0.141,-0.56L0.353,-0.56C0.408,-0.56 0.454,-0.55 0.493,-0.531C0.532,-0.512 0.561,-0.484 0.582,-0.449C0.602,-0.413 0.612,-0.37 0.612,-0.321C0.612,-0.257 0.599,-0.201 0.574,-0.152C0.549,-0.104 0.512,-0.067 0.465,-0.04C0.417,-0.013 0.359,-0 0.291,-0L0.011,-0ZM0.208,-0.127L0.283,-0.127C0.318,-0.127 0.348,-0.136 0.372,-0.153C0.396,-0.17 0.414,-0.193 0.426,-0.222C0.439,-0.25 0.445,-0.281 0.445,-0.315C0.445,-0.352 0.436,-0.381 0.419,-0.402C0.402,-0.423 0.374,-0.433 0.337,-0.433L0.279,-0.433L0.208,-0.127Z" style="fill:rgb(35,31,32);fill-rule:nonzero;"/>
                        </g>
                        <g transform="matrix(151.081141,0,0,151.081141,9016.295431,357.692308)">
                        </g>
                        <g transform="matrix(151.081141,0,0,151.081141,9154.987919,357.692308)">
                            <path d="M0.315,0.008C0.264,0.008 0.219,-0.002 0.178,-0.021C0.137,-0.04 0.105,-0.069 0.081,-0.106C0.057,-0.144 0.045,-0.19 0.045,-0.243C0.045,-0.29 0.052,-0.333 0.067,-0.372C0.081,-0.412 0.102,-0.447 0.129,-0.476C0.156,-0.505 0.19,-0.527 0.229,-0.543C0.268,-0.56 0.313,-0.568 0.363,-0.568C0.407,-0.568 0.446,-0.561 0.481,-0.546C0.517,-0.532 0.546,-0.511 0.569,-0.483C0.592,-0.456 0.608,-0.422 0.615,-0.381L0.455,-0.347C0.452,-0.378 0.442,-0.402 0.426,-0.417C0.411,-0.432 0.389,-0.44 0.36,-0.44C0.335,-0.44 0.312,-0.433 0.293,-0.42C0.275,-0.408 0.259,-0.391 0.246,-0.37C0.234,-0.349 0.225,-0.327 0.219,-0.303C0.213,-0.28 0.21,-0.257 0.21,-0.234C0.21,-0.21 0.215,-0.19 0.224,-0.173C0.233,-0.155 0.246,-0.143 0.263,-0.134C0.28,-0.125 0.299,-0.121 0.32,-0.121C0.346,-0.121 0.368,-0.128 0.386,-0.142C0.404,-0.155 0.419,-0.174 0.43,-0.198L0.579,-0.142C0.554,-0.095 0.521,-0.059 0.478,-0.032C0.435,-0.005 0.38,0.008 0.315,0.008Z" style="fill:rgb(35,31,32);fill-rule:nonzero;"/>
                        </g>
                        <g transform="matrix(151.081141,0,0,151.081141,9154.987919,357.692308)">
                        </g>
                        <g transform="matrix(151.081141,0,0,151.081141,9246.996334,357.692308)">
                            <path d="M0.282,0.008C0.238,0.008 0.198,-0.002 0.162,-0.022C0.126,-0.041 0.097,-0.07 0.076,-0.106C0.055,-0.143 0.044,-0.188 0.044,-0.24C0.044,-0.285 0.051,-0.328 0.065,-0.367C0.079,-0.406 0.1,-0.441 0.127,-0.471C0.154,-0.501 0.188,-0.525 0.228,-0.542C0.268,-0.559 0.314,-0.568 0.365,-0.568C0.409,-0.568 0.449,-0.561 0.484,-0.547C0.52,-0.534 0.549,-0.513 0.573,-0.486C0.596,-0.46 0.61,-0.427 0.617,-0.388L0.461,-0.361C0.457,-0.385 0.447,-0.405 0.431,-0.419C0.415,-0.435 0.392,-0.442 0.361,-0.442C0.337,-0.442 0.316,-0.437 0.296,-0.426C0.278,-0.416 0.261,-0.402 0.247,-0.384C0.234,-0.365 0.224,-0.344 0.216,-0.321C0.21,-0.297 0.206,-0.272 0.206,-0.245C0.206,-0.215 0.211,-0.19 0.222,-0.171C0.233,-0.151 0.248,-0.136 0.267,-0.127C0.286,-0.117 0.309,-0.112 0.336,-0.112C0.357,-0.112 0.375,-0.115 0.391,-0.121C0.406,-0.128 0.419,-0.137 0.43,-0.148C0.441,-0.159 0.449,-0.173 0.455,-0.19L0.458,-0.201L0.32,-0.201L0.342,-0.302L0.606,-0.302L0.531,-0L0.425,-0L0.439,-0.063C0.422,-0.04 0.401,-0.023 0.376,-0.011C0.351,0.002 0.319,0.008 0.282,0.008Z" style="fill:rgb(35,31,32);fill-rule:nonzero;"/>
                        </g>
                        <g transform="matrix(151.081141,0,0,151.081141,9246.996334,357.692308)">
                        </g>
                        <g transform="matrix(151.081141,0,0,151.081141,9342.177453,357.692308)">
                        </g>
                    </g>
                </g>
            </g>
        </g>
    </g>
</svg>
