<?xml version="1.0" encoding="UTF-8" standalone="no"?>
<!DOCTYPE svg PUBLIC "-//W3C//DTD SVG 1.1//EN" "http://www.w3.org/Graphics/SVG/1.1/DTD/svg11.dtd">
<svg width="100%" height="100%" viewBox="0 0 750 159" version="1.1" xmlns="http://www.w3.org/2000/svg" xmlns:xlink="http://www.w3.org/1999/xlink" xml:space="preserve" xmlns:serif="http://www.serif.com/" style="fill-rule:evenodd;clip-rule:evenodd;stroke-linejoin:round;stroke-miterlimit:2;">
    <g transform="matrix(1,0,0,1,-3846.496345,-3086.768515)">
        <g transform="matrix(0.938089,0,0,0.938089,-2064.928872,2367.03641)">
            <g transform="matrix(1,0,0,1,378.1015,629.544468)">
                <g transform="matrix(1.205672,0,0,1.411158,-4698.840124,-207.099944)">
                    <g transform="matrix(0.976024,0,0,1,211.298659,0)">
                        <g transform="matrix(151.081141,0,0,151.081141,8916.355673,357.692308)">
                            <path d="M0.313,0.008C0.263,0.008 0.218,-0.002 0.177,-0.022C0.137,-0.041 0.105,-0.07 0.081,-0.107C0.057,-0.144 0.045,-0.189 0.045,-0.242C0.045,-0.289 0.052,-0.333 0.066,-0.372C0.079,-0.411 0.099,-0.446 0.126,-0.476C0.153,-0.505 0.186,-0.528 0.225,-0.544C0.264,-0.561 0.31,-0.569 0.361,-0.569C0.411,-0.569 0.456,-0.559 0.496,-0.539C0.537,-0.519 0.569,-0.49 0.593,-0.453C0.616,-0.416 0.628,-0.371 0.628,-0.318C0.628,-0.272 0.621,-0.229 0.608,-0.189C0.594,-0.149 0.574,-0.114 0.547,-0.085C0.52,-0.056 0.487,-0.033 0.449,-0.017C0.409,-0 0.364,0.008 0.313,0.008ZM0.317,-0.121C0.342,-0.121 0.363,-0.127 0.382,-0.14C0.4,-0.152 0.415,-0.168 0.427,-0.189C0.439,-0.209 0.448,-0.231 0.454,-0.255C0.459,-0.279 0.462,-0.302 0.462,-0.325C0.462,-0.35 0.458,-0.371 0.449,-0.389C0.44,-0.406 0.428,-0.418 0.412,-0.427C0.396,-0.436 0.377,-0.44 0.356,-0.44C0.331,-0.44 0.31,-0.434 0.291,-0.421C0.273,-0.409 0.258,-0.393 0.246,-0.372C0.234,-0.352 0.225,-0.33 0.219,-0.306C0.213,-0.282 0.21,-0.259 0.21,-0.236C0.21,-0.211 0.214,-0.19 0.224,-0.173C0.233,-0.155 0.245,-0.143 0.261,-0.134C0.277,-0.125 0.296,-0.121 0.317,-0.121Z" style="fill:none;fill-rule:nonzero;stroke:rgb(243,109,33);stroke-width:0.07px;"/>
                        </g>
                        <g transform="matrix(151.081141,0,0,151.081141,8916.355673,357.692308)">
                        </g>
                        <g transform="matrix(151.081141,0,0,151.081141,9015.31382,357.692308)">
                            <path d="M0.011,-0L0.141,-0.56L0.321,-0.56L0.419,-0.267L0.447,-0.174L0.45,-0.174L0.474,-0.302L0.533,-0.56L0.689,-0.56L0.559,-0L0.381,-0L0.279,-0.305L0.254,-0.39L0.252,-0.39L0.225,-0.246L0.167,-0L0.011,-0Z" style="fill:none;fill-rule:nonzero;stroke:rgb(243,109,33);stroke-width:0.07px;"/>
                        </g>
                        <g transform="matrix(151.081141,0,0,151.081141,9015.31382,357.692308)">
                        </g>
                        <g transform="matrix(151.081141,0,0,151.081141,9118.351159,357.692308)">
                            <path d="M0.16,-0L0.26,-0.432L0.071,-0.432L0.1,-0.56L0.647,-0.56L0.617,-0.432L0.429,-0.432L0.329,-0L0.16,-0Z" style="fill:none;fill-rule:nonzero;stroke:rgb(243,109,33);stroke-width:0.07px;"/>
                        </g>
                        <g transform="matrix(151.081141,0,0,151.081141,9106.432143,357.692308)">
                        </g>
                        <g transform="matrix(151.081141,0,0,151.081141,9196.929747,357.692308)">
                            <path d="M-0.051,-0L0.282,-0.56L0.487,-0.56L0.561,-0L0.405,-0L0.391,-0.118L0.184,-0.118L0.116,-0L-0.051,-0ZM0.245,-0.231L0.38,-0.231L0.356,-0.437L0.245,-0.231Z" style="fill:none;fill-rule:nonzero;stroke:rgb(243,109,33);stroke-width:0.07px;"/>
                        </g>
                        <g transform="matrix(151.081141,0,0,151.081141,9193.214729,357.692308)">
                        </g>
                        <g transform="matrix(151.081141,0,0,151.081141,9287.187199,357.692308)">
                            <path d="M0.315,0.008C0.264,0.008 0.219,-0.002 0.178,-0.021C0.137,-0.04 0.105,-0.069 0.081,-0.106C0.057,-0.144 0.045,-0.19 0.045,-0.243C0.045,-0.29 0.052,-0.333 0.067,-0.372C0.081,-0.412 0.102,-0.447 0.129,-0.476C0.156,-0.505 0.19,-0.527 0.229,-0.543C0.268,-0.56 0.313,-0.568 0.363,-0.568C0.407,-0.568 0.446,-0.561 0.481,-0.546C0.517,-0.532 0.546,-0.511 0.569,-0.483C0.592,-0.456 0.608,-0.422 0.615,-0.381L0.455,-0.347C0.452,-0.378 0.442,-0.402 0.426,-0.417C0.411,-0.432 0.389,-0.44 0.36,-0.44C0.335,-0.44 0.312,-0.433 0.293,-0.42C0.275,-0.408 0.259,-0.391 0.246,-0.37C0.234,-0.349 0.225,-0.327 0.219,-0.303C0.213,-0.28 0.21,-0.257 0.21,-0.234C0.21,-0.21 0.215,-0.19 0.224,-0.173C0.233,-0.155 0.246,-0.143 0.263,-0.134C0.28,-0.125 0.299,-0.121 0.32,-0.121C0.346,-0.121 0.368,-0.128 0.386,-0.142C0.404,-0.155 0.419,-0.174 0.43,-0.198L0.579,-0.142C0.554,-0.095 0.521,-0.059 0.478,-0.032C0.435,-0.005 0.38,0.008 0.315,0.008Z" style="fill:none;fill-rule:nonzero;stroke:rgb(243,109,33);stroke-width:0.07px;"/>
                        </g>
                        <g transform="matrix(151.081141,0,0,151.081141,9287.187199,357.692308)">
                        </g>
                        <g transform="matrix(151.081141,0,0,151.081141,9379.195614,357.692308)">
                            <path d="M0.16,-0L0.26,-0.432L0.071,-0.432L0.1,-0.56L0.647,-0.56L0.617,-0.432L0.429,-0.432L0.329,-0L0.16,-0Z" style="fill:none;fill-rule:nonzero;stroke:rgb(243,109,33);stroke-width:0.07px;"/>
                        </g>
                        <g transform="matrix(151.081141,0,0,151.081141,9379.195614,357.692308)">
                        </g>
                        <g transform="matrix(151.081141,0,0,151.081141,9469.693218,357.692308)">
                        </g>
                        <text x="8813.016px" y="357.692px" style="font-family:'WorkSans-BoldItalic', 'Work Sans';font-weight:700;font-style:italic;font-size:151.081px;fill:none;stroke:rgb(243,109,33);stroke-width:9.96px;">C</text>
                    </g>
                    <g transform="matrix(0.976024,0,0,1,211.298659,0)">
                        <g transform="matrix(151.081141,0,0,151.081141,8916.355673,357.692308)">
                            <path d="M0.313,0.008C0.263,0.008 0.218,-0.002 0.177,-0.022C0.137,-0.041 0.105,-0.07 0.081,-0.107C0.057,-0.144 0.045,-0.189 0.045,-0.242C0.045,-0.289 0.052,-0.333 0.066,-0.372C0.079,-0.411 0.099,-0.446 0.126,-0.476C0.153,-0.505 0.186,-0.528 0.225,-0.544C0.264,-0.561 0.31,-0.569 0.361,-0.569C0.411,-0.569 0.456,-0.559 0.496,-0.539C0.537,-0.519 0.569,-0.49 0.593,-0.453C0.616,-0.416 0.628,-0.371 0.628,-0.318C0.628,-0.272 0.621,-0.229 0.608,-0.189C0.594,-0.149 0.574,-0.114 0.547,-0.085C0.52,-0.056 0.487,-0.033 0.449,-0.017C0.409,-0 0.364,0.008 0.313,0.008ZM0.317,-0.121C0.342,-0.121 0.363,-0.127 0.382,-0.14C0.4,-0.152 0.415,-0.168 0.427,-0.189C0.439,-0.209 0.448,-0.231 0.454,-0.255C0.459,-0.279 0.462,-0.302 0.462,-0.325C0.462,-0.35 0.458,-0.371 0.449,-0.389C0.44,-0.406 0.428,-0.418 0.412,-0.427C0.396,-0.436 0.377,-0.44 0.356,-0.44C0.331,-0.44 0.31,-0.434 0.291,-0.421C0.273,-0.409 0.258,-0.393 0.246,-0.372C0.234,-0.352 0.225,-0.33 0.219,-0.306C0.213,-0.282 0.21,-0.259 0.21,-0.236C0.21,-0.211 0.214,-0.19 0.224,-0.173C0.233,-0.155 0.245,-0.143 0.261,-0.134C0.277,-0.125 0.296,-0.121 0.317,-0.121Z" style="fill:rgb(243,109,33);fill-rule:nonzero;"/>
                        </g>
                        <g transform="matrix(151.081141,0,0,151.081141,8916.355673,357.692308)">
                        </g>
                        <g transform="matrix(151.081141,0,0,151.081141,9015.31382,357.692308)">
                            <path d="M0.011,-0L0.141,-0.56L0.321,-0.56L0.419,-0.267L0.447,-0.174L0.45,-0.174L0.474,-0.302L0.533,-0.56L0.689,-0.56L0.559,-0L0.381,-0L0.279,-0.305L0.254,-0.39L0.252,-0.39L0.225,-0.246L0.167,-0L0.011,-0Z" style="fill:rgb(243,109,33);fill-rule:nonzero;"/>
                        </g>
                        <g transform="matrix(151.081141,0,0,151.081141,9015.31382,357.692308)">
                        </g>
                        <g transform="matrix(151.081141,0,0,151.081141,9118.351159,357.692308)">
                            <path d="M0.16,-0L0.26,-0.432L0.071,-0.432L0.1,-0.56L0.647,-0.56L0.617,-0.432L0.429,-0.432L0.329,-0L0.16,-0Z" style="fill:rgb(243,109,33);fill-rule:nonzero;"/>
                        </g>
                        <g transform="matrix(151.081141,0,0,151.081141,9106.432143,357.692308)">
                        </g>
                        <g transform="matrix(151.081141,0,0,151.081141,9196.929747,357.692308)">
                            <path d="M-0.051,-0L0.282,-0.56L0.487,-0.56L0.561,-0L0.405,-0L0.391,-0.118L0.184,-0.118L0.116,-0L-0.051,-0ZM0.245,-0.231L0.38,-0.231L0.356,-0.437L0.245,-0.231Z" style="fill:rgb(243,109,33);fill-rule:nonzero;"/>
                        </g>
                        <g transform="matrix(151.081141,0,0,151.081141,9193.214729,357.692308)">
                        </g>
                        <g transform="matrix(151.081141,0,0,151.081141,9287.187199,357.692308)">
                            <path d="M0.315,0.008C0.264,0.008 0.219,-0.002 0.178,-0.021C0.137,-0.04 0.105,-0.069 0.081,-0.106C0.057,-0.144 0.045,-0.19 0.045,-0.243C0.045,-0.29 0.052,-0.333 0.067,-0.372C0.081,-0.412 0.102,-0.447 0.129,-0.476C0.156,-0.505 0.19,-0.527 0.229,-0.543C0.268,-0.56 0.313,-0.568 0.363,-0.568C0.407,-0.568 0.446,-0.561 0.481,-0.546C0.517,-0.532 0.546,-0.511 0.569,-0.483C0.592,-0.456 0.608,-0.422 0.615,-0.381L0.455,-0.347C0.452,-0.378 0.442,-0.402 0.426,-0.417C0.411,-0.432 0.389,-0.44 0.36,-0.44C0.335,-0.44 0.312,-0.433 0.293,-0.42C0.275,-0.408 0.259,-0.391 0.246,-0.37C0.234,-0.349 0.225,-0.327 0.219,-0.303C0.213,-0.28 0.21,-0.257 0.21,-0.234C0.21,-0.21 0.215,-0.19 0.224,-0.173C0.233,-0.155 0.246,-0.143 0.263,-0.134C0.28,-0.125 0.299,-0.121 0.32,-0.121C0.346,-0.121 0.368,-0.128 0.386,-0.142C0.404,-0.155 0.419,-0.174 0.43,-0.198L0.579,-0.142C0.554,-0.095 0.521,-0.059 0.478,-0.032C0.435,-0.005 0.38,0.008 0.315,0.008Z" style="fill:rgb(243,109,33);fill-rule:nonzero;"/>
                        </g>
                        <g transform="matrix(151.081141,0,0,151.081141,9287.187199,357.692308)">
                        </g>
                        <g transform="matrix(151.081141,0,0,151.081141,9379.195614,357.692308)">
                            <path d="M0.16,-0L0.26,-0.432L0.071,-0.432L0.1,-0.56L0.647,-0.56L0.617,-0.432L0.429,-0.432L0.329,-0L0.16,-0Z" style="fill:rgb(243,109,33);fill-rule:nonzero;"/>
                        </g>
                        <g transform="matrix(151.081141,0,0,151.081141,9379.195614,357.692308)">
                        </g>
                        <g transform="matrix(151.081141,0,0,151.081141,9469.693218,357.692308)">
                        </g>
                        <text x="8813.016px" y="357.692px" style="font-family:'WorkSans-BoldItalic', 'Work Sans';font-weight:700;font-style:italic;font-size:151.081px;fill:rgb(243,109,33);">C</text>
                    </g>
                </g>
                <g transform="matrix(1.22895,0,0,1.411158,-4911.514667,-217.759915)">
                    <g transform="matrix(0.976024,0,0,1,211.298659,0)">
                        <g transform="matrix(151.081141,0,0,151.081141,8916.355673,357.692308)">
                            <path d="M0.313,0.008C0.263,0.008 0.218,-0.002 0.177,-0.022C0.137,-0.041 0.105,-0.07 0.081,-0.107C0.057,-0.144 0.045,-0.189 0.045,-0.242C0.045,-0.289 0.052,-0.333 0.066,-0.372C0.079,-0.411 0.099,-0.446 0.126,-0.476C0.153,-0.505 0.186,-0.528 0.225,-0.544C0.264,-0.561 0.31,-0.569 0.361,-0.569C0.411,-0.569 0.456,-0.559 0.496,-0.539C0.537,-0.519 0.569,-0.49 0.593,-0.453C0.616,-0.416 0.628,-0.371 0.628,-0.318C0.628,-0.272 0.621,-0.229 0.608,-0.189C0.594,-0.149 0.574,-0.114 0.547,-0.085C0.52,-0.056 0.487,-0.033 0.449,-0.017C0.409,-0 0.364,0.008 0.313,0.008ZM0.317,-0.121C0.342,-0.121 0.363,-0.127 0.382,-0.14C0.4,-0.152 0.415,-0.168 0.427,-0.189C0.439,-0.209 0.448,-0.231 0.454,-0.255C0.459,-0.279 0.462,-0.302 0.462,-0.325C0.462,-0.35 0.458,-0.371 0.449,-0.389C0.44,-0.406 0.428,-0.418 0.412,-0.427C0.396,-0.436 0.377,-0.44 0.356,-0.44C0.331,-0.44 0.31,-0.434 0.291,-0.421C0.273,-0.409 0.258,-0.393 0.246,-0.372C0.234,-0.352 0.225,-0.33 0.219,-0.306C0.213,-0.282 0.21,-0.259 0.21,-0.236C0.21,-0.211 0.214,-0.19 0.224,-0.173C0.233,-0.155 0.245,-0.143 0.261,-0.134C0.277,-0.125 0.296,-0.121 0.317,-0.121Z" style="fill:none;fill-rule:nonzero;stroke:white;stroke-width:0.07px;"/>
                        </g>
                        <g transform="matrix(151.081141,0,0,151.081141,8916.355673,357.692308)">
                        </g>
                        <g transform="matrix(151.081141,0,0,151.081141,9015.31382,357.692308)">
                            <path d="M0.011,-0L0.141,-0.56L0.321,-0.56L0.419,-0.267L0.447,-0.174L0.45,-0.174L0.474,-0.302L0.533,-0.56L0.689,-0.56L0.559,-0L0.381,-0L0.279,-0.305L0.254,-0.39L0.252,-0.39L0.225,-0.246L0.167,-0L0.011,-0Z" style="fill:none;fill-rule:nonzero;stroke:white;stroke-width:0.07px;"/>
                        </g>
                        <g transform="matrix(151.081141,0,0,151.081141,9015.31382,357.692308)">
                        </g>
                        <g transform="matrix(151.081141,0,0,151.081141,9118.351159,357.692308)">
                            <path d="M0.16,-0L0.26,-0.432L0.071,-0.432L0.1,-0.56L0.647,-0.56L0.617,-0.432L0.429,-0.432L0.329,-0L0.16,-0Z" style="fill:none;fill-rule:nonzero;stroke:white;stroke-width:0.07px;"/>
                        </g>
                        <g transform="matrix(151.081141,0,0,151.081141,9106.432143,357.692308)">
                        </g>
                        <g transform="matrix(151.081141,0,0,151.081141,9196.929747,357.692308)">
                            <path d="M-0.051,-0L0.282,-0.56L0.487,-0.56L0.561,-0L0.405,-0L0.391,-0.118L0.184,-0.118L0.116,-0L-0.051,-0ZM0.245,-0.231L0.38,-0.231L0.356,-0.437L0.245,-0.231Z" style="fill:none;fill-rule:nonzero;stroke:white;stroke-width:0.07px;"/>
                        </g>
                        <g transform="matrix(151.081141,0,0,151.081141,9193.214729,357.692308)">
                        </g>
                        <g transform="matrix(151.081141,0,0,151.081141,9287.187199,357.692308)">
                            <path d="M0.315,0.008C0.264,0.008 0.219,-0.002 0.178,-0.021C0.137,-0.04 0.105,-0.069 0.081,-0.106C0.057,-0.144 0.045,-0.19 0.045,-0.243C0.045,-0.29 0.052,-0.333 0.067,-0.372C0.081,-0.412 0.102,-0.447 0.129,-0.476C0.156,-0.505 0.19,-0.527 0.229,-0.543C0.268,-0.56 0.313,-0.568 0.363,-0.568C0.407,-0.568 0.446,-0.561 0.481,-0.546C0.517,-0.532 0.546,-0.511 0.569,-0.483C0.592,-0.456 0.608,-0.422 0.615,-0.381L0.455,-0.347C0.452,-0.378 0.442,-0.402 0.426,-0.417C0.411,-0.432 0.389,-0.44 0.36,-0.44C0.335,-0.44 0.312,-0.433 0.293,-0.42C0.275,-0.408 0.259,-0.391 0.246,-0.37C0.234,-0.349 0.225,-0.327 0.219,-0.303C0.213,-0.28 0.21,-0.257 0.21,-0.234C0.21,-0.21 0.215,-0.19 0.224,-0.173C0.233,-0.155 0.246,-0.143 0.263,-0.134C0.28,-0.125 0.299,-0.121 0.32,-0.121C0.346,-0.121 0.368,-0.128 0.386,-0.142C0.404,-0.155 0.419,-0.174 0.43,-0.198L0.579,-0.142C0.554,-0.095 0.521,-0.059 0.478,-0.032C0.435,-0.005 0.38,0.008 0.315,0.008Z" style="fill:none;fill-rule:nonzero;stroke:white;stroke-width:0.07px;"/>
                        </g>
                        <g transform="matrix(151.081141,0,0,151.081141,9287.187199,357.692308)">
                        </g>
                        <g transform="matrix(151.081141,0,0,151.081141,9379.195614,357.692308)">
                            <path d="M0.16,-0L0.26,-0.432L0.071,-0.432L0.1,-0.56L0.647,-0.56L0.617,-0.432L0.429,-0.432L0.329,-0L0.16,-0Z" style="fill:none;fill-rule:nonzero;stroke:white;stroke-width:0.07px;"/>
                        </g>
                        <g transform="matrix(151.081141,0,0,151.081141,9379.195614,357.692308)">
                        </g>
                        <g transform="matrix(151.081141,0,0,151.081141,9469.693218,357.692308)">
                        </g>
                        <text x="8813.016px" y="357.692px" style="font-family:'WorkSans-BoldItalic', 'Work Sans';font-weight:700;font-style:italic;font-size:151.081px;fill:none;stroke:white;stroke-width:9.88px;">C</text>
                    </g>
                    <g transform="matrix(0.976024,0,0,1,211.298659,0)">
                        <g transform="matrix(151.081141,0,0,151.081141,8916.355673,357.692308)">
                            <path d="M0.313,0.008C0.263,0.008 0.218,-0.002 0.177,-0.022C0.137,-0.041 0.105,-0.07 0.081,-0.107C0.057,-0.144 0.045,-0.189 0.045,-0.242C0.045,-0.289 0.052,-0.333 0.066,-0.372C0.079,-0.411 0.099,-0.446 0.126,-0.476C0.153,-0.505 0.186,-0.528 0.225,-0.544C0.264,-0.561 0.31,-0.569 0.361,-0.569C0.411,-0.569 0.456,-0.559 0.496,-0.539C0.537,-0.519 0.569,-0.49 0.593,-0.453C0.616,-0.416 0.628,-0.371 0.628,-0.318C0.628,-0.272 0.621,-0.229 0.608,-0.189C0.594,-0.149 0.574,-0.114 0.547,-0.085C0.52,-0.056 0.487,-0.033 0.449,-0.017C0.409,-0 0.364,0.008 0.313,0.008ZM0.317,-0.121C0.342,-0.121 0.363,-0.127 0.382,-0.14C0.4,-0.152 0.415,-0.168 0.427,-0.189C0.439,-0.209 0.448,-0.231 0.454,-0.255C0.459,-0.279 0.462,-0.302 0.462,-0.325C0.462,-0.35 0.458,-0.371 0.449,-0.389C0.44,-0.406 0.428,-0.418 0.412,-0.427C0.396,-0.436 0.377,-0.44 0.356,-0.44C0.331,-0.44 0.31,-0.434 0.291,-0.421C0.273,-0.409 0.258,-0.393 0.246,-0.372C0.234,-0.352 0.225,-0.33 0.219,-0.306C0.213,-0.282 0.21,-0.259 0.21,-0.236C0.21,-0.211 0.214,-0.19 0.224,-0.173C0.233,-0.155 0.245,-0.143 0.261,-0.134C0.277,-0.125 0.296,-0.121 0.317,-0.121Z" style="fill:rgb(35,31,32);fill-rule:nonzero;"/>
                        </g>
                        <g transform="matrix(151.081141,0,0,151.081141,8916.355673,357.692308)">
                        </g>
                        <g transform="matrix(151.081141,0,0,151.081141,9015.31382,357.692308)">
                            <path d="M0.011,-0L0.141,-0.56L0.321,-0.56L0.419,-0.267L0.447,-0.174L0.45,-0.174L0.474,-0.302L0.533,-0.56L0.689,-0.56L0.559,-0L0.381,-0L0.279,-0.305L0.254,-0.39L0.252,-0.39L0.225,-0.246L0.167,-0L0.011,-0Z" style="fill:rgb(35,31,32);fill-rule:nonzero;"/>
                        </g>
                        <g transform="matrix(151.081141,0,0,151.081141,9015.31382,357.692308)">
                        </g>
                        <g transform="matrix(151.081141,0,0,151.081141,9118.351159,357.692308)">
                            <path d="M0.16,-0L0.26,-0.432L0.071,-0.432L0.1,-0.56L0.647,-0.56L0.617,-0.432L0.429,-0.432L0.329,-0L0.16,-0Z" style="fill:rgb(35,31,32);fill-rule:nonzero;"/>
                        </g>
                        <g transform="matrix(151.081141,0,0,151.081141,9106.432143,357.692308)">
                        </g>
                        <g transform="matrix(151.081141,0,0,151.081141,9196.929747,357.692308)">
                            <path d="M-0.051,-0L0.282,-0.56L0.487,-0.56L0.561,-0L0.405,-0L0.391,-0.118L0.184,-0.118L0.116,-0L-0.051,-0ZM0.245,-0.231L0.38,-0.231L0.356,-0.437L0.245,-0.231Z" style="fill:rgb(35,31,32);fill-rule:nonzero;"/>
                        </g>
                        <g transform="matrix(151.081141,0,0,151.081141,9193.214729,357.692308)">
                        </g>
                        <g transform="matrix(151.081141,0,0,151.081141,9287.187199,357.692308)">
                            <path d="M0.315,0.008C0.264,0.008 0.219,-0.002 0.178,-0.021C0.137,-0.04 0.105,-0.069 0.081,-0.106C0.057,-0.144 0.045,-0.19 0.045,-0.243C0.045,-0.29 0.052,-0.333 0.067,-0.372C0.081,-0.412 0.102,-0.447 0.129,-0.476C0.156,-0.505 0.19,-0.527 0.229,-0.543C0.268,-0.56 0.313,-0.568 0.363,-0.568C0.407,-0.568 0.446,-0.561 0.481,-0.546C0.517,-0.532 0.546,-0.511 0.569,-0.483C0.592,-0.456 0.608,-0.422 0.615,-0.381L0.455,-0.347C0.452,-0.378 0.442,-0.402 0.426,-0.417C0.411,-0.432 0.389,-0.44 0.36,-0.44C0.335,-0.44 0.312,-0.433 0.293,-0.42C0.275,-0.408 0.259,-0.391 0.246,-0.37C0.234,-0.349 0.225,-0.327 0.219,-0.303C0.213,-0.28 0.21,-0.257 0.21,-0.234C0.21,-0.21 0.215,-0.19 0.224,-0.173C0.233,-0.155 0.246,-0.143 0.263,-0.134C0.28,-0.125 0.299,-0.121 0.32,-0.121C0.346,-0.121 0.368,-0.128 0.386,-0.142C0.404,-0.155 0.419,-0.174 0.43,-0.198L0.579,-0.142C0.554,-0.095 0.521,-0.059 0.478,-0.032C0.435,-0.005 0.38,0.008 0.315,0.008Z" style="fill:rgb(35,31,32);fill-rule:nonzero;"/>
                        </g>
                        <g transform="matrix(151.081141,0,0,151.081141,9287.187199,357.692308)">
                        </g>
                        <g transform="matrix(151.081141,0,0,151.081141,9379.195614,357.692308)">
                            <path d="M0.16,-0L0.26,-0.432L0.071,-0.432L0.1,-0.56L0.647,-0.56L0.617,-0.432L0.429,-0.432L0.329,-0L0.16,-0Z" style="fill:rgb(35,31,32);fill-rule:nonzero;"/>
                        </g>
                        <g transform="matrix(151.081141,0,0,151.081141,9379.195614,357.692308)">
                        </g>
                        <g transform="matrix(151.081141,0,0,151.081141,9469.693218,357.692308)">
                        </g>
                        <text x="8813.016px" y="357.692px" style="font-family:'WorkSans-BoldItalic', 'Work Sans';font-weight:700;font-style:italic;font-size:151.081px;fill:rgb(35,31,32);">C</text>
                    </g>
                </g>
            </g>
        </g>
    </g>
</svg>
