<?xml version="1.0" encoding="UTF-8" standalone="no"?><!DOCTYPE svg PUBLIC "-//W3C//DTD SVG 1.1//EN" "http://www.w3.org/Graphics/SVG/1.1/DTD/svg11.dtd"><svg width="100%" height="100%" viewBox="0 0 763 159" version="1.1" xmlns="http://www.w3.org/2000/svg" xmlns:xlink="http://www.w3.org/1999/xlink" xml:space="preserve" xmlns:serif="http://www.serif.com/" style="fill-rule:evenodd;clip-rule:evenodd;stroke-linejoin:round;stroke-miterlimit:2;"><rect id="Artboard1" x="-76.485" y="-101.999" width="911" height="342" style="fill:none;"/><g><g><path d="M173.31,151.669c-8.339,0 -15.844,-2 -22.682,-6c-6.671,-3.8 -12.008,-9.6 -16.011,-17c-4.003,-7.4 -6.004,-16.4 -6.004,-27c0,-9.4 1.167,-18.2 3.502,-26c2.168,-7.8 5.504,-14.8 10.007,-20.8c4.503,-5.8 10.007,-10.4 16.511,-13.6c6.504,-3.4 14.176,-5 22.682,-5c8.339,0 15.844,2 22.515,6c6.838,4 12.175,9.8 16.178,17.2c3.836,7.4 5.837,16.4 5.837,27c0,9.2 -1.167,17.8 -3.336,25.8c-2.335,8 -5.671,15 -10.174,20.8c-4.503,5.8 -10.007,10.4 -16.344,13.6c-6.671,3.4 -14.176,5 -22.682,5Zm0.667,-25.8c4.17,0 7.672,-1.2 10.841,-3.8c3.002,-2.4 5.504,-5.6 7.505,-9.8c2.001,-4 3.502,-8.4 4.503,-13.2c0.834,-4.8 1.334,-9.4 1.334,-14c0,-5 -0.667,-9.2 -2.168,-12.8c-1.501,-3.4 -3.502,-5.8 -6.171,-7.6c-2.668,-1.8 -5.837,-2.6 -9.34,-2.6c-4.17,0 -7.672,1.2 -10.841,3.8c-3.002,2.4 -5.504,5.6 -7.505,9.8c-2.001,4 -3.502,8.4 -4.503,13.2c-1.001,4.8 -1.501,9.4 -1.501,14c0,5 0.667,9.2 2.335,12.6c1.501,3.6 3.502,6 6.171,7.8c2.668,1.8 5.837,2.6 9.34,2.6Z" style="fill:none;fill-rule:nonzero;stroke:#f36d21;stroke-width:12.89px;"/></g><g><path d="M232.184,150.069l21.681,-112l30.02,0l16.344,58.6l4.67,18.6l0.5,0l4.003,-25.6l9.84,-51.6l26.018,0l-21.681,112l-29.687,0l-17.012,-61l-4.17,-17l-0.334,0l-4.503,28.8l-9.673,49.2l-26.018,0Z" style="fill:none;fill-rule:nonzero;stroke:#f36d21;stroke-width:12.89px;"/></g><g><path d="M374.362,150.069l16.678,-86.4l-31.521,0l4.837,-25.6l91.229,0l-5.003,25.6l-31.355,0l-16.678,86.4l-28.186,0Z" style="fill:none;fill-rule:nonzero;stroke:#f36d21;stroke-width:12.89px;"/></g><g><path d="M425.915,150.069l55.538,-112l34.19,0l12.342,112l-26.018,0l-2.335,-23.6l-34.523,0l-11.341,23.6l-27.852,0Zm49.367,-46.2l22.515,0l-4.003,-41.2l-18.513,41.2Z" style="fill:none;fill-rule:nonzero;stroke:#f36d21;stroke-width:12.89px;"/></g><g><path d="M586.592,151.669c-8.506,0 -16.011,-2 -22.849,-5.8c-6.838,-3.8 -12.175,-9.6 -16.178,-17c-4.003,-7.6 -6.004,-16.8 -6.004,-27.4c0,-9.4 1.167,-18 3.669,-25.8c2.335,-8 5.837,-15 10.34,-20.8c4.503,-5.8 10.174,-10.2 16.678,-13.4c6.504,-3.4 14.01,-5 22.349,-5c7.338,0 13.843,1.4 19.68,4.4c6.004,2.8 10.841,7 14.677,12.6c3.836,5.4 6.504,12.2 7.672,20.4l-26.685,6.8c-0.5,-6.2 -2.168,-11 -4.837,-14c-2.502,-3 -6.171,-4.6 -11.007,-4.6c-4.17,0 -8.005,1.4 -11.174,4c-3.002,2.4 -5.671,5.8 -7.839,10c-2.001,4.2 -3.502,8.6 -4.503,13.4c-1.001,4.6 -1.501,9.2 -1.501,13.8c0,4.8 0.834,8.8 2.335,12.2c1.501,3.6 3.669,6 6.504,7.8c2.835,1.8 6.004,2.6 9.506,2.6c4.336,0 8.005,-1.4 11.007,-4.2c3.002,-2.6 5.504,-6.4 7.338,-11.2l24.85,11.2c-4.17,9.4 -9.673,16.6 -16.845,22c-7.172,5.4 -16.344,8 -27.185,8Z" style="fill:none;fill-rule:nonzero;stroke:#f36d21;stroke-width:12.89px;"/></g><g><path d="M667.553,152.069l16.678,-86.4l-31.521,0l4.837,-25.6l91.229,0l-5.003,25.6l-31.355,0l-16.678,86.4l-28.186,0Z" style="fill:none;fill-rule:nonzero;stroke:#f36d21;stroke-width:12.89px;"/></g><path d="M62.472,152.069c-9.451,0 -17.901,-2.267 -25.351,-6.8c-7.449,-4.533 -13.342,-11.067 -17.679,-19.6c-4.336,-8.533 -6.504,-18.733 -6.504,-30.6c0,-11.2 1.334,-21.567 4.003,-31.1c2.668,-9.533 6.56,-17.9 11.675,-25.1c5.115,-7.2 11.369,-12.8 18.763,-16.8c7.394,-4 15.872,-6 25.434,-6c8.228,0 15.566,1.667 22.015,5c6.449,3.333 11.73,8.167 15.844,14.5c4.114,6.333 6.838,14.167 8.172,23.5l-27.519,7.4c-0.667,-8 -2.557,-13.9 -5.671,-17.7c-3.113,-3.8 -7.672,-5.7 -13.676,-5.7c-5.115,0 -9.562,1.633 -13.342,4.9c-3.78,3.267 -6.949,7.5 -9.506,12.7c-2.557,5.2 -4.42,10.867 -5.587,17c-1.167,6.133 -1.751,12.133 -1.751,18c0,6.133 0.889,11.367 2.668,15.7c1.779,4.333 4.364,7.7 7.755,10.1c3.391,2.4 7.422,3.6 12.092,3.6c5.671,0 10.118,-1.767 13.342,-5.3c3.224,-3.533 5.948,-8.167 8.172,-13.9l25.684,12c-4.781,10.533 -11.119,18.867 -19.013,25c-7.894,6.133 -17.901,9.2 -30.02,9.2Z" style="fill:none;fill-rule:nonzero;stroke:#f36d21;stroke-width:12.14px;"/><g><path d="M173.31,151.669c-8.339,0 -15.844,-2 -22.682,-6c-6.671,-3.8 -12.008,-9.6 -16.011,-17c-4.003,-7.4 -6.004,-16.4 -6.004,-27c0,-9.4 1.167,-18.2 3.502,-26c2.168,-7.8 5.504,-14.8 10.007,-20.8c4.503,-5.8 10.007,-10.4 16.511,-13.6c6.504,-3.4 14.176,-5 22.682,-5c8.339,0 15.844,2 22.515,6c6.838,4 12.175,9.8 16.178,17.2c3.836,7.4 5.837,16.4 5.837,27c0,9.2 -1.167,17.8 -3.336,25.8c-2.335,8 -5.671,15 -10.174,20.8c-4.503,5.8 -10.007,10.4 -16.344,13.6c-6.671,3.4 -14.176,5 -22.682,5Zm0.667,-25.8c4.17,0 7.672,-1.2 10.841,-3.8c3.002,-2.4 5.504,-5.6 7.505,-9.8c2.001,-4 3.502,-8.4 4.503,-13.2c0.834,-4.8 1.334,-9.4 1.334,-14c0,-5 -0.667,-9.2 -2.168,-12.8c-1.501,-3.4 -3.502,-5.8 -6.171,-7.6c-2.668,-1.8 -5.837,-2.6 -9.34,-2.6c-4.17,0 -7.672,1.2 -10.841,3.8c-3.002,2.4 -5.504,5.6 -7.505,9.8c-2.001,4 -3.502,8.4 -4.503,13.2c-1.001,4.8 -1.501,9.4 -1.501,14c0,5 0.667,9.2 2.335,12.6c1.501,3.6 3.502,6 6.171,7.8c2.668,1.8 5.837,2.6 9.34,2.6Z" style="fill:#f36d21;fill-rule:nonzero;"/></g><g><path d="M232.184,150.069l21.681,-112l30.02,0l16.344,58.6l4.67,18.6l0.5,0l4.003,-25.6l9.84,-51.6l26.018,0l-21.681,112l-29.687,0l-17.012,-61l-4.17,-17l-0.334,0l-4.503,28.8l-9.673,49.2l-26.018,0Z" style="fill:#f36d21;fill-rule:nonzero;"/></g><g><path d="M374.362,150.069l16.678,-86.4l-31.521,0l4.837,-25.6l91.229,0l-5.003,25.6l-31.355,0l-16.678,86.4l-28.186,0Z" style="fill:#f36d21;fill-rule:nonzero;"/></g><g><path d="M425.915,150.069l55.538,-112l34.19,0l12.342,112l-26.018,0l-2.335,-23.6l-34.523,0l-11.341,23.6l-27.852,0Zm49.367,-46.2l22.515,0l-4.003,-41.2l-18.513,41.2Z" style="fill:#f36d21;fill-rule:nonzero;"/></g><g><path d="M586.592,151.669c-8.506,0 -16.011,-2 -22.849,-5.8c-6.838,-3.8 -12.175,-9.6 -16.178,-17c-4.003,-7.6 -6.004,-16.8 -6.004,-27.4c0,-9.4 1.167,-18 3.669,-25.8c2.335,-8 5.837,-15 10.34,-20.8c4.503,-5.8 10.174,-10.2 16.678,-13.4c6.504,-3.4 14.01,-5 22.349,-5c7.338,0 13.843,1.4 19.68,4.4c6.004,2.8 10.841,7 14.677,12.6c3.836,5.4 6.504,12.2 7.672,20.4l-26.685,6.8c-0.5,-6.2 -2.168,-11 -4.837,-14c-2.502,-3 -6.171,-4.6 -11.007,-4.6c-4.17,0 -8.005,1.4 -11.174,4c-3.002,2.4 -5.671,5.8 -7.839,10c-2.001,4.2 -3.502,8.6 -4.503,13.4c-1.001,4.6 -1.501,9.2 -1.501,13.8c0,4.8 0.834,8.8 2.335,12.2c1.501,3.6 3.669,6 6.504,7.8c2.835,1.8 6.004,2.6 9.506,2.6c4.336,0 8.005,-1.4 11.007,-4.2c3.002,-2.6 5.504,-6.4 7.338,-11.2l24.85,11.2c-4.17,9.4 -9.673,16.6 -16.845,22c-7.172,5.4 -16.344,8 -27.185,8Z" style="fill:#f36d21;fill-rule:nonzero;"/></g><g><path d="M667.553,152.069l16.678,-86.4l-31.521,0l4.837,-25.6l91.229,0l-5.003,25.6l-31.355,0l-16.678,86.4l-28.186,0Z" style="fill:#f36d21;fill-rule:nonzero;"/></g><path d="M62.472,152.069c-9.451,0 -17.901,-2.267 -25.351,-6.8c-7.449,-4.533 -13.342,-11.067 -17.679,-19.6c-4.336,-8.533 -6.504,-18.733 -6.504,-30.6c0,-11.2 1.334,-21.567 4.003,-31.1c2.668,-9.533 6.56,-17.9 11.675,-25.1c5.115,-7.2 11.369,-12.8 18.763,-16.8c7.394,-4 15.872,-6 25.434,-6c8.228,0 15.566,1.667 22.015,5c6.449,3.333 11.73,8.167 15.844,14.5c4.114,6.333 6.838,14.167 8.172,23.5l-27.519,7.4c-0.667,-8 -2.557,-13.9 -5.671,-17.7c-3.113,-3.8 -7.672,-5.7 -13.676,-5.7c-5.115,0 -9.562,1.633 -13.342,4.9c-3.78,3.267 -6.949,7.5 -9.506,12.7c-2.557,5.2 -4.42,10.867 -5.587,17c-1.167,6.133 -1.751,12.133 -1.751,18c0,6.133 0.889,11.367 2.668,15.7c1.779,4.333 4.364,7.7 7.755,10.1c3.391,2.4 7.422,3.6 12.092,3.6c5.671,0 10.118,-1.767 13.342,-5.3c3.224,-3.533 5.948,-8.167 8.172,-13.9l25.684,12c-4.781,10.533 -11.119,18.867 -19.013,25c-7.894,6.133 -17.901,9.2 -30.02,9.2Z" style="fill:#f36d21;fill-rule:nonzero;"/><g><path d="M169.461,141.669c-8.5,0 -16.15,-2 -23.12,-6c-6.8,-3.8 -12.24,-9.6 -16.32,-17c-4.08,-7.4 -6.12,-16.4 -6.12,-27c0,-9.4 1.19,-18.2 3.57,-26c2.21,-7.8 5.61,-14.8 10.2,-20.8c4.59,-5.8 10.2,-10.4 16.83,-13.6c6.63,-3.4 14.45,-5 23.12,-5c8.5,0 16.15,2 22.95,6c6.97,4 12.41,9.8 16.49,17.2c3.91,7.4 5.95,16.4 5.95,27c0,9.2 -1.19,17.8 -3.4,25.8c-2.38,8 -5.78,15 -10.37,20.8c-4.59,5.8 -10.2,10.4 -16.66,13.6c-6.8,3.4 -14.45,5 -23.12,5Zm0.68,-25.8c4.25,0 7.82,-1.2 11.05,-3.8c3.06,-2.4 5.61,-5.6 7.65,-9.8c2.04,-4 3.57,-8.4 4.59,-13.2c0.85,-4.8 1.36,-9.4 1.36,-14c0,-5 -0.68,-9.2 -2.21,-12.8c-1.53,-3.4 -3.57,-5.8 -6.29,-7.6c-2.72,-1.8 -5.95,-2.6 -9.52,-2.6c-4.25,0 -7.82,1.2 -11.05,3.8c-3.06,2.4 -5.61,5.6 -7.65,9.8c-2.04,4 -3.57,8.4 -4.59,13.2c-1.02,4.8 -1.53,9.4 -1.53,14c0,5 0.68,9.2 2.38,12.6c1.53,3.6 3.57,6 6.29,7.8c2.72,1.8 5.95,2.6 9.52,2.6Z" style="fill:none;fill-rule:nonzero;stroke:#fff;stroke-width:12.99px;"/></g><g><path d="M229.471,140.069l22.1,-112l30.6,0l16.66,58.6l4.76,18.6l0.51,0l4.08,-25.6l10.03,-51.6l26.52,0l-22.1,112l-30.26,0l-17.34,-61l-4.25,-17l-0.34,0l-4.59,28.8l-9.86,49.2l-26.52,0Z" style="fill:none;fill-rule:nonzero;stroke:#fff;stroke-width:12.99px;"/></g><g><path d="M374.325,140.069l17,-86.4l-32.13,0l4.93,-25.6l92.99,0l-5.1,25.6l-31.96,0l-17,86.4l-28.73,0Z" style="fill:none;fill-rule:nonzero;stroke:#fff;stroke-width:12.99px;"/></g><g><path d="M426.874,140.069l56.61,-112l34.85,0l12.58,112l-26.52,0l-2.38,-23.6l-35.19,0l-11.56,23.6l-28.39,0Zm50.32,-46.2l22.95,0l-4.08,-41.2l-18.87,41.2Z" style="fill:none;fill-rule:nonzero;stroke:#fff;stroke-width:12.99px;"/></g><g><path d="M590.654,141.669c-8.67,0 -16.32,-2 -23.29,-5.8c-6.97,-3.8 -12.41,-9.6 -16.49,-17c-4.08,-7.6 -6.12,-16.8 -6.12,-27.4c0,-9.4 1.19,-18 3.74,-25.8c2.38,-8 5.95,-15 10.54,-20.8c4.59,-5.8 10.37,-10.2 17,-13.4c6.63,-3.4 14.28,-5 22.78,-5c7.48,0 14.11,1.4 20.06,4.4c6.12,2.8 11.05,7 14.96,12.6c3.91,5.4 6.63,12.2 7.82,20.4l-27.2,6.8c-0.51,-6.2 -2.21,-11 -4.93,-14c-2.55,-3 -6.29,-4.6 -11.22,-4.6c-4.25,0 -8.16,1.4 -11.39,4c-3.06,2.4 -5.78,5.8 -7.99,10c-2.04,4.2 -3.57,8.6 -4.59,13.4c-1.02,4.6 -1.53,9.2 -1.53,13.8c0,4.8 0.85,8.8 2.38,12.2c1.53,3.6 3.74,6 6.63,7.8c2.89,1.8 6.12,2.6 9.69,2.6c4.42,0 8.16,-1.4 11.22,-4.2c3.06,-2.6 5.61,-6.4 7.48,-11.2l25.33,11.2c-4.25,9.4 -9.86,16.6 -17.17,22c-7.31,5.4 -16.66,8 -27.71,8Z" style="fill:none;fill-rule:nonzero;stroke:#fff;stroke-width:12.99px;"/></g><g><path d="M673.077,142.069l17,-86.4l-32.13,0l4.93,-25.6l92.99,0l-5.1,25.6l-31.96,0l-17,86.4l-28.73,0Z" style="fill:none;fill-rule:nonzero;stroke:#fff;stroke-width:12.99px;"/></g><path d="M56.559,142.069c-9.633,0 -18.247,-2.267 -25.84,-6.8c-7.593,-4.533 -13.6,-11.067 -18.02,-19.6c-4.42,-8.533 -6.63,-18.733 -6.63,-30.6c0,-11.2 1.36,-21.567 4.08,-31.1c2.72,-9.533 6.687,-17.9 11.9,-25.1c5.213,-7.2 11.588,-12.8 19.125,-16.8c7.537,-4 16.178,-6 25.925,-6c8.387,0 15.867,1.667 22.44,5c6.573,3.333 11.957,8.167 16.15,14.5c4.193,6.333 6.97,14.167 8.33,23.5l-28.05,7.4c-0.68,-8 -2.607,-13.9 -5.78,-17.7c-3.173,-3.8 -7.82,-5.7 -13.94,-5.7c-5.213,0 -9.747,1.633 -13.6,4.9c-3.853,3.267 -7.083,7.5 -9.69,12.7c-2.607,5.2 -4.505,10.867 -5.695,17c-1.19,6.133 -1.785,12.133 -1.785,18c0,6.133 0.907,11.367 2.72,15.7c1.813,4.333 4.448,7.7 7.905,10.1c3.457,2.4 7.565,3.6 12.325,3.6c5.78,0 10.313,-1.767 13.6,-5.3c3.287,-3.533 6.063,-8.167 8.33,-13.9l26.18,12c-4.873,10.533 -11.333,18.867 -19.38,25c-8.047,6.133 -18.247,9.2 -30.6,9.2Z" style="fill:none;fill-rule:nonzero;stroke:#fff;stroke-width:12.14px;"/><g><path d="M169.461,141.669c-8.5,0 -16.15,-2 -23.12,-6c-6.8,-3.8 -12.24,-9.6 -16.32,-17c-4.08,-7.4 -6.12,-16.4 -6.12,-27c0,-9.4 1.19,-18.2 3.57,-26c2.21,-7.8 5.61,-14.8 10.2,-20.8c4.59,-5.8 10.2,-10.4 16.83,-13.6c6.63,-3.4 14.45,-5 23.12,-5c8.5,0 16.15,2 22.95,6c6.97,4 12.41,9.8 16.49,17.2c3.91,7.4 5.95,16.4 5.95,27c0,9.2 -1.19,17.8 -3.4,25.8c-2.38,8 -5.78,15 -10.37,20.8c-4.59,5.8 -10.2,10.4 -16.66,13.6c-6.8,3.4 -14.45,5 -23.12,5Zm0.68,-25.8c4.25,0 7.82,-1.2 11.05,-3.8c3.06,-2.4 5.61,-5.6 7.65,-9.8c2.04,-4 3.57,-8.4 4.59,-13.2c0.85,-4.8 1.36,-9.4 1.36,-14c0,-5 -0.68,-9.2 -2.21,-12.8c-1.53,-3.4 -3.57,-5.8 -6.29,-7.6c-2.72,-1.8 -5.95,-2.6 -9.52,-2.6c-4.25,0 -7.82,1.2 -11.05,3.8c-3.06,2.4 -5.61,5.6 -7.65,9.8c-2.04,4 -3.57,8.4 -4.59,13.2c-1.02,4.8 -1.53,9.4 -1.53,14c0,5 0.68,9.2 2.38,12.6c1.53,3.6 3.57,6 6.29,7.8c2.72,1.8 5.95,2.6 9.52,2.6Z" style="fill:#231f20;fill-rule:nonzero;"/></g><g><path d="M229.471,140.069l22.1,-112l30.6,0l16.66,58.6l4.76,18.6l0.51,0l4.08,-25.6l10.03,-51.6l26.52,0l-22.1,112l-30.26,0l-17.34,-61l-4.25,-17l-0.34,0l-4.59,28.8l-9.86,49.2l-26.52,0Z" style="fill:#231f20;fill-rule:nonzero;"/></g><g><path d="M374.325,140.069l17,-86.4l-32.13,0l4.93,-25.6l92.99,0l-5.1,25.6l-31.96,0l-17,86.4l-28.73,0Z" style="fill:#231f20;fill-rule:nonzero;"/></g><g><path d="M426.874,140.069l56.61,-112l34.85,0l12.58,112l-26.52,0l-2.38,-23.6l-35.19,0l-11.56,23.6l-28.39,0Zm50.32,-46.2l22.95,0l-4.08,-41.2l-18.87,41.2Z" style="fill:#231f20;fill-rule:nonzero;"/></g><g><path d="M590.654,141.669c-8.67,0 -16.32,-2 -23.29,-5.8c-6.97,-3.8 -12.41,-9.6 -16.49,-17c-4.08,-7.6 -6.12,-16.8 -6.12,-27.4c0,-9.4 1.19,-18 3.74,-25.8c2.38,-8 5.95,-15 10.54,-20.8c4.59,-5.8 10.37,-10.2 17,-13.4c6.63,-3.4 14.28,-5 22.78,-5c7.48,0 14.11,1.4 20.06,4.4c6.12,2.8 11.05,7 14.96,12.6c3.91,5.4 6.63,12.2 7.82,20.4l-27.2,6.8c-0.51,-6.2 -2.21,-11 -4.93,-14c-2.55,-3 -6.29,-4.6 -11.22,-4.6c-4.25,0 -8.16,1.4 -11.39,4c-3.06,2.4 -5.78,5.8 -7.99,10c-2.04,4.2 -3.57,8.6 -4.59,13.4c-1.02,4.6 -1.53,9.2 -1.53,13.8c0,4.8 0.85,8.8 2.38,12.2c1.53,3.6 3.74,6 6.63,7.8c2.89,1.8 6.12,2.6 9.69,2.6c4.42,0 8.16,-1.4 11.22,-4.2c3.06,-2.6 5.61,-6.4 7.48,-11.2l25.33,11.2c-4.25,9.4 -9.86,16.6 -17.17,22c-7.31,5.4 -16.66,8 -27.71,8Z" style="fill:#231f20;fill-rule:nonzero;"/></g><g><path d="M673.077,142.069l17,-86.4l-32.13,0l4.93,-25.6l92.99,0l-5.1,25.6l-31.96,0l-17,86.4l-28.73,0Z" style="fill:#231f20;fill-rule:nonzero;"/></g><path d="M56.559,142.069c-9.633,0 -18.247,-2.267 -25.84,-6.8c-7.593,-4.533 -13.6,-11.067 -18.02,-19.6c-4.42,-8.533 -6.63,-18.733 -6.63,-30.6c0,-11.2 1.36,-21.567 4.08,-31.1c2.72,-9.533 6.687,-17.9 11.9,-25.1c5.213,-7.2 11.588,-12.8 19.125,-16.8c7.537,-4 16.178,-6 25.925,-6c8.387,0 15.867,1.667 22.44,5c6.573,3.333 11.957,8.167 16.15,14.5c4.193,6.333 6.97,14.167 8.33,23.5l-28.05,7.4c-0.68,-8 -2.607,-13.9 -5.78,-17.7c-3.173,-3.8 -7.82,-5.7 -13.94,-5.7c-5.213,0 -9.747,1.633 -13.6,4.9c-3.853,3.267 -7.083,7.5 -9.69,12.7c-2.607,5.2 -4.505,10.867 -5.695,17c-1.19,6.133 -1.785,12.133 -1.785,18c0,6.133 0.907,11.367 2.72,15.7c1.813,4.333 4.448,7.7 7.905,10.1c3.457,2.4 7.565,3.6 12.325,3.6c5.78,0 10.313,-1.767 13.6,-5.3c3.287,-3.533 6.063,-8.167 8.33,-13.9l26.18,12c-4.873,10.533 -11.333,18.867 -19.38,25c-8.047,6.133 -18.247,9.2 -30.6,9.2Z" style="fill:#231f20;fill-rule:nonzero;"/></g></svg>