<?xml version="1.0" encoding="UTF-8" standalone="no"?>
<!DOCTYPE svg PUBLIC "-//W3C//DTD SVG 1.1//EN" "http://www.w3.org/Graphics/SVG/1.1/DTD/svg11.dtd">
<svg width="100%" height="100%" viewBox="0 0 1354 159" version="1.1" xmlns="http://www.w3.org/2000/svg" xmlns:xlink="http://www.w3.org/1999/xlink" xml:space="preserve" xmlns:serif="http://www.serif.com/" style="fill-rule:evenodd;clip-rule:evenodd;stroke-linejoin:round;stroke-miterlimit:2;">
    <g transform="matrix(1,0,0,1,-3180.460288,-3554.642256)">
        <g transform="matrix(0.938089,0,0,0.938089,-2064.928872,2367.03641)">
            <g transform="matrix(1,0,0,1,-6.195934,1128.296478)">
                <g transform="matrix(1.205672,0,0,1.411158,-4698.840124,-207.099944)">
                    <g transform="matrix(0.976024,0,0,1,204.944629,0)">
                        <g transform="matrix(151.081141,0,0,151.081141,8655.41583,357.692308)">
                            <path d="M0.011,-0L0.141,-0.56L0.399,-0.56C0.46,-0.56 0.509,-0.546 0.545,-0.517C0.581,-0.488 0.599,-0.448 0.599,-0.396C0.599,-0.362 0.592,-0.332 0.578,-0.307C0.564,-0.282 0.545,-0.261 0.52,-0.243C0.496,-0.227 0.468,-0.214 0.437,-0.205C0.406,-0.196 0.373,-0.192 0.34,-0.192L0.217,-0.192L0.171,-0L0.011,-0ZM0.394,-0L0.308,-0.207L0.454,-0.23L0.555,-0L0.394,-0ZM0.241,-0.298L0.333,-0.298C0.354,-0.298 0.371,-0.302 0.386,-0.309C0.401,-0.316 0.412,-0.326 0.42,-0.339C0.428,-0.352 0.432,-0.366 0.432,-0.382C0.432,-0.402 0.425,-0.417 0.411,-0.428C0.396,-0.44 0.377,-0.445 0.354,-0.445L0.275,-0.445L0.241,-0.298Z" style="fill:none;fill-rule:nonzero;stroke:rgb(243,109,33);stroke-width:0.07px;"/>
                        </g>
                        <g transform="matrix(151.081141,0,0,151.081141,8655.41583,357.692308)">
                        </g>
                        <g transform="matrix(151.081141,0,0,151.081141,8759.057493,357.692308)">
                            <path d="M-0.051,-0L0.282,-0.56L0.487,-0.56L0.561,-0L0.405,-0L0.391,-0.118L0.184,-0.118L0.116,-0L-0.051,-0ZM0.245,-0.231L0.38,-0.231L0.356,-0.437L0.245,-0.231Z" style="fill:none;fill-rule:nonzero;stroke:rgb(243,109,33);stroke-width:0.07px;"/>
                        </g>
                        <g transform="matrix(151.081141,0,0,151.081141,8759.057493,357.692308)">
                        </g>
                        <g transform="matrix(151.081141,0,0,151.081141,8854.540774,357.692308)">
                            <path d="M0.011,-0L0.141,-0.56L0.375,-0.56C0.446,-0.56 0.501,-0.544 0.54,-0.512C0.579,-0.481 0.598,-0.437 0.598,-0.381C0.598,-0.341 0.588,-0.306 0.568,-0.275C0.547,-0.244 0.518,-0.22 0.48,-0.203C0.443,-0.185 0.398,-0.177 0.345,-0.177L0.219,-0.177L0.178,-0L0.011,-0ZM0.246,-0.291L0.329,-0.291C0.351,-0.291 0.369,-0.295 0.385,-0.302C0.4,-0.309 0.411,-0.32 0.418,-0.333C0.426,-0.345 0.43,-0.36 0.43,-0.375C0.43,-0.396 0.423,-0.413 0.41,-0.424C0.397,-0.436 0.376,-0.442 0.348,-0.442L0.281,-0.442L0.246,-0.291Z" style="fill:none;fill-rule:nonzero;stroke:rgb(243,109,33);stroke-width:0.07px;"/>
                        </g>
                        <g transform="matrix(151.081141,0,0,151.081141,8854.540774,357.692308)">
                        </g>
                        <g transform="matrix(151.081141,0,0,151.081141,8945.34054,357.692308)">
                            <path d="M0.011,-0L0.141,-0.56L0.308,-0.56L0.259,-0.348L0.463,-0.348L0.512,-0.56L0.679,-0.56L0.549,-0L0.382,-0L0.433,-0.22L0.229,-0.22L0.178,-0L0.011,-0Z" style="fill:none;fill-rule:nonzero;stroke:rgb(243,109,33);stroke-width:0.07px;"/>
                        </g>
                        <g transform="matrix(151.081141,0,0,151.081141,8945.34054,357.692308)">
                        </g>
                        <g transform="matrix(151.081141,0,0,151.081141,9047.018148,357.692308)">
                            <path d="M0.302,-0.56L0.172,-0L0.011,-0L0.141,-0.56L0.302,-0.56Z" style="fill:none;fill-rule:nonzero;stroke:rgb(243,109,33);stroke-width:0.07px;"/>
                        </g>
                        <g transform="matrix(151.081141,0,0,151.081141,9047.018148,357.692308)">
                        </g>
                        <g transform="matrix(151.081141,0,0,151.081141,9091.587084,357.692308)">
                            <path d="M0.315,0.008C0.264,0.008 0.219,-0.002 0.178,-0.021C0.137,-0.04 0.105,-0.069 0.081,-0.106C0.057,-0.144 0.045,-0.19 0.045,-0.243C0.045,-0.29 0.052,-0.333 0.067,-0.372C0.081,-0.412 0.102,-0.447 0.129,-0.476C0.156,-0.505 0.19,-0.527 0.229,-0.543C0.268,-0.56 0.313,-0.568 0.363,-0.568C0.407,-0.568 0.446,-0.561 0.481,-0.546C0.517,-0.532 0.546,-0.511 0.569,-0.483C0.592,-0.456 0.608,-0.422 0.615,-0.381L0.455,-0.347C0.452,-0.378 0.442,-0.402 0.426,-0.417C0.411,-0.432 0.389,-0.44 0.36,-0.44C0.335,-0.44 0.312,-0.433 0.293,-0.42C0.275,-0.408 0.259,-0.391 0.246,-0.37C0.234,-0.349 0.225,-0.327 0.219,-0.303C0.213,-0.28 0.21,-0.257 0.21,-0.234C0.21,-0.21 0.215,-0.19 0.224,-0.173C0.233,-0.155 0.246,-0.143 0.263,-0.134C0.28,-0.125 0.299,-0.121 0.32,-0.121C0.346,-0.121 0.368,-0.128 0.386,-0.142C0.404,-0.155 0.419,-0.174 0.43,-0.198L0.579,-0.142C0.554,-0.095 0.521,-0.059 0.478,-0.032C0.435,-0.005 0.38,0.008 0.315,0.008Z" style="fill:none;fill-rule:nonzero;stroke:rgb(243,109,33);stroke-width:0.07px;"/>
                        </g>
                        <g transform="matrix(151.081141,0,0,151.081141,9091.587084,357.692308)">
                        </g>
                        <g transform="matrix(151.081141,0,0,151.081141,9332.259342,357.692308)">
                            <path d="M0.01,-0L0.14,-0.56L0.609,-0.56L0.581,-0.441L0.279,-0.441L0.255,-0.339L0.491,-0.339L0.465,-0.225L0.229,-0.225L0.205,-0.119L0.514,-0.119L0.485,-0L0.01,-0Z" style="fill:none;fill-rule:nonzero;stroke:rgb(243,109,33);stroke-width:0.07px;"/>
                        </g>
                        <g transform="matrix(151.081141,0,0,151.081141,9332.259342,357.692308)">
                        </g>
                        <g transform="matrix(151.081141,0,0,151.081141,9418.828836,357.692308)">
                            <path d="M0.299,0.01C0.255,0.01 0.214,0.005 0.177,-0.004C0.14,-0.013 0.106,-0.028 0.076,-0.046C0.046,-0.066 0.02,-0.089 -0.002,-0.117L0.084,-0.217C0.099,-0.194 0.117,-0.175 0.14,-0.159C0.163,-0.143 0.187,-0.131 0.214,-0.122C0.241,-0.113 0.266,-0.109 0.291,-0.109C0.308,-0.109 0.323,-0.111 0.334,-0.116C0.345,-0.12 0.353,-0.126 0.358,-0.133C0.363,-0.14 0.366,-0.148 0.366,-0.158C0.366,-0.169 0.361,-0.179 0.352,-0.186C0.343,-0.193 0.329,-0.2 0.31,-0.205L0.222,-0.231C0.195,-0.239 0.17,-0.25 0.148,-0.263C0.126,-0.276 0.109,-0.293 0.096,-0.314C0.083,-0.335 0.077,-0.359 0.077,-0.387C0.077,-0.426 0.087,-0.458 0.108,-0.485C0.129,-0.513 0.157,-0.533 0.193,-0.547C0.229,-0.561 0.27,-0.568 0.316,-0.568C0.377,-0.568 0.429,-0.558 0.473,-0.537C0.515,-0.517 0.551,-0.489 0.58,-0.454L0.487,-0.364C0.474,-0.383 0.459,-0.398 0.44,-0.411C0.421,-0.423 0.4,-0.432 0.379,-0.438C0.358,-0.444 0.336,-0.447 0.313,-0.447C0.289,-0.447 0.271,-0.443 0.26,-0.434C0.248,-0.425 0.242,-0.414 0.242,-0.401C0.242,-0.391 0.247,-0.382 0.257,-0.373C0.266,-0.365 0.282,-0.358 0.304,-0.351L0.392,-0.325C0.438,-0.312 0.473,-0.294 0.496,-0.271C0.52,-0.248 0.532,-0.217 0.532,-0.178C0.532,-0.137 0.522,-0.103 0.501,-0.075C0.48,-0.047 0.452,-0.026 0.417,-0.011C0.382,0.003 0.342,0.01 0.299,0.01Z" style="fill:none;fill-rule:nonzero;stroke:rgb(243,109,33);stroke-width:0.07px;"/>
                        </g>
                        <g transform="matrix(151.081141,0,0,151.081141,9418.828836,357.692308)">
                        </g>
                        <g transform="matrix(151.081141,0,0,151.081141,9504.945087,357.692308)">
                            <path d="M0.302,-0.56L0.172,-0L0.011,-0L0.141,-0.56L0.302,-0.56Z" style="fill:none;fill-rule:nonzero;stroke:rgb(243,109,33);stroke-width:0.07px;"/>
                        </g>
                        <g transform="matrix(151.081141,0,0,151.081141,9504.945087,357.692308)">
                        </g>
                        <g transform="matrix(151.081141,0,0,151.081141,9549.514023,357.692308)">
                            <path d="M0.282,0.008C0.238,0.008 0.198,-0.002 0.162,-0.022C0.126,-0.041 0.097,-0.07 0.076,-0.106C0.055,-0.143 0.044,-0.188 0.044,-0.24C0.044,-0.285 0.051,-0.328 0.065,-0.367C0.079,-0.406 0.1,-0.441 0.127,-0.471C0.154,-0.501 0.188,-0.525 0.228,-0.542C0.268,-0.559 0.314,-0.568 0.365,-0.568C0.409,-0.568 0.449,-0.561 0.484,-0.547C0.52,-0.534 0.549,-0.513 0.573,-0.486C0.596,-0.46 0.61,-0.427 0.617,-0.388L0.461,-0.361C0.457,-0.385 0.447,-0.405 0.431,-0.419C0.415,-0.435 0.392,-0.442 0.361,-0.442C0.337,-0.442 0.316,-0.437 0.296,-0.426C0.278,-0.416 0.261,-0.402 0.247,-0.384C0.234,-0.365 0.224,-0.344 0.216,-0.321C0.21,-0.297 0.206,-0.272 0.206,-0.245C0.206,-0.215 0.211,-0.19 0.222,-0.171C0.233,-0.151 0.248,-0.136 0.267,-0.127C0.286,-0.117 0.309,-0.112 0.336,-0.112C0.357,-0.112 0.375,-0.115 0.391,-0.121C0.406,-0.128 0.419,-0.137 0.43,-0.148C0.441,-0.159 0.449,-0.173 0.455,-0.19L0.458,-0.201L0.32,-0.201L0.342,-0.302L0.606,-0.302L0.531,-0L0.425,-0L0.439,-0.063C0.422,-0.04 0.401,-0.023 0.376,-0.011C0.351,0.002 0.319,0.008 0.282,0.008Z" style="fill:none;fill-rule:nonzero;stroke:rgb(243,109,33);stroke-width:0.07px;"/>
                        </g>
                        <g transform="matrix(151.081141,0,0,151.081141,9549.514023,357.692308)">
                        </g>
                        <g transform="matrix(151.081141,0,0,151.081141,9644.695142,357.692308)">
                            <path d="M0.011,-0L0.141,-0.56L0.321,-0.56L0.419,-0.267L0.447,-0.174L0.45,-0.174L0.474,-0.302L0.533,-0.56L0.689,-0.56L0.559,-0L0.381,-0L0.279,-0.305L0.254,-0.39L0.252,-0.39L0.225,-0.246L0.167,-0L0.011,-0Z" style="fill:none;fill-rule:nonzero;stroke:rgb(243,109,33);stroke-width:0.07px;"/>
                        </g>
                        <g transform="matrix(151.081141,0,0,151.081141,9644.695142,357.692308)">
                        </g>
                        <g transform="matrix(151.081141,0,0,151.081141,9747.732481,357.692308)">
                        </g>
                        <text x="8547.997px" y="357.692px" style="font-family:'WorkSans-BoldItalic', 'Work Sans';font-weight:700;font-style:italic;font-size:151.081px;fill:none;stroke:rgb(243,109,33);stroke-width:9.96px;">G<tspan x="9183.595px 9225.898px " y="357.692px 357.692px "> D</tspan></text>
                    </g>
                    <g transform="matrix(0.976024,0,0,1,204.944629,0)">
                        <g transform="matrix(151.081141,0,0,151.081141,8655.41583,357.692308)">
                            <path d="M0.011,-0L0.141,-0.56L0.399,-0.56C0.46,-0.56 0.509,-0.546 0.545,-0.517C0.581,-0.488 0.599,-0.448 0.599,-0.396C0.599,-0.362 0.592,-0.332 0.578,-0.307C0.564,-0.282 0.545,-0.261 0.52,-0.243C0.496,-0.227 0.468,-0.214 0.437,-0.205C0.406,-0.196 0.373,-0.192 0.34,-0.192L0.217,-0.192L0.171,-0L0.011,-0ZM0.394,-0L0.308,-0.207L0.454,-0.23L0.555,-0L0.394,-0ZM0.241,-0.298L0.333,-0.298C0.354,-0.298 0.371,-0.302 0.386,-0.309C0.401,-0.316 0.412,-0.326 0.42,-0.339C0.428,-0.352 0.432,-0.366 0.432,-0.382C0.432,-0.402 0.425,-0.417 0.411,-0.428C0.396,-0.44 0.377,-0.445 0.354,-0.445L0.275,-0.445L0.241,-0.298Z" style="fill:rgb(243,109,33);fill-rule:nonzero;"/>
                        </g>
                        <g transform="matrix(151.081141,0,0,151.081141,8655.41583,357.692308)">
                        </g>
                        <g transform="matrix(151.081141,0,0,151.081141,8759.057493,357.692308)">
                            <path d="M-0.051,-0L0.282,-0.56L0.487,-0.56L0.561,-0L0.405,-0L0.391,-0.118L0.184,-0.118L0.116,-0L-0.051,-0ZM0.245,-0.231L0.38,-0.231L0.356,-0.437L0.245,-0.231Z" style="fill:rgb(243,109,33);fill-rule:nonzero;"/>
                        </g>
                        <g transform="matrix(151.081141,0,0,151.081141,8759.057493,357.692308)">
                        </g>
                        <g transform="matrix(151.081141,0,0,151.081141,8854.540774,357.692308)">
                            <path d="M0.011,-0L0.141,-0.56L0.375,-0.56C0.446,-0.56 0.501,-0.544 0.54,-0.512C0.579,-0.481 0.598,-0.437 0.598,-0.381C0.598,-0.341 0.588,-0.306 0.568,-0.275C0.547,-0.244 0.518,-0.22 0.48,-0.203C0.443,-0.185 0.398,-0.177 0.345,-0.177L0.219,-0.177L0.178,-0L0.011,-0ZM0.246,-0.291L0.329,-0.291C0.351,-0.291 0.369,-0.295 0.385,-0.302C0.4,-0.309 0.411,-0.32 0.418,-0.333C0.426,-0.345 0.43,-0.36 0.43,-0.375C0.43,-0.396 0.423,-0.413 0.41,-0.424C0.397,-0.436 0.376,-0.442 0.348,-0.442L0.281,-0.442L0.246,-0.291Z" style="fill:rgb(243,109,33);fill-rule:nonzero;"/>
                        </g>
                        <g transform="matrix(151.081141,0,0,151.081141,8854.540774,357.692308)">
                        </g>
                        <g transform="matrix(151.081141,0,0,151.081141,8945.34054,357.692308)">
                            <path d="M0.011,-0L0.141,-0.56L0.308,-0.56L0.259,-0.348L0.463,-0.348L0.512,-0.56L0.679,-0.56L0.549,-0L0.382,-0L0.433,-0.22L0.229,-0.22L0.178,-0L0.011,-0Z" style="fill:rgb(243,109,33);fill-rule:nonzero;"/>
                        </g>
                        <g transform="matrix(151.081141,0,0,151.081141,8945.34054,357.692308)">
                        </g>
                        <g transform="matrix(151.081141,0,0,151.081141,9047.018148,357.692308)">
                            <path d="M0.302,-0.56L0.172,-0L0.011,-0L0.141,-0.56L0.302,-0.56Z" style="fill:rgb(243,109,33);fill-rule:nonzero;"/>
                        </g>
                        <g transform="matrix(151.081141,0,0,151.081141,9047.018148,357.692308)">
                        </g>
                        <g transform="matrix(151.081141,0,0,151.081141,9091.587084,357.692308)">
                            <path d="M0.315,0.008C0.264,0.008 0.219,-0.002 0.178,-0.021C0.137,-0.04 0.105,-0.069 0.081,-0.106C0.057,-0.144 0.045,-0.19 0.045,-0.243C0.045,-0.29 0.052,-0.333 0.067,-0.372C0.081,-0.412 0.102,-0.447 0.129,-0.476C0.156,-0.505 0.19,-0.527 0.229,-0.543C0.268,-0.56 0.313,-0.568 0.363,-0.568C0.407,-0.568 0.446,-0.561 0.481,-0.546C0.517,-0.532 0.546,-0.511 0.569,-0.483C0.592,-0.456 0.608,-0.422 0.615,-0.381L0.455,-0.347C0.452,-0.378 0.442,-0.402 0.426,-0.417C0.411,-0.432 0.389,-0.44 0.36,-0.44C0.335,-0.44 0.312,-0.433 0.293,-0.42C0.275,-0.408 0.259,-0.391 0.246,-0.37C0.234,-0.349 0.225,-0.327 0.219,-0.303C0.213,-0.28 0.21,-0.257 0.21,-0.234C0.21,-0.21 0.215,-0.19 0.224,-0.173C0.233,-0.155 0.246,-0.143 0.263,-0.134C0.28,-0.125 0.299,-0.121 0.32,-0.121C0.346,-0.121 0.368,-0.128 0.386,-0.142C0.404,-0.155 0.419,-0.174 0.43,-0.198L0.579,-0.142C0.554,-0.095 0.521,-0.059 0.478,-0.032C0.435,-0.005 0.38,0.008 0.315,0.008Z" style="fill:rgb(243,109,33);fill-rule:nonzero;"/>
                        </g>
                        <g transform="matrix(151.081141,0,0,151.081141,9091.587084,357.692308)">
                        </g>
                        <g transform="matrix(151.081141,0,0,151.081141,9332.259342,357.692308)">
                            <path d="M0.01,-0L0.14,-0.56L0.609,-0.56L0.581,-0.441L0.279,-0.441L0.255,-0.339L0.491,-0.339L0.465,-0.225L0.229,-0.225L0.205,-0.119L0.514,-0.119L0.485,-0L0.01,-0Z" style="fill:rgb(243,109,33);fill-rule:nonzero;"/>
                        </g>
                        <g transform="matrix(151.081141,0,0,151.081141,9332.259342,357.692308)">
                        </g>
                        <g transform="matrix(151.081141,0,0,151.081141,9418.828836,357.692308)">
                            <path d="M0.299,0.01C0.255,0.01 0.214,0.005 0.177,-0.004C0.14,-0.013 0.106,-0.028 0.076,-0.046C0.046,-0.066 0.02,-0.089 -0.002,-0.117L0.084,-0.217C0.099,-0.194 0.117,-0.175 0.14,-0.159C0.163,-0.143 0.187,-0.131 0.214,-0.122C0.241,-0.113 0.266,-0.109 0.291,-0.109C0.308,-0.109 0.323,-0.111 0.334,-0.116C0.345,-0.12 0.353,-0.126 0.358,-0.133C0.363,-0.14 0.366,-0.148 0.366,-0.158C0.366,-0.169 0.361,-0.179 0.352,-0.186C0.343,-0.193 0.329,-0.2 0.31,-0.205L0.222,-0.231C0.195,-0.239 0.17,-0.25 0.148,-0.263C0.126,-0.276 0.109,-0.293 0.096,-0.314C0.083,-0.335 0.077,-0.359 0.077,-0.387C0.077,-0.426 0.087,-0.458 0.108,-0.485C0.129,-0.513 0.157,-0.533 0.193,-0.547C0.229,-0.561 0.27,-0.568 0.316,-0.568C0.377,-0.568 0.429,-0.558 0.473,-0.537C0.515,-0.517 0.551,-0.489 0.58,-0.454L0.487,-0.364C0.474,-0.383 0.459,-0.398 0.44,-0.411C0.421,-0.423 0.4,-0.432 0.379,-0.438C0.358,-0.444 0.336,-0.447 0.313,-0.447C0.289,-0.447 0.271,-0.443 0.26,-0.434C0.248,-0.425 0.242,-0.414 0.242,-0.401C0.242,-0.391 0.247,-0.382 0.257,-0.373C0.266,-0.365 0.282,-0.358 0.304,-0.351L0.392,-0.325C0.438,-0.312 0.473,-0.294 0.496,-0.271C0.52,-0.248 0.532,-0.217 0.532,-0.178C0.532,-0.137 0.522,-0.103 0.501,-0.075C0.48,-0.047 0.452,-0.026 0.417,-0.011C0.382,0.003 0.342,0.01 0.299,0.01Z" style="fill:rgb(243,109,33);fill-rule:nonzero;"/>
                        </g>
                        <g transform="matrix(151.081141,0,0,151.081141,9418.828836,357.692308)">
                        </g>
                        <g transform="matrix(151.081141,0,0,151.081141,9504.945087,357.692308)">
                            <path d="M0.302,-0.56L0.172,-0L0.011,-0L0.141,-0.56L0.302,-0.56Z" style="fill:rgb(243,109,33);fill-rule:nonzero;"/>
                        </g>
                        <g transform="matrix(151.081141,0,0,151.081141,9504.945087,357.692308)">
                        </g>
                        <g transform="matrix(151.081141,0,0,151.081141,9549.514023,357.692308)">
                            <path d="M0.282,0.008C0.238,0.008 0.198,-0.002 0.162,-0.022C0.126,-0.041 0.097,-0.07 0.076,-0.106C0.055,-0.143 0.044,-0.188 0.044,-0.24C0.044,-0.285 0.051,-0.328 0.065,-0.367C0.079,-0.406 0.1,-0.441 0.127,-0.471C0.154,-0.501 0.188,-0.525 0.228,-0.542C0.268,-0.559 0.314,-0.568 0.365,-0.568C0.409,-0.568 0.449,-0.561 0.484,-0.547C0.52,-0.534 0.549,-0.513 0.573,-0.486C0.596,-0.46 0.61,-0.427 0.617,-0.388L0.461,-0.361C0.457,-0.385 0.447,-0.405 0.431,-0.419C0.415,-0.435 0.392,-0.442 0.361,-0.442C0.337,-0.442 0.316,-0.437 0.296,-0.426C0.278,-0.416 0.261,-0.402 0.247,-0.384C0.234,-0.365 0.224,-0.344 0.216,-0.321C0.21,-0.297 0.206,-0.272 0.206,-0.245C0.206,-0.215 0.211,-0.19 0.222,-0.171C0.233,-0.151 0.248,-0.136 0.267,-0.127C0.286,-0.117 0.309,-0.112 0.336,-0.112C0.357,-0.112 0.375,-0.115 0.391,-0.121C0.406,-0.128 0.419,-0.137 0.43,-0.148C0.441,-0.159 0.449,-0.173 0.455,-0.19L0.458,-0.201L0.32,-0.201L0.342,-0.302L0.606,-0.302L0.531,-0L0.425,-0L0.439,-0.063C0.422,-0.04 0.401,-0.023 0.376,-0.011C0.351,0.002 0.319,0.008 0.282,0.008Z" style="fill:rgb(243,109,33);fill-rule:nonzero;"/>
                        </g>
                        <g transform="matrix(151.081141,0,0,151.081141,9549.514023,357.692308)">
                        </g>
                        <g transform="matrix(151.081141,0,0,151.081141,9644.695142,357.692308)">
                            <path d="M0.011,-0L0.141,-0.56L0.321,-0.56L0.419,-0.267L0.447,-0.174L0.45,-0.174L0.474,-0.302L0.533,-0.56L0.689,-0.56L0.559,-0L0.381,-0L0.279,-0.305L0.254,-0.39L0.252,-0.39L0.225,-0.246L0.167,-0L0.011,-0Z" style="fill:rgb(243,109,33);fill-rule:nonzero;"/>
                        </g>
                        <g transform="matrix(151.081141,0,0,151.081141,9644.695142,357.692308)">
                        </g>
                        <g transform="matrix(151.081141,0,0,151.081141,9747.732481,357.692308)">
                        </g>
                        <text x="8547.997px" y="357.692px" style="font-family:'WorkSans-BoldItalic', 'Work Sans';font-weight:700;font-style:italic;font-size:151.081px;fill:rgb(243,109,33);">G<tspan x="9183.595px 9225.898px " y="357.692px 357.692px "> D</tspan></text>
                    </g>
                </g>
                <g transform="matrix(1.22895,0,0,1.411158,-4911.514667,-217.759915)">
                    <g transform="matrix(0.976024,0,0,1,204.944629,0)">
                        <g transform="matrix(151.081141,0,0,151.081141,8655.41583,357.692308)">
                            <path d="M0.011,-0L0.141,-0.56L0.399,-0.56C0.46,-0.56 0.509,-0.546 0.545,-0.517C0.581,-0.488 0.599,-0.448 0.599,-0.396C0.599,-0.362 0.592,-0.332 0.578,-0.307C0.564,-0.282 0.545,-0.261 0.52,-0.243C0.496,-0.227 0.468,-0.214 0.437,-0.205C0.406,-0.196 0.373,-0.192 0.34,-0.192L0.217,-0.192L0.171,-0L0.011,-0ZM0.394,-0L0.308,-0.207L0.454,-0.23L0.555,-0L0.394,-0ZM0.241,-0.298L0.333,-0.298C0.354,-0.298 0.371,-0.302 0.386,-0.309C0.401,-0.316 0.412,-0.326 0.42,-0.339C0.428,-0.352 0.432,-0.366 0.432,-0.382C0.432,-0.402 0.425,-0.417 0.411,-0.428C0.396,-0.44 0.377,-0.445 0.354,-0.445L0.275,-0.445L0.241,-0.298Z" style="fill:none;fill-rule:nonzero;stroke:white;stroke-width:0.07px;"/>
                        </g>
                        <g transform="matrix(151.081141,0,0,151.081141,8655.41583,357.692308)">
                        </g>
                        <g transform="matrix(151.081141,0,0,151.081141,8759.057493,357.692308)">
                            <path d="M-0.051,-0L0.282,-0.56L0.487,-0.56L0.561,-0L0.405,-0L0.391,-0.118L0.184,-0.118L0.116,-0L-0.051,-0ZM0.245,-0.231L0.38,-0.231L0.356,-0.437L0.245,-0.231Z" style="fill:none;fill-rule:nonzero;stroke:white;stroke-width:0.07px;"/>
                        </g>
                        <g transform="matrix(151.081141,0,0,151.081141,8759.057493,357.692308)">
                        </g>
                        <g transform="matrix(151.081141,0,0,151.081141,8854.540774,357.692308)">
                            <path d="M0.011,-0L0.141,-0.56L0.375,-0.56C0.446,-0.56 0.501,-0.544 0.54,-0.512C0.579,-0.481 0.598,-0.437 0.598,-0.381C0.598,-0.341 0.588,-0.306 0.568,-0.275C0.547,-0.244 0.518,-0.22 0.48,-0.203C0.443,-0.185 0.398,-0.177 0.345,-0.177L0.219,-0.177L0.178,-0L0.011,-0ZM0.246,-0.291L0.329,-0.291C0.351,-0.291 0.369,-0.295 0.385,-0.302C0.4,-0.309 0.411,-0.32 0.418,-0.333C0.426,-0.345 0.43,-0.36 0.43,-0.375C0.43,-0.396 0.423,-0.413 0.41,-0.424C0.397,-0.436 0.376,-0.442 0.348,-0.442L0.281,-0.442L0.246,-0.291Z" style="fill:none;fill-rule:nonzero;stroke:white;stroke-width:0.07px;"/>
                        </g>
                        <g transform="matrix(151.081141,0,0,151.081141,8854.540774,357.692308)">
                        </g>
                        <g transform="matrix(151.081141,0,0,151.081141,8945.34054,357.692308)">
                            <path d="M0.011,-0L0.141,-0.56L0.308,-0.56L0.259,-0.348L0.463,-0.348L0.512,-0.56L0.679,-0.56L0.549,-0L0.382,-0L0.433,-0.22L0.229,-0.22L0.178,-0L0.011,-0Z" style="fill:none;fill-rule:nonzero;stroke:white;stroke-width:0.07px;"/>
                        </g>
                        <g transform="matrix(151.081141,0,0,151.081141,8945.34054,357.692308)">
                        </g>
                        <g transform="matrix(151.081141,0,0,151.081141,9047.018148,357.692308)">
                            <path d="M0.302,-0.56L0.172,-0L0.011,-0L0.141,-0.56L0.302,-0.56Z" style="fill:none;fill-rule:nonzero;stroke:white;stroke-width:0.07px;"/>
                        </g>
                        <g transform="matrix(151.081141,0,0,151.081141,9047.018148,357.692308)">
                        </g>
                        <g transform="matrix(151.081141,0,0,151.081141,9091.587084,357.692308)">
                            <path d="M0.315,0.008C0.264,0.008 0.219,-0.002 0.178,-0.021C0.137,-0.04 0.105,-0.069 0.081,-0.106C0.057,-0.144 0.045,-0.19 0.045,-0.243C0.045,-0.29 0.052,-0.333 0.067,-0.372C0.081,-0.412 0.102,-0.447 0.129,-0.476C0.156,-0.505 0.19,-0.527 0.229,-0.543C0.268,-0.56 0.313,-0.568 0.363,-0.568C0.407,-0.568 0.446,-0.561 0.481,-0.546C0.517,-0.532 0.546,-0.511 0.569,-0.483C0.592,-0.456 0.608,-0.422 0.615,-0.381L0.455,-0.347C0.452,-0.378 0.442,-0.402 0.426,-0.417C0.411,-0.432 0.389,-0.44 0.36,-0.44C0.335,-0.44 0.312,-0.433 0.293,-0.42C0.275,-0.408 0.259,-0.391 0.246,-0.37C0.234,-0.349 0.225,-0.327 0.219,-0.303C0.213,-0.28 0.21,-0.257 0.21,-0.234C0.21,-0.21 0.215,-0.19 0.224,-0.173C0.233,-0.155 0.246,-0.143 0.263,-0.134C0.28,-0.125 0.299,-0.121 0.32,-0.121C0.346,-0.121 0.368,-0.128 0.386,-0.142C0.404,-0.155 0.419,-0.174 0.43,-0.198L0.579,-0.142C0.554,-0.095 0.521,-0.059 0.478,-0.032C0.435,-0.005 0.38,0.008 0.315,0.008Z" style="fill:none;fill-rule:nonzero;stroke:white;stroke-width:0.07px;"/>
                        </g>
                        <g transform="matrix(151.081141,0,0,151.081141,9091.587084,357.692308)">
                        </g>
                        <g transform="matrix(151.081141,0,0,151.081141,9332.259342,357.692308)">
                            <path d="M0.01,-0L0.14,-0.56L0.609,-0.56L0.581,-0.441L0.279,-0.441L0.255,-0.339L0.491,-0.339L0.465,-0.225L0.229,-0.225L0.205,-0.119L0.514,-0.119L0.485,-0L0.01,-0Z" style="fill:none;fill-rule:nonzero;stroke:white;stroke-width:0.07px;"/>
                        </g>
                        <g transform="matrix(151.081141,0,0,151.081141,9332.259342,357.692308)">
                        </g>
                        <g transform="matrix(151.081141,0,0,151.081141,9418.828836,357.692308)">
                            <path d="M0.299,0.01C0.255,0.01 0.214,0.005 0.177,-0.004C0.14,-0.013 0.106,-0.028 0.076,-0.046C0.046,-0.066 0.02,-0.089 -0.002,-0.117L0.084,-0.217C0.099,-0.194 0.117,-0.175 0.14,-0.159C0.163,-0.143 0.187,-0.131 0.214,-0.122C0.241,-0.113 0.266,-0.109 0.291,-0.109C0.308,-0.109 0.323,-0.111 0.334,-0.116C0.345,-0.12 0.353,-0.126 0.358,-0.133C0.363,-0.14 0.366,-0.148 0.366,-0.158C0.366,-0.169 0.361,-0.179 0.352,-0.186C0.343,-0.193 0.329,-0.2 0.31,-0.205L0.222,-0.231C0.195,-0.239 0.17,-0.25 0.148,-0.263C0.126,-0.276 0.109,-0.293 0.096,-0.314C0.083,-0.335 0.077,-0.359 0.077,-0.387C0.077,-0.426 0.087,-0.458 0.108,-0.485C0.129,-0.513 0.157,-0.533 0.193,-0.547C0.229,-0.561 0.27,-0.568 0.316,-0.568C0.377,-0.568 0.429,-0.558 0.473,-0.537C0.515,-0.517 0.551,-0.489 0.58,-0.454L0.487,-0.364C0.474,-0.383 0.459,-0.398 0.44,-0.411C0.421,-0.423 0.4,-0.432 0.379,-0.438C0.358,-0.444 0.336,-0.447 0.313,-0.447C0.289,-0.447 0.271,-0.443 0.26,-0.434C0.248,-0.425 0.242,-0.414 0.242,-0.401C0.242,-0.391 0.247,-0.382 0.257,-0.373C0.266,-0.365 0.282,-0.358 0.304,-0.351L0.392,-0.325C0.438,-0.312 0.473,-0.294 0.496,-0.271C0.52,-0.248 0.532,-0.217 0.532,-0.178C0.532,-0.137 0.522,-0.103 0.501,-0.075C0.48,-0.047 0.452,-0.026 0.417,-0.011C0.382,0.003 0.342,0.01 0.299,0.01Z" style="fill:none;fill-rule:nonzero;stroke:white;stroke-width:0.07px;"/>
                        </g>
                        <g transform="matrix(151.081141,0,0,151.081141,9418.828836,357.692308)">
                        </g>
                        <g transform="matrix(151.081141,0,0,151.081141,9504.945087,357.692308)">
                            <path d="M0.302,-0.56L0.172,-0L0.011,-0L0.141,-0.56L0.302,-0.56Z" style="fill:none;fill-rule:nonzero;stroke:white;stroke-width:0.07px;"/>
                        </g>
                        <g transform="matrix(151.081141,0,0,151.081141,9504.945087,357.692308)">
                        </g>
                        <g transform="matrix(151.081141,0,0,151.081141,9549.514023,357.692308)">
                            <path d="M0.282,0.008C0.238,0.008 0.198,-0.002 0.162,-0.022C0.126,-0.041 0.097,-0.07 0.076,-0.106C0.055,-0.143 0.044,-0.188 0.044,-0.24C0.044,-0.285 0.051,-0.328 0.065,-0.367C0.079,-0.406 0.1,-0.441 0.127,-0.471C0.154,-0.501 0.188,-0.525 0.228,-0.542C0.268,-0.559 0.314,-0.568 0.365,-0.568C0.409,-0.568 0.449,-0.561 0.484,-0.547C0.52,-0.534 0.549,-0.513 0.573,-0.486C0.596,-0.46 0.61,-0.427 0.617,-0.388L0.461,-0.361C0.457,-0.385 0.447,-0.405 0.431,-0.419C0.415,-0.435 0.392,-0.442 0.361,-0.442C0.337,-0.442 0.316,-0.437 0.296,-0.426C0.278,-0.416 0.261,-0.402 0.247,-0.384C0.234,-0.365 0.224,-0.344 0.216,-0.321C0.21,-0.297 0.206,-0.272 0.206,-0.245C0.206,-0.215 0.211,-0.19 0.222,-0.171C0.233,-0.151 0.248,-0.136 0.267,-0.127C0.286,-0.117 0.309,-0.112 0.336,-0.112C0.357,-0.112 0.375,-0.115 0.391,-0.121C0.406,-0.128 0.419,-0.137 0.43,-0.148C0.441,-0.159 0.449,-0.173 0.455,-0.19L0.458,-0.201L0.32,-0.201L0.342,-0.302L0.606,-0.302L0.531,-0L0.425,-0L0.439,-0.063C0.422,-0.04 0.401,-0.023 0.376,-0.011C0.351,0.002 0.319,0.008 0.282,0.008Z" style="fill:none;fill-rule:nonzero;stroke:white;stroke-width:0.07px;"/>
                        </g>
                        <g transform="matrix(151.081141,0,0,151.081141,9549.514023,357.692308)">
                        </g>
                        <g transform="matrix(151.081141,0,0,151.081141,9644.695142,357.692308)">
                            <path d="M0.011,-0L0.141,-0.56L0.321,-0.56L0.419,-0.267L0.447,-0.174L0.45,-0.174L0.474,-0.302L0.533,-0.56L0.689,-0.56L0.559,-0L0.381,-0L0.279,-0.305L0.254,-0.39L0.252,-0.39L0.225,-0.246L0.167,-0L0.011,-0Z" style="fill:none;fill-rule:nonzero;stroke:white;stroke-width:0.07px;"/>
                        </g>
                        <g transform="matrix(151.081141,0,0,151.081141,9644.695142,357.692308)">
                        </g>
                        <g transform="matrix(151.081141,0,0,151.081141,9747.732481,357.692308)">
                        </g>
                        <text x="8547.997px" y="357.692px" style="font-family:'WorkSans-BoldItalic', 'Work Sans';font-weight:700;font-style:italic;font-size:151.081px;fill:none;stroke:white;stroke-width:9.88px;">G<tspan x="9183.595px 9225.898px " y="357.692px 357.692px "> D</tspan></text>
                    </g>
                    <g transform="matrix(0.976024,0,0,1,204.944629,0)">
                        <g transform="matrix(151.081141,0,0,151.081141,8655.41583,357.692308)">
                            <path d="M0.011,-0L0.141,-0.56L0.399,-0.56C0.46,-0.56 0.509,-0.546 0.545,-0.517C0.581,-0.488 0.599,-0.448 0.599,-0.396C0.599,-0.362 0.592,-0.332 0.578,-0.307C0.564,-0.282 0.545,-0.261 0.52,-0.243C0.496,-0.227 0.468,-0.214 0.437,-0.205C0.406,-0.196 0.373,-0.192 0.34,-0.192L0.217,-0.192L0.171,-0L0.011,-0ZM0.394,-0L0.308,-0.207L0.454,-0.23L0.555,-0L0.394,-0ZM0.241,-0.298L0.333,-0.298C0.354,-0.298 0.371,-0.302 0.386,-0.309C0.401,-0.316 0.412,-0.326 0.42,-0.339C0.428,-0.352 0.432,-0.366 0.432,-0.382C0.432,-0.402 0.425,-0.417 0.411,-0.428C0.396,-0.44 0.377,-0.445 0.354,-0.445L0.275,-0.445L0.241,-0.298Z" style="fill:rgb(35,31,32);fill-rule:nonzero;"/>
                        </g>
                        <g transform="matrix(151.081141,0,0,151.081141,8655.41583,357.692308)">
                        </g>
                        <g transform="matrix(151.081141,0,0,151.081141,8759.057493,357.692308)">
                            <path d="M-0.051,-0L0.282,-0.56L0.487,-0.56L0.561,-0L0.405,-0L0.391,-0.118L0.184,-0.118L0.116,-0L-0.051,-0ZM0.245,-0.231L0.38,-0.231L0.356,-0.437L0.245,-0.231Z" style="fill:rgb(35,31,32);fill-rule:nonzero;"/>
                        </g>
                        <g transform="matrix(151.081141,0,0,151.081141,8759.057493,357.692308)">
                        </g>
                        <g transform="matrix(151.081141,0,0,151.081141,8854.540774,357.692308)">
                            <path d="M0.011,-0L0.141,-0.56L0.375,-0.56C0.446,-0.56 0.501,-0.544 0.54,-0.512C0.579,-0.481 0.598,-0.437 0.598,-0.381C0.598,-0.341 0.588,-0.306 0.568,-0.275C0.547,-0.244 0.518,-0.22 0.48,-0.203C0.443,-0.185 0.398,-0.177 0.345,-0.177L0.219,-0.177L0.178,-0L0.011,-0ZM0.246,-0.291L0.329,-0.291C0.351,-0.291 0.369,-0.295 0.385,-0.302C0.4,-0.309 0.411,-0.32 0.418,-0.333C0.426,-0.345 0.43,-0.36 0.43,-0.375C0.43,-0.396 0.423,-0.413 0.41,-0.424C0.397,-0.436 0.376,-0.442 0.348,-0.442L0.281,-0.442L0.246,-0.291Z" style="fill:rgb(35,31,32);fill-rule:nonzero;"/>
                        </g>
                        <g transform="matrix(151.081141,0,0,151.081141,8854.540774,357.692308)">
                        </g>
                        <g transform="matrix(151.081141,0,0,151.081141,8945.34054,357.692308)">
                            <path d="M0.011,-0L0.141,-0.56L0.308,-0.56L0.259,-0.348L0.463,-0.348L0.512,-0.56L0.679,-0.56L0.549,-0L0.382,-0L0.433,-0.22L0.229,-0.22L0.178,-0L0.011,-0Z" style="fill:rgb(35,31,32);fill-rule:nonzero;"/>
                        </g>
                        <g transform="matrix(151.081141,0,0,151.081141,8945.34054,357.692308)">
                        </g>
                        <g transform="matrix(151.081141,0,0,151.081141,9047.018148,357.692308)">
                            <path d="M0.302,-0.56L0.172,-0L0.011,-0L0.141,-0.56L0.302,-0.56Z" style="fill:rgb(35,31,32);fill-rule:nonzero;"/>
                        </g>
                        <g transform="matrix(151.081141,0,0,151.081141,9047.018148,357.692308)">
                        </g>
                        <g transform="matrix(151.081141,0,0,151.081141,9091.587084,357.692308)">
                            <path d="M0.315,0.008C0.264,0.008 0.219,-0.002 0.178,-0.021C0.137,-0.04 0.105,-0.069 0.081,-0.106C0.057,-0.144 0.045,-0.19 0.045,-0.243C0.045,-0.29 0.052,-0.333 0.067,-0.372C0.081,-0.412 0.102,-0.447 0.129,-0.476C0.156,-0.505 0.19,-0.527 0.229,-0.543C0.268,-0.56 0.313,-0.568 0.363,-0.568C0.407,-0.568 0.446,-0.561 0.481,-0.546C0.517,-0.532 0.546,-0.511 0.569,-0.483C0.592,-0.456 0.608,-0.422 0.615,-0.381L0.455,-0.347C0.452,-0.378 0.442,-0.402 0.426,-0.417C0.411,-0.432 0.389,-0.44 0.36,-0.44C0.335,-0.44 0.312,-0.433 0.293,-0.42C0.275,-0.408 0.259,-0.391 0.246,-0.37C0.234,-0.349 0.225,-0.327 0.219,-0.303C0.213,-0.28 0.21,-0.257 0.21,-0.234C0.21,-0.21 0.215,-0.19 0.224,-0.173C0.233,-0.155 0.246,-0.143 0.263,-0.134C0.28,-0.125 0.299,-0.121 0.32,-0.121C0.346,-0.121 0.368,-0.128 0.386,-0.142C0.404,-0.155 0.419,-0.174 0.43,-0.198L0.579,-0.142C0.554,-0.095 0.521,-0.059 0.478,-0.032C0.435,-0.005 0.38,0.008 0.315,0.008Z" style="fill:rgb(35,31,32);fill-rule:nonzero;"/>
                        </g>
                        <g transform="matrix(151.081141,0,0,151.081141,9091.587084,357.692308)">
                        </g>
                        <g transform="matrix(151.081141,0,0,151.081141,9332.259342,357.692308)">
                            <path d="M0.01,-0L0.14,-0.56L0.609,-0.56L0.581,-0.441L0.279,-0.441L0.255,-0.339L0.491,-0.339L0.465,-0.225L0.229,-0.225L0.205,-0.119L0.514,-0.119L0.485,-0L0.01,-0Z" style="fill:rgb(35,31,32);fill-rule:nonzero;"/>
                        </g>
                        <g transform="matrix(151.081141,0,0,151.081141,9332.259342,357.692308)">
                        </g>
                        <g transform="matrix(151.081141,0,0,151.081141,9418.828836,357.692308)">
                            <path d="M0.299,0.01C0.255,0.01 0.214,0.005 0.177,-0.004C0.14,-0.013 0.106,-0.028 0.076,-0.046C0.046,-0.066 0.02,-0.089 -0.002,-0.117L0.084,-0.217C0.099,-0.194 0.117,-0.175 0.14,-0.159C0.163,-0.143 0.187,-0.131 0.214,-0.122C0.241,-0.113 0.266,-0.109 0.291,-0.109C0.308,-0.109 0.323,-0.111 0.334,-0.116C0.345,-0.12 0.353,-0.126 0.358,-0.133C0.363,-0.14 0.366,-0.148 0.366,-0.158C0.366,-0.169 0.361,-0.179 0.352,-0.186C0.343,-0.193 0.329,-0.2 0.31,-0.205L0.222,-0.231C0.195,-0.239 0.17,-0.25 0.148,-0.263C0.126,-0.276 0.109,-0.293 0.096,-0.314C0.083,-0.335 0.077,-0.359 0.077,-0.387C0.077,-0.426 0.087,-0.458 0.108,-0.485C0.129,-0.513 0.157,-0.533 0.193,-0.547C0.229,-0.561 0.27,-0.568 0.316,-0.568C0.377,-0.568 0.429,-0.558 0.473,-0.537C0.515,-0.517 0.551,-0.489 0.58,-0.454L0.487,-0.364C0.474,-0.383 0.459,-0.398 0.44,-0.411C0.421,-0.423 0.4,-0.432 0.379,-0.438C0.358,-0.444 0.336,-0.447 0.313,-0.447C0.289,-0.447 0.271,-0.443 0.26,-0.434C0.248,-0.425 0.242,-0.414 0.242,-0.401C0.242,-0.391 0.247,-0.382 0.257,-0.373C0.266,-0.365 0.282,-0.358 0.304,-0.351L0.392,-0.325C0.438,-0.312 0.473,-0.294 0.496,-0.271C0.52,-0.248 0.532,-0.217 0.532,-0.178C0.532,-0.137 0.522,-0.103 0.501,-0.075C0.48,-0.047 0.452,-0.026 0.417,-0.011C0.382,0.003 0.342,0.01 0.299,0.01Z" style="fill:rgb(35,31,32);fill-rule:nonzero;"/>
                        </g>
                        <g transform="matrix(151.081141,0,0,151.081141,9418.828836,357.692308)">
                        </g>
                        <g transform="matrix(151.081141,0,0,151.081141,9504.945087,357.692308)">
                            <path d="M0.302,-0.56L0.172,-0L0.011,-0L0.141,-0.56L0.302,-0.56Z" style="fill:rgb(35,31,32);fill-rule:nonzero;"/>
                        </g>
                        <g transform="matrix(151.081141,0,0,151.081141,9504.945087,357.692308)">
                        </g>
                        <g transform="matrix(151.081141,0,0,151.081141,9549.514023,357.692308)">
                            <path d="M0.282,0.008C0.238,0.008 0.198,-0.002 0.162,-0.022C0.126,-0.041 0.097,-0.07 0.076,-0.106C0.055,-0.143 0.044,-0.188 0.044,-0.24C0.044,-0.285 0.051,-0.328 0.065,-0.367C0.079,-0.406 0.1,-0.441 0.127,-0.471C0.154,-0.501 0.188,-0.525 0.228,-0.542C0.268,-0.559 0.314,-0.568 0.365,-0.568C0.409,-0.568 0.449,-0.561 0.484,-0.547C0.52,-0.534 0.549,-0.513 0.573,-0.486C0.596,-0.46 0.61,-0.427 0.617,-0.388L0.461,-0.361C0.457,-0.385 0.447,-0.405 0.431,-0.419C0.415,-0.435 0.392,-0.442 0.361,-0.442C0.337,-0.442 0.316,-0.437 0.296,-0.426C0.278,-0.416 0.261,-0.402 0.247,-0.384C0.234,-0.365 0.224,-0.344 0.216,-0.321C0.21,-0.297 0.206,-0.272 0.206,-0.245C0.206,-0.215 0.211,-0.19 0.222,-0.171C0.233,-0.151 0.248,-0.136 0.267,-0.127C0.286,-0.117 0.309,-0.112 0.336,-0.112C0.357,-0.112 0.375,-0.115 0.391,-0.121C0.406,-0.128 0.419,-0.137 0.43,-0.148C0.441,-0.159 0.449,-0.173 0.455,-0.19L0.458,-0.201L0.32,-0.201L0.342,-0.302L0.606,-0.302L0.531,-0L0.425,-0L0.439,-0.063C0.422,-0.04 0.401,-0.023 0.376,-0.011C0.351,0.002 0.319,0.008 0.282,0.008Z" style="fill:rgb(35,31,32);fill-rule:nonzero;"/>
                        </g>
                        <g transform="matrix(151.081141,0,0,151.081141,9549.514023,357.692308)">
                        </g>
                        <g transform="matrix(151.081141,0,0,151.081141,9644.695142,357.692308)">
                            <path d="M0.011,-0L0.141,-0.56L0.321,-0.56L0.419,-0.267L0.447,-0.174L0.45,-0.174L0.474,-0.302L0.533,-0.56L0.689,-0.56L0.559,-0L0.381,-0L0.279,-0.305L0.254,-0.39L0.252,-0.39L0.225,-0.246L0.167,-0L0.011,-0Z" style="fill:rgb(35,31,32);fill-rule:nonzero;"/>
                        </g>
                        <g transform="matrix(151.081141,0,0,151.081141,9644.695142,357.692308)">
                        </g>
                        <g transform="matrix(151.081141,0,0,151.081141,9747.732481,357.692308)">
                        </g>
                        <text x="8547.997px" y="357.692px" style="font-family:'WorkSans-BoldItalic', 'Work Sans';font-weight:700;font-style:italic;font-size:151.081px;fill:rgb(35,31,32);">G<tspan x="9183.595px 9225.898px " y="357.692px 357.692px "> D</tspan></text>
                    </g>
                </g>
            </g>
        </g>
    </g>
</svg>
