<?xml version="1.0" encoding="UTF-8" standalone="no"?><!DOCTYPE svg PUBLIC "-//W3C//DTD SVG 1.1//EN" "http://www.w3.org/Graphics/SVG/1.1/DTD/svg11.dtd"><svg width="100%" height="100%" viewBox="0 0 1354 159" version="1.1" xmlns="http://www.w3.org/2000/svg" xmlns:xlink="http://www.w3.org/1999/xlink" xml:space="preserve" xmlns:serif="http://www.serif.com/" style="fill-rule:evenodd;clip-rule:evenodd;stroke-linejoin:round;stroke-miterlimit:2;"><g><path d="M129.302,150.069l21.681,-112l43.029,0c10.174,0 18.346,2.8 24.35,8.6c6.004,5.8 9.006,13.8 9.006,24.2c0,6.8 -1.167,12.8 -3.502,17.8c-2.335,5 -5.504,9.2 -9.673,12.8c-4.003,3.2 -8.673,5.8 -13.843,7.6c-5.17,1.8 -10.674,2.6 -16.178,2.6l-20.514,0l-7.672,38.4l-26.685,0Zm63.877,0l-14.343,-41.4l24.35,-4.6l16.845,46l-26.852,0Zm-25.517,-59.6l15.344,0c3.502,0 6.338,-0.8 8.839,-2.2c2.502,-1.4 4.336,-3.4 5.671,-6c1.334,-2.6 2.001,-5.4 2.001,-8.6c0,-4 -1.167,-7 -3.502,-9.2c-2.502,-2.4 -5.671,-3.4 -9.506,-3.4l-13.176,0l-5.671,29.4Z" style="fill:none;fill-rule:nonzero;stroke:#f36d21;stroke-width:12.89px;"/><path d="M233.373,150.069l55.538,-112l34.19,0l12.342,112l-26.018,0l-2.335,-23.6l-34.523,0l-11.341,23.6l-27.852,0Zm49.367,-46.2l22.515,0l-4.003,-41.2l-18.513,41.2Z" style="fill:none;fill-rule:nonzero;stroke:#f36d21;stroke-width:12.89px;"/><path d="M349.118,150.069l21.681,-112l39.027,0c11.841,0 21.014,3.2 27.519,9.6c6.504,6.2 9.673,15 9.673,26.2c0,8 -1.668,15 -5.003,21.2c-3.502,6.2 -8.339,11 -14.677,14.4c-6.171,3.6 -13.676,5.2 -22.515,5.2l-21.014,0l-6.838,35.4l-27.852,0Zm39.193,-58.2l13.843,0c3.669,0 6.671,-0.8 9.34,-2.2c2.502,-1.4 4.336,-3.6 5.504,-6.2c1.334,-2.4 2.001,-5.4 2.001,-8.4c0,-4.2 -1.167,-7.6 -3.336,-9.8c-2.168,-2.4 -5.671,-3.6 -10.34,-3.6l-11.174,0l-5.837,30.2Z" style="fill:none;fill-rule:nonzero;stroke:#f36d21;stroke-width:12.89px;"/><path d="M449.353,150.069l21.681,-112l27.852,0l-8.172,42.4l34.023,0l8.172,-42.4l27.852,0l-21.681,112l-27.852,0l8.506,-44l-34.023,0l-8.506,44l-27.852,0Z" style="fill:none;fill-rule:nonzero;stroke:#f36d21;stroke-width:12.89px;"/><path d="M610.129,38.069l-21.681,112l-26.852,0l21.681,-112l26.852,0Z" style="fill:none;fill-rule:nonzero;stroke:#f36d21;stroke-width:12.89px;"/><path d="M661.497,151.669c-8.506,0 -16.011,-2 -22.849,-5.8c-6.838,-3.8 -12.175,-9.6 -16.178,-17c-4.003,-7.6 -6.004,-16.8 -6.004,-27.4c0,-9.4 1.167,-18 3.669,-25.8c2.335,-8 5.837,-15 10.34,-20.8c4.503,-5.8 10.174,-10.2 16.678,-13.4c6.504,-3.4 14.01,-5 22.349,-5c7.338,0 13.843,1.4 19.68,4.4c6.004,2.8 10.841,7 14.677,12.6c3.836,5.4 6.504,12.2 7.672,20.4l-26.685,6.8c-0.5,-6.2 -2.168,-11 -4.837,-14c-2.502,-3 -6.171,-4.6 -11.007,-4.6c-4.17,0 -8.005,1.4 -11.174,4c-3.002,2.4 -5.671,5.8 -7.839,10c-2.001,4.2 -3.502,8.6 -4.503,13.4c-1.001,4.6 -1.501,9.2 -1.501,13.8c0,4.8 0.834,8.8 2.335,12.2c1.501,3.6 3.669,6 6.504,7.8c2.835,1.8 6.004,2.6 9.506,2.6c4.336,0 8.005,-1.4 11.007,-4.2c3.002,-2.6 5.504,-6.4 7.338,-11.2l24.85,11.2c-4.17,9.4 -9.673,16.6 -16.845,22c-7.172,5.4 -16.344,8 -27.185,8Z" style="fill:none;fill-rule:nonzero;stroke:#f36d21;stroke-width:12.89px;"/><path d="M876.31,150.069l21.681,-112l78.22,0l-4.67,23.8l-50.368,0l-4.003,20.4l39.36,0l-4.336,22.8l-39.36,0l-4.003,21.2l51.535,0l-4.837,23.8l-79.221,0Z" style="fill:none;fill-rule:nonzero;stroke:#f36d21;stroke-width:12.89px;"/><path d="M1020.074,152.069c-7.338,0 -14.176,-1 -20.347,-2.8c-6.171,-1.8 -11.841,-4.8 -16.845,-8.4c-5.003,-4 -9.34,-8.6 -13.009,-14.2l14.343,-20c2.502,4.6 5.504,8.4 9.34,11.6c3.836,3.2 7.839,5.6 12.342,7.4c4.503,1.8 8.673,2.6 12.842,2.6c2.835,0 5.337,-0.4 7.172,-1.4c1.835,-0.8 3.169,-2 4.003,-3.4c0.834,-1.4 1.334,-3 1.334,-5c0,-2.2 -0.834,-4.2 -2.335,-5.6c-1.501,-1.4 -3.836,-2.8 -7.005,-3.8l-14.677,-5.2c-4.503,-1.6 -8.673,-3.8 -12.342,-6.4c-3.669,-2.6 -6.504,-6 -8.673,-10.2c-2.168,-4.2 -3.169,-9 -3.169,-14.6c0,-7.8 1.668,-14.2 5.17,-19.6c3.502,-5.6 8.172,-9.6 14.176,-12.4c6.004,-2.8 12.842,-4.2 20.514,-4.2c10.174,0 18.846,2 26.184,6.2c7.005,4 13.009,9.6 17.845,16.6l-15.511,18c-2.168,-3.8 -4.67,-6.8 -7.839,-9.4c-3.169,-2.4 -6.671,-4.2 -10.174,-5.4c-3.502,-1.2 -7.172,-1.8 -11.007,-1.8c-4.003,0 -7.005,0.8 -8.839,2.6c-2.001,1.8 -3.002,4 -3.002,6.6c0,2 0.834,3.8 2.502,5.6c1.501,1.6 4.17,3 7.839,4.4l14.677,5.2c7.672,2.6 13.509,6.2 17.345,10.8c4.003,4.6 6.004,10.8 6.004,18.6c0,8.2 -1.668,15 -5.17,20.6c-3.502,5.6 -8.172,9.8 -14.01,12.8c-5.837,2.8 -12.509,4.2 -19.68,4.2Z" style="fill:none;fill-rule:nonzero;stroke:#f36d21;stroke-width:12.89px;"/><path d="M1115.639,38.069l-21.681,112l-26.852,0l21.681,-112l26.852,0Z" style="fill:none;fill-rule:nonzero;stroke:#f36d21;stroke-width:12.89px;"/><path d="M1161.503,151.669c-7.338,0 -14.01,-2 -20.014,-6c-6.004,-3.8 -10.841,-9.6 -14.343,-16.8c-3.502,-7.4 -5.337,-16.4 -5.337,-26.8c0,-9 1.167,-17.6 3.502,-25.4c2.335,-7.8 5.837,-14.8 10.34,-20.8c4.503,-6 10.174,-10.8 16.845,-14.2c6.671,-3.4 14.343,-5.2 22.849,-5.2c7.338,0 14.01,1.4 19.847,4.2c6.004,2.6 10.841,6.8 14.843,12.2c3.836,5.2 6.171,11.8 7.338,19.6l-26.018,5.4c-0.667,-4.8 -2.335,-8.8 -5.003,-11.6c-2.668,-3.2 -6.504,-4.6 -11.675,-4.6c-4.003,0 -7.505,1 -10.841,3.2c-3.002,2 -5.837,4.8 -8.172,8.4c-2.168,3.8 -3.836,8 -5.17,12.6c-1.001,4.8 -1.668,9.8 -1.668,15.2c0,6 0.834,11 2.668,14.8c1.835,4 4.336,7 7.505,8.8c3.169,2 7.005,3 11.508,3c3.502,0 6.504,-0.6 9.173,-1.8c2.502,-1.4 4.67,-3.2 6.504,-5.4c1.835,-2.2 3.169,-5 4.17,-8.4l0.5,-2.2l-23.016,0l3.669,-20.2l44.03,0l-12.509,60.4l-17.679,0l2.335,-12.6c-2.835,4.6 -6.338,8 -10.507,10.4c-4.17,2.6 -9.506,3.8 -15.677,3.8Z" style="fill:none;fill-rule:nonzero;stroke:#f36d21;stroke-width:12.89px;"/><path d="M1221.377,150.069l21.681,-112l30.02,0l16.344,58.6l4.67,18.6l0.5,0l4.003,-25.6l9.84,-51.6l26.018,0l-21.681,112l-29.687,0l-17.012,-61l-4.17,-17l-0.334,0l-4.503,28.8l-9.673,49.2l-26.018,0Z" style="fill:none;fill-rule:nonzero;stroke:#f36d21;stroke-width:12.89px;"/><path d="M62.59,151.868c-8.228,0 -15.65,-2.3 -22.265,-6.9c-6.616,-4.6 -11.869,-11.167 -15.761,-19.7c-3.892,-8.533 -5.837,-18.733 -5.837,-30.6c0,-10.667 1.334,-20.7 4.003,-30.1c2.668,-9.4 6.56,-17.767 11.675,-25.1c5.115,-7.333 11.424,-13.067 18.93,-17.2c7.505,-4.133 16.15,-6.2 25.934,-6.2c8.117,0 15.427,1.567 21.932,4.7c6.504,3.133 11.897,7.767 16.178,13.9c4.281,6.133 6.977,13.667 8.089,22.6l-27.018,6.2c-0.778,-6.667 -2.835,-11.733 -6.171,-15.2c-3.336,-3.467 -7.894,-5.2 -13.676,-5.2c-4.67,0 -8.923,1.267 -12.759,3.8c-3.836,2.533 -7.116,6.067 -9.84,10.6c-2.724,4.533 -4.809,9.767 -6.254,15.7c-1.445,5.933 -2.168,12.233 -2.168,18.9c0,6.933 0.889,12.933 2.668,18c1.779,5.067 4.447,8.967 8.005,11.7c3.558,2.733 8.005,4.1 13.342,4.1c4.225,0 7.894,-0.8 11.007,-2.4c3.113,-1.6 5.671,-3.833 7.672,-6.7c2.001,-2.867 3.502,-6.167 4.503,-9.9l1.334,-4.4l-26.351,0l4.336,-22.8l49.033,0l-14.677,70.4l-19.013,0l5.504,-31l2.502,3.2c-2.001,6.4 -4.559,11.8 -7.672,16.2c-3.113,4.4 -6.894,7.733 -11.341,10c-4.447,2.267 -9.729,3.4 -15.844,3.4Z" style="fill:none;fill-rule:nonzero;stroke:#f36d21;stroke-width:12.14px;"/><path d="M760.378,150.069l25.517,-132l38.86,0c10.452,0 19.207,2.267 26.268,6.8c7.06,4.533 12.425,10.867 16.094,19c3.669,8.133 5.504,17.533 5.504,28.2c0,11.6 -1.39,22.167 -4.169,31.7c-2.78,9.533 -6.838,17.733 -12.175,24.6c-5.337,6.867 -11.814,12.2 -19.43,16c-7.616,3.8 -16.205,5.7 -25.767,5.7l-50.701,0Zm33.69,-26l16.011,0c5.559,0 10.452,-1.467 14.677,-4.4c4.225,-2.933 7.727,-6.9 10.507,-11.9c2.78,-5 4.864,-10.567 6.254,-16.7c1.39,-6.133 2.085,-12.4 2.085,-18.8c0,-5.733 -0.806,-10.7 -2.418,-14.9c-1.612,-4.2 -4.031,-7.467 -7.255,-9.8c-3.224,-2.333 -7.338,-3.5 -12.342,-3.5l-12.008,0l-15.511,80Z" style="fill:none;fill-rule:nonzero;stroke:#f36d21;stroke-width:12.14px;"/><path d="M129.302,150.069l21.681,-112l43.029,0c10.174,0 18.346,2.8 24.35,8.6c6.004,5.8 9.006,13.8 9.006,24.2c0,6.8 -1.167,12.8 -3.502,17.8c-2.335,5 -5.504,9.2 -9.673,12.8c-4.003,3.2 -8.673,5.8 -13.843,7.6c-5.17,1.8 -10.674,2.6 -16.178,2.6l-20.514,0l-7.672,38.4l-26.685,0Zm63.877,0l-14.343,-41.4l24.35,-4.6l16.845,46l-26.852,0Zm-25.517,-59.6l15.344,0c3.502,0 6.338,-0.8 8.839,-2.2c2.502,-1.4 4.336,-3.4 5.671,-6c1.334,-2.6 2.001,-5.4 2.001,-8.6c0,-4 -1.167,-7 -3.502,-9.2c-2.502,-2.4 -5.671,-3.4 -9.506,-3.4l-13.176,0l-5.671,29.4Z" style="fill:#f36d21;fill-rule:nonzero;"/><path d="M233.373,150.069l55.538,-112l34.19,0l12.342,112l-26.018,0l-2.335,-23.6l-34.523,0l-11.341,23.6l-27.852,0Zm49.367,-46.2l22.515,0l-4.003,-41.2l-18.513,41.2Z" style="fill:#f36d21;fill-rule:nonzero;"/><path d="M349.118,150.069l21.681,-112l39.027,0c11.841,0 21.014,3.2 27.519,9.6c6.504,6.2 9.673,15 9.673,26.2c0,8 -1.668,15 -5.003,21.2c-3.502,6.2 -8.339,11 -14.677,14.4c-6.171,3.6 -13.676,5.2 -22.515,5.2l-21.014,0l-6.838,35.4l-27.852,0Zm39.193,-58.2l13.843,0c3.669,0 6.671,-0.8 9.34,-2.2c2.502,-1.4 4.336,-3.6 5.504,-6.2c1.334,-2.4 2.001,-5.4 2.001,-8.4c0,-4.2 -1.167,-7.6 -3.336,-9.8c-2.168,-2.4 -5.671,-3.6 -10.34,-3.6l-11.174,0l-5.837,30.2Z" style="fill:#f36d21;fill-rule:nonzero;"/><path d="M449.353,150.069l21.681,-112l27.852,0l-8.172,42.4l34.023,0l8.172,-42.4l27.852,0l-21.681,112l-27.852,0l8.506,-44l-34.023,0l-8.506,44l-27.852,0Z" style="fill:#f36d21;fill-rule:nonzero;"/><path d="M610.129,38.069l-21.681,112l-26.852,0l21.681,-112l26.852,0Z" style="fill:#f36d21;fill-rule:nonzero;"/><path d="M661.497,151.669c-8.506,0 -16.011,-2 -22.849,-5.8c-6.838,-3.8 -12.175,-9.6 -16.178,-17c-4.003,-7.6 -6.004,-16.8 -6.004,-27.4c0,-9.4 1.167,-18 3.669,-25.8c2.335,-8 5.837,-15 10.34,-20.8c4.503,-5.8 10.174,-10.2 16.678,-13.4c6.504,-3.4 14.01,-5 22.349,-5c7.338,0 13.843,1.4 19.68,4.4c6.004,2.8 10.841,7 14.677,12.6c3.836,5.4 6.504,12.2 7.672,20.4l-26.685,6.8c-0.5,-6.2 -2.168,-11 -4.837,-14c-2.502,-3 -6.171,-4.6 -11.007,-4.6c-4.17,0 -8.005,1.4 -11.174,4c-3.002,2.4 -5.671,5.8 -7.839,10c-2.001,4.2 -3.502,8.6 -4.503,13.4c-1.001,4.6 -1.501,9.2 -1.501,13.8c0,4.8 0.834,8.8 2.335,12.2c1.501,3.6 3.669,6 6.504,7.8c2.835,1.8 6.004,2.6 9.506,2.6c4.336,0 8.005,-1.4 11.007,-4.2c3.002,-2.6 5.504,-6.4 7.338,-11.2l24.85,11.2c-4.17,9.4 -9.673,16.6 -16.845,22c-7.172,5.4 -16.344,8 -27.185,8Z" style="fill:#f36d21;fill-rule:nonzero;"/><path d="M876.31,150.069l21.681,-112l78.22,0l-4.67,23.8l-50.368,0l-4.003,20.4l39.36,0l-4.336,22.8l-39.36,0l-4.003,21.2l51.535,0l-4.837,23.8l-79.221,0Z" style="fill:#f36d21;fill-rule:nonzero;"/><path d="M1020.074,152.069c-7.338,0 -14.176,-1 -20.347,-2.8c-6.171,-1.8 -11.841,-4.8 -16.845,-8.4c-5.003,-4 -9.34,-8.6 -13.009,-14.2l14.343,-20c2.502,4.6 5.504,8.4 9.34,11.6c3.836,3.2 7.839,5.6 12.342,7.4c4.503,1.8 8.673,2.6 12.842,2.6c2.835,0 5.337,-0.4 7.172,-1.4c1.835,-0.8 3.169,-2 4.003,-3.4c0.834,-1.4 1.334,-3 1.334,-5c0,-2.2 -0.834,-4.2 -2.335,-5.6c-1.501,-1.4 -3.836,-2.8 -7.005,-3.8l-14.677,-5.2c-4.503,-1.6 -8.673,-3.8 -12.342,-6.4c-3.669,-2.6 -6.504,-6 -8.673,-10.2c-2.168,-4.2 -3.169,-9 -3.169,-14.6c0,-7.8 1.668,-14.2 5.17,-19.6c3.502,-5.6 8.172,-9.6 14.176,-12.4c6.004,-2.8 12.842,-4.2 20.514,-4.2c10.174,0 18.846,2 26.184,6.2c7.005,4 13.009,9.6 17.845,16.6l-15.511,18c-2.168,-3.8 -4.67,-6.8 -7.839,-9.4c-3.169,-2.4 -6.671,-4.2 -10.174,-5.4c-3.502,-1.2 -7.172,-1.8 -11.007,-1.8c-4.003,0 -7.005,0.8 -8.839,2.6c-2.001,1.8 -3.002,4 -3.002,6.6c0,2 0.834,3.8 2.502,5.6c1.501,1.6 4.17,3 7.839,4.4l14.677,5.2c7.672,2.6 13.509,6.2 17.345,10.8c4.003,4.6 6.004,10.8 6.004,18.6c0,8.2 -1.668,15 -5.17,20.6c-3.502,5.6 -8.172,9.8 -14.01,12.8c-5.837,2.8 -12.509,4.2 -19.68,4.2Z" style="fill:#f36d21;fill-rule:nonzero;"/><path d="M1115.639,38.069l-21.681,112l-26.852,0l21.681,-112l26.852,0Z" style="fill:#f36d21;fill-rule:nonzero;"/><path d="M1161.503,151.669c-7.338,0 -14.01,-2 -20.014,-6c-6.004,-3.8 -10.841,-9.6 -14.343,-16.8c-3.502,-7.4 -5.337,-16.4 -5.337,-26.8c0,-9 1.167,-17.6 3.502,-25.4c2.335,-7.8 5.837,-14.8 10.34,-20.8c4.503,-6 10.174,-10.8 16.845,-14.2c6.671,-3.4 14.343,-5.2 22.849,-5.2c7.338,0 14.01,1.4 19.847,4.2c6.004,2.6 10.841,6.8 14.843,12.2c3.836,5.2 6.171,11.8 7.338,19.6l-26.018,5.4c-0.667,-4.8 -2.335,-8.8 -5.003,-11.6c-2.668,-3.2 -6.504,-4.6 -11.675,-4.6c-4.003,0 -7.505,1 -10.841,3.2c-3.002,2 -5.837,4.8 -8.172,8.4c-2.168,3.8 -3.836,8 -5.17,12.6c-1.001,4.8 -1.668,9.8 -1.668,15.2c0,6 0.834,11 2.668,14.8c1.835,4 4.336,7 7.505,8.8c3.169,2 7.005,3 11.508,3c3.502,0 6.504,-0.6 9.173,-1.8c2.502,-1.4 4.67,-3.2 6.504,-5.4c1.835,-2.2 3.169,-5 4.17,-8.4l0.5,-2.2l-23.016,0l3.669,-20.2l44.03,0l-12.509,60.4l-17.679,0l2.335,-12.6c-2.835,4.6 -6.338,8 -10.507,10.4c-4.17,2.6 -9.506,3.8 -15.677,3.8Z" style="fill:#f36d21;fill-rule:nonzero;"/><path d="M1221.377,150.069l21.681,-112l30.02,0l16.344,58.6l4.67,18.6l0.5,0l4.003,-25.6l9.84,-51.6l26.018,0l-21.681,112l-29.687,0l-17.012,-61l-4.17,-17l-0.334,0l-4.503,28.8l-9.673,49.2l-26.018,0Z" style="fill:#f36d21;fill-rule:nonzero;"/><path d="M62.59,151.868c-8.228,0 -15.65,-2.3 -22.265,-6.9c-6.616,-4.6 -11.869,-11.167 -15.761,-19.7c-3.892,-8.533 -5.837,-18.733 -5.837,-30.6c0,-10.667 1.334,-20.7 4.003,-30.1c2.668,-9.4 6.56,-17.767 11.675,-25.1c5.115,-7.333 11.424,-13.067 18.93,-17.2c7.505,-4.133 16.15,-6.2 25.934,-6.2c8.117,0 15.427,1.567 21.932,4.7c6.504,3.133 11.897,7.767 16.178,13.9c4.281,6.133 6.977,13.667 8.089,22.6l-27.018,6.2c-0.778,-6.667 -2.835,-11.733 -6.171,-15.2c-3.336,-3.467 -7.894,-5.2 -13.676,-5.2c-4.67,0 -8.923,1.267 -12.759,3.8c-3.836,2.533 -7.116,6.067 -9.84,10.6c-2.724,4.533 -4.809,9.767 -6.254,15.7c-1.445,5.933 -2.168,12.233 -2.168,18.9c0,6.933 0.889,12.933 2.668,18c1.779,5.067 4.447,8.967 8.005,11.7c3.558,2.733 8.005,4.1 13.342,4.1c4.225,0 7.894,-0.8 11.007,-2.4c3.113,-1.6 5.671,-3.833 7.672,-6.7c2.001,-2.867 3.502,-6.167 4.503,-9.9l1.334,-4.4l-26.351,0l4.336,-22.8l49.033,0l-14.677,70.4l-19.013,0l5.504,-31l2.502,3.2c-2.001,6.4 -4.559,11.8 -7.672,16.2c-3.113,4.4 -6.894,7.733 -11.341,10c-4.447,2.267 -9.729,3.4 -15.844,3.4Z" style="fill:#f36d21;fill-rule:nonzero;"/><path d="M760.378,150.069l25.517,-132l38.86,0c10.452,0 19.207,2.267 26.268,6.8c7.06,4.533 12.425,10.867 16.094,19c3.669,8.133 5.504,17.533 5.504,28.2c0,11.6 -1.39,22.167 -4.169,31.7c-2.78,9.533 -6.838,17.733 -12.175,24.6c-5.337,6.867 -11.814,12.2 -19.43,16c-7.616,3.8 -16.205,5.7 -25.767,5.7l-50.701,0Zm33.69,-26l16.011,0c5.559,0 10.452,-1.467 14.677,-4.4c4.225,-2.933 7.727,-6.9 10.507,-11.9c2.78,-5 4.864,-10.567 6.254,-16.7c1.39,-6.133 2.085,-12.4 2.085,-18.8c0,-5.733 -0.806,-10.7 -2.418,-14.9c-1.612,-4.2 -4.031,-7.467 -7.255,-9.8c-3.224,-2.333 -7.338,-3.5 -12.342,-3.5l-12.008,0l-15.511,80Z" style="fill:#f36d21;fill-rule:nonzero;"/><path d="M118.78,140.069l22.1,-112l43.86,0c10.37,0 18.7,2.8 24.82,8.6c6.12,5.8 9.18,13.8 9.18,24.2c0,6.8 -1.19,12.8 -3.57,17.8c-2.38,5 -5.61,9.2 -9.86,12.8c-4.08,3.2 -8.84,5.8 -14.11,7.6c-5.27,1.8 -10.88,2.6 -16.49,2.6l-20.91,0l-7.82,38.4l-27.2,0Zm65.11,0l-14.62,-41.4l24.82,-4.6l17.17,46l-27.37,0Zm-26.01,-59.6l15.64,0c3.57,0 6.46,-0.8 9.01,-2.2c2.55,-1.4 4.42,-3.4 5.78,-6c1.36,-2.6 2.04,-5.4 2.04,-8.6c0,-4 -1.19,-7 -3.57,-9.2c-2.55,-2.4 -5.78,-3.4 -9.69,-3.4l-13.43,0l-5.78,29.4Z" style="fill:none;fill-rule:nonzero;stroke:#fff;stroke-width:12.99px;"/><path d="M224.86,140.069l56.61,-112l34.85,0l12.58,112l-26.52,0l-2.38,-23.6l-35.19,0l-11.56,23.6l-28.39,0Zm50.32,-46.2l22.95,0l-4.08,-41.2l-18.87,41.2Z" style="fill:none;fill-rule:nonzero;stroke:#fff;stroke-width:12.99px;"/><path d="M342.84,140.069l22.1,-112l39.78,0c12.07,0 21.42,3.2 28.05,9.6c6.63,6.2 9.86,15 9.86,26.2c0,8 -1.7,15 -5.1,21.2c-3.57,6.2 -8.5,11 -14.96,14.4c-6.29,3.6 -13.94,5.2 -22.95,5.2l-21.42,0l-6.97,35.4l-28.39,0Zm39.95,-58.2l14.11,0c3.74,0 6.8,-0.8 9.52,-2.2c2.55,-1.4 4.42,-3.6 5.61,-6.2c1.36,-2.4 2.04,-5.4 2.04,-8.4c0,-4.2 -1.19,-7.6 -3.4,-9.8c-2.21,-2.4 -5.78,-3.6 -10.54,-3.6l-11.39,0l-5.95,30.2Z" style="fill:none;fill-rule:nonzero;stroke:#fff;stroke-width:12.99px;"/><path d="M445.01,140.069l22.1,-112l28.39,0l-8.33,42.4l34.68,0l8.33,-42.4l28.39,0l-22.1,112l-28.39,0l8.67,-44l-34.68,0l-8.67,44l-28.39,0Z" style="fill:none;fill-rule:nonzero;stroke:#fff;stroke-width:12.99px;"/><path d="M608.891,28.069l-22.1,112l-27.37,0l22.1,-112l27.37,0Z" style="fill:none;fill-rule:nonzero;stroke:#fff;stroke-width:12.99px;"/><path d="M661.251,141.669c-8.67,0 -16.32,-2 -23.29,-5.8c-6.97,-3.8 -12.41,-9.6 -16.49,-17c-4.08,-7.6 -6.12,-16.8 -6.12,-27.4c0,-9.4 1.19,-18 3.74,-25.8c2.38,-8 5.95,-15 10.54,-20.8c4.59,-5.8 10.37,-10.2 17,-13.4c6.63,-3.4 14.28,-5 22.78,-5c7.48,0 14.11,1.4 20.06,4.4c6.12,2.8 11.05,7 14.96,12.6c3.91,5.4 6.63,12.2 7.82,20.4l-27.2,6.8c-0.51,-6.2 -2.21,-11 -4.93,-14c-2.55,-3 -6.29,-4.6 -11.22,-4.6c-4.25,0 -8.16,1.4 -11.39,4c-3.06,2.4 -5.78,5.8 -7.99,10c-2.04,4.2 -3.57,8.6 -4.59,13.4c-1.02,4.6 -1.53,9.2 -1.53,13.8c0,4.8 0.85,8.8 2.38,12.2c1.53,3.6 3.74,6 6.63,7.8c2.89,1.8 6.12,2.6 9.69,2.6c4.42,0 8.16,-1.4 11.22,-4.2c3.06,-2.6 5.61,-6.4 7.48,-11.2l25.33,11.2c-4.25,9.4 -9.86,16.6 -17.17,22c-7.31,5.4 -16.66,8 -27.71,8Z" style="fill:none;fill-rule:nonzero;stroke:#fff;stroke-width:12.99px;"/><path d="M880.211,140.069l22.1,-112l79.73,0l-4.76,23.8l-51.34,0l-4.08,20.4l40.12,0l-4.42,22.8l-40.12,0l-4.08,21.2l52.53,0l-4.93,23.8l-80.75,0Z" style="fill:none;fill-rule:nonzero;stroke:#fff;stroke-width:12.99px;"/><path d="M1026.751,142.069c-7.48,0 -14.45,-1 -20.74,-2.8c-6.29,-1.8 -12.07,-4.8 -17.17,-8.4c-5.1,-4 -9.52,-8.6 -13.26,-14.2l14.62,-20c2.55,4.6 5.61,8.4 9.52,11.6c3.91,3.2 7.99,5.6 12.58,7.4c4.59,1.8 8.84,2.6 13.09,2.6c2.89,0 5.44,-0.4 7.31,-1.4c1.87,-0.8 3.23,-2 4.08,-3.4c0.85,-1.4 1.36,-3 1.36,-5c0,-2.2 -0.85,-4.2 -2.38,-5.6c-1.53,-1.4 -3.91,-2.8 -7.14,-3.8l-14.96,-5.2c-4.59,-1.6 -8.84,-3.8 -12.58,-6.4c-3.74,-2.6 -6.63,-6 -8.84,-10.2c-2.21,-4.2 -3.23,-9 -3.23,-14.6c0,-7.8 1.7,-14.2 5.27,-19.6c3.57,-5.6 8.33,-9.6 14.45,-12.4c6.12,-2.8 13.09,-4.2 20.91,-4.2c10.37,0 19.21,2 26.69,6.2c7.14,4 13.26,9.6 18.19,16.6l-15.81,18c-2.21,-3.8 -4.76,-6.8 -7.99,-9.4c-3.23,-2.4 -6.8,-4.2 -10.37,-5.4c-3.57,-1.2 -7.31,-1.8 -11.22,-1.8c-4.08,0 -7.14,0.8 -9.01,2.6c-2.04,1.8 -3.06,4 -3.06,6.6c0,2 0.85,3.8 2.55,5.6c1.53,1.6 4.25,3 7.99,4.4l14.96,5.2c7.82,2.6 13.77,6.2 17.68,10.8c4.08,4.6 6.12,10.8 6.12,18.6c0,8.2 -1.7,15 -5.27,20.6c-3.57,5.6 -8.33,9.8 -14.28,12.8c-5.95,2.8 -12.75,4.2 -20.06,4.2Z" style="fill:none;fill-rule:nonzero;stroke:#fff;stroke-width:12.99px;"/><path d="M1124.161,28.069l-22.1,112l-27.37,0l22.1,-112l27.37,0Z" style="fill:none;fill-rule:nonzero;stroke:#fff;stroke-width:12.99px;"/><path d="M1170.911,141.669c-7.48,0 -14.28,-2 -20.4,-6c-6.12,-3.8 -11.05,-9.6 -14.62,-16.8c-3.57,-7.4 -5.44,-16.4 -5.44,-26.8c0,-9 1.19,-17.6 3.57,-25.4c2.38,-7.8 5.95,-14.8 10.54,-20.8c4.59,-6 10.37,-10.8 17.17,-14.2c6.8,-3.4 14.62,-5.2 23.29,-5.2c7.48,0 14.28,1.4 20.23,4.2c6.12,2.6 11.05,6.8 15.13,12.2c3.91,5.2 6.29,11.8 7.48,19.6l-26.52,5.4c-0.68,-4.8 -2.38,-8.8 -5.1,-11.6c-2.72,-3.2 -6.63,-4.6 -11.9,-4.6c-4.08,0 -7.65,1 -11.05,3.2c-3.06,2 -5.95,4.8 -8.33,8.4c-2.21,3.8 -3.91,8 -5.27,12.6c-1.02,4.8 -1.7,9.8 -1.7,15.2c0,6 0.85,11 2.72,14.8c1.87,4 4.42,7 7.65,8.8c3.23,2 7.14,3 11.73,3c3.57,0 6.63,-0.6 9.35,-1.8c2.55,-1.4 4.76,-3.2 6.63,-5.4c1.87,-2.2 3.23,-5 4.25,-8.4l0.51,-2.2l-23.46,0l3.74,-20.2l44.88,0l-12.75,60.4l-18.02,0l2.38,-12.6c-2.89,4.6 -6.46,8 -10.71,10.4c-4.25,2.6 -9.69,3.8 -15.98,3.8Z" style="fill:none;fill-rule:nonzero;stroke:#fff;stroke-width:12.99px;"/><path d="M1231.941,140.069l22.1,-112l30.6,0l16.66,58.6l4.76,18.6l0.51,0l4.08,-25.6l10.03,-51.6l26.52,0l-22.1,112l-30.26,0l-17.34,-61l-4.25,-17l-0.34,0l-4.59,28.8l-9.86,49.2l-26.52,0Z" style="fill:none;fill-rule:nonzero;stroke:#fff;stroke-width:12.99px;"/><path d="M50.78,141.868c-8.387,0 -15.952,-2.3 -22.695,-6.9c-6.743,-4.6 -12.098,-11.167 -16.065,-19.7c-3.967,-8.533 -5.95,-18.733 -5.95,-30.6c0,-10.667 1.36,-20.7 4.08,-30.1c2.72,-9.4 6.687,-17.767 11.9,-25.1c5.213,-7.333 11.645,-13.067 19.295,-17.2c7.65,-4.133 16.462,-6.2 26.435,-6.2c8.273,0 15.725,1.567 22.355,4.7c6.63,3.133 12.127,7.767 16.49,13.9c4.363,6.133 7.112,13.667 8.245,22.6l-27.54,6.2c-0.793,-6.667 -2.89,-11.733 -6.29,-15.2c-3.4,-3.467 -8.047,-5.2 -13.94,-5.2c-4.76,0 -9.095,1.267 -13.005,3.8c-3.91,2.533 -7.253,6.067 -10.03,10.6c-2.777,4.533 -4.902,9.767 -6.375,15.7c-1.473,5.933 -2.21,12.233 -2.21,18.9c0,6.933 0.907,12.933 2.72,18c1.813,5.067 4.533,8.967 8.16,11.7c3.627,2.733 8.16,4.1 13.6,4.1c4.307,0 8.047,-0.8 11.22,-2.4c3.173,-1.6 5.78,-3.833 7.82,-6.7c2.04,-2.867 3.57,-6.167 4.59,-9.9l1.36,-4.4l-26.86,0l4.42,-22.8l49.98,0l-14.96,70.4l-19.38,0l5.61,-31l2.55,3.2c-2.04,6.4 -4.647,11.8 -7.82,16.2c-3.173,4.4 -7.027,7.733 -11.56,10c-4.533,2.267 -9.917,3.4 -16.15,3.4Z" style="fill:none;fill-rule:nonzero;stroke:#fff;stroke-width:12.14px;"/><path d="M761.124,140.069l26.01,-132l39.61,0c10.653,0 19.578,2.267 26.775,6.8c7.197,4.533 12.665,10.867 16.405,19c3.74,8.133 5.61,17.533 5.61,28.2c0,11.6 -1.417,22.167 -4.25,31.7c-2.833,9.533 -6.97,17.733 -12.41,24.6c-5.44,6.867 -12.042,12.2 -19.805,16c-7.763,3.8 -16.518,5.7 -26.265,5.7l-51.68,0Zm34.34,-26l16.32,0c5.667,0 10.653,-1.467 14.96,-4.4c4.307,-2.933 7.877,-6.9 10.71,-11.9c2.833,-5 4.958,-10.567 6.375,-16.7c1.417,-6.133 2.125,-12.4 2.125,-18.8c0,-5.733 -0.822,-10.7 -2.465,-14.9c-1.643,-4.2 -4.108,-7.467 -7.395,-9.8c-3.287,-2.333 -7.48,-3.5 -12.58,-3.5l-12.24,0l-15.81,80Z" style="fill:none;fill-rule:nonzero;stroke:#fff;stroke-width:12.14px;"/><path d="M118.78,140.069l22.1,-112l43.86,0c10.37,0 18.7,2.8 24.82,8.6c6.12,5.8 9.18,13.8 9.18,24.2c0,6.8 -1.19,12.8 -3.57,17.8c-2.38,5 -5.61,9.2 -9.86,12.8c-4.08,3.2 -8.84,5.8 -14.11,7.6c-5.27,1.8 -10.88,2.6 -16.49,2.6l-20.91,0l-7.82,38.4l-27.2,0Zm65.11,0l-14.62,-41.4l24.82,-4.6l17.17,46l-27.37,0Zm-26.01,-59.6l15.64,0c3.57,0 6.46,-0.8 9.01,-2.2c2.55,-1.4 4.42,-3.4 5.78,-6c1.36,-2.6 2.04,-5.4 2.04,-8.6c0,-4 -1.19,-7 -3.57,-9.2c-2.55,-2.4 -5.78,-3.4 -9.69,-3.4l-13.43,0l-5.78,29.4Z" style="fill:#231f20;fill-rule:nonzero;"/><path d="M224.86,140.069l56.61,-112l34.85,0l12.58,112l-26.52,0l-2.38,-23.6l-35.19,0l-11.56,23.6l-28.39,0Zm50.32,-46.2l22.95,0l-4.08,-41.2l-18.87,41.2Z" style="fill:#231f20;fill-rule:nonzero;"/><path d="M342.84,140.069l22.1,-112l39.78,0c12.07,0 21.42,3.2 28.05,9.6c6.63,6.2 9.86,15 9.86,26.2c0,8 -1.7,15 -5.1,21.2c-3.57,6.2 -8.5,11 -14.96,14.4c-6.29,3.6 -13.94,5.2 -22.95,5.2l-21.42,0l-6.97,35.4l-28.39,0Zm39.95,-58.2l14.11,0c3.74,0 6.8,-0.8 9.52,-2.2c2.55,-1.4 4.42,-3.6 5.61,-6.2c1.36,-2.4 2.04,-5.4 2.04,-8.4c0,-4.2 -1.19,-7.6 -3.4,-9.8c-2.21,-2.4 -5.78,-3.6 -10.54,-3.6l-11.39,0l-5.95,30.2Z" style="fill:#231f20;fill-rule:nonzero;"/><path d="M445.01,140.069l22.1,-112l28.39,0l-8.33,42.4l34.68,0l8.33,-42.4l28.39,0l-22.1,112l-28.39,0l8.67,-44l-34.68,0l-8.67,44l-28.39,0Z" style="fill:#231f20;fill-rule:nonzero;"/><path d="M608.891,28.069l-22.1,112l-27.37,0l22.1,-112l27.37,0Z" style="fill:#231f20;fill-rule:nonzero;"/><path d="M661.251,141.669c-8.67,0 -16.32,-2 -23.29,-5.8c-6.97,-3.8 -12.41,-9.6 -16.49,-17c-4.08,-7.6 -6.12,-16.8 -6.12,-27.4c0,-9.4 1.19,-18 3.74,-25.8c2.38,-8 5.95,-15 10.54,-20.8c4.59,-5.8 10.37,-10.2 17,-13.4c6.63,-3.4 14.28,-5 22.78,-5c7.48,0 14.11,1.4 20.06,4.4c6.12,2.8 11.05,7 14.96,12.6c3.91,5.4 6.63,12.2 7.82,20.4l-27.2,6.8c-0.51,-6.2 -2.21,-11 -4.93,-14c-2.55,-3 -6.29,-4.6 -11.22,-4.6c-4.25,0 -8.16,1.4 -11.39,4c-3.06,2.4 -5.78,5.8 -7.99,10c-2.04,4.2 -3.57,8.6 -4.59,13.4c-1.02,4.6 -1.53,9.2 -1.53,13.8c0,4.8 0.85,8.8 2.38,12.2c1.53,3.6 3.74,6 6.63,7.8c2.89,1.8 6.12,2.6 9.69,2.6c4.42,0 8.16,-1.4 11.22,-4.2c3.06,-2.6 5.61,-6.4 7.48,-11.2l25.33,11.2c-4.25,9.4 -9.86,16.6 -17.17,22c-7.31,5.4 -16.66,8 -27.71,8Z" style="fill:#231f20;fill-rule:nonzero;"/><path d="M880.211,140.069l22.1,-112l79.73,0l-4.76,23.8l-51.34,0l-4.08,20.4l40.12,0l-4.42,22.8l-40.12,0l-4.08,21.2l52.53,0l-4.93,23.8l-80.75,0Z" style="fill:#231f20;fill-rule:nonzero;"/><path d="M1026.751,142.069c-7.48,0 -14.45,-1 -20.74,-2.8c-6.29,-1.8 -12.07,-4.8 -17.17,-8.4c-5.1,-4 -9.52,-8.6 -13.26,-14.2l14.62,-20c2.55,4.6 5.61,8.4 9.52,11.6c3.91,3.2 7.99,5.6 12.58,7.4c4.59,1.8 8.84,2.6 13.09,2.6c2.89,0 5.44,-0.4 7.31,-1.4c1.87,-0.8 3.23,-2 4.08,-3.4c0.85,-1.4 1.36,-3 1.36,-5c0,-2.2 -0.85,-4.2 -2.38,-5.6c-1.53,-1.4 -3.91,-2.8 -7.14,-3.8l-14.96,-5.2c-4.59,-1.6 -8.84,-3.8 -12.58,-6.4c-3.74,-2.6 -6.63,-6 -8.84,-10.2c-2.21,-4.2 -3.23,-9 -3.23,-14.6c0,-7.8 1.7,-14.2 5.27,-19.6c3.57,-5.6 8.33,-9.6 14.45,-12.4c6.12,-2.8 13.09,-4.2 20.91,-4.2c10.37,0 19.21,2 26.69,6.2c7.14,4 13.26,9.6 18.19,16.6l-15.81,18c-2.21,-3.8 -4.76,-6.8 -7.99,-9.4c-3.23,-2.4 -6.8,-4.2 -10.37,-5.4c-3.57,-1.2 -7.31,-1.8 -11.22,-1.8c-4.08,0 -7.14,0.8 -9.01,2.6c-2.04,1.8 -3.06,4 -3.06,6.6c0,2 0.85,3.8 2.55,5.6c1.53,1.6 4.25,3 7.99,4.4l14.96,5.2c7.82,2.6 13.77,6.2 17.68,10.8c4.08,4.6 6.12,10.8 6.12,18.6c0,8.2 -1.7,15 -5.27,20.6c-3.57,5.6 -8.33,9.8 -14.28,12.8c-5.95,2.8 -12.75,4.2 -20.06,4.2Z" style="fill:#231f20;fill-rule:nonzero;"/><path d="M1124.161,28.069l-22.1,112l-27.37,0l22.1,-112l27.37,0Z" style="fill:#231f20;fill-rule:nonzero;"/><path d="M1170.911,141.669c-7.48,0 -14.28,-2 -20.4,-6c-6.12,-3.8 -11.05,-9.6 -14.62,-16.8c-3.57,-7.4 -5.44,-16.4 -5.44,-26.8c0,-9 1.19,-17.6 3.57,-25.4c2.38,-7.8 5.95,-14.8 10.54,-20.8c4.59,-6 10.37,-10.8 17.17,-14.2c6.8,-3.4 14.62,-5.2 23.29,-5.2c7.48,0 14.28,1.4 20.23,4.2c6.12,2.6 11.05,6.8 15.13,12.2c3.91,5.2 6.29,11.8 7.48,19.6l-26.52,5.4c-0.68,-4.8 -2.38,-8.8 -5.1,-11.6c-2.72,-3.2 -6.63,-4.6 -11.9,-4.6c-4.08,0 -7.65,1 -11.05,3.2c-3.06,2 -5.95,4.8 -8.33,8.4c-2.21,3.8 -3.91,8 -5.27,12.6c-1.02,4.8 -1.7,9.8 -1.7,15.2c0,6 0.85,11 2.72,14.8c1.87,4 4.42,7 7.65,8.8c3.23,2 7.14,3 11.73,3c3.57,0 6.63,-0.6 9.35,-1.8c2.55,-1.4 4.76,-3.2 6.63,-5.4c1.87,-2.2 3.23,-5 4.25,-8.4l0.51,-2.2l-23.46,0l3.74,-20.2l44.88,0l-12.75,60.4l-18.02,0l2.38,-12.6c-2.89,4.6 -6.46,8 -10.71,10.4c-4.25,2.6 -9.69,3.8 -15.98,3.8Z" style="fill:#231f20;fill-rule:nonzero;"/><path d="M1231.941,140.069l22.1,-112l30.6,0l16.66,58.6l4.76,18.6l0.51,0l4.08,-25.6l10.03,-51.6l26.52,0l-22.1,112l-30.26,0l-17.34,-61l-4.25,-17l-0.34,0l-4.59,28.8l-9.86,49.2l-26.52,0Z" style="fill:#231f20;fill-rule:nonzero;"/><path d="M50.78,141.868c-8.387,0 -15.952,-2.3 -22.695,-6.9c-6.743,-4.6 -12.098,-11.167 -16.065,-19.7c-3.967,-8.533 -5.95,-18.733 -5.95,-30.6c0,-10.667 1.36,-20.7 4.08,-30.1c2.72,-9.4 6.687,-17.767 11.9,-25.1c5.213,-7.333 11.645,-13.067 19.295,-17.2c7.65,-4.133 16.462,-6.2 26.435,-6.2c8.273,0 15.725,1.567 22.355,4.7c6.63,3.133 12.127,7.767 16.49,13.9c4.363,6.133 7.112,13.667 8.245,22.6l-27.54,6.2c-0.793,-6.667 -2.89,-11.733 -6.29,-15.2c-3.4,-3.467 -8.047,-5.2 -13.94,-5.2c-4.76,0 -9.095,1.267 -13.005,3.8c-3.91,2.533 -7.253,6.067 -10.03,10.6c-2.777,4.533 -4.902,9.767 -6.375,15.7c-1.473,5.933 -2.21,12.233 -2.21,18.9c0,6.933 0.907,12.933 2.72,18c1.813,5.067 4.533,8.967 8.16,11.7c3.627,2.733 8.16,4.1 13.6,4.1c4.307,0 8.047,-0.8 11.22,-2.4c3.173,-1.6 5.78,-3.833 7.82,-6.7c2.04,-2.867 3.57,-6.167 4.59,-9.9l1.36,-4.4l-26.86,0l4.42,-22.8l49.98,0l-14.96,70.4l-19.38,0l5.61,-31l2.55,3.2c-2.04,6.4 -4.647,11.8 -7.82,16.2c-3.173,4.4 -7.027,7.733 -11.56,10c-4.533,2.267 -9.917,3.4 -16.15,3.4Z" style="fill:#231f20;fill-rule:nonzero;"/><path d="M761.124,140.069l26.01,-132l39.61,0c10.653,0 19.578,2.267 26.775,6.8c7.197,4.533 12.665,10.867 16.405,19c3.74,8.133 5.61,17.533 5.61,28.2c0,11.6 -1.417,22.167 -4.25,31.7c-2.833,9.533 -6.97,17.733 -12.41,24.6c-5.44,6.867 -12.042,12.2 -19.805,16c-7.763,3.8 -16.518,5.7 -26.265,5.7l-51.68,0Zm34.34,-26l16.32,0c5.667,0 10.653,-1.467 14.96,-4.4c4.307,-2.933 7.877,-6.9 10.71,-11.9c2.833,-5 4.958,-10.567 6.375,-16.7c1.417,-6.133 2.125,-12.4 2.125,-18.8c0,-5.733 -0.822,-10.7 -2.465,-14.9c-1.643,-4.2 -4.108,-7.467 -7.395,-9.8c-3.287,-2.333 -7.48,-3.5 -12.58,-3.5l-12.24,0l-15.81,80Z" style="fill:#231f20;fill-rule:nonzero;"/></g></svg>