<?xml version="1.0" encoding="UTF-8" standalone="no"?>
<!DOCTYPE svg PUBLIC "-//W3C//DTD SVG 1.1//EN" "http://www.w3.org/Graphics/SVG/1.1/DTD/svg11.dtd">
<svg width="100%" height="100%" viewBox="0 0 2737 253" version="1.1" xmlns="http://www.w3.org/2000/svg" xmlns:xlink="http://www.w3.org/1999/xlink" xml:space="preserve" xmlns:serif="http://www.serif.com/" style="fill-rule:evenodd;clip-rule:evenodd;stroke-linejoin:round;stroke-miterlimit:2;">
    <g transform="matrix(1,0,0,1,-4129.046272,-141.144559)">
        <g transform="matrix(1,0,0,1,-1959.453899,-24.69829)">
            <g transform="matrix(1,0,0,1,1068.553104,-66.89702)">
                <g transform="matrix(0.846938,0,0,2.173744,1071.215586,-498.592559)">
                    <g transform="matrix(306.646183,0,0,144.734792,4721.833306,446.719795)">
                        <path d="M0.792,-0.66L0.639,-0L0.406,-0L0.559,-0.66L0.792,-0.66ZM0.378,-0.66L0.225,-0L-0.008,-0L0.145,-0.66L0.378,-0.66ZM0.632,-0.417L0.592,-0.246L0.161,-0.246L0.201,-0.417L0.632,-0.417Z" style="fill:none;fill-rule:nonzero;stroke:rgb(244,168,31);stroke-width:0.06px;"/>
                    </g>
                    <g transform="matrix(306.646183,0,0,144.734792,4963.163852,446.719795)">
                        <path d="M-0.068,-0L0.301,-0.66L0.581,-0.66L0.641,-0L0.422,-0L0.419,-0.132L0.235,-0.132L0.17,-0L-0.068,-0ZM0.307,-0.277L0.415,-0.277L0.412,-0.497L0.307,-0.277Z" style="fill:none;fill-rule:nonzero;stroke:rgb(244,168,31);stroke-width:0.06px;"/>
                    </g>
                    <g transform="matrix(306.646183,0,0,144.734792,5186.70892,446.719795)">
                        <path d="M-0.008,-0L0.145,-0.66L0.473,-0.66C0.546,-0.66 0.604,-0.643 0.647,-0.609C0.69,-0.575 0.711,-0.527 0.711,-0.466C0.711,-0.411 0.698,-0.366 0.672,-0.33C0.647,-0.293 0.612,-0.266 0.567,-0.248C0.521,-0.23 0.47,-0.221 0.411,-0.221L0.382,-0.211L0.255,-0.211L0.29,-0.364L0.389,-0.364C0.408,-0.364 0.425,-0.367 0.439,-0.373C0.453,-0.379 0.464,-0.388 0.472,-0.399C0.48,-0.41 0.484,-0.423 0.484,-0.438C0.484,-0.459 0.477,-0.473 0.464,-0.481C0.45,-0.49 0.433,-0.494 0.414,-0.494L0.334,-0.494L0.22,-0L-0.008,-0ZM0.423,-0L0.318,-0.289L0.523,-0.323L0.654,-0L0.423,-0Z" style="fill:none;fill-rule:nonzero;stroke:rgb(244,168,31);stroke-width:0.06px;"/>
                    </g>
                    <g transform="matrix(306.646183,0,0,144.734792,5414.85368,446.719795)">
                        <path d="M-0.008,-0L0.145,-0.66L0.473,-0.66C0.546,-0.66 0.604,-0.643 0.647,-0.609C0.69,-0.575 0.711,-0.527 0.711,-0.466C0.711,-0.411 0.698,-0.366 0.672,-0.33C0.647,-0.293 0.612,-0.266 0.567,-0.248C0.521,-0.23 0.47,-0.221 0.411,-0.221L0.382,-0.211L0.255,-0.211L0.29,-0.364L0.389,-0.364C0.408,-0.364 0.425,-0.367 0.439,-0.373C0.453,-0.379 0.464,-0.388 0.472,-0.399C0.48,-0.41 0.484,-0.423 0.484,-0.438C0.484,-0.459 0.477,-0.473 0.464,-0.481C0.45,-0.49 0.433,-0.494 0.414,-0.494L0.334,-0.494L0.22,-0L-0.008,-0ZM0.423,-0L0.318,-0.289L0.523,-0.323L0.654,-0L0.423,-0Z" style="fill:none;fill-rule:nonzero;stroke:rgb(244,168,31);stroke-width:0.06px;"/>
                    </g>
                    <g transform="matrix(306.646183,0,0,144.734792,5642.99844,446.719795)">
                        <path d="M0.378,-0.66L0.225,-0L-0.008,-0L0.145,-0.66L0.378,-0.66Z" style="fill:none;fill-rule:nonzero;stroke:rgb(244,168,31);stroke-width:0.06px;"/>
                    </g>
                    <g transform="matrix(306.646183,0,0,144.734792,5754.311005,446.719795)">
                        <path d="M0.328,0.013C0.283,0.013 0.24,0.008 0.198,-0.003C0.155,-0.013 0.116,-0.029 0.079,-0.05C0.042,-0.071 0.009,-0.098 -0.02,-0.131L0.096,-0.269C0.115,-0.248 0.137,-0.229 0.163,-0.212C0.189,-0.195 0.216,-0.182 0.244,-0.173C0.272,-0.163 0.298,-0.158 0.323,-0.158C0.336,-0.158 0.345,-0.16 0.352,-0.163C0.359,-0.166 0.365,-0.169 0.368,-0.174C0.371,-0.179 0.373,-0.184 0.373,-0.19C0.373,-0.197 0.369,-0.204 0.362,-0.208C0.355,-0.213 0.344,-0.219 0.328,-0.224L0.235,-0.257C0.208,-0.267 0.182,-0.28 0.157,-0.296C0.132,-0.313 0.112,-0.334 0.097,-0.359C0.082,-0.384 0.074,-0.415 0.074,-0.45C0.074,-0.5 0.087,-0.541 0.112,-0.574C0.137,-0.606 0.172,-0.63 0.215,-0.646C0.258,-0.662 0.307,-0.67 0.361,-0.67C0.433,-0.67 0.494,-0.659 0.544,-0.636C0.594,-0.612 0.638,-0.582 0.677,-0.545L0.554,-0.411C0.537,-0.428 0.519,-0.443 0.498,-0.456C0.477,-0.468 0.456,-0.479 0.433,-0.486C0.41,-0.493 0.387,-0.497 0.364,-0.497C0.353,-0.497 0.345,-0.496 0.338,-0.494C0.331,-0.492 0.325,-0.489 0.322,-0.485C0.319,-0.481 0.317,-0.476 0.317,-0.47C0.317,-0.462 0.322,-0.455 0.332,-0.45C0.342,-0.444 0.355,-0.438 0.372,-0.432L0.457,-0.402C0.508,-0.384 0.548,-0.361 0.576,-0.332C0.603,-0.303 0.617,-0.263 0.617,-0.214C0.617,-0.166 0.604,-0.125 0.579,-0.091C0.554,-0.057 0.519,-0.031 0.476,-0.013C0.433,0.004 0.383,0.013 0.328,0.013Z" style="fill:none;fill-rule:nonzero;stroke:rgb(244,168,31);stroke-width:0.06px;"/>
                    </g>
                    <g transform="matrix(306.646183,0,0,144.734792,5955.250138,446.719795)">
                        <path d="M0.351,0.01C0.292,0.01 0.24,-0.002 0.193,-0.025C0.146,-0.048 0.11,-0.081 0.083,-0.124C0.056,-0.168 0.043,-0.22 0.043,-0.281C0.043,-0.338 0.051,-0.391 0.068,-0.439C0.085,-0.486 0.109,-0.527 0.141,-0.562C0.172,-0.597 0.211,-0.623 0.257,-0.642C0.302,-0.661 0.354,-0.67 0.411,-0.67C0.47,-0.67 0.523,-0.659 0.57,-0.636C0.616,-0.612 0.652,-0.579 0.679,-0.536C0.706,-0.493 0.719,-0.44 0.719,-0.379C0.719,-0.322 0.711,-0.269 0.694,-0.222C0.677,-0.174 0.653,-0.133 0.622,-0.098C0.59,-0.063 0.551,-0.037 0.506,-0.018C0.46,0.001 0.408,0.01 0.351,0.01ZM0.355,-0.165C0.378,-0.165 0.397,-0.173 0.414,-0.188C0.43,-0.202 0.444,-0.222 0.455,-0.246C0.466,-0.27 0.474,-0.296 0.479,-0.324C0.484,-0.351 0.487,-0.377 0.487,-0.402C0.487,-0.423 0.484,-0.44 0.479,-0.454C0.473,-0.467 0.464,-0.478 0.453,-0.484C0.441,-0.491 0.426,-0.495 0.407,-0.495C0.384,-0.495 0.365,-0.487 0.349,-0.473C0.332,-0.458 0.319,-0.438 0.307,-0.414C0.296,-0.39 0.288,-0.364 0.283,-0.337C0.278,-0.309 0.275,-0.283 0.275,-0.258C0.275,-0.238 0.278,-0.221 0.284,-0.207C0.289,-0.193 0.298,-0.182 0.31,-0.176C0.322,-0.169 0.337,-0.165 0.355,-0.165Z" style="fill:none;fill-rule:nonzero;stroke:rgb(244,168,31);stroke-width:0.06px;"/>
                    </g>
                    <g transform="matrix(306.646183,0,0,144.734792,6180.635083,446.719795)">
                        <path d="M-0.008,-0L0.145,-0.66L0.387,-0.66L0.476,-0.349L0.499,-0.256L0.501,-0.256L0.532,-0.415L0.589,-0.66L0.791,-0.66L0.638,-0L0.399,-0L0.306,-0.3L0.281,-0.394L0.279,-0.394L0.251,-0.245L0.194,-0L-0.008,-0Z" style="fill:none;fill-rule:nonzero;stroke:rgb(244,168,31);stroke-width:0.06px;"/>
                    </g>
                    <g transform="matrix(306.646183,0,0,144.734792,6487.502029,446.719795)">
                        <path d="M-0.008,-0L0.145,-0.66L0.406,-0.66C0.473,-0.66 0.528,-0.649 0.572,-0.627C0.616,-0.604 0.649,-0.573 0.671,-0.532C0.693,-0.492 0.704,-0.445 0.704,-0.39C0.704,-0.331 0.696,-0.277 0.68,-0.229C0.664,-0.181 0.64,-0.14 0.609,-0.106C0.577,-0.072 0.538,-0.046 0.493,-0.028C0.448,-0.009 0.395,-0 0.336,-0L-0.008,-0ZM0.264,-0.166L0.319,-0.166C0.346,-0.166 0.37,-0.173 0.39,-0.187C0.409,-0.201 0.425,-0.219 0.437,-0.242C0.449,-0.265 0.458,-0.29 0.464,-0.317C0.469,-0.343 0.472,-0.37 0.472,-0.396C0.472,-0.417 0.469,-0.435 0.462,-0.45C0.455,-0.465 0.445,-0.476 0.432,-0.483C0.419,-0.49 0.402,-0.494 0.381,-0.494L0.339,-0.494L0.264,-0.166Z" style="fill:none;fill-rule:nonzero;stroke:rgb(244,168,31);stroke-width:0.06px;"/>
                    </g>
                    <g transform="matrix(306.646183,0,0,144.734792,6707.112226,446.719795)">
                        <path d="M-0.068,-0L0.301,-0.66L0.581,-0.66L0.641,-0L0.422,-0L0.419,-0.132L0.235,-0.132L0.17,-0L-0.068,-0ZM0.307,-0.277L0.415,-0.277L0.412,-0.497L0.307,-0.277Z" style="fill:none;fill-rule:nonzero;stroke:rgb(244,168,31);stroke-width:0.06px;"/>
                    </g>
                    <g transform="matrix(306.646183,0,0,144.734792,6930.657294,446.719795)">
                        <path d="M-0.008,-0L0.145,-0.66L0.387,-0.66L0.476,-0.349L0.499,-0.256L0.501,-0.256L0.532,-0.415L0.589,-0.66L0.791,-0.66L0.638,-0L0.399,-0L0.306,-0.3L0.281,-0.394L0.279,-0.394L0.251,-0.245L0.194,-0L-0.008,-0Z" style="fill:none;fill-rule:nonzero;stroke:rgb(244,168,31);stroke-width:0.06px;"/>
                    </g>
                    <g transform="matrix(306.646183,0,0,144.734792,7159.415346,446.719795)">
                        <path d="M0.378,-0.66L0.225,-0L-0.008,-0L0.145,-0.66L0.378,-0.66Z" style="fill:none;fill-rule:nonzero;stroke:rgb(244,168,31);stroke-width:0.06px;"/>
                    </g>
                    <g transform="matrix(306.646183,0,0,144.734792,7261.528525,446.719795)">
                        <path d="M-0.008,-0L0.145,-0.66L0.699,-0.66L0.659,-0.489L0.338,-0.489L0.319,-0.407L0.573,-0.407L0.537,-0.249L0.283,-0.249L0.265,-0.171L0.592,-0.171L0.552,-0L-0.008,-0Z" style="fill:none;fill-rule:nonzero;stroke:rgb(244,168,31);stroke-width:0.06px;"/>
                    </g>
                    <g transform="matrix(306.646183,0,0,144.734792,7462.688421,446.719795)">
                        <path d="M0.265,-0.171L0.574,-0.171L0.534,-0L-0.008,-0L0.145,-0.66L0.378,-0.66L0.265,-0.171Z" style="fill:none;fill-rule:nonzero;stroke:rgb(244,168,31);stroke-width:0.06px;"/>
                    </g>
                    <g transform="matrix(306.646183,0,0,144.734792,7660.47521,446.719795)">
                        <path d="M0.265,-0.171L0.574,-0.171L0.534,-0L-0.008,-0L0.145,-0.66L0.378,-0.66L0.265,-0.171Z" style="fill:none;fill-rule:nonzero;stroke:rgb(244,168,31);stroke-width:0.06px;"/>
                    </g>
                    <g transform="matrix(306.646183,0,0,144.734792,4721.833306,446.719795)">
                        <path d="M0.792,-0.66L0.639,-0L0.406,-0L0.559,-0.66L0.792,-0.66ZM0.378,-0.66L0.225,-0L-0.008,-0L0.145,-0.66L0.378,-0.66ZM0.632,-0.417L0.592,-0.246L0.161,-0.246L0.201,-0.417L0.632,-0.417Z" style="fill:rgb(244,168,31);fill-rule:nonzero;"/>
                    </g>
                    <g transform="matrix(306.646183,0,0,144.734792,4963.163852,446.719795)">
                        <path d="M-0.068,-0L0.301,-0.66L0.581,-0.66L0.641,-0L0.422,-0L0.419,-0.132L0.235,-0.132L0.17,-0L-0.068,-0ZM0.307,-0.277L0.415,-0.277L0.412,-0.497L0.307,-0.277Z" style="fill:rgb(244,168,31);fill-rule:nonzero;"/>
                    </g>
                    <g transform="matrix(306.646183,0,0,144.734792,5186.70892,446.719795)">
                        <path d="M-0.008,-0L0.145,-0.66L0.473,-0.66C0.546,-0.66 0.604,-0.643 0.647,-0.609C0.69,-0.575 0.711,-0.527 0.711,-0.466C0.711,-0.411 0.698,-0.366 0.672,-0.33C0.647,-0.293 0.612,-0.266 0.567,-0.248C0.521,-0.23 0.47,-0.221 0.411,-0.221L0.382,-0.211L0.255,-0.211L0.29,-0.364L0.389,-0.364C0.408,-0.364 0.425,-0.367 0.439,-0.373C0.453,-0.379 0.464,-0.388 0.472,-0.399C0.48,-0.41 0.484,-0.423 0.484,-0.438C0.484,-0.459 0.477,-0.473 0.464,-0.481C0.45,-0.49 0.433,-0.494 0.414,-0.494L0.334,-0.494L0.22,-0L-0.008,-0ZM0.423,-0L0.318,-0.289L0.523,-0.323L0.654,-0L0.423,-0Z" style="fill:rgb(244,168,31);fill-rule:nonzero;"/>
                    </g>
                    <g transform="matrix(306.646183,0,0,144.734792,5414.85368,446.719795)">
                        <path d="M-0.008,-0L0.145,-0.66L0.473,-0.66C0.546,-0.66 0.604,-0.643 0.647,-0.609C0.69,-0.575 0.711,-0.527 0.711,-0.466C0.711,-0.411 0.698,-0.366 0.672,-0.33C0.647,-0.293 0.612,-0.266 0.567,-0.248C0.521,-0.23 0.47,-0.221 0.411,-0.221L0.382,-0.211L0.255,-0.211L0.29,-0.364L0.389,-0.364C0.408,-0.364 0.425,-0.367 0.439,-0.373C0.453,-0.379 0.464,-0.388 0.472,-0.399C0.48,-0.41 0.484,-0.423 0.484,-0.438C0.484,-0.459 0.477,-0.473 0.464,-0.481C0.45,-0.49 0.433,-0.494 0.414,-0.494L0.334,-0.494L0.22,-0L-0.008,-0ZM0.423,-0L0.318,-0.289L0.523,-0.323L0.654,-0L0.423,-0Z" style="fill:rgb(244,168,31);fill-rule:nonzero;"/>
                    </g>
                    <g transform="matrix(306.646183,0,0,144.734792,5642.99844,446.719795)">
                        <path d="M0.378,-0.66L0.225,-0L-0.008,-0L0.145,-0.66L0.378,-0.66Z" style="fill:rgb(244,168,31);fill-rule:nonzero;"/>
                    </g>
                    <g transform="matrix(306.646183,0,0,144.734792,5754.311005,446.719795)">
                        <path d="M0.328,0.013C0.283,0.013 0.24,0.008 0.198,-0.003C0.155,-0.013 0.116,-0.029 0.079,-0.05C0.042,-0.071 0.009,-0.098 -0.02,-0.131L0.096,-0.269C0.115,-0.248 0.137,-0.229 0.163,-0.212C0.189,-0.195 0.216,-0.182 0.244,-0.173C0.272,-0.163 0.298,-0.158 0.323,-0.158C0.336,-0.158 0.345,-0.16 0.352,-0.163C0.359,-0.166 0.365,-0.169 0.368,-0.174C0.371,-0.179 0.373,-0.184 0.373,-0.19C0.373,-0.197 0.369,-0.204 0.362,-0.208C0.355,-0.213 0.344,-0.219 0.328,-0.224L0.235,-0.257C0.208,-0.267 0.182,-0.28 0.157,-0.296C0.132,-0.313 0.112,-0.334 0.097,-0.359C0.082,-0.384 0.074,-0.415 0.074,-0.45C0.074,-0.5 0.087,-0.541 0.112,-0.574C0.137,-0.606 0.172,-0.63 0.215,-0.646C0.258,-0.662 0.307,-0.67 0.361,-0.67C0.433,-0.67 0.494,-0.659 0.544,-0.636C0.594,-0.612 0.638,-0.582 0.677,-0.545L0.554,-0.411C0.537,-0.428 0.519,-0.443 0.498,-0.456C0.477,-0.468 0.456,-0.479 0.433,-0.486C0.41,-0.493 0.387,-0.497 0.364,-0.497C0.353,-0.497 0.345,-0.496 0.338,-0.494C0.331,-0.492 0.325,-0.489 0.322,-0.485C0.319,-0.481 0.317,-0.476 0.317,-0.47C0.317,-0.462 0.322,-0.455 0.332,-0.45C0.342,-0.444 0.355,-0.438 0.372,-0.432L0.457,-0.402C0.508,-0.384 0.548,-0.361 0.576,-0.332C0.603,-0.303 0.617,-0.263 0.617,-0.214C0.617,-0.166 0.604,-0.125 0.579,-0.091C0.554,-0.057 0.519,-0.031 0.476,-0.013C0.433,0.004 0.383,0.013 0.328,0.013Z" style="fill:rgb(244,168,31);fill-rule:nonzero;"/>
                    </g>
                    <g transform="matrix(306.646183,0,0,144.734792,5955.250138,446.719795)">
                        <path d="M0.351,0.01C0.292,0.01 0.24,-0.002 0.193,-0.025C0.146,-0.048 0.11,-0.081 0.083,-0.124C0.056,-0.168 0.043,-0.22 0.043,-0.281C0.043,-0.338 0.051,-0.391 0.068,-0.439C0.085,-0.486 0.109,-0.527 0.141,-0.562C0.172,-0.597 0.211,-0.623 0.257,-0.642C0.302,-0.661 0.354,-0.67 0.411,-0.67C0.47,-0.67 0.523,-0.659 0.57,-0.636C0.616,-0.612 0.652,-0.579 0.679,-0.536C0.706,-0.493 0.719,-0.44 0.719,-0.379C0.719,-0.322 0.711,-0.269 0.694,-0.222C0.677,-0.174 0.653,-0.133 0.622,-0.098C0.59,-0.063 0.551,-0.037 0.506,-0.018C0.46,0.001 0.408,0.01 0.351,0.01ZM0.355,-0.165C0.378,-0.165 0.397,-0.173 0.414,-0.188C0.43,-0.202 0.444,-0.222 0.455,-0.246C0.466,-0.27 0.474,-0.296 0.479,-0.324C0.484,-0.351 0.487,-0.377 0.487,-0.402C0.487,-0.423 0.484,-0.44 0.479,-0.454C0.473,-0.467 0.464,-0.478 0.453,-0.484C0.441,-0.491 0.426,-0.495 0.407,-0.495C0.384,-0.495 0.365,-0.487 0.349,-0.473C0.332,-0.458 0.319,-0.438 0.307,-0.414C0.296,-0.39 0.288,-0.364 0.283,-0.337C0.278,-0.309 0.275,-0.283 0.275,-0.258C0.275,-0.238 0.278,-0.221 0.284,-0.207C0.289,-0.193 0.298,-0.182 0.31,-0.176C0.322,-0.169 0.337,-0.165 0.355,-0.165Z" style="fill:rgb(244,168,31);fill-rule:nonzero;"/>
                    </g>
                    <g transform="matrix(306.646183,0,0,144.734792,6180.635083,446.719795)">
                        <path d="M-0.008,-0L0.145,-0.66L0.387,-0.66L0.476,-0.349L0.499,-0.256L0.501,-0.256L0.532,-0.415L0.589,-0.66L0.791,-0.66L0.638,-0L0.399,-0L0.306,-0.3L0.281,-0.394L0.279,-0.394L0.251,-0.245L0.194,-0L-0.008,-0Z" style="fill:rgb(244,168,31);fill-rule:nonzero;"/>
                    </g>
                    <g transform="matrix(306.646183,0,0,144.734792,6487.502029,446.719795)">
                        <path d="M-0.008,-0L0.145,-0.66L0.406,-0.66C0.473,-0.66 0.528,-0.649 0.572,-0.627C0.616,-0.604 0.649,-0.573 0.671,-0.532C0.693,-0.492 0.704,-0.445 0.704,-0.39C0.704,-0.331 0.696,-0.277 0.68,-0.229C0.664,-0.181 0.64,-0.14 0.609,-0.106C0.577,-0.072 0.538,-0.046 0.493,-0.028C0.448,-0.009 0.395,-0 0.336,-0L-0.008,-0ZM0.264,-0.166L0.319,-0.166C0.346,-0.166 0.37,-0.173 0.39,-0.187C0.409,-0.201 0.425,-0.219 0.437,-0.242C0.449,-0.265 0.458,-0.29 0.464,-0.317C0.469,-0.343 0.472,-0.37 0.472,-0.396C0.472,-0.417 0.469,-0.435 0.462,-0.45C0.455,-0.465 0.445,-0.476 0.432,-0.483C0.419,-0.49 0.402,-0.494 0.381,-0.494L0.339,-0.494L0.264,-0.166Z" style="fill:rgb(244,168,31);fill-rule:nonzero;"/>
                    </g>
                    <g transform="matrix(306.646183,0,0,144.734792,6707.112226,446.719795)">
                        <path d="M-0.068,-0L0.301,-0.66L0.581,-0.66L0.641,-0L0.422,-0L0.419,-0.132L0.235,-0.132L0.17,-0L-0.068,-0ZM0.307,-0.277L0.415,-0.277L0.412,-0.497L0.307,-0.277Z" style="fill:rgb(244,168,31);fill-rule:nonzero;"/>
                    </g>
                    <g transform="matrix(306.646183,0,0,144.734792,6930.657294,446.719795)">
                        <path d="M-0.008,-0L0.145,-0.66L0.387,-0.66L0.476,-0.349L0.499,-0.256L0.501,-0.256L0.532,-0.415L0.589,-0.66L0.791,-0.66L0.638,-0L0.399,-0L0.306,-0.3L0.281,-0.394L0.279,-0.394L0.251,-0.245L0.194,-0L-0.008,-0Z" style="fill:rgb(244,168,31);fill-rule:nonzero;"/>
                    </g>
                    <g transform="matrix(306.646183,0,0,144.734792,7159.415346,446.719795)">
                        <path d="M0.378,-0.66L0.225,-0L-0.008,-0L0.145,-0.66L0.378,-0.66Z" style="fill:rgb(244,168,31);fill-rule:nonzero;"/>
                    </g>
                    <g transform="matrix(306.646183,0,0,144.734792,7261.528525,446.719795)">
                        <path d="M-0.008,-0L0.145,-0.66L0.699,-0.66L0.659,-0.489L0.338,-0.489L0.319,-0.407L0.573,-0.407L0.537,-0.249L0.283,-0.249L0.265,-0.171L0.592,-0.171L0.552,-0L-0.008,-0Z" style="fill:rgb(244,168,31);fill-rule:nonzero;"/>
                    </g>
                    <g transform="matrix(306.646183,0,0,144.734792,7462.688421,446.719795)">
                        <path d="M0.265,-0.171L0.574,-0.171L0.534,-0L-0.008,-0L0.145,-0.66L0.378,-0.66L0.265,-0.171Z" style="fill:rgb(244,168,31);fill-rule:nonzero;"/>
                    </g>
                    <g transform="matrix(306.646183,0,0,144.734792,7660.47521,446.719795)">
                        <path d="M0.265,-0.171L0.574,-0.171L0.534,-0L-0.008,-0L0.145,-0.66L0.378,-0.66L0.265,-0.171Z" style="fill:rgb(244,168,31);fill-rule:nonzero;"/>
                    </g>
                </g>
                <g transform="matrix(0.856563,0,0,2.173744,1010.794858,-508.433249)">
                    <g transform="matrix(306.646183,0,0,144.734792,4721.833306,446.719795)">
                        <path d="M0.792,-0.66L0.639,-0L0.406,-0L0.559,-0.66L0.792,-0.66ZM0.378,-0.66L0.225,-0L-0.008,-0L0.145,-0.66L0.378,-0.66ZM0.632,-0.417L0.592,-0.246L0.161,-0.246L0.201,-0.417L0.632,-0.417Z" style="fill:none;fill-rule:nonzero;stroke:rgb(243,109,33);stroke-width:0.06px;"/>
                    </g>
                    <g transform="matrix(306.646183,0,0,144.734792,4963.163852,446.719795)">
                        <path d="M-0.068,-0L0.301,-0.66L0.581,-0.66L0.641,-0L0.422,-0L0.419,-0.132L0.235,-0.132L0.17,-0L-0.068,-0ZM0.307,-0.277L0.415,-0.277L0.412,-0.497L0.307,-0.277Z" style="fill:none;fill-rule:nonzero;stroke:rgb(243,109,33);stroke-width:0.06px;"/>
                    </g>
                    <g transform="matrix(306.646183,0,0,144.734792,5186.70892,446.719795)">
                        <path d="M-0.008,-0L0.145,-0.66L0.473,-0.66C0.546,-0.66 0.604,-0.643 0.647,-0.609C0.69,-0.575 0.711,-0.527 0.711,-0.466C0.711,-0.411 0.698,-0.366 0.672,-0.33C0.647,-0.293 0.612,-0.266 0.567,-0.248C0.521,-0.23 0.47,-0.221 0.411,-0.221L0.382,-0.211L0.255,-0.211L0.29,-0.364L0.389,-0.364C0.408,-0.364 0.425,-0.367 0.439,-0.373C0.453,-0.379 0.464,-0.388 0.472,-0.399C0.48,-0.41 0.484,-0.423 0.484,-0.438C0.484,-0.459 0.477,-0.473 0.464,-0.481C0.45,-0.49 0.433,-0.494 0.414,-0.494L0.334,-0.494L0.22,-0L-0.008,-0ZM0.423,-0L0.318,-0.289L0.523,-0.323L0.654,-0L0.423,-0Z" style="fill:none;fill-rule:nonzero;stroke:rgb(243,109,33);stroke-width:0.06px;"/>
                    </g>
                    <g transform="matrix(306.646183,0,0,144.734792,5414.85368,446.719795)">
                        <path d="M-0.008,-0L0.145,-0.66L0.473,-0.66C0.546,-0.66 0.604,-0.643 0.647,-0.609C0.69,-0.575 0.711,-0.527 0.711,-0.466C0.711,-0.411 0.698,-0.366 0.672,-0.33C0.647,-0.293 0.612,-0.266 0.567,-0.248C0.521,-0.23 0.47,-0.221 0.411,-0.221L0.382,-0.211L0.255,-0.211L0.29,-0.364L0.389,-0.364C0.408,-0.364 0.425,-0.367 0.439,-0.373C0.453,-0.379 0.464,-0.388 0.472,-0.399C0.48,-0.41 0.484,-0.423 0.484,-0.438C0.484,-0.459 0.477,-0.473 0.464,-0.481C0.45,-0.49 0.433,-0.494 0.414,-0.494L0.334,-0.494L0.22,-0L-0.008,-0ZM0.423,-0L0.318,-0.289L0.523,-0.323L0.654,-0L0.423,-0Z" style="fill:none;fill-rule:nonzero;stroke:rgb(243,109,33);stroke-width:0.06px;"/>
                    </g>
                    <g transform="matrix(306.646183,0,0,144.734792,5642.99844,446.719795)">
                        <path d="M0.378,-0.66L0.225,-0L-0.008,-0L0.145,-0.66L0.378,-0.66Z" style="fill:none;fill-rule:nonzero;stroke:rgb(243,109,33);stroke-width:0.06px;"/>
                    </g>
                    <g transform="matrix(306.646183,0,0,144.734792,5754.311005,446.719795)">
                        <path d="M0.328,0.013C0.283,0.013 0.24,0.008 0.198,-0.003C0.155,-0.013 0.116,-0.029 0.079,-0.05C0.042,-0.071 0.009,-0.098 -0.02,-0.131L0.096,-0.269C0.115,-0.248 0.137,-0.229 0.163,-0.212C0.189,-0.195 0.216,-0.182 0.244,-0.173C0.272,-0.163 0.298,-0.158 0.323,-0.158C0.336,-0.158 0.345,-0.16 0.352,-0.163C0.359,-0.166 0.365,-0.169 0.368,-0.174C0.371,-0.179 0.373,-0.184 0.373,-0.19C0.373,-0.197 0.369,-0.204 0.362,-0.208C0.355,-0.213 0.344,-0.219 0.328,-0.224L0.235,-0.257C0.208,-0.267 0.182,-0.28 0.157,-0.296C0.132,-0.313 0.112,-0.334 0.097,-0.359C0.082,-0.384 0.074,-0.415 0.074,-0.45C0.074,-0.5 0.087,-0.541 0.112,-0.574C0.137,-0.606 0.172,-0.63 0.215,-0.646C0.258,-0.662 0.307,-0.67 0.361,-0.67C0.433,-0.67 0.494,-0.659 0.544,-0.636C0.594,-0.612 0.638,-0.582 0.677,-0.545L0.554,-0.411C0.537,-0.428 0.519,-0.443 0.498,-0.456C0.477,-0.468 0.456,-0.479 0.433,-0.486C0.41,-0.493 0.387,-0.497 0.364,-0.497C0.353,-0.497 0.345,-0.496 0.338,-0.494C0.331,-0.492 0.325,-0.489 0.322,-0.485C0.319,-0.481 0.317,-0.476 0.317,-0.47C0.317,-0.462 0.322,-0.455 0.332,-0.45C0.342,-0.444 0.355,-0.438 0.372,-0.432L0.457,-0.402C0.508,-0.384 0.548,-0.361 0.576,-0.332C0.603,-0.303 0.617,-0.263 0.617,-0.214C0.617,-0.166 0.604,-0.125 0.579,-0.091C0.554,-0.057 0.519,-0.031 0.476,-0.013C0.433,0.004 0.383,0.013 0.328,0.013Z" style="fill:none;fill-rule:nonzero;stroke:rgb(243,109,33);stroke-width:0.06px;"/>
                    </g>
                    <g transform="matrix(306.646183,0,0,144.734792,5955.250138,446.719795)">
                        <path d="M0.351,0.01C0.292,0.01 0.24,-0.002 0.193,-0.025C0.146,-0.048 0.11,-0.081 0.083,-0.124C0.056,-0.168 0.043,-0.22 0.043,-0.281C0.043,-0.338 0.051,-0.391 0.068,-0.439C0.085,-0.486 0.109,-0.527 0.141,-0.562C0.172,-0.597 0.211,-0.623 0.257,-0.642C0.302,-0.661 0.354,-0.67 0.411,-0.67C0.47,-0.67 0.523,-0.659 0.57,-0.636C0.616,-0.612 0.652,-0.579 0.679,-0.536C0.706,-0.493 0.719,-0.44 0.719,-0.379C0.719,-0.322 0.711,-0.269 0.694,-0.222C0.677,-0.174 0.653,-0.133 0.622,-0.098C0.59,-0.063 0.551,-0.037 0.506,-0.018C0.46,0.001 0.408,0.01 0.351,0.01ZM0.355,-0.165C0.378,-0.165 0.397,-0.173 0.414,-0.188C0.43,-0.202 0.444,-0.222 0.455,-0.246C0.466,-0.27 0.474,-0.296 0.479,-0.324C0.484,-0.351 0.487,-0.377 0.487,-0.402C0.487,-0.423 0.484,-0.44 0.479,-0.454C0.473,-0.467 0.464,-0.478 0.453,-0.484C0.441,-0.491 0.426,-0.495 0.407,-0.495C0.384,-0.495 0.365,-0.487 0.349,-0.473C0.332,-0.458 0.319,-0.438 0.307,-0.414C0.296,-0.39 0.288,-0.364 0.283,-0.337C0.278,-0.309 0.275,-0.283 0.275,-0.258C0.275,-0.238 0.278,-0.221 0.284,-0.207C0.289,-0.193 0.298,-0.182 0.31,-0.176C0.322,-0.169 0.337,-0.165 0.355,-0.165Z" style="fill:none;fill-rule:nonzero;stroke:rgb(243,109,33);stroke-width:0.06px;"/>
                    </g>
                    <g transform="matrix(306.646183,0,0,144.734792,6180.635083,446.719795)">
                        <path d="M-0.008,-0L0.145,-0.66L0.387,-0.66L0.476,-0.349L0.499,-0.256L0.501,-0.256L0.532,-0.415L0.589,-0.66L0.791,-0.66L0.638,-0L0.399,-0L0.306,-0.3L0.281,-0.394L0.279,-0.394L0.251,-0.245L0.194,-0L-0.008,-0Z" style="fill:none;fill-rule:nonzero;stroke:rgb(243,109,33);stroke-width:0.06px;"/>
                    </g>
                    <g transform="matrix(306.646183,0,0,144.734792,6487.502029,446.719795)">
                        <path d="M-0.008,-0L0.145,-0.66L0.406,-0.66C0.473,-0.66 0.528,-0.649 0.572,-0.627C0.616,-0.604 0.649,-0.573 0.671,-0.532C0.693,-0.492 0.704,-0.445 0.704,-0.39C0.704,-0.331 0.696,-0.277 0.68,-0.229C0.664,-0.181 0.64,-0.14 0.609,-0.106C0.577,-0.072 0.538,-0.046 0.493,-0.028C0.448,-0.009 0.395,-0 0.336,-0L-0.008,-0ZM0.264,-0.166L0.319,-0.166C0.346,-0.166 0.37,-0.173 0.39,-0.187C0.409,-0.201 0.425,-0.219 0.437,-0.242C0.449,-0.265 0.458,-0.29 0.464,-0.317C0.469,-0.343 0.472,-0.37 0.472,-0.396C0.472,-0.417 0.469,-0.435 0.462,-0.45C0.455,-0.465 0.445,-0.476 0.432,-0.483C0.419,-0.49 0.402,-0.494 0.381,-0.494L0.339,-0.494L0.264,-0.166Z" style="fill:none;fill-rule:nonzero;stroke:rgb(243,109,33);stroke-width:0.06px;"/>
                    </g>
                    <g transform="matrix(306.646183,0,0,144.734792,6707.112226,446.719795)">
                        <path d="M-0.068,-0L0.301,-0.66L0.581,-0.66L0.641,-0L0.422,-0L0.419,-0.132L0.235,-0.132L0.17,-0L-0.068,-0ZM0.307,-0.277L0.415,-0.277L0.412,-0.497L0.307,-0.277Z" style="fill:none;fill-rule:nonzero;stroke:rgb(243,109,33);stroke-width:0.06px;"/>
                    </g>
                    <g transform="matrix(306.646183,0,0,144.734792,6930.657294,446.719795)">
                        <path d="M-0.008,-0L0.145,-0.66L0.387,-0.66L0.476,-0.349L0.499,-0.256L0.501,-0.256L0.532,-0.415L0.589,-0.66L0.791,-0.66L0.638,-0L0.399,-0L0.306,-0.3L0.281,-0.394L0.279,-0.394L0.251,-0.245L0.194,-0L-0.008,-0Z" style="fill:none;fill-rule:nonzero;stroke:rgb(243,109,33);stroke-width:0.06px;"/>
                    </g>
                    <g transform="matrix(306.646183,0,0,144.734792,7159.415346,446.719795)">
                        <path d="M0.378,-0.66L0.225,-0L-0.008,-0L0.145,-0.66L0.378,-0.66Z" style="fill:none;fill-rule:nonzero;stroke:rgb(243,109,33);stroke-width:0.06px;"/>
                    </g>
                    <g transform="matrix(306.646183,0,0,144.734792,7261.528525,446.719795)">
                        <path d="M-0.008,-0L0.145,-0.66L0.699,-0.66L0.659,-0.489L0.338,-0.489L0.319,-0.407L0.573,-0.407L0.537,-0.249L0.283,-0.249L0.265,-0.171L0.592,-0.171L0.552,-0L-0.008,-0Z" style="fill:none;fill-rule:nonzero;stroke:rgb(243,109,33);stroke-width:0.06px;"/>
                    </g>
                    <g transform="matrix(306.646183,0,0,144.734792,7462.688421,446.719795)">
                        <path d="M0.265,-0.171L0.574,-0.171L0.534,-0L-0.008,-0L0.145,-0.66L0.378,-0.66L0.265,-0.171Z" style="fill:none;fill-rule:nonzero;stroke:rgb(243,109,33);stroke-width:0.06px;"/>
                    </g>
                    <g transform="matrix(306.646183,0,0,144.734792,7660.47521,446.719795)">
                        <path d="M0.265,-0.171L0.574,-0.171L0.534,-0L-0.008,-0L0.145,-0.66L0.378,-0.66L0.265,-0.171Z" style="fill:none;fill-rule:nonzero;stroke:rgb(243,109,33);stroke-width:0.06px;"/>
                    </g>
                    <g transform="matrix(306.646183,0,0,144.734792,4721.833306,446.719795)">
                        <path d="M0.792,-0.66L0.639,-0L0.406,-0L0.559,-0.66L0.792,-0.66ZM0.378,-0.66L0.225,-0L-0.008,-0L0.145,-0.66L0.378,-0.66ZM0.632,-0.417L0.592,-0.246L0.161,-0.246L0.201,-0.417L0.632,-0.417Z" style="fill:rgb(243,109,33);fill-rule:nonzero;"/>
                    </g>
                    <g transform="matrix(306.646183,0,0,144.734792,4963.163852,446.719795)">
                        <path d="M-0.068,-0L0.301,-0.66L0.581,-0.66L0.641,-0L0.422,-0L0.419,-0.132L0.235,-0.132L0.17,-0L-0.068,-0ZM0.307,-0.277L0.415,-0.277L0.412,-0.497L0.307,-0.277Z" style="fill:rgb(243,109,33);fill-rule:nonzero;"/>
                    </g>
                    <g transform="matrix(306.646183,0,0,144.734792,5186.70892,446.719795)">
                        <path d="M-0.008,-0L0.145,-0.66L0.473,-0.66C0.546,-0.66 0.604,-0.643 0.647,-0.609C0.69,-0.575 0.711,-0.527 0.711,-0.466C0.711,-0.411 0.698,-0.366 0.672,-0.33C0.647,-0.293 0.612,-0.266 0.567,-0.248C0.521,-0.23 0.47,-0.221 0.411,-0.221L0.382,-0.211L0.255,-0.211L0.29,-0.364L0.389,-0.364C0.408,-0.364 0.425,-0.367 0.439,-0.373C0.453,-0.379 0.464,-0.388 0.472,-0.399C0.48,-0.41 0.484,-0.423 0.484,-0.438C0.484,-0.459 0.477,-0.473 0.464,-0.481C0.45,-0.49 0.433,-0.494 0.414,-0.494L0.334,-0.494L0.22,-0L-0.008,-0ZM0.423,-0L0.318,-0.289L0.523,-0.323L0.654,-0L0.423,-0Z" style="fill:rgb(243,109,33);fill-rule:nonzero;"/>
                    </g>
                    <g transform="matrix(306.646183,0,0,144.734792,5414.85368,446.719795)">
                        <path d="M-0.008,-0L0.145,-0.66L0.473,-0.66C0.546,-0.66 0.604,-0.643 0.647,-0.609C0.69,-0.575 0.711,-0.527 0.711,-0.466C0.711,-0.411 0.698,-0.366 0.672,-0.33C0.647,-0.293 0.612,-0.266 0.567,-0.248C0.521,-0.23 0.47,-0.221 0.411,-0.221L0.382,-0.211L0.255,-0.211L0.29,-0.364L0.389,-0.364C0.408,-0.364 0.425,-0.367 0.439,-0.373C0.453,-0.379 0.464,-0.388 0.472,-0.399C0.48,-0.41 0.484,-0.423 0.484,-0.438C0.484,-0.459 0.477,-0.473 0.464,-0.481C0.45,-0.49 0.433,-0.494 0.414,-0.494L0.334,-0.494L0.22,-0L-0.008,-0ZM0.423,-0L0.318,-0.289L0.523,-0.323L0.654,-0L0.423,-0Z" style="fill:rgb(243,109,33);fill-rule:nonzero;"/>
                    </g>
                    <g transform="matrix(306.646183,0,0,144.734792,5642.99844,446.719795)">
                        <path d="M0.378,-0.66L0.225,-0L-0.008,-0L0.145,-0.66L0.378,-0.66Z" style="fill:rgb(243,109,33);fill-rule:nonzero;"/>
                    </g>
                    <g transform="matrix(306.646183,0,0,144.734792,5754.311005,446.719795)">
                        <path d="M0.328,0.013C0.283,0.013 0.24,0.008 0.198,-0.003C0.155,-0.013 0.116,-0.029 0.079,-0.05C0.042,-0.071 0.009,-0.098 -0.02,-0.131L0.096,-0.269C0.115,-0.248 0.137,-0.229 0.163,-0.212C0.189,-0.195 0.216,-0.182 0.244,-0.173C0.272,-0.163 0.298,-0.158 0.323,-0.158C0.336,-0.158 0.345,-0.16 0.352,-0.163C0.359,-0.166 0.365,-0.169 0.368,-0.174C0.371,-0.179 0.373,-0.184 0.373,-0.19C0.373,-0.197 0.369,-0.204 0.362,-0.208C0.355,-0.213 0.344,-0.219 0.328,-0.224L0.235,-0.257C0.208,-0.267 0.182,-0.28 0.157,-0.296C0.132,-0.313 0.112,-0.334 0.097,-0.359C0.082,-0.384 0.074,-0.415 0.074,-0.45C0.074,-0.5 0.087,-0.541 0.112,-0.574C0.137,-0.606 0.172,-0.63 0.215,-0.646C0.258,-0.662 0.307,-0.67 0.361,-0.67C0.433,-0.67 0.494,-0.659 0.544,-0.636C0.594,-0.612 0.638,-0.582 0.677,-0.545L0.554,-0.411C0.537,-0.428 0.519,-0.443 0.498,-0.456C0.477,-0.468 0.456,-0.479 0.433,-0.486C0.41,-0.493 0.387,-0.497 0.364,-0.497C0.353,-0.497 0.345,-0.496 0.338,-0.494C0.331,-0.492 0.325,-0.489 0.322,-0.485C0.319,-0.481 0.317,-0.476 0.317,-0.47C0.317,-0.462 0.322,-0.455 0.332,-0.45C0.342,-0.444 0.355,-0.438 0.372,-0.432L0.457,-0.402C0.508,-0.384 0.548,-0.361 0.576,-0.332C0.603,-0.303 0.617,-0.263 0.617,-0.214C0.617,-0.166 0.604,-0.125 0.579,-0.091C0.554,-0.057 0.519,-0.031 0.476,-0.013C0.433,0.004 0.383,0.013 0.328,0.013Z" style="fill:rgb(243,109,33);fill-rule:nonzero;"/>
                    </g>
                    <g transform="matrix(306.646183,0,0,144.734792,5955.250138,446.719795)">
                        <path d="M0.351,0.01C0.292,0.01 0.24,-0.002 0.193,-0.025C0.146,-0.048 0.11,-0.081 0.083,-0.124C0.056,-0.168 0.043,-0.22 0.043,-0.281C0.043,-0.338 0.051,-0.391 0.068,-0.439C0.085,-0.486 0.109,-0.527 0.141,-0.562C0.172,-0.597 0.211,-0.623 0.257,-0.642C0.302,-0.661 0.354,-0.67 0.411,-0.67C0.47,-0.67 0.523,-0.659 0.57,-0.636C0.616,-0.612 0.652,-0.579 0.679,-0.536C0.706,-0.493 0.719,-0.44 0.719,-0.379C0.719,-0.322 0.711,-0.269 0.694,-0.222C0.677,-0.174 0.653,-0.133 0.622,-0.098C0.59,-0.063 0.551,-0.037 0.506,-0.018C0.46,0.001 0.408,0.01 0.351,0.01ZM0.355,-0.165C0.378,-0.165 0.397,-0.173 0.414,-0.188C0.43,-0.202 0.444,-0.222 0.455,-0.246C0.466,-0.27 0.474,-0.296 0.479,-0.324C0.484,-0.351 0.487,-0.377 0.487,-0.402C0.487,-0.423 0.484,-0.44 0.479,-0.454C0.473,-0.467 0.464,-0.478 0.453,-0.484C0.441,-0.491 0.426,-0.495 0.407,-0.495C0.384,-0.495 0.365,-0.487 0.349,-0.473C0.332,-0.458 0.319,-0.438 0.307,-0.414C0.296,-0.39 0.288,-0.364 0.283,-0.337C0.278,-0.309 0.275,-0.283 0.275,-0.258C0.275,-0.238 0.278,-0.221 0.284,-0.207C0.289,-0.193 0.298,-0.182 0.31,-0.176C0.322,-0.169 0.337,-0.165 0.355,-0.165Z" style="fill:rgb(243,109,33);fill-rule:nonzero;"/>
                    </g>
                    <g transform="matrix(306.646183,0,0,144.734792,6180.635083,446.719795)">
                        <path d="M-0.008,-0L0.145,-0.66L0.387,-0.66L0.476,-0.349L0.499,-0.256L0.501,-0.256L0.532,-0.415L0.589,-0.66L0.791,-0.66L0.638,-0L0.399,-0L0.306,-0.3L0.281,-0.394L0.279,-0.394L0.251,-0.245L0.194,-0L-0.008,-0Z" style="fill:rgb(243,109,33);fill-rule:nonzero;"/>
                    </g>
                    <g transform="matrix(306.646183,0,0,144.734792,6487.502029,446.719795)">
                        <path d="M-0.008,-0L0.145,-0.66L0.406,-0.66C0.473,-0.66 0.528,-0.649 0.572,-0.627C0.616,-0.604 0.649,-0.573 0.671,-0.532C0.693,-0.492 0.704,-0.445 0.704,-0.39C0.704,-0.331 0.696,-0.277 0.68,-0.229C0.664,-0.181 0.64,-0.14 0.609,-0.106C0.577,-0.072 0.538,-0.046 0.493,-0.028C0.448,-0.009 0.395,-0 0.336,-0L-0.008,-0ZM0.264,-0.166L0.319,-0.166C0.346,-0.166 0.37,-0.173 0.39,-0.187C0.409,-0.201 0.425,-0.219 0.437,-0.242C0.449,-0.265 0.458,-0.29 0.464,-0.317C0.469,-0.343 0.472,-0.37 0.472,-0.396C0.472,-0.417 0.469,-0.435 0.462,-0.45C0.455,-0.465 0.445,-0.476 0.432,-0.483C0.419,-0.49 0.402,-0.494 0.381,-0.494L0.339,-0.494L0.264,-0.166Z" style="fill:rgb(243,109,33);fill-rule:nonzero;"/>
                    </g>
                    <g transform="matrix(306.646183,0,0,144.734792,6707.112226,446.719795)">
                        <path d="M-0.068,-0L0.301,-0.66L0.581,-0.66L0.641,-0L0.422,-0L0.419,-0.132L0.235,-0.132L0.17,-0L-0.068,-0ZM0.307,-0.277L0.415,-0.277L0.412,-0.497L0.307,-0.277Z" style="fill:rgb(243,109,33);fill-rule:nonzero;"/>
                    </g>
                    <g transform="matrix(306.646183,0,0,144.734792,6930.657294,446.719795)">
                        <path d="M-0.008,-0L0.145,-0.66L0.387,-0.66L0.476,-0.349L0.499,-0.256L0.501,-0.256L0.532,-0.415L0.589,-0.66L0.791,-0.66L0.638,-0L0.399,-0L0.306,-0.3L0.281,-0.394L0.279,-0.394L0.251,-0.245L0.194,-0L-0.008,-0Z" style="fill:rgb(243,109,33);fill-rule:nonzero;"/>
                    </g>
                    <g transform="matrix(306.646183,0,0,144.734792,7159.415346,446.719795)">
                        <path d="M0.378,-0.66L0.225,-0L-0.008,-0L0.145,-0.66L0.378,-0.66Z" style="fill:rgb(243,109,33);fill-rule:nonzero;"/>
                    </g>
                    <g transform="matrix(306.646183,0,0,144.734792,7261.528525,446.719795)">
                        <path d="M-0.008,-0L0.145,-0.66L0.699,-0.66L0.659,-0.489L0.338,-0.489L0.319,-0.407L0.573,-0.407L0.537,-0.249L0.283,-0.249L0.265,-0.171L0.592,-0.171L0.552,-0L-0.008,-0Z" style="fill:rgb(243,109,33);fill-rule:nonzero;"/>
                    </g>
                    <g transform="matrix(306.646183,0,0,144.734792,7462.688421,446.719795)">
                        <path d="M0.265,-0.171L0.574,-0.171L0.534,-0L-0.008,-0L0.145,-0.66L0.378,-0.66L0.265,-0.171Z" style="fill:rgb(243,109,33);fill-rule:nonzero;"/>
                    </g>
                    <g transform="matrix(306.646183,0,0,144.734792,7660.47521,446.719795)">
                        <path d="M0.265,-0.171L0.574,-0.171L0.534,-0L-0.008,-0L0.145,-0.66L0.378,-0.66L0.265,-0.171Z" style="fill:rgb(243,109,33);fill-rule:nonzero;"/>
                    </g>
                </g>
                <g transform="matrix(0.872093,0,0,2.173744,913.298634,-518.433249)">
                    <g transform="matrix(306.646183,0,0,144.734792,4721.833306,446.719795)">
                        <path d="M0.792,-0.66L0.639,-0L0.406,-0L0.559,-0.66L0.792,-0.66ZM0.378,-0.66L0.225,-0L-0.008,-0L0.145,-0.66L0.378,-0.66ZM0.632,-0.417L0.592,-0.246L0.161,-0.246L0.201,-0.417L0.632,-0.417Z" style="fill:none;fill-rule:nonzero;stroke:white;stroke-width:0.06px;"/>
                    </g>
                    <g transform="matrix(306.646183,0,0,144.734792,4963.163852,446.719795)">
                        <path d="M-0.068,-0L0.301,-0.66L0.581,-0.66L0.641,-0L0.422,-0L0.419,-0.132L0.235,-0.132L0.17,-0L-0.068,-0ZM0.307,-0.277L0.415,-0.277L0.412,-0.497L0.307,-0.277Z" style="fill:none;fill-rule:nonzero;stroke:white;stroke-width:0.06px;"/>
                    </g>
                    <g transform="matrix(306.646183,0,0,144.734792,5186.70892,446.719795)">
                        <path d="M-0.008,-0L0.145,-0.66L0.473,-0.66C0.546,-0.66 0.604,-0.643 0.647,-0.609C0.69,-0.575 0.711,-0.527 0.711,-0.466C0.711,-0.411 0.698,-0.366 0.672,-0.33C0.647,-0.293 0.612,-0.266 0.567,-0.248C0.521,-0.23 0.47,-0.221 0.411,-0.221L0.382,-0.211L0.255,-0.211L0.29,-0.364L0.389,-0.364C0.408,-0.364 0.425,-0.367 0.439,-0.373C0.453,-0.379 0.464,-0.388 0.472,-0.399C0.48,-0.41 0.484,-0.423 0.484,-0.438C0.484,-0.459 0.477,-0.473 0.464,-0.481C0.45,-0.49 0.433,-0.494 0.414,-0.494L0.334,-0.494L0.22,-0L-0.008,-0ZM0.423,-0L0.318,-0.289L0.523,-0.323L0.654,-0L0.423,-0Z" style="fill:none;fill-rule:nonzero;stroke:white;stroke-width:0.06px;"/>
                    </g>
                    <g transform="matrix(306.646183,0,0,144.734792,5414.85368,446.719795)">
                        <path d="M-0.008,-0L0.145,-0.66L0.473,-0.66C0.546,-0.66 0.604,-0.643 0.647,-0.609C0.69,-0.575 0.711,-0.527 0.711,-0.466C0.711,-0.411 0.698,-0.366 0.672,-0.33C0.647,-0.293 0.612,-0.266 0.567,-0.248C0.521,-0.23 0.47,-0.221 0.411,-0.221L0.382,-0.211L0.255,-0.211L0.29,-0.364L0.389,-0.364C0.408,-0.364 0.425,-0.367 0.439,-0.373C0.453,-0.379 0.464,-0.388 0.472,-0.399C0.48,-0.41 0.484,-0.423 0.484,-0.438C0.484,-0.459 0.477,-0.473 0.464,-0.481C0.45,-0.49 0.433,-0.494 0.414,-0.494L0.334,-0.494L0.22,-0L-0.008,-0ZM0.423,-0L0.318,-0.289L0.523,-0.323L0.654,-0L0.423,-0Z" style="fill:none;fill-rule:nonzero;stroke:white;stroke-width:0.06px;"/>
                    </g>
                    <g transform="matrix(306.646183,0,0,144.734792,5642.99844,446.719795)">
                        <path d="M0.378,-0.66L0.225,-0L-0.008,-0L0.145,-0.66L0.378,-0.66Z" style="fill:none;fill-rule:nonzero;stroke:white;stroke-width:0.06px;"/>
                    </g>
                    <g transform="matrix(306.646183,0,0,144.734792,5754.311005,446.719795)">
                        <path d="M0.328,0.013C0.283,0.013 0.24,0.008 0.198,-0.003C0.155,-0.013 0.116,-0.029 0.079,-0.05C0.042,-0.071 0.009,-0.098 -0.02,-0.131L0.096,-0.269C0.115,-0.248 0.137,-0.229 0.163,-0.212C0.189,-0.195 0.216,-0.182 0.244,-0.173C0.272,-0.163 0.298,-0.158 0.323,-0.158C0.336,-0.158 0.345,-0.16 0.352,-0.163C0.359,-0.166 0.365,-0.169 0.368,-0.174C0.371,-0.179 0.373,-0.184 0.373,-0.19C0.373,-0.197 0.369,-0.204 0.362,-0.208C0.355,-0.213 0.344,-0.219 0.328,-0.224L0.235,-0.257C0.208,-0.267 0.182,-0.28 0.157,-0.296C0.132,-0.313 0.112,-0.334 0.097,-0.359C0.082,-0.384 0.074,-0.415 0.074,-0.45C0.074,-0.5 0.087,-0.541 0.112,-0.574C0.137,-0.606 0.172,-0.63 0.215,-0.646C0.258,-0.662 0.307,-0.67 0.361,-0.67C0.433,-0.67 0.494,-0.659 0.544,-0.636C0.594,-0.612 0.638,-0.582 0.677,-0.545L0.554,-0.411C0.537,-0.428 0.519,-0.443 0.498,-0.456C0.477,-0.468 0.456,-0.479 0.433,-0.486C0.41,-0.493 0.387,-0.497 0.364,-0.497C0.353,-0.497 0.345,-0.496 0.338,-0.494C0.331,-0.492 0.325,-0.489 0.322,-0.485C0.319,-0.481 0.317,-0.476 0.317,-0.47C0.317,-0.462 0.322,-0.455 0.332,-0.45C0.342,-0.444 0.355,-0.438 0.372,-0.432L0.457,-0.402C0.508,-0.384 0.548,-0.361 0.576,-0.332C0.603,-0.303 0.617,-0.263 0.617,-0.214C0.617,-0.166 0.604,-0.125 0.579,-0.091C0.554,-0.057 0.519,-0.031 0.476,-0.013C0.433,0.004 0.383,0.013 0.328,0.013Z" style="fill:none;fill-rule:nonzero;stroke:white;stroke-width:0.06px;"/>
                    </g>
                    <g transform="matrix(306.646183,0,0,144.734792,5955.250138,446.719795)">
                        <path d="M0.351,0.01C0.292,0.01 0.24,-0.002 0.193,-0.025C0.146,-0.048 0.11,-0.081 0.083,-0.124C0.056,-0.168 0.043,-0.22 0.043,-0.281C0.043,-0.338 0.051,-0.391 0.068,-0.439C0.085,-0.486 0.109,-0.527 0.141,-0.562C0.172,-0.597 0.211,-0.623 0.257,-0.642C0.302,-0.661 0.354,-0.67 0.411,-0.67C0.47,-0.67 0.523,-0.659 0.57,-0.636C0.616,-0.612 0.652,-0.579 0.679,-0.536C0.706,-0.493 0.719,-0.44 0.719,-0.379C0.719,-0.322 0.711,-0.269 0.694,-0.222C0.677,-0.174 0.653,-0.133 0.622,-0.098C0.59,-0.063 0.551,-0.037 0.506,-0.018C0.46,0.001 0.408,0.01 0.351,0.01ZM0.355,-0.165C0.378,-0.165 0.397,-0.173 0.414,-0.188C0.43,-0.202 0.444,-0.222 0.455,-0.246C0.466,-0.27 0.474,-0.296 0.479,-0.324C0.484,-0.351 0.487,-0.377 0.487,-0.402C0.487,-0.423 0.484,-0.44 0.479,-0.454C0.473,-0.467 0.464,-0.478 0.453,-0.484C0.441,-0.491 0.426,-0.495 0.407,-0.495C0.384,-0.495 0.365,-0.487 0.349,-0.473C0.332,-0.458 0.319,-0.438 0.307,-0.414C0.296,-0.39 0.288,-0.364 0.283,-0.337C0.278,-0.309 0.275,-0.283 0.275,-0.258C0.275,-0.238 0.278,-0.221 0.284,-0.207C0.289,-0.193 0.298,-0.182 0.31,-0.176C0.322,-0.169 0.337,-0.165 0.355,-0.165Z" style="fill:none;fill-rule:nonzero;stroke:white;stroke-width:0.06px;"/>
                    </g>
                    <g transform="matrix(306.646183,0,0,144.734792,6180.635083,446.719795)">
                        <path d="M-0.008,-0L0.145,-0.66L0.387,-0.66L0.476,-0.349L0.499,-0.256L0.501,-0.256L0.532,-0.415L0.589,-0.66L0.791,-0.66L0.638,-0L0.399,-0L0.306,-0.3L0.281,-0.394L0.279,-0.394L0.251,-0.245L0.194,-0L-0.008,-0Z" style="fill:none;fill-rule:nonzero;stroke:white;stroke-width:0.06px;"/>
                    </g>
                    <g transform="matrix(306.646183,0,0,144.734792,6487.502029,446.719795)">
                        <path d="M-0.008,-0L0.145,-0.66L0.406,-0.66C0.473,-0.66 0.528,-0.649 0.572,-0.627C0.616,-0.604 0.649,-0.573 0.671,-0.532C0.693,-0.492 0.704,-0.445 0.704,-0.39C0.704,-0.331 0.696,-0.277 0.68,-0.229C0.664,-0.181 0.64,-0.14 0.609,-0.106C0.577,-0.072 0.538,-0.046 0.493,-0.028C0.448,-0.009 0.395,-0 0.336,-0L-0.008,-0ZM0.264,-0.166L0.319,-0.166C0.346,-0.166 0.37,-0.173 0.39,-0.187C0.409,-0.201 0.425,-0.219 0.437,-0.242C0.449,-0.265 0.458,-0.29 0.464,-0.317C0.469,-0.343 0.472,-0.37 0.472,-0.396C0.472,-0.417 0.469,-0.435 0.462,-0.45C0.455,-0.465 0.445,-0.476 0.432,-0.483C0.419,-0.49 0.402,-0.494 0.381,-0.494L0.339,-0.494L0.264,-0.166Z" style="fill:none;fill-rule:nonzero;stroke:white;stroke-width:0.06px;"/>
                    </g>
                    <g transform="matrix(306.646183,0,0,144.734792,6707.112226,446.719795)">
                        <path d="M-0.068,-0L0.301,-0.66L0.581,-0.66L0.641,-0L0.422,-0L0.419,-0.132L0.235,-0.132L0.17,-0L-0.068,-0ZM0.307,-0.277L0.415,-0.277L0.412,-0.497L0.307,-0.277Z" style="fill:none;fill-rule:nonzero;stroke:white;stroke-width:0.06px;"/>
                    </g>
                    <g transform="matrix(306.646183,0,0,144.734792,6930.657294,446.719795)">
                        <path d="M-0.008,-0L0.145,-0.66L0.387,-0.66L0.476,-0.349L0.499,-0.256L0.501,-0.256L0.532,-0.415L0.589,-0.66L0.791,-0.66L0.638,-0L0.399,-0L0.306,-0.3L0.281,-0.394L0.279,-0.394L0.251,-0.245L0.194,-0L-0.008,-0Z" style="fill:none;fill-rule:nonzero;stroke:white;stroke-width:0.06px;"/>
                    </g>
                    <g transform="matrix(306.646183,0,0,144.734792,7159.415346,446.719795)">
                        <path d="M0.378,-0.66L0.225,-0L-0.008,-0L0.145,-0.66L0.378,-0.66Z" style="fill:none;fill-rule:nonzero;stroke:white;stroke-width:0.06px;"/>
                    </g>
                    <g transform="matrix(306.646183,0,0,144.734792,7261.528525,446.719795)">
                        <path d="M-0.008,-0L0.145,-0.66L0.699,-0.66L0.659,-0.489L0.338,-0.489L0.319,-0.407L0.573,-0.407L0.537,-0.249L0.283,-0.249L0.265,-0.171L0.592,-0.171L0.552,-0L-0.008,-0Z" style="fill:none;fill-rule:nonzero;stroke:white;stroke-width:0.06px;"/>
                    </g>
                    <g transform="matrix(306.646183,0,0,144.734792,7462.688421,446.719795)">
                        <path d="M0.265,-0.171L0.574,-0.171L0.534,-0L-0.008,-0L0.145,-0.66L0.378,-0.66L0.265,-0.171Z" style="fill:none;fill-rule:nonzero;stroke:white;stroke-width:0.06px;"/>
                    </g>
                    <g transform="matrix(306.646183,0,0,144.734792,7660.47521,446.719795)">
                        <path d="M0.265,-0.171L0.574,-0.171L0.534,-0L-0.008,-0L0.145,-0.66L0.378,-0.66L0.265,-0.171Z" style="fill:none;fill-rule:nonzero;stroke:white;stroke-width:0.06px;"/>
                    </g>
                    <g transform="matrix(306.646183,0,0,144.734792,4721.833306,446.719795)">
                        <path d="M0.792,-0.66L0.639,-0L0.406,-0L0.559,-0.66L0.792,-0.66ZM0.378,-0.66L0.225,-0L-0.008,-0L0.145,-0.66L0.378,-0.66ZM0.632,-0.417L0.592,-0.246L0.161,-0.246L0.201,-0.417L0.632,-0.417Z" style="fill:rgb(35,31,32);fill-rule:nonzero;"/>
                    </g>
                    <g transform="matrix(306.646183,0,0,144.734792,4963.163852,446.719795)">
                        <path d="M-0.068,-0L0.301,-0.66L0.581,-0.66L0.641,-0L0.422,-0L0.419,-0.132L0.235,-0.132L0.17,-0L-0.068,-0ZM0.307,-0.277L0.415,-0.277L0.412,-0.497L0.307,-0.277Z" style="fill:rgb(35,31,32);fill-rule:nonzero;"/>
                    </g>
                    <g transform="matrix(306.646183,0,0,144.734792,5186.70892,446.719795)">
                        <path d="M-0.008,-0L0.145,-0.66L0.473,-0.66C0.546,-0.66 0.604,-0.643 0.647,-0.609C0.69,-0.575 0.711,-0.527 0.711,-0.466C0.711,-0.411 0.698,-0.366 0.672,-0.33C0.647,-0.293 0.612,-0.266 0.567,-0.248C0.521,-0.23 0.47,-0.221 0.411,-0.221L0.382,-0.211L0.255,-0.211L0.29,-0.364L0.389,-0.364C0.408,-0.364 0.425,-0.367 0.439,-0.373C0.453,-0.379 0.464,-0.388 0.472,-0.399C0.48,-0.41 0.484,-0.423 0.484,-0.438C0.484,-0.459 0.477,-0.473 0.464,-0.481C0.45,-0.49 0.433,-0.494 0.414,-0.494L0.334,-0.494L0.22,-0L-0.008,-0ZM0.423,-0L0.318,-0.289L0.523,-0.323L0.654,-0L0.423,-0Z" style="fill:rgb(35,31,32);fill-rule:nonzero;"/>
                    </g>
                    <g transform="matrix(306.646183,0,0,144.734792,5414.85368,446.719795)">
                        <path d="M-0.008,-0L0.145,-0.66L0.473,-0.66C0.546,-0.66 0.604,-0.643 0.647,-0.609C0.69,-0.575 0.711,-0.527 0.711,-0.466C0.711,-0.411 0.698,-0.366 0.672,-0.33C0.647,-0.293 0.612,-0.266 0.567,-0.248C0.521,-0.23 0.47,-0.221 0.411,-0.221L0.382,-0.211L0.255,-0.211L0.29,-0.364L0.389,-0.364C0.408,-0.364 0.425,-0.367 0.439,-0.373C0.453,-0.379 0.464,-0.388 0.472,-0.399C0.48,-0.41 0.484,-0.423 0.484,-0.438C0.484,-0.459 0.477,-0.473 0.464,-0.481C0.45,-0.49 0.433,-0.494 0.414,-0.494L0.334,-0.494L0.22,-0L-0.008,-0ZM0.423,-0L0.318,-0.289L0.523,-0.323L0.654,-0L0.423,-0Z" style="fill:rgb(35,31,32);fill-rule:nonzero;"/>
                    </g>
                    <g transform="matrix(306.646183,0,0,144.734792,5642.99844,446.719795)">
                        <path d="M0.378,-0.66L0.225,-0L-0.008,-0L0.145,-0.66L0.378,-0.66Z" style="fill:rgb(35,31,32);fill-rule:nonzero;"/>
                    </g>
                    <g transform="matrix(306.646183,0,0,144.734792,5754.311005,446.719795)">
                        <path d="M0.328,0.013C0.283,0.013 0.24,0.008 0.198,-0.003C0.155,-0.013 0.116,-0.029 0.079,-0.05C0.042,-0.071 0.009,-0.098 -0.02,-0.131L0.096,-0.269C0.115,-0.248 0.137,-0.229 0.163,-0.212C0.189,-0.195 0.216,-0.182 0.244,-0.173C0.272,-0.163 0.298,-0.158 0.323,-0.158C0.336,-0.158 0.345,-0.16 0.352,-0.163C0.359,-0.166 0.365,-0.169 0.368,-0.174C0.371,-0.179 0.373,-0.184 0.373,-0.19C0.373,-0.197 0.369,-0.204 0.362,-0.208C0.355,-0.213 0.344,-0.219 0.328,-0.224L0.235,-0.257C0.208,-0.267 0.182,-0.28 0.157,-0.296C0.132,-0.313 0.112,-0.334 0.097,-0.359C0.082,-0.384 0.074,-0.415 0.074,-0.45C0.074,-0.5 0.087,-0.541 0.112,-0.574C0.137,-0.606 0.172,-0.63 0.215,-0.646C0.258,-0.662 0.307,-0.67 0.361,-0.67C0.433,-0.67 0.494,-0.659 0.544,-0.636C0.594,-0.612 0.638,-0.582 0.677,-0.545L0.554,-0.411C0.537,-0.428 0.519,-0.443 0.498,-0.456C0.477,-0.468 0.456,-0.479 0.433,-0.486C0.41,-0.493 0.387,-0.497 0.364,-0.497C0.353,-0.497 0.345,-0.496 0.338,-0.494C0.331,-0.492 0.325,-0.489 0.322,-0.485C0.319,-0.481 0.317,-0.476 0.317,-0.47C0.317,-0.462 0.322,-0.455 0.332,-0.45C0.342,-0.444 0.355,-0.438 0.372,-0.432L0.457,-0.402C0.508,-0.384 0.548,-0.361 0.576,-0.332C0.603,-0.303 0.617,-0.263 0.617,-0.214C0.617,-0.166 0.604,-0.125 0.579,-0.091C0.554,-0.057 0.519,-0.031 0.476,-0.013C0.433,0.004 0.383,0.013 0.328,0.013Z" style="fill:rgb(35,31,32);fill-rule:nonzero;"/>
                    </g>
                    <g transform="matrix(306.646183,0,0,144.734792,5955.250138,446.719795)">
                        <path d="M0.351,0.01C0.292,0.01 0.24,-0.002 0.193,-0.025C0.146,-0.048 0.11,-0.081 0.083,-0.124C0.056,-0.168 0.043,-0.22 0.043,-0.281C0.043,-0.338 0.051,-0.391 0.068,-0.439C0.085,-0.486 0.109,-0.527 0.141,-0.562C0.172,-0.597 0.211,-0.623 0.257,-0.642C0.302,-0.661 0.354,-0.67 0.411,-0.67C0.47,-0.67 0.523,-0.659 0.57,-0.636C0.616,-0.612 0.652,-0.579 0.679,-0.536C0.706,-0.493 0.719,-0.44 0.719,-0.379C0.719,-0.322 0.711,-0.269 0.694,-0.222C0.677,-0.174 0.653,-0.133 0.622,-0.098C0.59,-0.063 0.551,-0.037 0.506,-0.018C0.46,0.001 0.408,0.01 0.351,0.01ZM0.355,-0.165C0.378,-0.165 0.397,-0.173 0.414,-0.188C0.43,-0.202 0.444,-0.222 0.455,-0.246C0.466,-0.27 0.474,-0.296 0.479,-0.324C0.484,-0.351 0.487,-0.377 0.487,-0.402C0.487,-0.423 0.484,-0.44 0.479,-0.454C0.473,-0.467 0.464,-0.478 0.453,-0.484C0.441,-0.491 0.426,-0.495 0.407,-0.495C0.384,-0.495 0.365,-0.487 0.349,-0.473C0.332,-0.458 0.319,-0.438 0.307,-0.414C0.296,-0.39 0.288,-0.364 0.283,-0.337C0.278,-0.309 0.275,-0.283 0.275,-0.258C0.275,-0.238 0.278,-0.221 0.284,-0.207C0.289,-0.193 0.298,-0.182 0.31,-0.176C0.322,-0.169 0.337,-0.165 0.355,-0.165Z" style="fill:rgb(35,31,32);fill-rule:nonzero;"/>
                    </g>
                    <g transform="matrix(306.646183,0,0,144.734792,6180.635083,446.719795)">
                        <path d="M-0.008,-0L0.145,-0.66L0.387,-0.66L0.476,-0.349L0.499,-0.256L0.501,-0.256L0.532,-0.415L0.589,-0.66L0.791,-0.66L0.638,-0L0.399,-0L0.306,-0.3L0.281,-0.394L0.279,-0.394L0.251,-0.245L0.194,-0L-0.008,-0Z" style="fill:rgb(35,31,32);fill-rule:nonzero;"/>
                    </g>
                    <g transform="matrix(306.646183,0,0,144.734792,6487.502029,446.719795)">
                        <path d="M-0.008,-0L0.145,-0.66L0.406,-0.66C0.473,-0.66 0.528,-0.649 0.572,-0.627C0.616,-0.604 0.649,-0.573 0.671,-0.532C0.693,-0.492 0.704,-0.445 0.704,-0.39C0.704,-0.331 0.696,-0.277 0.68,-0.229C0.664,-0.181 0.64,-0.14 0.609,-0.106C0.577,-0.072 0.538,-0.046 0.493,-0.028C0.448,-0.009 0.395,-0 0.336,-0L-0.008,-0ZM0.264,-0.166L0.319,-0.166C0.346,-0.166 0.37,-0.173 0.39,-0.187C0.409,-0.201 0.425,-0.219 0.437,-0.242C0.449,-0.265 0.458,-0.29 0.464,-0.317C0.469,-0.343 0.472,-0.37 0.472,-0.396C0.472,-0.417 0.469,-0.435 0.462,-0.45C0.455,-0.465 0.445,-0.476 0.432,-0.483C0.419,-0.49 0.402,-0.494 0.381,-0.494L0.339,-0.494L0.264,-0.166Z" style="fill:rgb(35,31,32);fill-rule:nonzero;"/>
                    </g>
                    <g transform="matrix(306.646183,0,0,144.734792,6707.112226,446.719795)">
                        <path d="M-0.068,-0L0.301,-0.66L0.581,-0.66L0.641,-0L0.422,-0L0.419,-0.132L0.235,-0.132L0.17,-0L-0.068,-0ZM0.307,-0.277L0.415,-0.277L0.412,-0.497L0.307,-0.277Z" style="fill:rgb(35,31,32);fill-rule:nonzero;"/>
                    </g>
                    <g transform="matrix(306.646183,0,0,144.734792,6930.657294,446.719795)">
                        <path d="M-0.008,-0L0.145,-0.66L0.387,-0.66L0.476,-0.349L0.499,-0.256L0.501,-0.256L0.532,-0.415L0.589,-0.66L0.791,-0.66L0.638,-0L0.399,-0L0.306,-0.3L0.281,-0.394L0.279,-0.394L0.251,-0.245L0.194,-0L-0.008,-0Z" style="fill:rgb(35,31,32);fill-rule:nonzero;"/>
                    </g>
                    <g transform="matrix(306.646183,0,0,144.734792,7159.415346,446.719795)">
                        <path d="M0.378,-0.66L0.225,-0L-0.008,-0L0.145,-0.66L0.378,-0.66Z" style="fill:rgb(35,31,32);fill-rule:nonzero;"/>
                    </g>
                    <g transform="matrix(306.646183,0,0,144.734792,7261.528525,446.719795)">
                        <path d="M-0.008,-0L0.145,-0.66L0.699,-0.66L0.659,-0.489L0.338,-0.489L0.319,-0.407L0.573,-0.407L0.537,-0.249L0.283,-0.249L0.265,-0.171L0.592,-0.171L0.552,-0L-0.008,-0Z" style="fill:rgb(35,31,32);fill-rule:nonzero;"/>
                    </g>
                    <g transform="matrix(306.646183,0,0,144.734792,7462.688421,446.719795)">
                        <path d="M0.265,-0.171L0.574,-0.171L0.534,-0L-0.008,-0L0.145,-0.66L0.378,-0.66L0.265,-0.171Z" style="fill:rgb(35,31,32);fill-rule:nonzero;"/>
                    </g>
                    <g transform="matrix(306.646183,0,0,144.734792,7660.47521,446.719795)">
                        <path d="M0.265,-0.171L0.574,-0.171L0.534,-0L-0.008,-0L0.145,-0.66L0.378,-0.66L0.265,-0.171Z" style="fill:rgb(35,31,32);fill-rule:nonzero;"/>
                    </g>
                </g>
            </g>
        </g>
    </g>
</svg>
