<?xml version="1.0" encoding="UTF-8" standalone="no"?><!DOCTYPE svg PUBLIC "-//W3C//DTD SVG 1.1//EN" "http://www.w3.org/Graphics/SVG/1.1/DTD/svg11.dtd"><svg width="100%" height="100%" viewBox="0 0 775 156" version="1.1" xmlns="http://www.w3.org/2000/svg" xmlns:xlink="http://www.w3.org/1999/xlink" xml:space="preserve" xmlns:serif="http://www.serif.com/" style="fill-rule:evenodd;clip-rule:evenodd;stroke-linejoin:round;stroke-miterlimit:2;"><g><g><path d="M164.025,149.669c-10.507,0 -19.18,-2.2 -26.018,-6.6c-6.671,-4.4 -11.174,-10.8 -13.676,-19c-2.502,-8.2 -2.668,-18.2 -0.5,-29.8l11.508,-58.2l28.353,0l-12.675,65.6c-1.334,6.8 -0.667,12.2 2.001,16.2c2.668,3.8 6.671,5.8 12.175,5.8c4.837,0 8.673,-1.6 11.508,-5c2.835,-3.4 4.837,-8.2 6.171,-14.6l13.176,-68l28.186,0l-13.676,71.2c-1.835,9.4 -4.837,17.2 -9.173,23.4c-4.336,6.4 -9.673,11.2 -16.011,14.4c-6.171,3 -13.342,4.6 -21.348,4.6Z" style="fill:none;fill-rule:nonzero;stroke:#f36d21;stroke-width:12.89px;"/></g><g><path d="M223.065,148.069l21.681,-112l35.191,0l4.837,50.6l2.001,25.6l0.5,0l10.174,-25.6l23.182,-50.6l40.361,0l-21.681,112l-25.517,0l8.506,-43l8.839,-39l-0.167,0l-39.527,82l-20.681,0l-7.672,-82l-0.167,0l-5.837,39l-8.506,43l-25.517,0Z" style="fill:none;fill-rule:nonzero;stroke:#f36d21;stroke-width:12.89px;"/></g><g><path d="M357.727,148.069l21.681,-112l39.027,0c11.841,0 21.014,3.2 27.519,9.6c6.504,6.2 9.673,15 9.673,26.2c0,8 -1.668,15 -5.003,21.2c-3.502,6.2 -8.339,11 -14.677,14.4c-6.171,3.6 -13.676,5.2 -22.515,5.2l-21.014,0l-6.838,35.4l-27.852,0Zm39.193,-58.2l13.843,0c3.669,0 6.671,-0.8 9.34,-2.2c2.502,-1.4 4.336,-3.6 5.504,-6.2c1.334,-2.4 2.001,-5.4 2.001,-8.4c0,-4.2 -1.167,-7.6 -3.336,-9.8c-2.168,-2.4 -5.671,-3.6 -10.34,-3.6l-11.174,0l-5.837,30.2Z" style="fill:none;fill-rule:nonzero;stroke:#f36d21;stroke-width:12.89px;"/></g><g><path d="M523.043,148.069l16.678,-86.4l-31.521,0l4.837,-25.6l91.229,0l-5.003,25.6l-31.355,0l-16.678,86.4l-28.186,0Z" style="fill:none;fill-rule:nonzero;stroke:#f36d21;stroke-width:12.89px;"/></g><g><path d="M652.936,149.669c-8.339,0 -15.844,-2 -22.682,-6c-6.671,-3.8 -12.008,-9.6 -16.011,-17c-4.003,-7.4 -6.004,-16.4 -6.004,-27c0,-9.4 1.167,-18.2 3.502,-26c2.168,-7.8 5.504,-14.8 10.007,-20.8c4.503,-5.8 10.007,-10.4 16.511,-13.6c6.504,-3.4 14.176,-5 22.682,-5c8.339,0 15.844,2 22.515,6c6.838,4 12.175,9.8 16.178,17.2c3.836,7.4 5.837,16.4 5.837,27c0,9.2 -1.167,17.8 -3.336,25.8c-2.335,8 -5.671,15 -10.174,20.8c-4.503,5.8 -10.007,10.4 -16.344,13.6c-6.671,3.4 -14.176,5 -22.682,5Zm0.667,-25.8c4.17,0 7.672,-1.2 10.841,-3.8c3.002,-2.4 5.504,-5.6 7.505,-9.8c2.001,-4 3.502,-8.4 4.503,-13.2c0.834,-4.8 1.334,-9.4 1.334,-14c0,-5 -0.667,-9.2 -2.168,-12.8c-1.501,-3.4 -3.502,-5.8 -6.171,-7.6c-2.668,-1.8 -5.837,-2.6 -9.34,-2.6c-4.17,0 -7.672,1.2 -10.841,3.8c-3.002,2.4 -5.504,5.6 -7.505,9.8c-2.001,4 -3.502,8.4 -4.503,13.2c-1.001,4.8 -1.501,9.4 -1.501,14c0,5 0.667,9.2 2.335,12.6c1.501,3.6 3.502,6 6.171,7.8c2.668,1.8 5.837,2.6 9.34,2.6Z" style="fill:none;fill-rule:nonzero;stroke:#f36d21;stroke-width:12.89px;"/></g><path d="M53.261,149.868c-8.228,0 -15.233,-1.567 -21.014,-4.7c-5.782,-3.133 -10.257,-7.4 -13.426,-12.8c-3.169,-5.4 -4.976,-11.6 -5.42,-18.6c-0.445,-7 0.556,-14.367 3.002,-22.1l28.519,-1.4c-2.335,7.333 -3.391,13.433 -3.169,18.3c0.222,4.867 1.501,8.5 3.836,10.9c2.335,2.4 5.559,3.6 9.673,3.6c5.226,0 9.062,-2.133 11.508,-6.4c2.446,-4.267 4.614,-11.4 6.504,-21.4l15.177,-79.2l28.686,0l-16.344,85.2c-1.779,9.6 -4.503,18.067 -8.172,25.4c-3.669,7.333 -8.673,13.033 -15.01,17.1c-6.338,4.067 -14.454,6.1 -24.35,6.1Z" style="fill:none;fill-rule:nonzero;stroke:#f36d21;stroke-width:12.14px;"/><path d="M733.599,149.868c-4.67,0 -8.422,-1.3 -11.258,-3.9c-2.835,-2.6 -4.253,-6.367 -4.253,-11.3c0,-6.267 1.557,-11.3 4.67,-15.1c3.113,-3.8 7.338,-5.7 12.675,-5.7c4.67,0 8.422,1.333 11.258,4c2.835,2.667 4.253,6.467 4.253,11.4c0,6.267 -1.529,11.267 -4.586,15c-3.058,3.733 -7.311,5.6 -12.759,5.6Zm15.01,-78c-4.67,0 -8.422,-1.3 -11.258,-3.9c-2.835,-2.6 -4.253,-6.367 -4.253,-11.3c0,-6.267 1.557,-11.3 4.67,-15.1c3.113,-3.8 7.338,-5.7 12.675,-5.7c4.67,0 8.422,1.333 11.258,4c2.835,2.667 4.253,6.467 4.253,11.4c0,6.267 -1.529,11.267 -4.586,15c-3.058,3.733 -7.311,5.6 -12.759,5.6Z" style="fill:none;fill-rule:nonzero;stroke:#f36d21;stroke-width:12.14px;"/><g><path d="M159.647,139.669c-10.71,0 -19.55,-2.2 -26.52,-6.6c-6.8,-4.4 -11.39,-10.8 -13.94,-19c-2.55,-8.2 -2.72,-18.2 -0.51,-29.8l11.73,-58.2l28.9,0l-12.92,65.6c-1.36,6.8 -0.68,12.2 2.04,16.2c2.72,3.8 6.8,5.8 12.41,5.8c4.93,0 8.84,-1.6 11.73,-5c2.89,-3.4 4.93,-8.2 6.29,-14.6l13.43,-68l28.73,0l-13.94,71.2c-1.87,9.4 -4.93,17.2 -9.35,23.4c-4.42,6.4 -9.86,11.2 -16.32,14.4c-6.29,3 -13.6,4.6 -21.76,4.6Z" style="fill:none;fill-rule:nonzero;stroke:#fff;stroke-width:12.99px;"/></g><g><path d="M219.827,138.069l22.1,-112l35.87,0l4.93,50.6l2.04,25.6l0.51,0l10.37,-25.6l23.63,-50.6l41.14,0l-22.1,112l-26.01,0l8.67,-43l9.01,-39l-0.17,0l-40.29,82l-21.08,0l-7.82,-82l-0.17,0l-5.95,39l-8.67,43l-26.01,0Z" style="fill:none;fill-rule:nonzero;stroke:#fff;stroke-width:12.99px;"/></g><g><path d="M357.164,138.069l22.1,-112l39.78,0c12.07,0 21.42,3.2 28.05,9.6c6.63,6.2 9.86,15 9.86,26.2c0,8 -1.7,15 -5.1,21.2c-3.57,6.2 -8.5,11 -14.96,14.4c-6.29,3.6 -13.94,5.2 -22.95,5.2l-21.42,0l-6.97,35.4l-28.39,0Zm39.95,-58.2l14.11,0c3.74,0 6.8,-0.8 9.52,-2.2c2.55,-1.4 4.42,-3.6 5.61,-6.2c1.36,-2.4 2.04,-5.4 2.04,-8.4c0,-4.2 -1.19,-7.6 -3.4,-9.8c-2.21,-2.4 -5.78,-3.6 -10.54,-3.6l-11.39,0l-5.95,30.2Z" style="fill:none;fill-rule:nonzero;stroke:#fff;stroke-width:12.99px;"/></g><g><path d="M525.796,138.069l17,-86.4l-32.13,0l4.93,-25.6l92.99,0l-5.1,25.6l-31.96,0l-17,86.4l-28.73,0Z" style="fill:none;fill-rule:nonzero;stroke:#fff;stroke-width:12.99px;"/></g><g><path d="M658.058,139.669c-8.5,0 -16.15,-2 -23.12,-6c-6.8,-3.8 -12.24,-9.6 -16.32,-17c-4.08,-7.4 -6.12,-16.4 -6.12,-27c0,-9.4 1.19,-18.2 3.57,-26c2.21,-7.8 5.61,-14.8 10.2,-20.8c4.59,-5.8 10.2,-10.4 16.83,-13.6c6.63,-3.4 14.45,-5 23.12,-5c8.5,0 16.15,2 22.95,6c6.97,4 12.41,9.8 16.49,17.2c3.91,7.4 5.95,16.4 5.95,27c0,9.2 -1.19,17.8 -3.4,25.8c-2.38,8 -5.78,15 -10.37,20.8c-4.59,5.8 -10.2,10.4 -16.66,13.6c-6.8,3.4 -14.45,5 -23.12,5Zm0.68,-25.8c4.25,0 7.82,-1.2 11.05,-3.8c3.06,-2.4 5.61,-5.6 7.65,-9.8c2.04,-4 3.57,-8.4 4.59,-13.2c0.85,-4.8 1.36,-9.4 1.36,-14c0,-5 -0.68,-9.2 -2.21,-12.8c-1.53,-3.4 -3.57,-5.8 -6.29,-7.6c-2.72,-1.8 -5.95,-2.6 -9.52,-2.6c-4.25,0 -7.82,1.2 -11.05,3.8c-3.06,2.4 -5.61,5.6 -7.65,9.8c-2.04,4 -3.57,8.4 -4.59,13.2c-1.02,4.8 -1.53,9.4 -1.53,14c0,5 0.68,9.2 2.38,12.6c1.53,3.6 3.57,6 6.29,7.8c2.72,1.8 5.95,2.6 9.52,2.6Z" style="fill:none;fill-rule:nonzero;stroke:#fff;stroke-width:12.99px;"/></g><path d="M46.805,139.868c-8.387,0 -15.527,-1.567 -21.42,-4.7c-5.893,-3.133 -10.455,-7.4 -13.685,-12.8c-3.23,-5.4 -5.072,-11.6 -5.525,-18.6c-0.453,-7 0.567,-14.367 3.06,-22.1l29.07,-1.4c-2.38,7.333 -3.457,13.433 -3.23,18.3c0.227,4.867 1.53,8.5 3.91,10.9c2.38,2.4 5.667,3.6 9.86,3.6c5.327,0 9.237,-2.133 11.73,-6.4c2.493,-4.267 4.703,-11.4 6.63,-21.4l15.47,-79.2l29.24,0l-16.66,85.2c-1.813,9.6 -4.59,18.067 -8.33,25.4c-3.74,7.333 -8.84,13.033 -15.3,17.1c-6.46,4.067 -14.733,6.1 -24.82,6.1Z" style="fill:none;fill-rule:nonzero;stroke:#fff;stroke-width:12.14px;"/><path d="M735.309,139.868c-4.76,0 -8.585,-1.3 -11.475,-3.9c-2.89,-2.6 -4.335,-6.367 -4.335,-11.3c0,-6.267 1.587,-11.3 4.76,-15.1c3.173,-3.8 7.48,-5.7 12.92,-5.7c4.76,0 8.585,1.333 11.475,4c2.89,2.667 4.335,6.467 4.335,11.4c0,6.267 -1.558,11.267 -4.675,15c-3.117,3.733 -7.452,5.6 -13.005,5.6Zm15.3,-78c-4.76,0 -8.585,-1.3 -11.475,-3.9c-2.89,-2.6 -4.335,-6.367 -4.335,-11.3c0,-6.267 1.587,-11.3 4.76,-15.1c3.173,-3.8 7.48,-5.7 12.92,-5.7c4.76,0 8.585,1.333 11.475,4c2.89,2.667 4.335,6.467 4.335,11.4c0,6.267 -1.558,11.267 -4.675,15c-3.117,3.733 -7.452,5.6 -13.005,5.6Z" style="fill:none;fill-rule:nonzero;stroke:#fff;stroke-width:12.14px;"/><g><path d="M159.647,139.669c-10.71,0 -19.55,-2.2 -26.52,-6.6c-6.8,-4.4 -11.39,-10.8 -13.94,-19c-2.55,-8.2 -2.72,-18.2 -0.51,-29.8l11.73,-58.2l28.9,0l-12.92,65.6c-1.36,6.8 -0.68,12.2 2.04,16.2c2.72,3.8 6.8,5.8 12.41,5.8c4.93,0 8.84,-1.6 11.73,-5c2.89,-3.4 4.93,-8.2 6.29,-14.6l13.43,-68l28.73,0l-13.94,71.2c-1.87,9.4 -4.93,17.2 -9.35,23.4c-4.42,6.4 -9.86,11.2 -16.32,14.4c-6.29,3 -13.6,4.6 -21.76,4.6Z" style="fill:#231f20;fill-rule:nonzero;"/></g><g><path d="M219.827,138.069l22.1,-112l35.87,0l4.93,50.6l2.04,25.6l0.51,0l10.37,-25.6l23.63,-50.6l41.14,0l-22.1,112l-26.01,0l8.67,-43l9.01,-39l-0.17,0l-40.29,82l-21.08,0l-7.82,-82l-0.17,0l-5.95,39l-8.67,43l-26.01,0Z" style="fill:#231f20;fill-rule:nonzero;"/></g><g><path d="M357.164,138.069l22.1,-112l39.78,0c12.07,0 21.42,3.2 28.05,9.6c6.63,6.2 9.86,15 9.86,26.2c0,8 -1.7,15 -5.1,21.2c-3.57,6.2 -8.5,11 -14.96,14.4c-6.29,3.6 -13.94,5.2 -22.95,5.2l-21.42,0l-6.97,35.4l-28.39,0Zm39.95,-58.2l14.11,0c3.74,0 6.8,-0.8 9.52,-2.2c2.55,-1.4 4.42,-3.6 5.61,-6.2c1.36,-2.4 2.04,-5.4 2.04,-8.4c0,-4.2 -1.19,-7.6 -3.4,-9.8c-2.21,-2.4 -5.78,-3.6 -10.54,-3.6l-11.39,0l-5.95,30.2Z" style="fill:#231f20;fill-rule:nonzero;"/></g><g><path d="M525.796,138.069l17,-86.4l-32.13,0l4.93,-25.6l92.99,0l-5.1,25.6l-31.96,0l-17,86.4l-28.73,0Z" style="fill:#231f20;fill-rule:nonzero;"/></g><g><path d="M658.058,139.669c-8.5,0 -16.15,-2 -23.12,-6c-6.8,-3.8 -12.24,-9.6 -16.32,-17c-4.08,-7.4 -6.12,-16.4 -6.12,-27c0,-9.4 1.19,-18.2 3.57,-26c2.21,-7.8 5.61,-14.8 10.2,-20.8c4.59,-5.8 10.2,-10.4 16.83,-13.6c6.63,-3.4 14.45,-5 23.12,-5c8.5,0 16.15,2 22.95,6c6.97,4 12.41,9.8 16.49,17.2c3.91,7.4 5.95,16.4 5.95,27c0,9.2 -1.19,17.8 -3.4,25.8c-2.38,8 -5.78,15 -10.37,20.8c-4.59,5.8 -10.2,10.4 -16.66,13.6c-6.8,3.4 -14.45,5 -23.12,5Zm0.68,-25.8c4.25,0 7.82,-1.2 11.05,-3.8c3.06,-2.4 5.61,-5.6 7.65,-9.8c2.04,-4 3.57,-8.4 4.59,-13.2c0.85,-4.8 1.36,-9.4 1.36,-14c0,-5 -0.68,-9.2 -2.21,-12.8c-1.53,-3.4 -3.57,-5.8 -6.29,-7.6c-2.72,-1.8 -5.95,-2.6 -9.52,-2.6c-4.25,0 -7.82,1.2 -11.05,3.8c-3.06,2.4 -5.61,5.6 -7.65,9.8c-2.04,4 -3.57,8.4 -4.59,13.2c-1.02,4.8 -1.53,9.4 -1.53,14c0,5 0.68,9.2 2.38,12.6c1.53,3.6 3.57,6 6.29,7.8c2.72,1.8 5.95,2.6 9.52,2.6Z" style="fill:#231f20;fill-rule:nonzero;"/></g><path d="M46.805,139.868c-8.387,0 -15.527,-1.567 -21.42,-4.7c-5.893,-3.133 -10.455,-7.4 -13.685,-12.8c-3.23,-5.4 -5.072,-11.6 -5.525,-18.6c-0.453,-7 0.567,-14.367 3.06,-22.1l29.07,-1.4c-2.38,7.333 -3.457,13.433 -3.23,18.3c0.227,4.867 1.53,8.5 3.91,10.9c2.38,2.4 5.667,3.6 9.86,3.6c5.327,0 9.237,-2.133 11.73,-6.4c2.493,-4.267 4.703,-11.4 6.63,-21.4l15.47,-79.2l29.24,0l-16.66,85.2c-1.813,9.6 -4.59,18.067 -8.33,25.4c-3.74,7.333 -8.84,13.033 -15.3,17.1c-6.46,4.067 -14.733,6.1 -24.82,6.1Z" style="fill:#231f20;fill-rule:nonzero;"/><path d="M735.309,139.868c-4.76,0 -8.585,-1.3 -11.475,-3.9c-2.89,-2.6 -4.335,-6.367 -4.335,-11.3c0,-6.267 1.587,-11.3 4.76,-15.1c3.173,-3.8 7.48,-5.7 12.92,-5.7c4.76,0 8.585,1.333 11.475,4c2.89,2.667 4.335,6.467 4.335,11.4c0,6.267 -1.558,11.267 -4.675,15c-3.117,3.733 -7.452,5.6 -13.005,5.6Zm15.3,-78c-4.76,0 -8.585,-1.3 -11.475,-3.9c-2.89,-2.6 -4.335,-6.367 -4.335,-11.3c0,-6.267 1.587,-11.3 4.76,-15.1c3.173,-3.8 7.48,-5.7 12.92,-5.7c4.76,0 8.585,1.333 11.475,4c2.89,2.667 4.335,6.467 4.335,11.4c0,6.267 -1.558,11.267 -4.675,15c-3.117,3.733 -7.452,5.6 -13.005,5.6Z" style="fill:#231f20;fill-rule:nonzero;"/></g></svg>