<?xml version="1.0" encoding="UTF-8" standalone="no"?>
<!DOCTYPE svg PUBLIC "-//W3C//DTD SVG 1.1//EN" "http://www.w3.org/Graphics/SVG/1.1/DTD/svg11.dtd">
<svg width="100%" height="100%" viewBox="0 0 775 156" version="1.1" xmlns="http://www.w3.org/2000/svg" xmlns:xlink="http://www.w3.org/1999/xlink" xml:space="preserve" xmlns:serif="http://www.serif.com/" style="fill-rule:evenodd;clip-rule:evenodd;stroke-linejoin:round;stroke-miterlimit:2;">
    <g transform="matrix(1,0,0,1,-3827.59925,-3088.768515)">
        <g transform="matrix(0.938089,0,0,0.938089,-2064.928872,2367.03641)">
            <g transform="matrix(1,0,0,1,378.1015,629.544468)">
                <g transform="matrix(1.205672,0,0,1.411158,-4698.840124,-207.099944)">
                    <g transform="matrix(0.976024,0,0,1,211.035113,0)">
                        <g transform="matrix(151.081141,0,0,151.081141,8893.42809,357.692308)">
                            <path d="M0.302,0.008C0.239,0.008 0.187,-0.003 0.146,-0.025C0.106,-0.047 0.079,-0.079 0.064,-0.12C0.049,-0.161 0.048,-0.211 0.061,-0.269L0.13,-0.56L0.3,-0.56L0.224,-0.232C0.216,-0.198 0.22,-0.171 0.236,-0.151C0.252,-0.132 0.276,-0.122 0.309,-0.122C0.338,-0.122 0.361,-0.13 0.378,-0.147C0.395,-0.164 0.407,-0.188 0.415,-0.22L0.494,-0.56L0.663,-0.56L0.581,-0.204C0.57,-0.157 0.552,-0.118 0.526,-0.087C0.5,-0.055 0.468,-0.031 0.43,-0.015C0.393,0 0.35,0.008 0.302,0.008Z" style="fill:none;fill-rule:nonzero;stroke:rgb(243,109,33);stroke-width:0.07px;"/>
                        </g>
                        <g transform="matrix(151.081141,0,0,151.081141,8893.42809,357.692308)">
                        </g>
                        <g transform="matrix(151.081141,0,0,151.081141,8990.875426,357.692308)">
                            <path d="M0.011,-0L0.141,-0.56L0.352,-0.56L0.381,-0.307L0.393,-0.179L0.396,-0.179L0.457,-0.307L0.596,-0.56L0.838,-0.56L0.708,-0L0.555,-0L0.606,-0.215L0.659,-0.41L0.658,-0.41L0.421,-0L0.297,-0L0.251,-0.41L0.25,-0.41L0.215,-0.215L0.164,-0L0.011,-0Z" style="fill:none;fill-rule:nonzero;stroke:rgb(243,109,33);stroke-width:0.07px;"/>
                        </g>
                        <g transform="matrix(151.081141,0,0,151.081141,8990.875426,357.692308)">
                        </g>
                        <g transform="matrix(151.081141,0,0,151.081141,9116.423854,357.692308)">
                            <path d="M0.011,-0L0.141,-0.56L0.375,-0.56C0.446,-0.56 0.501,-0.544 0.54,-0.512C0.579,-0.481 0.598,-0.437 0.598,-0.381C0.598,-0.341 0.588,-0.306 0.568,-0.275C0.547,-0.244 0.518,-0.22 0.48,-0.203C0.443,-0.185 0.398,-0.177 0.345,-0.177L0.219,-0.177L0.178,-0L0.011,-0ZM0.246,-0.291L0.329,-0.291C0.351,-0.291 0.369,-0.295 0.385,-0.302C0.4,-0.309 0.411,-0.32 0.418,-0.333C0.426,-0.345 0.43,-0.36 0.43,-0.375C0.43,-0.396 0.423,-0.413 0.41,-0.424C0.397,-0.436 0.376,-0.442 0.348,-0.442L0.281,-0.442L0.246,-0.291Z" style="fill:none;fill-rule:nonzero;stroke:rgb(243,109,33);stroke-width:0.07px;"/>
                        </g>
                        <g transform="matrix(151.081141,0,0,151.081141,9116.423854,357.692308)">
                        </g>
                        <g transform="matrix(151.081141,0,0,151.081141,9249.526339,357.692308)">
                            <path d="M0.16,-0L0.26,-0.432L0.071,-0.432L0.1,-0.56L0.647,-0.56L0.617,-0.432L0.429,-0.432L0.329,-0L0.16,-0Z" style="fill:none;fill-rule:nonzero;stroke:rgb(243,109,33);stroke-width:0.07px;"/>
                        </g>
                        <g transform="matrix(151.081141,0,0,151.081141,9247.049661,357.692308)">
                        </g>
                        <g transform="matrix(151.081141,0,0,151.081141,9337.547265,357.692308)">
                            <path d="M0.313,0.008C0.263,0.008 0.218,-0.002 0.177,-0.022C0.137,-0.041 0.105,-0.07 0.081,-0.107C0.057,-0.144 0.045,-0.189 0.045,-0.242C0.045,-0.289 0.052,-0.333 0.066,-0.372C0.079,-0.411 0.099,-0.446 0.126,-0.476C0.153,-0.505 0.186,-0.528 0.225,-0.544C0.264,-0.561 0.31,-0.569 0.361,-0.569C0.411,-0.569 0.456,-0.559 0.496,-0.539C0.537,-0.519 0.569,-0.49 0.593,-0.453C0.616,-0.416 0.628,-0.371 0.628,-0.318C0.628,-0.272 0.621,-0.229 0.608,-0.189C0.594,-0.149 0.574,-0.114 0.547,-0.085C0.52,-0.056 0.487,-0.033 0.449,-0.017C0.409,-0 0.364,0.008 0.313,0.008ZM0.317,-0.121C0.342,-0.121 0.363,-0.127 0.382,-0.14C0.4,-0.152 0.415,-0.168 0.427,-0.189C0.439,-0.209 0.448,-0.231 0.454,-0.255C0.459,-0.279 0.462,-0.302 0.462,-0.325C0.462,-0.35 0.458,-0.371 0.449,-0.389C0.44,-0.406 0.428,-0.418 0.412,-0.427C0.396,-0.436 0.377,-0.44 0.356,-0.44C0.331,-0.44 0.31,-0.434 0.291,-0.421C0.273,-0.409 0.258,-0.393 0.246,-0.372C0.234,-0.352 0.225,-0.33 0.219,-0.306C0.213,-0.282 0.21,-0.259 0.21,-0.236C0.21,-0.211 0.214,-0.19 0.224,-0.173C0.233,-0.155 0.245,-0.143 0.261,-0.134C0.277,-0.125 0.296,-0.121 0.317,-0.121Z" style="fill:none;fill-rule:nonzero;stroke:rgb(243,109,33);stroke-width:0.07px;"/>
                        </g>
                        <g transform="matrix(151.081141,0,0,151.081141,9337.547265,357.692308)">
                        </g>
                        <g transform="matrix(151.081141,0,0,151.081141,9481.22543,357.692308)">
                        </g>
                        <text x="8802.024px" y="357.692px" style="font-family:'WorkSans-BoldItalic', 'Work Sans';font-weight:700;font-style:italic;font-size:151.081px;fill:none;stroke:rgb(243,109,33);stroke-width:9.96px;">J<tspan x="9207.224px 9436.505px " y="357.692px 357.692px "> :</tspan></text>
                    </g>
                    <g transform="matrix(0.976024,0,0,1,211.035113,0)">
                        <g transform="matrix(151.081141,0,0,151.081141,8893.42809,357.692308)">
                            <path d="M0.302,0.008C0.239,0.008 0.187,-0.003 0.146,-0.025C0.106,-0.047 0.079,-0.079 0.064,-0.12C0.049,-0.161 0.048,-0.211 0.061,-0.269L0.13,-0.56L0.3,-0.56L0.224,-0.232C0.216,-0.198 0.22,-0.171 0.236,-0.151C0.252,-0.132 0.276,-0.122 0.309,-0.122C0.338,-0.122 0.361,-0.13 0.378,-0.147C0.395,-0.164 0.407,-0.188 0.415,-0.22L0.494,-0.56L0.663,-0.56L0.581,-0.204C0.57,-0.157 0.552,-0.118 0.526,-0.087C0.5,-0.055 0.468,-0.031 0.43,-0.015C0.393,0 0.35,0.008 0.302,0.008Z" style="fill:rgb(243,109,33);fill-rule:nonzero;"/>
                        </g>
                        <g transform="matrix(151.081141,0,0,151.081141,8893.42809,357.692308)">
                        </g>
                        <g transform="matrix(151.081141,0,0,151.081141,8990.875426,357.692308)">
                            <path d="M0.011,-0L0.141,-0.56L0.352,-0.56L0.381,-0.307L0.393,-0.179L0.396,-0.179L0.457,-0.307L0.596,-0.56L0.838,-0.56L0.708,-0L0.555,-0L0.606,-0.215L0.659,-0.41L0.658,-0.41L0.421,-0L0.297,-0L0.251,-0.41L0.25,-0.41L0.215,-0.215L0.164,-0L0.011,-0Z" style="fill:rgb(243,109,33);fill-rule:nonzero;"/>
                        </g>
                        <g transform="matrix(151.081141,0,0,151.081141,8990.875426,357.692308)">
                        </g>
                        <g transform="matrix(151.081141,0,0,151.081141,9116.423854,357.692308)">
                            <path d="M0.011,-0L0.141,-0.56L0.375,-0.56C0.446,-0.56 0.501,-0.544 0.54,-0.512C0.579,-0.481 0.598,-0.437 0.598,-0.381C0.598,-0.341 0.588,-0.306 0.568,-0.275C0.547,-0.244 0.518,-0.22 0.48,-0.203C0.443,-0.185 0.398,-0.177 0.345,-0.177L0.219,-0.177L0.178,-0L0.011,-0ZM0.246,-0.291L0.329,-0.291C0.351,-0.291 0.369,-0.295 0.385,-0.302C0.4,-0.309 0.411,-0.32 0.418,-0.333C0.426,-0.345 0.43,-0.36 0.43,-0.375C0.43,-0.396 0.423,-0.413 0.41,-0.424C0.397,-0.436 0.376,-0.442 0.348,-0.442L0.281,-0.442L0.246,-0.291Z" style="fill:rgb(243,109,33);fill-rule:nonzero;"/>
                        </g>
                        <g transform="matrix(151.081141,0,0,151.081141,9116.423854,357.692308)">
                        </g>
                        <g transform="matrix(151.081141,0,0,151.081141,9249.526339,357.692308)">
                            <path d="M0.16,-0L0.26,-0.432L0.071,-0.432L0.1,-0.56L0.647,-0.56L0.617,-0.432L0.429,-0.432L0.329,-0L0.16,-0Z" style="fill:rgb(243,109,33);fill-rule:nonzero;"/>
                        </g>
                        <g transform="matrix(151.081141,0,0,151.081141,9247.049661,357.692308)">
                        </g>
                        <g transform="matrix(151.081141,0,0,151.081141,9337.547265,357.692308)">
                            <path d="M0.313,0.008C0.263,0.008 0.218,-0.002 0.177,-0.022C0.137,-0.041 0.105,-0.07 0.081,-0.107C0.057,-0.144 0.045,-0.189 0.045,-0.242C0.045,-0.289 0.052,-0.333 0.066,-0.372C0.079,-0.411 0.099,-0.446 0.126,-0.476C0.153,-0.505 0.186,-0.528 0.225,-0.544C0.264,-0.561 0.31,-0.569 0.361,-0.569C0.411,-0.569 0.456,-0.559 0.496,-0.539C0.537,-0.519 0.569,-0.49 0.593,-0.453C0.616,-0.416 0.628,-0.371 0.628,-0.318C0.628,-0.272 0.621,-0.229 0.608,-0.189C0.594,-0.149 0.574,-0.114 0.547,-0.085C0.52,-0.056 0.487,-0.033 0.449,-0.017C0.409,-0 0.364,0.008 0.313,0.008ZM0.317,-0.121C0.342,-0.121 0.363,-0.127 0.382,-0.14C0.4,-0.152 0.415,-0.168 0.427,-0.189C0.439,-0.209 0.448,-0.231 0.454,-0.255C0.459,-0.279 0.462,-0.302 0.462,-0.325C0.462,-0.35 0.458,-0.371 0.449,-0.389C0.44,-0.406 0.428,-0.418 0.412,-0.427C0.396,-0.436 0.377,-0.44 0.356,-0.44C0.331,-0.44 0.31,-0.434 0.291,-0.421C0.273,-0.409 0.258,-0.393 0.246,-0.372C0.234,-0.352 0.225,-0.33 0.219,-0.306C0.213,-0.282 0.21,-0.259 0.21,-0.236C0.21,-0.211 0.214,-0.19 0.224,-0.173C0.233,-0.155 0.245,-0.143 0.261,-0.134C0.277,-0.125 0.296,-0.121 0.317,-0.121Z" style="fill:rgb(243,109,33);fill-rule:nonzero;"/>
                        </g>
                        <g transform="matrix(151.081141,0,0,151.081141,9337.547265,357.692308)">
                        </g>
                        <g transform="matrix(151.081141,0,0,151.081141,9481.22543,357.692308)">
                        </g>
                        <text x="8802.024px" y="357.692px" style="font-family:'WorkSans-BoldItalic', 'Work Sans';font-weight:700;font-style:italic;font-size:151.081px;fill:rgb(243,109,33);">J<tspan x="9207.224px 9436.505px " y="357.692px 357.692px "> :</tspan></text>
                    </g>
                </g>
                <g transform="matrix(1.22895,0,0,1.411158,-4911.514667,-217.759915)">
                    <g transform="matrix(0.976024,0,0,1,211.035113,0)">
                        <g transform="matrix(151.081141,0,0,151.081141,8893.42809,357.692308)">
                            <path d="M0.302,0.008C0.239,0.008 0.187,-0.003 0.146,-0.025C0.106,-0.047 0.079,-0.079 0.064,-0.12C0.049,-0.161 0.048,-0.211 0.061,-0.269L0.13,-0.56L0.3,-0.56L0.224,-0.232C0.216,-0.198 0.22,-0.171 0.236,-0.151C0.252,-0.132 0.276,-0.122 0.309,-0.122C0.338,-0.122 0.361,-0.13 0.378,-0.147C0.395,-0.164 0.407,-0.188 0.415,-0.22L0.494,-0.56L0.663,-0.56L0.581,-0.204C0.57,-0.157 0.552,-0.118 0.526,-0.087C0.5,-0.055 0.468,-0.031 0.43,-0.015C0.393,0 0.35,0.008 0.302,0.008Z" style="fill:none;fill-rule:nonzero;stroke:white;stroke-width:0.07px;"/>
                        </g>
                        <g transform="matrix(151.081141,0,0,151.081141,8893.42809,357.692308)">
                        </g>
                        <g transform="matrix(151.081141,0,0,151.081141,8990.875426,357.692308)">
                            <path d="M0.011,-0L0.141,-0.56L0.352,-0.56L0.381,-0.307L0.393,-0.179L0.396,-0.179L0.457,-0.307L0.596,-0.56L0.838,-0.56L0.708,-0L0.555,-0L0.606,-0.215L0.659,-0.41L0.658,-0.41L0.421,-0L0.297,-0L0.251,-0.41L0.25,-0.41L0.215,-0.215L0.164,-0L0.011,-0Z" style="fill:none;fill-rule:nonzero;stroke:white;stroke-width:0.07px;"/>
                        </g>
                        <g transform="matrix(151.081141,0,0,151.081141,8990.875426,357.692308)">
                        </g>
                        <g transform="matrix(151.081141,0,0,151.081141,9116.423854,357.692308)">
                            <path d="M0.011,-0L0.141,-0.56L0.375,-0.56C0.446,-0.56 0.501,-0.544 0.54,-0.512C0.579,-0.481 0.598,-0.437 0.598,-0.381C0.598,-0.341 0.588,-0.306 0.568,-0.275C0.547,-0.244 0.518,-0.22 0.48,-0.203C0.443,-0.185 0.398,-0.177 0.345,-0.177L0.219,-0.177L0.178,-0L0.011,-0ZM0.246,-0.291L0.329,-0.291C0.351,-0.291 0.369,-0.295 0.385,-0.302C0.4,-0.309 0.411,-0.32 0.418,-0.333C0.426,-0.345 0.43,-0.36 0.43,-0.375C0.43,-0.396 0.423,-0.413 0.41,-0.424C0.397,-0.436 0.376,-0.442 0.348,-0.442L0.281,-0.442L0.246,-0.291Z" style="fill:none;fill-rule:nonzero;stroke:white;stroke-width:0.07px;"/>
                        </g>
                        <g transform="matrix(151.081141,0,0,151.081141,9116.423854,357.692308)">
                        </g>
                        <g transform="matrix(151.081141,0,0,151.081141,9249.526339,357.692308)">
                            <path d="M0.16,-0L0.26,-0.432L0.071,-0.432L0.1,-0.56L0.647,-0.56L0.617,-0.432L0.429,-0.432L0.329,-0L0.16,-0Z" style="fill:none;fill-rule:nonzero;stroke:white;stroke-width:0.07px;"/>
                        </g>
                        <g transform="matrix(151.081141,0,0,151.081141,9247.049661,357.692308)">
                        </g>
                        <g transform="matrix(151.081141,0,0,151.081141,9337.547265,357.692308)">
                            <path d="M0.313,0.008C0.263,0.008 0.218,-0.002 0.177,-0.022C0.137,-0.041 0.105,-0.07 0.081,-0.107C0.057,-0.144 0.045,-0.189 0.045,-0.242C0.045,-0.289 0.052,-0.333 0.066,-0.372C0.079,-0.411 0.099,-0.446 0.126,-0.476C0.153,-0.505 0.186,-0.528 0.225,-0.544C0.264,-0.561 0.31,-0.569 0.361,-0.569C0.411,-0.569 0.456,-0.559 0.496,-0.539C0.537,-0.519 0.569,-0.49 0.593,-0.453C0.616,-0.416 0.628,-0.371 0.628,-0.318C0.628,-0.272 0.621,-0.229 0.608,-0.189C0.594,-0.149 0.574,-0.114 0.547,-0.085C0.52,-0.056 0.487,-0.033 0.449,-0.017C0.409,-0 0.364,0.008 0.313,0.008ZM0.317,-0.121C0.342,-0.121 0.363,-0.127 0.382,-0.14C0.4,-0.152 0.415,-0.168 0.427,-0.189C0.439,-0.209 0.448,-0.231 0.454,-0.255C0.459,-0.279 0.462,-0.302 0.462,-0.325C0.462,-0.35 0.458,-0.371 0.449,-0.389C0.44,-0.406 0.428,-0.418 0.412,-0.427C0.396,-0.436 0.377,-0.44 0.356,-0.44C0.331,-0.44 0.31,-0.434 0.291,-0.421C0.273,-0.409 0.258,-0.393 0.246,-0.372C0.234,-0.352 0.225,-0.33 0.219,-0.306C0.213,-0.282 0.21,-0.259 0.21,-0.236C0.21,-0.211 0.214,-0.19 0.224,-0.173C0.233,-0.155 0.245,-0.143 0.261,-0.134C0.277,-0.125 0.296,-0.121 0.317,-0.121Z" style="fill:none;fill-rule:nonzero;stroke:white;stroke-width:0.07px;"/>
                        </g>
                        <g transform="matrix(151.081141,0,0,151.081141,9337.547265,357.692308)">
                        </g>
                        <g transform="matrix(151.081141,0,0,151.081141,9481.22543,357.692308)">
                        </g>
                        <text x="8802.024px" y="357.692px" style="font-family:'WorkSans-BoldItalic', 'Work Sans';font-weight:700;font-style:italic;font-size:151.081px;fill:none;stroke:white;stroke-width:9.88px;">J<tspan x="9207.224px 9436.505px " y="357.692px 357.692px "> :</tspan></text>
                    </g>
                    <g transform="matrix(0.976024,0,0,1,211.035113,0)">
                        <g transform="matrix(151.081141,0,0,151.081141,8893.42809,357.692308)">
                            <path d="M0.302,0.008C0.239,0.008 0.187,-0.003 0.146,-0.025C0.106,-0.047 0.079,-0.079 0.064,-0.12C0.049,-0.161 0.048,-0.211 0.061,-0.269L0.13,-0.56L0.3,-0.56L0.224,-0.232C0.216,-0.198 0.22,-0.171 0.236,-0.151C0.252,-0.132 0.276,-0.122 0.309,-0.122C0.338,-0.122 0.361,-0.13 0.378,-0.147C0.395,-0.164 0.407,-0.188 0.415,-0.22L0.494,-0.56L0.663,-0.56L0.581,-0.204C0.57,-0.157 0.552,-0.118 0.526,-0.087C0.5,-0.055 0.468,-0.031 0.43,-0.015C0.393,0 0.35,0.008 0.302,0.008Z" style="fill:rgb(35,31,32);fill-rule:nonzero;"/>
                        </g>
                        <g transform="matrix(151.081141,0,0,151.081141,8893.42809,357.692308)">
                        </g>
                        <g transform="matrix(151.081141,0,0,151.081141,8990.875426,357.692308)">
                            <path d="M0.011,-0L0.141,-0.56L0.352,-0.56L0.381,-0.307L0.393,-0.179L0.396,-0.179L0.457,-0.307L0.596,-0.56L0.838,-0.56L0.708,-0L0.555,-0L0.606,-0.215L0.659,-0.41L0.658,-0.41L0.421,-0L0.297,-0L0.251,-0.41L0.25,-0.41L0.215,-0.215L0.164,-0L0.011,-0Z" style="fill:rgb(35,31,32);fill-rule:nonzero;"/>
                        </g>
                        <g transform="matrix(151.081141,0,0,151.081141,8990.875426,357.692308)">
                        </g>
                        <g transform="matrix(151.081141,0,0,151.081141,9116.423854,357.692308)">
                            <path d="M0.011,-0L0.141,-0.56L0.375,-0.56C0.446,-0.56 0.501,-0.544 0.54,-0.512C0.579,-0.481 0.598,-0.437 0.598,-0.381C0.598,-0.341 0.588,-0.306 0.568,-0.275C0.547,-0.244 0.518,-0.22 0.48,-0.203C0.443,-0.185 0.398,-0.177 0.345,-0.177L0.219,-0.177L0.178,-0L0.011,-0ZM0.246,-0.291L0.329,-0.291C0.351,-0.291 0.369,-0.295 0.385,-0.302C0.4,-0.309 0.411,-0.32 0.418,-0.333C0.426,-0.345 0.43,-0.36 0.43,-0.375C0.43,-0.396 0.423,-0.413 0.41,-0.424C0.397,-0.436 0.376,-0.442 0.348,-0.442L0.281,-0.442L0.246,-0.291Z" style="fill:rgb(35,31,32);fill-rule:nonzero;"/>
                        </g>
                        <g transform="matrix(151.081141,0,0,151.081141,9116.423854,357.692308)">
                        </g>
                        <g transform="matrix(151.081141,0,0,151.081141,9249.526339,357.692308)">
                            <path d="M0.16,-0L0.26,-0.432L0.071,-0.432L0.1,-0.56L0.647,-0.56L0.617,-0.432L0.429,-0.432L0.329,-0L0.16,-0Z" style="fill:rgb(35,31,32);fill-rule:nonzero;"/>
                        </g>
                        <g transform="matrix(151.081141,0,0,151.081141,9247.049661,357.692308)">
                        </g>
                        <g transform="matrix(151.081141,0,0,151.081141,9337.547265,357.692308)">
                            <path d="M0.313,0.008C0.263,0.008 0.218,-0.002 0.177,-0.022C0.137,-0.041 0.105,-0.07 0.081,-0.107C0.057,-0.144 0.045,-0.189 0.045,-0.242C0.045,-0.289 0.052,-0.333 0.066,-0.372C0.079,-0.411 0.099,-0.446 0.126,-0.476C0.153,-0.505 0.186,-0.528 0.225,-0.544C0.264,-0.561 0.31,-0.569 0.361,-0.569C0.411,-0.569 0.456,-0.559 0.496,-0.539C0.537,-0.519 0.569,-0.49 0.593,-0.453C0.616,-0.416 0.628,-0.371 0.628,-0.318C0.628,-0.272 0.621,-0.229 0.608,-0.189C0.594,-0.149 0.574,-0.114 0.547,-0.085C0.52,-0.056 0.487,-0.033 0.449,-0.017C0.409,-0 0.364,0.008 0.313,0.008ZM0.317,-0.121C0.342,-0.121 0.363,-0.127 0.382,-0.14C0.4,-0.152 0.415,-0.168 0.427,-0.189C0.439,-0.209 0.448,-0.231 0.454,-0.255C0.459,-0.279 0.462,-0.302 0.462,-0.325C0.462,-0.35 0.458,-0.371 0.449,-0.389C0.44,-0.406 0.428,-0.418 0.412,-0.427C0.396,-0.436 0.377,-0.44 0.356,-0.44C0.331,-0.44 0.31,-0.434 0.291,-0.421C0.273,-0.409 0.258,-0.393 0.246,-0.372C0.234,-0.352 0.225,-0.33 0.219,-0.306C0.213,-0.282 0.21,-0.259 0.21,-0.236C0.21,-0.211 0.214,-0.19 0.224,-0.173C0.233,-0.155 0.245,-0.143 0.261,-0.134C0.277,-0.125 0.296,-0.121 0.317,-0.121Z" style="fill:rgb(35,31,32);fill-rule:nonzero;"/>
                        </g>
                        <g transform="matrix(151.081141,0,0,151.081141,9337.547265,357.692308)">
                        </g>
                        <g transform="matrix(151.081141,0,0,151.081141,9481.22543,357.692308)">
                        </g>
                        <text x="8802.024px" y="357.692px" style="font-family:'WorkSans-BoldItalic', 'Work Sans';font-weight:700;font-style:italic;font-size:151.081px;fill:rgb(35,31,32);">J<tspan x="9207.224px 9436.505px " y="357.692px 357.692px "> :</tspan></text>
                    </g>
                </g>
            </g>
        </g>
    </g>
</svg>
