<?xml version="1.0" encoding="UTF-8" standalone="no"?><!DOCTYPE svg PUBLIC "-//W3C//DTD SVG 1.1//EN" "http://www.w3.org/Graphics/SVG/1.1/DTD/svg11.dtd"><svg width="100%" height="100%" viewBox="0 0 497 541" version="1.1" xmlns="http://www.w3.org/2000/svg" xmlns:xlink="http://www.w3.org/1999/xlink" xml:space="preserve" xmlns:serif="http://www.serif.com/" style="fill-rule:evenodd;clip-rule:evenodd;stroke-linejoin:round;stroke-miterlimit:2;"><g><g><g><path d="M473.189,180l0,210.08c0,82.788 -67.212,150.001 -149.999,150.001l-150.001,0c-82.787,0 -149.999,-67.212 -149.999,-150.001l0,-210.08c0,-82.786 67.212,-149.999 149.999,-149.999l150.001,0c82.787,0 149.999,67.212 149.999,149.999Z" style="fill:#231f20;"/><path d="M473.189,180l0,210.08c0,82.788 -67.212,150.001 -149.999,150.001l-150.001,0c-82.787,0 -149.999,-67.212 -149.999,-150.001l0,-210.08c0,-82.786 67.212,-149.999 149.999,-149.999l150.001,0c82.787,0 149.999,67.212 149.999,149.999Zm-33.332,0c0,-64.39 -52.276,-116.665 -116.667,-116.665l-150.001,0c-64.389,0 -116.665,52.276 -116.665,116.665l0,210.08c0,64.392 52.276,116.667 116.665,116.667l150.001,0c64.39,0 116.667,-52.276 116.667,-116.667l0,-210.08Z" style="fill:#231f20;"/></g><g><path d="M496.375,150l0,210.08c0,82.788 -67.213,150.001 -150,150.001l-196.375,0c-82.788,0 -150,-67.212 -150,-150.001l0,-210.08c0,-82.786 67.213,-149.999 150,-149.999l196.375,0c82.788,0 150,67.212 150,149.999Z" style="fill:#fff;"/><path d="M496.375,150l0,210.08c0,82.788 -67.213,150.001 -150,150.001l-196.375,0c-82.788,0 -150,-67.212 -150,-150.001l0,-210.08c0,-82.786 67.213,-149.999 150,-149.999l196.375,0c82.788,0 150,67.212 150,149.999Zm-33.333,0c0,-64.39 -52.277,-116.665 -116.668,-116.665l-196.375,0c-64.391,0 -116.668,52.276 -116.668,116.665l0,210.08c0,64.392 52.277,116.667 116.668,116.667l196.375,0c64.391,0 116.668,-52.276 116.668,-116.667l0,-210.08Z" style="fill:#f36d21;"/></g><g><g><path d="M163.133,255.027l156.001,-111.453c3.699,-2.642 8.566,-2.996 12.608,-0.916c4.044,2.08 6.584,6.245 6.584,10.792l0,63.493c0,4.035 -2.006,7.806 -5.352,10.063l-56.155,37.868l56.129,37.636c3.361,2.254 5.378,6.035 5.378,10.081l0,64.037c0,4.55 -2.544,8.717 -6.59,10.796c-4.046,2.079 -8.916,1.721 -12.614,-0.928l-156,-111.726c-2.123,-1.519 -3.695,-3.676 -4.491,-6.163c-0.774,-2.414 -0.774,-5.001 0.002,-7.415c0.799,-2.489 2.373,-4.646 4.5,-6.165Zm91.935,9.876l71.121,-47.96l0,-63.493l-156,111.453l156,111.724l0,-64.037l-71.121,-47.687Z" style="fill:#f36d21;"/><path d="M326.189,216.944l0,-63.493l-156,111.453l84.879,0l71.121,-47.96Zm0,95.648l-71.121,-47.688l-84.879,0l156,111.725l0,-64.038Z" style="fill:#f36d21;fill-rule:nonzero;"/></g><g><path d="M150.706,234.549l182.302,-111.453c3.747,-2.29 8.438,-2.379 12.267,-0.231c3.831,2.147 6.202,6.195 6.202,10.586l0,63.493c0,4.337 -2.314,8.344 -6.071,10.512l-64.842,37.417l64.816,37.19c3.772,2.164 6.097,6.179 6.097,10.528l0,64.037c0,4.394 -2.374,8.443 -6.207,10.59c-3.832,2.147 -8.527,2.054 -12.273,-0.241l-182.302,-111.726c-2.609,-1.599 -4.512,-4.114 -5.342,-7.06c-0.607,-2.155 -0.605,-4.428 0.003,-6.583c0.831,-2.947 2.738,-5.463 5.35,-7.06Zm105.521,10.355l83.112,-47.96l0,-63.493l-182.302,111.453l182.302,111.724l0,-64.037l-83.112,-47.687Z" style="fill:#fff;"/><path d="M339.34,196.944l0,-63.493l-182.303,111.453l99.19,0l83.113,-47.96Zm0,95.648l-83.113,-47.688l-99.19,0l182.303,111.725l0,-64.038Z" style="fill:#231f20;fill-rule:nonzero;"/></g></g></g></g></svg>