<?xml version="1.0" encoding="UTF-8" standalone="no"?><!DOCTYPE svg PUBLIC "-//W3C//DTD SVG 1.1//EN" "http://www.w3.org/Graphics/SVG/1.1/DTD/svg11.dtd"><svg width="100%" height="100%" viewBox="0 0 497 541" version="1.1" xmlns="http://www.w3.org/2000/svg" xmlns:xlink="http://www.w3.org/1999/xlink" xml:space="preserve" xmlns:serif="http://www.serif.com/" style="fill-rule:evenodd;clip-rule:evenodd;stroke-linejoin:round;stroke-miterlimit:2;"><g><g><g><path d="M473.189,180l0,210.08c0,82.788 -67.212,150.001 -149.999,150.001l-150.001,0c-82.787,0 -149.999,-67.212 -149.999,-150.001l0,-210.08c0,-82.786 67.212,-149.999 149.999,-149.999l150.001,0c82.787,0 149.999,67.212 149.999,149.999Z" style="fill:#231f20;"/><path d="M473.189,180l0,210.08c0,82.788 -67.212,150.001 -149.999,150.001l-150.001,0c-82.787,0 -149.999,-67.212 -149.999,-150.001l0,-210.08c0,-82.786 67.212,-149.999 149.999,-149.999l150.001,0c82.787,0 149.999,67.212 149.999,149.999Zm-33.332,0c0,-64.39 -52.276,-116.665 -116.667,-116.665l-150.001,0c-64.389,0 -116.665,52.276 -116.665,116.665l0,210.08c0,64.392 52.276,116.667 116.665,116.667l150.001,0c64.39,0 116.667,-52.276 116.667,-116.667l0,-210.08Z" style="fill:#231f20;"/></g><g><path d="M496.375,150l0,210.08c0,82.788 -67.213,150.001 -150,150.001l-196.375,0c-82.788,0 -150,-67.212 -150,-150.001l0,-210.08c0,-82.786 67.213,-149.999 150,-149.999l196.375,0c82.788,0 150,67.212 150,149.999Z" style="fill:#f36d21;"/><path d="M496.375,150l0,210.08c0,82.788 -67.213,150.001 -150,150.001l-196.375,0c-82.788,0 -150,-67.212 -150,-150.001l0,-210.08c0,-82.786 67.213,-149.999 150,-149.999l196.375,0c82.788,0 150,67.212 150,149.999Zm-33.333,0c0,-64.39 -52.277,-116.665 -116.668,-116.665l-196.375,0c-64.391,0 -116.668,52.276 -116.668,116.665l0,210.08c0,64.392 52.277,116.667 116.668,116.667l196.375,0c64.391,0 116.668,-52.276 116.668,-116.667l0,-210.08Z" style="fill:#f36d21;"/></g><g><g><path d="M141.384,244.852l164.651,-111.453c3.437,-2.326 7.826,-2.736 11.634,-1.083c3.808,1.652 6.509,5.136 7.158,9.235l10.056,63.493c0.757,4.78 -1.397,9.551 -5.482,12.144l-57.827,36.727l72.121,37.933c3.389,1.782 5.738,5.061 6.337,8.843l10.143,64.038c0.727,4.59 -1.231,9.193 -5.042,11.852c-3.812,2.659 -8.808,2.91 -12.865,0.643l-199.998,-111.726c-2.737,-1.529 -4.768,-4.048 -5.686,-7.038c-0.659,-2.151 -0.71,-4.436 -0.141,-6.616c0.745,-2.861 2.499,-5.339 4.941,-6.993Zm105.995,10.052l75.516,-47.96l-10.056,-63.493l-164.65,111.453l199.998,111.724l-10.142,-64.037l-90.665,-47.687Z" style="fill:#fff;"/><path d="M322.895,206.944l-10.056,-63.493l-164.65,111.453l99.19,0l75.516,-47.96Zm15.149,95.648l-90.665,-47.688l-99.19,0l199.998,111.725l-10.143,-64.038Z" style="fill:#231f20;fill-rule:nonzero;"/></g></g></g></g></svg>