<?xml version="1.0" encoding="UTF-8" standalone="no"?>
<!DOCTYPE svg PUBLIC "-//W3C//DTD SVG 1.1//EN" "http://www.w3.org/Graphics/SVG/1.1/DTD/svg11.dtd">
<svg width="100%" height="100%" viewBox="0 0 497 541" version="1.1" xmlns="http://www.w3.org/2000/svg" xmlns:xlink="http://www.w3.org/1999/xlink" xml:space="preserve" xmlns:serif="http://www.serif.com/" style="fill-rule:evenodd;clip-rule:evenodd;stroke-linejoin:round;stroke-miterlimit:2;">
    <g transform="matrix(1,0,0,1,-3492.108966,-3264.65775)">
        <g transform="matrix(1,0,0,1,-2569.327827,0)">
            <g transform="matrix(1.658991,0,0,1.880485,291.249013,-2844.481756)">
                <path d="M3763.358,3344.424L3763.358,3456.14C3763.358,3500.165 3722.844,3535.907 3672.942,3535.907L3582.525,3535.907C3532.623,3535.907 3492.109,3500.165 3492.109,3456.14L3492.109,3344.424C3492.109,3300.4 3532.623,3264.658 3582.525,3264.658L3672.942,3264.658C3722.844,3264.658 3763.358,3300.4 3763.358,3344.424Z" style="fill:rgb(35,31,32);"/>
                <path d="M3763.358,3344.424L3763.358,3456.14C3763.358,3500.165 3722.844,3535.907 3672.942,3535.907L3582.525,3535.907C3532.623,3535.907 3492.109,3500.165 3492.109,3456.14L3492.109,3344.424C3492.109,3300.4 3532.623,3264.658 3582.525,3264.658L3672.942,3264.658C3722.844,3264.658 3763.358,3300.4 3763.358,3344.424ZM3743.266,3344.424C3743.266,3310.183 3711.755,3282.384 3672.942,3282.384L3582.525,3282.384C3543.713,3282.384 3512.202,3310.183 3512.202,3344.424L3512.202,3456.14C3512.202,3490.382 3543.713,3518.181 3582.525,3518.181L3672.942,3518.181C3711.755,3518.181 3743.266,3490.382 3743.266,3456.14L3743.266,3344.424Z" style="fill:rgb(35,31,32);"/>
            </g>
            <g transform="matrix(1.829965,0,0,1.880485,-329.001252,-2874.481756)">
                <path d="M3763.358,3344.424L3763.358,3456.14C3763.358,3500.165 3726.629,3535.907 3681.389,3535.907L3574.078,3535.907C3528.838,3535.907 3492.109,3500.165 3492.109,3456.14L3492.109,3344.424C3492.109,3300.4 3528.838,3264.658 3574.078,3264.658L3681.389,3264.658C3726.629,3264.658 3763.358,3300.4 3763.358,3344.424Z" style="fill:rgb(243,109,33);"/>
                <path d="M3763.358,3344.424L3763.358,3456.14C3763.358,3500.165 3726.629,3535.907 3681.389,3535.907L3574.078,3535.907C3528.838,3535.907 3492.109,3500.165 3492.109,3456.14L3492.109,3344.424C3492.109,3300.4 3528.838,3264.658 3574.078,3264.658L3681.389,3264.658C3726.629,3264.658 3763.358,3300.4 3763.358,3344.424ZM3745.143,3344.424C3745.143,3310.183 3716.576,3282.384 3681.389,3282.384L3574.078,3282.384C3538.891,3282.384 3510.324,3310.183 3510.324,3344.424L3510.324,3456.14C3510.324,3490.382 3538.891,3518.181 3574.078,3518.181L3681.389,3518.181C3716.576,3518.181 3745.143,3490.382 3745.143,3456.14L3745.143,3344.424Z" style="fill:rgb(243,109,33);"/>
            </g>
            <g transform="matrix(-1,0,0,1,12619.250318,-10)">
                <g transform="matrix(1.39144,0,-0.220382,1.39144,1842.058512,-999.145632)">
                    <path d="M3801.856,3247.467L3670.838,3167.368C3668.103,3165.696 3664.902,3165.402 3662.354,3166.59C3659.805,3167.777 3658.261,3170.281 3658.261,3173.227L3658.261,3218.858C3658.261,3222.293 3660.352,3225.722 3663.583,3227.586L3709.323,3253.981L3661.809,3281.243C3659.576,3282.524 3658.261,3284.88 3658.261,3287.598L3658.261,3333.621C3658.261,3336.92 3660.192,3340.228 3663.234,3342.139C3666.276,3344.05 3669.895,3344.23 3672.553,3342.601L3803.57,3262.306C3805.363,3261.207 3806.536,3259.397 3806.855,3257.248C3807.084,3255.702 3806.86,3254.06 3806.203,3252.493C3805.342,3250.437 3803.799,3248.656 3801.856,3247.467ZM3726.824,3254.691L3667.093,3220.223L3667.093,3174.592L3798.11,3254.691L3667.093,3334.985L3667.093,3288.963L3726.824,3254.691Z" style="fill:white;"/>
                    <g transform="matrix(401.081468,0,0,401.081468,3811.818876,3385.120584)">
                    </g>
                    <text x="3639.675px" y="3385.121px" style="font-family:'Bahnschrift-Regular', 'Bahnschrift', sans-serif;font-size:401.081px;fill:rgb(35,31,32);">&gt;</text>
                </g>
            </g>
        </g>
    </g>
</svg>
