<?xml version="1.0" encoding="UTF-8" standalone="no"?>
<!DOCTYPE svg PUBLIC "-//W3C//DTD SVG 1.1//EN" "http://www.w3.org/Graphics/SVG/1.1/DTD/svg11.dtd">
<svg width="100%" height="100%" viewBox="0 0 497 541" version="1.1" xmlns="http://www.w3.org/2000/svg" xmlns:xlink="http://www.w3.org/1999/xlink" xml:space="preserve" xmlns:serif="http://www.serif.com/" style="fill-rule:evenodd;clip-rule:evenodd;stroke-linejoin:round;stroke-miterlimit:2;">
    <g transform="matrix(1,0,0,1,-3492.108966,-3264.65775)">
        <g transform="matrix(1,0,0,1,-2569.327827,0)">
            <g transform="matrix(1.658991,0,0,1.880485,291.249013,-2844.481756)">
                <path d="M3763.358,3344.424L3763.358,3456.14C3763.358,3500.165 3722.844,3535.907 3672.942,3535.907L3582.525,3535.907C3532.623,3535.907 3492.109,3500.165 3492.109,3456.14L3492.109,3344.424C3492.109,3300.4 3532.623,3264.658 3582.525,3264.658L3672.942,3264.658C3722.844,3264.658 3763.358,3300.4 3763.358,3344.424Z" style="fill:rgb(35,31,32);"/>
                <path d="M3763.358,3344.424L3763.358,3456.14C3763.358,3500.165 3722.844,3535.907 3672.942,3535.907L3582.525,3535.907C3532.623,3535.907 3492.109,3500.165 3492.109,3456.14L3492.109,3344.424C3492.109,3300.4 3532.623,3264.658 3582.525,3264.658L3672.942,3264.658C3722.844,3264.658 3763.358,3300.4 3763.358,3344.424ZM3743.266,3344.424C3743.266,3310.183 3711.755,3282.384 3672.942,3282.384L3582.525,3282.384C3543.713,3282.384 3512.202,3310.183 3512.202,3344.424L3512.202,3456.14C3512.202,3490.382 3543.713,3518.181 3582.525,3518.181L3672.942,3518.181C3711.755,3518.181 3743.266,3490.382 3743.266,3456.14L3743.266,3344.424Z" style="fill:rgb(35,31,32);"/>
            </g>
            <g transform="matrix(1.829965,0,0,1.880485,-329.001252,-2874.481756)">
                <path d="M3763.358,3344.424L3763.358,3456.14C3763.358,3500.165 3726.629,3535.907 3681.389,3535.907L3574.078,3535.907C3528.838,3535.907 3492.109,3500.165 3492.109,3456.14L3492.109,3344.424C3492.109,3300.4 3528.838,3264.658 3574.078,3264.658L3681.389,3264.658C3726.629,3264.658 3763.358,3300.4 3763.358,3344.424Z" style="fill:white;"/>
                <path d="M3763.358,3344.424L3763.358,3456.14C3763.358,3500.165 3726.629,3535.907 3681.389,3535.907L3574.078,3535.907C3528.838,3535.907 3492.109,3500.165 3492.109,3456.14L3492.109,3344.424C3492.109,3300.4 3528.838,3264.658 3574.078,3264.658L3681.389,3264.658C3726.629,3264.658 3763.358,3300.4 3763.358,3344.424ZM3745.143,3344.424C3745.143,3310.183 3716.576,3282.384 3681.389,3282.384L3574.078,3282.384C3538.891,3282.384 3510.324,3310.183 3510.324,3344.424L3510.324,3456.14C3510.324,3490.382 3538.891,3518.181 3574.078,3518.181L3681.389,3518.181C3716.576,3518.181 3745.143,3490.382 3745.143,3456.14L3745.143,3344.424Z" style="fill:rgb(243,109,33);"/>
            </g>
            <g transform="matrix(-1,0,0,1,12619.250318,-10)">
                <g transform="matrix(1.190682,0,0,1.39144,1865.283402,-989.145632)">
                    <path d="M3804.036,3247.593L3673.018,3167.494C3669.911,3165.595 3665.824,3165.341 3662.429,3166.836C3659.033,3168.331 3656.899,3171.324 3656.899,3174.592L3656.899,3220.223C3656.899,3223.123 3658.584,3225.833 3661.394,3227.455L3708.556,3254.67L3661.416,3281.718C3658.593,3283.338 3656.899,3286.055 3656.899,3288.963L3656.899,3334.985C3656.899,3338.255 3659.036,3341.25 3662.434,3342.744C3665.832,3344.238 3669.922,3343.981 3673.028,3342.077L3804.045,3261.782C3805.828,3260.69 3807.148,3259.14 3807.817,3257.353C3808.467,3255.618 3808.467,3253.759 3807.815,3252.024C3807.144,3250.235 3805.822,3248.685 3804.036,3247.593ZM3726.824,3254.691L3667.093,3220.223L3667.093,3174.592L3798.11,3254.691L3667.093,3334.985L3667.093,3288.963L3726.824,3254.691Z" style="fill:rgb(243,109,33);"/>
                    <g transform="matrix(401.081468,0,0,401.081468,3811.818876,3385.120584)">
                    </g>
                    <text x="3639.675px" y="3385.121px" style="font-family:'Bahnschrift-Regular', 'Bahnschrift', sans-serif;font-size:401.081px;fill:rgb(243,109,33);">&gt;</text>
                </g>
                <g transform="matrix(1.39144,0,0,1.39144,1115.933992,-1009.145632)">
                    <path d="M3802.66,3247.249L3671.643,3167.15C3668.95,3165.504 3665.579,3165.44 3662.827,3166.984C3660.074,3168.527 3658.37,3171.436 3658.37,3174.592L3658.37,3220.223C3658.37,3223.34 3660.033,3226.22 3662.733,3227.778L3709.334,3254.669L3662.752,3281.397C3660.041,3282.952 3658.37,3285.838 3658.37,3288.963L3658.37,3334.985C3658.37,3338.143 3660.076,3341.053 3662.831,3342.596C3665.585,3344.139 3668.959,3344.072 3671.651,3342.423L3802.668,3262.128C3804.543,3260.979 3805.911,3259.171 3806.507,3257.054C3806.943,3255.505 3806.942,3253.872 3806.505,3252.323C3805.908,3250.205 3804.537,3248.397 3802.66,3247.249ZM3726.824,3254.691L3667.093,3220.223L3667.093,3174.592L3798.11,3254.691L3667.093,3334.985L3667.093,3288.963L3726.824,3254.691Z" style="fill:white;"/>
                    <g transform="matrix(401.081468,0,0,401.081468,3811.818876,3385.120584)">
                    </g>
                    <text x="3639.675px" y="3385.121px" style="font-family:'Bahnschrift-Regular', 'Bahnschrift', sans-serif;font-size:401.081px;fill:rgb(35,31,32);">&gt;</text>
                </g>
            </g>
        </g>
    </g>
</svg>
