<?xml version="1.0" encoding="UTF-8" standalone="no"?><!DOCTYPE svg PUBLIC "-//W3C//DTD SVG 1.1//EN" "http://www.w3.org/Graphics/SVG/1.1/DTD/svg11.dtd"><svg width="100%" height="100%" viewBox="0 0 1518 158" version="1.1" xmlns="http://www.w3.org/2000/svg" xmlns:xlink="http://www.w3.org/1999/xlink" xml:space="preserve" xmlns:serif="http://www.serif.com/" style="fill-rule:evenodd;clip-rule:evenodd;stroke-linejoin:round;stroke-miterlimit:2;"><g><path d="M220.101,151.137c-8.339,0 -15.844,-2 -22.682,-6c-6.671,-3.8 -12.008,-9.6 -16.011,-17c-4.003,-7.4 -6.004,-16.4 -6.004,-27c0,-9.4 1.167,-18.2 3.502,-26c2.168,-7.8 5.504,-14.8 10.007,-20.8c4.503,-5.8 10.007,-10.4 16.511,-13.6c6.504,-3.4 14.176,-5 22.682,-5c8.339,0 15.844,2 22.515,6c6.838,4 12.175,9.8 16.178,17.2c3.836,7.4 5.837,16.4 5.837,27c0,9.2 -1.167,17.8 -3.336,25.8c-2.335,8 -5.671,15 -10.174,20.8c-4.503,5.8 -10.007,10.4 -16.344,13.6c-6.671,3.4 -14.176,5 -22.682,5l0.001,0Zm0.667,-25.8c4.17,0 7.672,-1.2 10.841,-3.8c3.002,-2.4 5.504,-5.6 7.505,-9.8c2.001,-4 3.502,-8.4 4.503,-13.2c0.834,-4.8 1.334,-9.4 1.334,-14c0,-5 -0.667,-9.2 -2.168,-12.8c-1.501,-3.4 -3.502,-5.8 -6.171,-7.6c-2.668,-1.8 -5.837,-2.6 -9.34,-2.6c-4.17,0 -7.672,1.2 -10.841,3.8c-3.002,2.4 -5.504,5.6 -7.505,9.8c-2.001,4 -3.502,8.4 -4.503,13.2c-1.001,4.8 -1.501,9.4 -1.501,14c0,5 0.667,9.2 2.335,12.6c1.501,3.6 3.502,6 6.171,7.8c2.668,1.8 5.837,2.6 9.34,2.6Z" style="fill:#f36d21;fill-rule:nonzero;stroke:#f36d21;stroke-width:12.89px;"/><path d="M299.04,149.537l16.678,-86.4l-31.521,0l4.837,-25.6l91.229,0l-5.003,25.6l-31.355,0l-16.678,86.4l-28.187,0Z" style="fill:#f36d21;fill-rule:nonzero;stroke:#f36d21;stroke-width:12.89px;"/><path d="M422.624,37.537l-21.681,112l-26.852,0l21.681,-112l26.852,0Z" style="fill:#f36d21;fill-rule:nonzero;stroke:#f36d21;stroke-width:12.89px;"/><path d="M473.658,151.137c-8.339,0 -15.844,-2 -22.682,-6c-6.671,-3.8 -12.008,-9.6 -16.011,-17c-4.003,-7.4 -6.004,-16.4 -6.004,-27c0,-9.4 1.167,-18.2 3.502,-26c2.168,-7.8 5.504,-14.8 10.007,-20.8c4.503,-5.8 10.007,-10.4 16.511,-13.6c6.504,-3.4 14.176,-5 22.682,-5c8.339,0 15.844,2 22.515,6c6.838,4 12.175,9.8 16.178,17.2c3.836,7.4 5.837,16.4 5.837,27c0,9.2 -1.167,17.8 -3.336,25.8c-2.335,8 -5.671,15 -10.174,20.8c-4.503,5.8 -10.007,10.4 -16.344,13.6c-6.671,3.4 -14.176,5 -22.682,5l0.001,0Zm0.667,-25.8c4.17,0 7.672,-1.2 10.841,-3.8c3.002,-2.4 5.504,-5.6 7.505,-9.8c2.001,-4 3.502,-8.4 4.503,-13.2c0.834,-4.8 1.334,-9.4 1.334,-14c0,-5 -0.667,-9.2 -2.168,-12.8c-1.501,-3.4 -3.502,-5.8 -6.171,-7.6c-2.668,-1.8 -5.837,-2.6 -9.34,-2.6c-4.17,0 -7.672,1.2 -10.841,3.8c-3.002,2.4 -5.504,5.6 -7.505,9.8c-2.001,4 -3.502,8.4 -4.503,13.2c-1.001,4.8 -1.501,9.4 -1.501,14c0,5 0.667,9.2 2.335,12.6c1.501,3.6 3.502,6 6.171,7.8c2.668,1.8 5.837,2.6 9.34,2.6Z" style="fill:#f36d21;fill-rule:nonzero;stroke:#f36d21;stroke-width:12.89px;"/><path d="M532.532,149.537l21.681,-112l30.02,0l16.344,58.6l4.67,18.6l0.5,0l4.003,-25.6l9.84,-51.6l26.018,0l-21.681,112l-29.687,0l-17.012,-61l-4.17,-17l-0.334,0l-4.503,28.8l-9.673,49.2l-26.018,0l0.002,0Z" style="fill:#f36d21;fill-rule:nonzero;stroke:#f36d21;stroke-width:12.89px;"/><path d="M810.362,149.537l21.681,-112l43.029,0c10.174,0 18.346,2.8 24.35,8.6c6.004,5.8 9.006,13.8 9.006,24.2c0,6.8 -1.167,12.8 -3.502,17.8c-2.335,5 -5.504,9.2 -9.673,12.8c-4.003,3.2 -8.673,5.8 -13.843,7.6c-5.17,1.8 -10.674,2.6 -16.178,2.6l-20.514,0l-7.672,38.4l-26.685,0l0.001,0Zm63.877,0l-14.343,-41.4l24.35,-4.6l16.845,46l-26.852,0Zm-25.517,-59.6l15.344,0c3.502,0 6.338,-0.8 8.839,-2.2c2.502,-1.4 4.336,-3.4 5.671,-6c1.334,-2.6 2.001,-5.4 2.001,-8.6c0,-4 -1.167,-7 -3.502,-9.2c-2.502,-2.4 -5.671,-3.4 -9.506,-3.4l-13.176,0l-5.671,29.4Z" style="fill:#f36d21;fill-rule:nonzero;stroke:#f36d21;stroke-width:12.89px;"/><path d="M915.875,149.537l55.538,-112l34.19,0l12.342,112l-26.018,0l-2.335,-23.6l-34.523,0l-11.341,23.6l-27.853,0Zm49.366,-46.2l22.516,0l-4.003,-41.2l-18.513,41.2Z" style="fill:#f36d21;fill-rule:nonzero;stroke:#f36d21;stroke-width:12.89px;"/><path d="M1031.211,149.537l21.681,-112l39.027,0c11.841,0 21.014,3.2 27.519,9.6c6.504,6.2 9.673,15 9.673,26.2c0,8 -1.668,15 -5.003,21.2c-3.502,6.2 -8.339,11 -14.677,14.4c-6.171,3.6 -13.676,5.2 -22.515,5.2l-21.014,0l-6.838,35.4l-27.853,0Zm39.193,-58.2l13.843,0c3.669,0 6.671,-0.8 9.34,-2.2c2.502,-1.4 4.336,-3.6 5.504,-6.2c1.334,-2.4 2.001,-5.4 2.001,-8.4c0,-4.2 -1.167,-7.6 -3.336,-9.8c-2.168,-2.4 -5.671,-3.6 -10.34,-3.6l-11.174,0l-5.837,30.2l-0.001,0Z" style="fill:#f36d21;fill-rule:nonzero;stroke:#f36d21;stroke-width:12.89px;"/><path d="M1131.445,149.537l21.681,-112l27.852,0l-8.172,42.4l34.023,0l8.172,-42.4l27.852,0l-21.681,112l-27.852,0l8.506,-44l-34.023,0l-8.506,44l-27.852,0Z" style="fill:#f36d21;fill-rule:nonzero;stroke:#f36d21;stroke-width:12.89px;"/><path d="M1292.221,37.537l-21.681,112l-26.852,0l21.681,-112l26.852,0Z" style="fill:#f36d21;fill-rule:nonzero;stroke:#f36d21;stroke-width:12.89px;"/><path d="M1343.59,151.137c-8.506,0 -16.011,-2 -22.849,-5.8c-6.838,-3.8 -12.175,-9.6 -16.178,-17c-4.003,-7.6 -6.004,-16.8 -6.004,-27.4c0,-9.4 1.167,-18 3.669,-25.8c2.335,-8 5.837,-15 10.34,-20.8c4.503,-5.8 10.174,-10.2 16.678,-13.4c6.504,-3.4 14.01,-5 22.349,-5c7.338,0 13.843,1.4 19.68,4.4c6.004,2.8 10.841,7 14.677,12.6c3.836,5.4 6.504,12.2 7.672,20.4l-26.685,6.8c-0.5,-6.2 -2.168,-11 -4.837,-14c-2.502,-3 -6.171,-4.6 -11.007,-4.6c-4.17,0 -8.005,1.4 -11.174,4c-3.002,2.4 -5.671,5.8 -7.839,10c-2.001,4.2 -3.502,8.6 -4.503,13.4c-1.001,4.6 -1.501,9.2 -1.501,13.8c0,4.8 0.834,8.8 2.335,12.2c1.501,3.6 3.669,6 6.504,7.8c2.835,1.8 6.004,2.6 9.506,2.6c4.336,0 8.005,-1.4 11.007,-4.2c3.002,-2.6 5.504,-6.4 7.338,-11.2l24.85,11.2c-4.17,9.4 -9.673,16.6 -16.845,22c-7.172,5.4 -16.344,8 -27.185,8l0.002,0Z" style="fill:#f36d21;fill-rule:nonzero;stroke:#f36d21;stroke-width:12.89px;"/><path d="M1450.04,151.537c-7.338,0 -14.176,-1 -20.347,-2.8c-6.171,-1.8 -11.841,-4.8 -16.845,-8.4c-5.003,-4 -9.34,-8.6 -13.009,-14.2l14.343,-20c2.502,4.6 5.504,8.4 9.34,11.6c3.836,3.2 7.839,5.6 12.342,7.4c4.503,1.8 8.673,2.6 12.842,2.6c2.835,0 5.337,-0.4 7.172,-1.4c1.835,-0.8 3.169,-2 4.003,-3.4c0.834,-1.4 1.334,-3 1.334,-5c0,-2.2 -0.834,-4.2 -2.335,-5.6c-1.501,-1.4 -3.836,-2.8 -7.005,-3.8l-14.677,-5.2c-4.503,-1.6 -8.673,-3.8 -12.342,-6.4c-3.669,-2.6 -6.504,-6 -8.673,-10.2c-2.168,-4.2 -3.169,-9 -3.169,-14.6c0,-7.8 1.668,-14.2 5.17,-19.6c3.502,-5.6 8.172,-9.6 14.176,-12.4c6.004,-2.8 12.842,-4.2 20.514,-4.2c10.174,0 18.846,2 26.184,6.2c7.005,4 13.009,9.6 17.845,16.6l-15.511,18c-2.168,-3.8 -4.67,-6.8 -7.839,-9.4c-3.169,-2.4 -6.671,-4.2 -10.174,-5.4c-3.502,-1.2 -7.172,-1.8 -11.007,-1.8c-4.003,0 -7.005,0.8 -8.839,2.6c-2.001,1.8 -3.002,4 -3.002,6.6c0,2 0.834,3.8 2.502,5.6c1.501,1.6 4.17,3 7.839,4.4l14.677,5.2c7.672,2.6 13.509,6.2 17.345,10.8c4.003,4.6 6.004,10.8 6.004,18.6c0,8.2 -1.668,15 -5.17,20.6c-3.502,5.6 -8.172,9.8 -14.01,12.8c-5.837,2.8 -12.509,4.2 -19.68,4.2l0.002,0Z" style="fill:#f36d21;fill-rule:nonzero;stroke:#f36d21;stroke-width:12.89px;"/><path d="M20.132,149.537l25.517,-132l36.191,0l5.337,64l1.501,32.6l0.167,0l13.342,-32.6l29.186,-64l41.028,0l-25.517,132l-25.351,0l11.675,-60.6l7.839,-39l-0.334,0l-46.198,99.6l-22.015,0l-9.006,-98.8l-0.334,0l-6.004,38.2l-11.675,60.6l-25.351,0Z" style="fill:#f36d21;fill-rule:nonzero;stroke:#f36d21;stroke-width:12.13px;"/><path d="M746.425,151.449c-8.228,0 -15.65,-2.3 -22.265,-6.9c-6.616,-4.6 -11.869,-11.167 -15.761,-19.7c-3.892,-8.533 -5.837,-18.733 -5.837,-30.6c0,-10.667 1.334,-20.7 4.003,-30.1c2.668,-9.4 6.56,-17.767 11.675,-25.1c5.115,-7.333 11.424,-13.067 18.93,-17.2c7.505,-4.133 16.15,-6.2 25.934,-6.2c8.117,0 15.427,1.567 21.932,4.7c6.504,3.133 11.897,7.767 16.178,13.9c4.281,6.133 6.977,13.667 8.089,22.6l-27.018,6.2c-0.778,-6.667 -2.835,-11.733 -6.171,-15.2c-3.336,-3.467 -7.894,-5.2 -13.676,-5.2c-4.67,0 -8.923,1.267 -12.759,3.8c-3.836,2.533 -7.116,6.067 -9.84,10.6c-2.724,4.533 -4.809,9.767 -6.254,15.7c-1.445,5.933 -2.168,12.233 -2.168,18.9c0,6.933 0.889,12.933 2.668,18c1.779,5.067 4.447,8.967 8.005,11.7c3.558,2.733 8.005,4.1 13.342,4.1c4.225,0 7.894,-0.8 11.007,-2.4c3.113,-1.6 5.671,-3.833 7.672,-6.7c2.001,-2.867 3.502,-6.167 4.503,-9.9l1.334,-4.4l-26.351,0l4.336,-22.8l49.033,0l-14.677,70.4l-19.013,0l5.504,-31l2.502,3.2c-2.001,6.4 -4.559,11.8 -7.672,16.2c-3.113,4.4 -6.894,7.733 -11.341,10c-4.447,2.267 -9.729,3.4 -15.844,3.4Z" style="fill:#f36d21;fill-rule:nonzero;stroke:#f36d21;stroke-width:12.13px;"/><path d="M209.899,141.137c-8.5,0 -16.15,-2 -23.12,-6c-6.8,-3.8 -12.24,-9.6 -16.32,-17c-4.08,-7.4 -6.12,-16.4 -6.12,-27c0,-9.4 1.19,-18.2 3.57,-26c2.21,-7.8 5.61,-14.8 10.2,-20.8c4.59,-5.8 10.2,-10.4 16.83,-13.6c6.63,-3.4 14.45,-5 23.12,-5c8.5,0 16.15,2 22.95,6c6.97,4 12.41,9.8 16.49,17.2c3.91,7.4 5.95,16.4 5.95,27c0,9.2 -1.19,17.8 -3.4,25.8c-2.38,8 -5.78,15 -10.37,20.8c-4.59,5.8 -10.2,10.4 -16.66,13.6c-6.8,3.4 -14.45,5 -23.12,5Zm0.68,-25.8c4.25,0 7.82,-1.2 11.05,-3.8c3.06,-2.4 5.61,-5.6 7.65,-9.8c2.04,-4 3.57,-8.4 4.59,-13.2c0.85,-4.8 1.36,-9.4 1.36,-14c0,-5 -0.68,-9.2 -2.21,-12.8c-1.53,-3.4 -3.57,-5.8 -6.29,-7.6c-2.72,-1.8 -5.95,-2.6 -9.52,-2.6c-4.25,0 -7.82,1.2 -11.05,3.8c-3.06,2.4 -5.61,5.6 -7.65,9.8c-2.04,4 -3.57,8.4 -4.59,13.2c-1.02,4.8 -1.53,9.4 -1.53,14c0,5 0.68,9.2 2.38,12.6c1.53,3.6 3.57,6 6.29,7.8c2.72,1.8 5.95,2.6 9.52,2.6Z" style="fill:none;fill-rule:nonzero;stroke:#fff;stroke-width:12.99px;"/><path d="M290.362,139.537l17,-86.4l-32.13,0l4.93,-25.6l92.99,0l-5.1,25.6l-31.96,0l-17,86.4l-28.73,0Z" style="fill:none;fill-rule:nonzero;stroke:#fff;stroke-width:12.99px;"/><path d="M416.332,27.537l-22.1,112l-27.37,0l22.1,-112l27.37,0Z" style="fill:none;fill-rule:nonzero;stroke:#fff;stroke-width:12.99px;"/><path d="M468.352,141.137c-8.5,0 -16.15,-2 -23.12,-6c-6.8,-3.8 -12.24,-9.6 -16.32,-17c-4.08,-7.4 -6.12,-16.4 -6.12,-27c0,-9.4 1.19,-18.2 3.57,-26c2.21,-7.8 5.61,-14.8 10.2,-20.8c4.59,-5.8 10.2,-10.4 16.83,-13.6c6.63,-3.4 14.45,-5 23.12,-5c8.5,0 16.15,2 22.95,6c6.97,4 12.41,9.8 16.49,17.2c3.91,7.4 5.95,16.4 5.95,27c0,9.2 -1.19,17.8 -3.4,25.8c-2.38,8 -5.78,15 -10.37,20.8c-4.59,5.8 -10.2,10.4 -16.66,13.6c-6.8,3.4 -14.45,5 -23.12,5Zm0.68,-25.8c4.25,0 7.82,-1.2 11.05,-3.8c3.06,-2.4 5.61,-5.6 7.65,-9.8c2.04,-4 3.57,-8.4 4.59,-13.2c0.85,-4.8 1.36,-9.4 1.36,-14c0,-5 -0.68,-9.2 -2.21,-12.8c-1.53,-3.4 -3.57,-5.8 -6.29,-7.6c-2.72,-1.8 -5.95,-2.6 -9.52,-2.6c-4.25,0 -7.82,1.2 -11.05,3.8c-3.06,2.4 -5.61,5.6 -7.65,9.8c-2.04,4 -3.57,8.4 -4.59,13.2c-1.02,4.8 -1.53,9.4 -1.53,14c0,5 0.68,9.2 2.38,12.6c1.53,3.6 3.57,6 6.29,7.8c2.72,1.8 5.95,2.6 9.52,2.6Z" style="fill:none;fill-rule:nonzero;stroke:#fff;stroke-width:12.99px;"/><path d="M528.362,139.537l22.1,-112l30.6,0l16.66,58.6l4.76,18.6l0.51,0l4.08,-25.6l10.03,-51.6l26.52,0l-22.1,112l-30.26,0l-17.34,-61l-4.25,-17l-0.34,0l-4.59,28.8l-9.86,49.2l-26.52,0Z" style="fill:none;fill-rule:nonzero;stroke:#fff;stroke-width:12.99px;"/><path d="M811.579,139.537l22.1,-112l43.86,0c10.37,0 18.7,2.8 24.82,8.6c6.12,5.8 9.18,13.8 9.18,24.2c0,6.8 -1.19,12.8 -3.57,17.8c-2.38,5 -5.61,9.2 -9.86,12.8c-4.08,3.2 -8.84,5.8 -14.11,7.6c-5.27,1.8 -10.88,2.6 -16.49,2.6l-20.91,0l-7.82,38.4l-27.2,0Zm65.11,0l-14.62,-41.4l24.82,-4.6l17.17,46l-27.37,0Zm-26.01,-59.6l15.64,0c3.57,0 6.46,-0.8 9.01,-2.2c2.55,-1.4 4.42,-3.4 5.78,-6c1.36,-2.6 2.04,-5.4 2.04,-8.6c0,-4 -1.19,-7 -3.57,-9.2c-2.55,-2.4 -5.78,-3.4 -9.69,-3.4l-13.43,0l-5.78,29.4Z" style="fill:none;fill-rule:nonzero;stroke:#fff;stroke-width:12.99px;"/><path d="M918.844,139.537l56.61,-112l34.85,0l12.58,112l-26.52,0l-2.38,-23.6l-35.19,0l-11.56,23.6l-28.39,0Zm50.32,-46.2l22.95,0l-4.08,-41.2l-18.87,41.2Z" style="fill:none;fill-rule:nonzero;stroke:#fff;stroke-width:12.99px;"/><path d="M1036.382,139.537l22.1,-112l39.78,0c12.07,0 21.42,3.2 28.05,9.6c6.63,6.2 9.86,15 9.86,26.2c0,8 -1.7,15 -5.1,21.2c-3.57,6.2 -8.5,11 -14.96,14.4c-6.29,3.6 -13.94,5.2 -22.95,5.2l-21.42,0l-6.97,35.4l-28.39,0Zm39.95,-58.2l14.11,0c3.74,0 6.8,-0.8 9.52,-2.2c2.55,-1.4 4.42,-3.6 5.61,-6.2c1.36,-2.4 2.04,-5.4 2.04,-8.4c0,-4.2 -1.19,-7.6 -3.4,-9.8c-2.21,-2.4 -5.78,-3.6 -10.54,-3.6l-11.39,0l-5.95,30.2Z" style="fill:none;fill-rule:nonzero;stroke:#fff;stroke-width:12.99px;"/><path d="M1138.552,139.537l22.1,-112l28.39,0l-8.33,42.4l34.68,0l8.33,-42.4l28.39,0l-22.1,112l-28.39,0l8.67,-44l-34.68,0l-8.67,44l-28.39,0Z" style="fill:none;fill-rule:nonzero;stroke:#fff;stroke-width:12.99px;"/><path d="M1302.432,27.537l-22.1,112l-27.37,0l22.1,-112l27.37,0Z" style="fill:none;fill-rule:nonzero;stroke:#fff;stroke-width:12.99px;"/><path d="M1354.792,141.137c-8.67,0 -16.32,-2 -23.29,-5.8c-6.97,-3.8 -12.41,-9.6 -16.49,-17c-4.08,-7.6 -6.12,-16.8 -6.12,-27.4c0,-9.4 1.19,-18 3.74,-25.8c2.38,-8 5.95,-15 10.54,-20.8c4.59,-5.8 10.37,-10.2 17,-13.4c6.63,-3.4 14.28,-5 22.78,-5c7.48,0 14.11,1.4 20.06,4.4c6.12,2.8 11.05,7 14.96,12.6c3.91,5.4 6.63,12.2 7.82,20.4l-27.2,6.8c-0.51,-6.2 -2.21,-11 -4.93,-14c-2.55,-3 -6.29,-4.6 -11.22,-4.6c-4.25,0 -8.16,1.4 -11.39,4c-3.06,2.4 -5.78,5.8 -7.99,10c-2.04,4.2 -3.57,8.6 -4.59,13.4c-1.02,4.6 -1.53,9.2 -1.53,13.8c0,4.8 0.85,8.8 2.38,12.2c1.53,3.6 3.74,6 6.63,7.8c2.89,1.8 6.12,2.6 9.69,2.6c4.42,0 8.16,-1.4 11.22,-4.2c3.06,-2.6 5.61,-6.4 7.48,-11.2l25.33,11.2c-4.25,9.4 -9.86,16.6 -17.17,22c-7.31,5.4 -16.66,8 -27.71,8Z" style="fill:none;fill-rule:nonzero;stroke:#fff;stroke-width:12.99px;"/><path d="M1463.152,141.537c-7.48,0 -14.45,-1 -20.74,-2.8c-6.29,-1.8 -12.07,-4.8 -17.17,-8.4c-5.1,-4 -9.52,-8.6 -13.26,-14.2l14.62,-20c2.55,4.6 5.61,8.4 9.52,11.6c3.91,3.2 7.99,5.6 12.58,7.4c4.59,1.8 8.84,2.6 13.09,2.6c2.89,0 5.44,-0.4 7.31,-1.4c1.87,-0.8 3.23,-2 4.08,-3.4c0.85,-1.4 1.36,-3 1.36,-5c0,-2.2 -0.85,-4.2 -2.38,-5.6c-1.53,-1.4 -3.91,-2.8 -7.14,-3.8l-14.96,-5.2c-4.59,-1.6 -8.84,-3.8 -12.58,-6.4c-3.74,-2.6 -6.63,-6 -8.84,-10.2c-2.21,-4.2 -3.23,-9 -3.23,-14.6c0,-7.8 1.7,-14.2 5.27,-19.6c3.57,-5.6 8.33,-9.6 14.45,-12.4c6.12,-2.8 13.09,-4.2 20.91,-4.2c10.37,0 19.21,2 26.69,6.2c7.14,4 13.26,9.6 18.19,16.6l-15.81,18c-2.21,-3.8 -4.76,-6.8 -7.99,-9.4c-3.23,-2.4 -6.8,-4.2 -10.37,-5.4c-3.57,-1.2 -7.31,-1.8 -11.22,-1.8c-4.08,0 -7.14,0.8 -9.01,2.6c-2.04,1.8 -3.06,4 -3.06,6.6c0,2 0.85,3.8 2.55,5.6c1.53,1.6 4.25,3 7.99,4.4l14.96,5.2c7.82,2.6 13.77,6.2 17.68,10.8c4.08,4.6 6.12,10.8 6.12,18.6c0,8.2 -1.7,15 -5.27,20.6c-3.57,5.6 -8.33,9.8 -14.28,12.8c-5.95,2.8 -12.75,4.2 -20.06,4.2Z" style="fill:none;fill-rule:nonzero;stroke:#fff;stroke-width:12.99px;"/><path d="M6.069,139.537l26.01,-132l36.89,0l5.44,64l1.53,32.6l0.17,0l13.6,-32.6l29.75,-64l41.82,0l-26.01,132l-25.84,0l11.9,-60.6l7.99,-39l-0.34,0l-47.09,99.6l-22.44,0l-9.18,-98.8l-0.34,0l-6.12,38.2l-11.9,60.6l-25.84,0Z" style="fill:none;fill-rule:nonzero;stroke:#fff;stroke-width:12.14px;"/><path d="M746.272,141.869c-8.387,0 -15.952,-2.3 -22.695,-6.9c-6.743,-4.6 -12.098,-11.167 -16.065,-19.7c-3.967,-8.533 -5.95,-18.733 -5.95,-30.6c0,-10.667 1.36,-20.7 4.08,-30.1c2.72,-9.4 6.687,-17.767 11.9,-25.1c5.213,-7.333 11.645,-13.067 19.295,-17.2c7.65,-4.133 16.462,-6.2 26.435,-6.2c8.273,0 15.725,1.567 22.355,4.7c6.63,3.133 12.127,7.767 16.49,13.9c4.363,6.133 7.112,13.667 8.245,22.6l-27.54,6.2c-0.793,-6.667 -2.89,-11.733 -6.29,-15.2c-3.4,-3.467 -8.047,-5.2 -13.94,-5.2c-4.76,0 -9.095,1.267 -13.005,3.8c-3.91,2.533 -7.253,6.067 -10.03,10.6c-2.777,4.533 -4.902,9.767 -6.375,15.7c-1.473,5.933 -2.21,12.233 -2.21,18.9c0,6.933 0.907,12.933 2.72,18c1.813,5.067 4.533,8.967 8.16,11.7c3.627,2.733 8.16,4.1 13.6,4.1c4.307,0 8.047,-0.8 11.22,-2.4c3.173,-1.6 5.78,-3.833 7.82,-6.7c2.04,-2.867 3.57,-6.167 4.59,-9.9l1.36,-4.4l-26.86,0l4.42,-22.8l49.98,0l-14.96,70.4l-19.38,0l5.61,-31l2.55,3.2c-2.04,6.4 -4.647,11.8 -7.82,16.2c-3.173,4.4 -7.027,7.733 -11.56,10c-4.533,2.267 -9.917,3.4 -16.15,3.4Z" style="fill:none;fill-rule:nonzero;stroke:#fff;stroke-width:12.14px;"/><path d="M209.899,141.137c-8.5,0 -16.15,-2 -23.12,-6c-6.8,-3.8 -12.24,-9.6 -16.32,-17c-4.08,-7.4 -6.12,-16.4 -6.12,-27c0,-9.4 1.19,-18.2 3.57,-26c2.21,-7.8 5.61,-14.8 10.2,-20.8c4.59,-5.8 10.2,-10.4 16.83,-13.6c6.63,-3.4 14.45,-5 23.12,-5c8.5,0 16.15,2 22.95,6c6.97,4 12.41,9.8 16.49,17.2c3.91,7.4 5.95,16.4 5.95,27c0,9.2 -1.19,17.8 -3.4,25.8c-2.38,8 -5.78,15 -10.37,20.8c-4.59,5.8 -10.2,10.4 -16.66,13.6c-6.8,3.4 -14.45,5 -23.12,5Zm0.68,-25.8c4.25,0 7.82,-1.2 11.05,-3.8c3.06,-2.4 5.61,-5.6 7.65,-9.8c2.04,-4 3.57,-8.4 4.59,-13.2c0.85,-4.8 1.36,-9.4 1.36,-14c0,-5 -0.68,-9.2 -2.21,-12.8c-1.53,-3.4 -3.57,-5.8 -6.29,-7.6c-2.72,-1.8 -5.95,-2.6 -9.52,-2.6c-4.25,0 -7.82,1.2 -11.05,3.8c-3.06,2.4 -5.61,5.6 -7.65,9.8c-2.04,4 -3.57,8.4 -4.59,13.2c-1.02,4.8 -1.53,9.4 -1.53,14c0,5 0.68,9.2 2.38,12.6c1.53,3.6 3.57,6 6.29,7.8c2.72,1.8 5.95,2.6 9.52,2.6Z" style="fill:#231f20;fill-rule:nonzero;"/><path d="M290.362,139.537l17,-86.4l-32.13,0l4.93,-25.6l92.99,0l-5.1,25.6l-31.96,0l-17,86.4l-28.73,0Z" style="fill:#231f20;fill-rule:nonzero;"/><path d="M416.332,27.537l-22.1,112l-27.37,0l22.1,-112l27.37,0Z" style="fill:#231f20;fill-rule:nonzero;"/><path d="M468.352,141.137c-8.5,0 -16.15,-2 -23.12,-6c-6.8,-3.8 -12.24,-9.6 -16.32,-17c-4.08,-7.4 -6.12,-16.4 -6.12,-27c0,-9.4 1.19,-18.2 3.57,-26c2.21,-7.8 5.61,-14.8 10.2,-20.8c4.59,-5.8 10.2,-10.4 16.83,-13.6c6.63,-3.4 14.45,-5 23.12,-5c8.5,0 16.15,2 22.95,6c6.97,4 12.41,9.8 16.49,17.2c3.91,7.4 5.95,16.4 5.95,27c0,9.2 -1.19,17.8 -3.4,25.8c-2.38,8 -5.78,15 -10.37,20.8c-4.59,5.8 -10.2,10.4 -16.66,13.6c-6.8,3.4 -14.45,5 -23.12,5Zm0.68,-25.8c4.25,0 7.82,-1.2 11.05,-3.8c3.06,-2.4 5.61,-5.6 7.65,-9.8c2.04,-4 3.57,-8.4 4.59,-13.2c0.85,-4.8 1.36,-9.4 1.36,-14c0,-5 -0.68,-9.2 -2.21,-12.8c-1.53,-3.4 -3.57,-5.8 -6.29,-7.6c-2.72,-1.8 -5.95,-2.6 -9.52,-2.6c-4.25,0 -7.82,1.2 -11.05,3.8c-3.06,2.4 -5.61,5.6 -7.65,9.8c-2.04,4 -3.57,8.4 -4.59,13.2c-1.02,4.8 -1.53,9.4 -1.53,14c0,5 0.68,9.2 2.38,12.6c1.53,3.6 3.57,6 6.29,7.8c2.72,1.8 5.95,2.6 9.52,2.6Z" style="fill:#231f20;fill-rule:nonzero;"/><path d="M528.362,139.537l22.1,-112l30.6,0l16.66,58.6l4.76,18.6l0.51,0l4.08,-25.6l10.03,-51.6l26.52,0l-22.1,112l-30.26,0l-17.34,-61l-4.25,-17l-0.34,0l-4.59,28.8l-9.86,49.2l-26.52,0Z" style="fill:#231f20;fill-rule:nonzero;"/><path d="M811.579,139.537l22.1,-112l43.86,0c10.37,0 18.7,2.8 24.82,8.6c6.12,5.8 9.18,13.8 9.18,24.2c0,6.8 -1.19,12.8 -3.57,17.8c-2.38,5 -5.61,9.2 -9.86,12.8c-4.08,3.2 -8.84,5.8 -14.11,7.6c-5.27,1.8 -10.88,2.6 -16.49,2.6l-20.91,0l-7.82,38.4l-27.2,0Zm65.11,0l-14.62,-41.4l24.82,-4.6l17.17,46l-27.37,0Zm-26.01,-59.6l15.64,0c3.57,0 6.46,-0.8 9.01,-2.2c2.55,-1.4 4.42,-3.4 5.78,-6c1.36,-2.6 2.04,-5.4 2.04,-8.6c0,-4 -1.19,-7 -3.57,-9.2c-2.55,-2.4 -5.78,-3.4 -9.69,-3.4l-13.43,0l-5.78,29.4Z" style="fill:#231f20;fill-rule:nonzero;"/><path d="M918.844,139.537l56.61,-112l34.85,0l12.58,112l-26.52,0l-2.38,-23.6l-35.19,0l-11.56,23.6l-28.39,0Zm50.32,-46.2l22.95,0l-4.08,-41.2l-18.87,41.2Z" style="fill:#231f20;fill-rule:nonzero;"/><path d="M1036.382,139.537l22.1,-112l39.78,0c12.07,0 21.42,3.2 28.05,9.6c6.63,6.2 9.86,15 9.86,26.2c0,8 -1.7,15 -5.1,21.2c-3.57,6.2 -8.5,11 -14.96,14.4c-6.29,3.6 -13.94,5.2 -22.95,5.2l-21.42,0l-6.97,35.4l-28.39,0Zm39.95,-58.2l14.11,0c3.74,0 6.8,-0.8 9.52,-2.2c2.55,-1.4 4.42,-3.6 5.61,-6.2c1.36,-2.4 2.04,-5.4 2.04,-8.4c0,-4.2 -1.19,-7.6 -3.4,-9.8c-2.21,-2.4 -5.78,-3.6 -10.54,-3.6l-11.39,0l-5.95,30.2Z" style="fill:#231f20;fill-rule:nonzero;"/><path d="M1138.552,139.537l22.1,-112l28.39,0l-8.33,42.4l34.68,0l8.33,-42.4l28.39,0l-22.1,112l-28.39,0l8.67,-44l-34.68,0l-8.67,44l-28.39,0Z" style="fill:#231f20;fill-rule:nonzero;"/><path d="M1302.432,27.537l-22.1,112l-27.37,0l22.1,-112l27.37,0Z" style="fill:#231f20;fill-rule:nonzero;"/><path d="M1354.792,141.137c-8.67,0 -16.32,-2 -23.29,-5.8c-6.97,-3.8 -12.41,-9.6 -16.49,-17c-4.08,-7.6 -6.12,-16.8 -6.12,-27.4c0,-9.4 1.19,-18 3.74,-25.8c2.38,-8 5.95,-15 10.54,-20.8c4.59,-5.8 10.37,-10.2 17,-13.4c6.63,-3.4 14.28,-5 22.78,-5c7.48,0 14.11,1.4 20.06,4.4c6.12,2.8 11.05,7 14.96,12.6c3.91,5.4 6.63,12.2 7.82,20.4l-27.2,6.8c-0.51,-6.2 -2.21,-11 -4.93,-14c-2.55,-3 -6.29,-4.6 -11.22,-4.6c-4.25,0 -8.16,1.4 -11.39,4c-3.06,2.4 -5.78,5.8 -7.99,10c-2.04,4.2 -3.57,8.6 -4.59,13.4c-1.02,4.6 -1.53,9.2 -1.53,13.8c0,4.8 0.85,8.8 2.38,12.2c1.53,3.6 3.74,6 6.63,7.8c2.89,1.8 6.12,2.6 9.69,2.6c4.42,0 8.16,-1.4 11.22,-4.2c3.06,-2.6 5.61,-6.4 7.48,-11.2l25.33,11.2c-4.25,9.4 -9.86,16.6 -17.17,22c-7.31,5.4 -16.66,8 -27.71,8Z" style="fill:#231f20;fill-rule:nonzero;"/><path d="M1463.152,141.537c-7.48,0 -14.45,-1 -20.74,-2.8c-6.29,-1.8 -12.07,-4.8 -17.17,-8.4c-5.1,-4 -9.52,-8.6 -13.26,-14.2l14.62,-20c2.55,4.6 5.61,8.4 9.52,11.6c3.91,3.2 7.99,5.6 12.58,7.4c4.59,1.8 8.84,2.6 13.09,2.6c2.89,0 5.44,-0.4 7.31,-1.4c1.87,-0.8 3.23,-2 4.08,-3.4c0.85,-1.4 1.36,-3 1.36,-5c0,-2.2 -0.85,-4.2 -2.38,-5.6c-1.53,-1.4 -3.91,-2.8 -7.14,-3.8l-14.96,-5.2c-4.59,-1.6 -8.84,-3.8 -12.58,-6.4c-3.74,-2.6 -6.63,-6 -8.84,-10.2c-2.21,-4.2 -3.23,-9 -3.23,-14.6c0,-7.8 1.7,-14.2 5.27,-19.6c3.57,-5.6 8.33,-9.6 14.45,-12.4c6.12,-2.8 13.09,-4.2 20.91,-4.2c10.37,0 19.21,2 26.69,6.2c7.14,4 13.26,9.6 18.19,16.6l-15.81,18c-2.21,-3.8 -4.76,-6.8 -7.99,-9.4c-3.23,-2.4 -6.8,-4.2 -10.37,-5.4c-3.57,-1.2 -7.31,-1.8 -11.22,-1.8c-4.08,0 -7.14,0.8 -9.01,2.6c-2.04,1.8 -3.06,4 -3.06,6.6c0,2 0.85,3.8 2.55,5.6c1.53,1.6 4.25,3 7.99,4.4l14.96,5.2c7.82,2.6 13.77,6.2 17.68,10.8c4.08,4.6 6.12,10.8 6.12,18.6c0,8.2 -1.7,15 -5.27,20.6c-3.57,5.6 -8.33,9.8 -14.28,12.8c-5.95,2.8 -12.75,4.2 -20.06,4.2Z" style="fill:#231f20;fill-rule:nonzero;"/><path d="M6.069,139.537l26.01,-132l36.89,0l5.44,64l1.53,32.6l0.17,0l13.6,-32.6l29.75,-64l41.82,0l-26.01,132l-25.84,0l11.9,-60.6l7.99,-39l-0.34,0l-47.09,99.6l-22.44,0l-9.18,-98.8l-0.34,0l-6.12,38.2l-11.9,60.6l-25.84,0Z" style="fill:#231f20;fill-rule:nonzero;"/><path d="M746.272,141.869c-8.387,0 -15.952,-2.3 -22.695,-6.9c-6.743,-4.6 -12.098,-11.167 -16.065,-19.7c-3.967,-8.533 -5.95,-18.733 -5.95,-30.6c0,-10.667 1.36,-20.7 4.08,-30.1c2.72,-9.4 6.687,-17.767 11.9,-25.1c5.213,-7.333 11.645,-13.067 19.295,-17.2c7.65,-4.133 16.462,-6.2 26.435,-6.2c8.273,0 15.725,1.567 22.355,4.7c6.63,3.133 12.127,7.767 16.49,13.9c4.363,6.133 7.112,13.667 8.245,22.6l-27.54,6.2c-0.793,-6.667 -2.89,-11.733 -6.29,-15.2c-3.4,-3.467 -8.047,-5.2 -13.94,-5.2c-4.76,0 -9.095,1.267 -13.005,3.8c-3.91,2.533 -7.253,6.067 -10.03,10.6c-2.777,4.533 -4.902,9.767 -6.375,15.7c-1.473,5.933 -2.21,12.233 -2.21,18.9c0,6.933 0.907,12.933 2.72,18c1.813,5.067 4.533,8.967 8.16,11.7c3.627,2.733 8.16,4.1 13.6,4.1c4.307,0 8.047,-0.8 11.22,-2.4c3.173,-1.6 5.78,-3.833 7.82,-6.7c2.04,-2.867 3.57,-6.167 4.59,-9.9l1.36,-4.4l-26.86,0l4.42,-22.8l49.98,0l-14.96,70.4l-19.38,0l5.61,-31l2.55,3.2c-2.04,6.4 -4.647,11.8 -7.82,16.2c-3.173,4.4 -7.027,7.733 -11.56,10c-4.533,2.267 -9.917,3.4 -16.15,3.4Z" style="fill:#231f20;fill-rule:nonzero;"/></g></svg>