<?xml version="1.0" encoding="UTF-8" standalone="no"?>
<!DOCTYPE svg PUBLIC "-//W3C//DTD SVG 1.1//EN" "http://www.w3.org/Graphics/SVG/1.1/DTD/svg11.dtd">
<svg width="100%" height="100%" viewBox="0 0 497 541" version="1.1" xmlns="http://www.w3.org/2000/svg" xmlns:xlink="http://www.w3.org/1999/xlink" xml:space="preserve" xmlns:serif="http://www.serif.com/" style="fill-rule:evenodd;clip-rule:evenodd;stroke-linejoin:round;stroke-miterlimit:2;">
    <g transform="matrix(1,0,0,1,-3492.108966,-3264.65775)">
        <g transform="matrix(1,0,0,1,-2569.327827,0)">
            <g transform="matrix(1.658991,0,0,1.880485,291.249013,-2844.481756)">
                <path d="M3763.358,3344.424L3763.358,3456.14C3763.358,3500.165 3722.844,3535.907 3672.942,3535.907L3582.525,3535.907C3532.623,3535.907 3492.109,3500.165 3492.109,3456.14L3492.109,3344.424C3492.109,3300.4 3532.623,3264.658 3582.525,3264.658L3672.942,3264.658C3722.844,3264.658 3763.358,3300.4 3763.358,3344.424Z" style="fill:rgb(35,31,32);"/>
                <path d="M3763.358,3344.424L3763.358,3456.14C3763.358,3500.165 3722.844,3535.907 3672.942,3535.907L3582.525,3535.907C3532.623,3535.907 3492.109,3500.165 3492.109,3456.14L3492.109,3344.424C3492.109,3300.4 3532.623,3264.658 3582.525,3264.658L3672.942,3264.658C3722.844,3264.658 3763.358,3300.4 3763.358,3344.424ZM3743.266,3344.424C3743.266,3310.183 3711.755,3282.384 3672.942,3282.384L3582.525,3282.384C3543.713,3282.384 3512.202,3310.183 3512.202,3344.424L3512.202,3456.14C3512.202,3490.382 3543.713,3518.181 3582.525,3518.181L3672.942,3518.181C3711.755,3518.181 3743.266,3490.382 3743.266,3456.14L3743.266,3344.424Z" style="fill:rgb(35,31,32);"/>
            </g>
            <g transform="matrix(1.829965,0,0,1.880485,-329.001252,-2874.481756)">
                <path d="M3763.358,3344.424L3763.358,3456.14C3763.358,3500.165 3726.629,3535.907 3681.389,3535.907L3574.078,3535.907C3528.838,3535.907 3492.109,3500.165 3492.109,3456.14L3492.109,3344.424C3492.109,3300.4 3528.838,3264.658 3574.078,3264.658L3681.389,3264.658C3726.629,3264.658 3763.358,3300.4 3763.358,3344.424Z" style="fill:white;"/>
                <path d="M3763.358,3344.424L3763.358,3456.14C3763.358,3500.165 3726.629,3535.907 3681.389,3535.907L3574.078,3535.907C3528.838,3535.907 3492.109,3500.165 3492.109,3456.14L3492.109,3344.424C3492.109,3300.4 3528.838,3264.658 3574.078,3264.658L3681.389,3264.658C3726.629,3264.658 3763.358,3300.4 3763.358,3344.424ZM3745.143,3344.424C3745.143,3310.183 3716.576,3282.384 3681.389,3282.384L3574.078,3282.384C3538.891,3282.384 3510.324,3310.183 3510.324,3344.424L3510.324,3456.14C3510.324,3490.382 3538.891,3518.181 3574.078,3518.181L3681.389,3518.181C3716.576,3518.181 3745.143,3490.382 3745.143,3456.14L3745.143,3344.424Z" style="fill:rgb(243,109,33);"/>
            </g>
            <g transform="matrix(0,0.732653,-0.53678,0,8236.237716,849.424425)">
                <path d="M3627.754,3489.369C3631.568,3481.74 3637.898,3477.177 3644.665,3477.177C3651.431,3477.177 3657.761,3481.74 3661.575,3489.369C3683.454,3533.126 3721.605,3609.429 3745.658,3657.534C3749.936,3666.091 3750.395,3677.177 3746.85,3686.338C3743.305,3695.498 3736.337,3701.23 3728.747,3701.23C3682.765,3701.23 3606.564,3701.23 3560.582,3701.23C3552.992,3701.23 3546.025,3695.498 3542.479,3686.338C3538.934,3677.177 3539.393,3666.091 3543.672,3657.534C3567.724,3609.429 3605.876,3533.126 3627.754,3489.369Z" style="fill:white;"/>
                <path d="M3590.174,3454.365C3602.465,3429.783 3622.861,3415.078 3644.665,3415.078C3666.469,3415.078 3686.864,3429.783 3699.155,3454.365L3783.237,3622.529C3797.024,3650.103 3798.503,3685.824 3787.079,3715.342C3775.656,3744.86 3753.205,3763.329 3728.747,3763.329L3560.582,3763.329C3536.124,3763.329 3513.674,3744.86 3502.25,3715.342C3490.827,3685.824 3492.305,3650.103 3506.092,3622.529L3590.174,3454.365ZM3627.754,3489.369L3543.672,3657.534C3539.393,3666.091 3538.934,3677.177 3542.479,3686.338C3546.025,3695.498 3552.992,3701.23 3560.582,3701.23L3728.747,3701.23C3736.337,3701.23 3743.305,3695.498 3746.85,3686.338C3750.395,3677.177 3749.936,3666.091 3745.658,3657.534L3661.575,3489.369C3657.761,3481.74 3651.431,3477.177 3644.665,3477.177C3637.898,3477.177 3631.568,3481.74 3627.754,3489.369Z" style="fill:rgb(243,109,33);"/>
            </g>
        </g>
    </g>
</svg>
