<?xml version="1.0" encoding="UTF-8" standalone="no"?><!DOCTYPE svg PUBLIC "-//W3C//DTD SVG 1.1//EN" "http://www.w3.org/Graphics/SVG/1.1/DTD/svg11.dtd"><svg width="100%" height="100%" viewBox="0 0 497 541" version="1.1" xmlns="http://www.w3.org/2000/svg" xmlns:xlink="http://www.w3.org/1999/xlink" xml:space="preserve" xmlns:serif="http://www.serif.com/" style="fill-rule:evenodd;clip-rule:evenodd;stroke-linejoin:round;stroke-miterlimit:2;"><g><g><g><path d="M473.189,180l0,210.08c0,82.788 -67.212,150.001 -149.999,150.001l-150.001,0c-82.787,0 -149.999,-67.212 -149.999,-150.001l0,-210.08c0,-82.786 67.212,-149.999 149.999,-149.999l150.001,0c82.787,0 149.999,67.212 149.999,149.999Z" style="fill:#231f20;"/><path d="M473.189,180l0,210.08c0,82.788 -67.212,150.001 -149.999,150.001l-150.001,0c-82.787,0 -149.999,-67.212 -149.999,-150.001l0,-210.08c0,-82.786 67.212,-149.999 149.999,-149.999l150.001,0c82.787,0 149.999,67.212 149.999,149.999Zm-33.332,0c0,-64.39 -52.276,-116.665 -116.667,-116.665l-150.001,0c-64.389,0 -116.665,52.276 -116.665,116.665l0,210.08c0,64.392 52.276,116.667 116.665,116.667l150.001,0c64.39,0 116.667,-52.276 116.667,-116.667l0,-210.08Z" style="fill:#231f20;"/></g><g><path d="M496.375,150l0,210.08c0,82.788 -67.213,150.001 -150,150.001l-196.375,0c-82.788,0 -150,-67.212 -150,-150.001l0,-210.08c0,-82.786 67.213,-149.999 150,-149.999l196.375,0c82.788,0 150,67.212 150,149.999Z" style="fill:#f36d21;"/><path d="M496.375,150l0,210.08c0,82.788 -67.213,150.001 -150,150.001l-196.375,0c-82.788,0 -150,-67.212 -150,-150.001l0,-210.08c0,-82.786 67.213,-149.999 150,-149.999l196.375,0c82.788,0 150,67.212 150,149.999Zm-33.333,0c0,-64.39 -52.277,-116.665 -116.668,-116.665l-196.375,0c-64.391,0 -116.668,52.276 -116.668,116.665l0,210.08c0,64.392 52.277,116.667 116.668,116.667l196.375,0c64.391,0 116.668,-52.276 116.668,-116.667l0,-210.08Z" style="fill:#f36d21;"/></g><g><g><path d="M224.803,253.916l-57.827,-36.727c-4.085,-2.594 -6.239,-7.365 -5.482,-12.144l10.056,-63.493c0.649,-4.099 3.349,-7.583 7.158,-9.235c3.807,-1.653 8.196,-1.244 11.634,1.083l164.651,111.453c2.442,1.654 4.196,4.133 4.941,6.993c0.569,2.18 0.519,4.465 -0.141,6.616c-0.917,2.99 -2.949,5.509 -5.686,7.038l-199.998,111.726c-4.057,2.267 -9.053,2.016 -12.865,-0.643c-3.812,-2.659 -5.769,-7.262 -5.042,-11.852l10.143,-64.038c0.599,-3.782 2.948,-7.06 6.337,-8.843l72.121,-37.933Zm123.385,0.988l-164.65,-111.453l-10.056,63.493l75.516,47.96l-90.665,47.687l-10.142,64.037l199.998,-111.724Z" style="fill:#fff;"/><path d="M173.482,206.944l10.056,-63.493l164.65,111.453l-99.19,0l-75.516,-47.96Zm-15.149,95.648l90.665,-47.688l99.19,0l-199.998,111.725l10.143,-64.038Z" style="fill:#231f20;fill-rule:nonzero;"/></g></g></g></g></svg>