<?xml version="1.0" encoding="UTF-8" standalone="no"?><!DOCTYPE svg PUBLIC "-//W3C//DTD SVG 1.1//EN" "http://www.w3.org/Graphics/SVG/1.1/DTD/svg11.dtd"><svg width="100%" height="100%" viewBox="0 0 497 541" version="1.1" xmlns="http://www.w3.org/2000/svg" xmlns:xlink="http://www.w3.org/1999/xlink" xml:space="preserve" xmlns:serif="http://www.serif.com/" style="fill-rule:evenodd;clip-rule:evenodd;stroke-linejoin:round;stroke-miterlimit:2;"><g><g><g><path d="M473.189,180l0,210.08c0,82.788 -67.212,150.001 -149.999,150.001l-150.001,0c-82.787,0 -149.999,-67.212 -149.999,-150.001l0,-210.08c0,-82.786 67.212,-149.999 149.999,-149.999l150.001,0c82.787,0 149.999,67.212 149.999,149.999Z" style="fill:#231f20;"/><path d="M473.189,180l0,210.08c0,82.788 -67.212,150.001 -149.999,150.001l-150.001,0c-82.787,0 -149.999,-67.212 -149.999,-150.001l0,-210.08c0,-82.786 67.212,-149.999 149.999,-149.999l150.001,0c82.787,0 149.999,67.212 149.999,149.999Zm-33.332,0c0,-64.39 -52.276,-116.665 -116.667,-116.665l-150.001,0c-64.389,0 -116.665,52.276 -116.665,116.665l0,210.08c0,64.392 52.276,116.667 116.665,116.667l150.001,0c64.39,0 116.667,-52.276 116.667,-116.667l0,-210.08Z" style="fill:#231f20;"/></g><g><path d="M496.375,150l0,210.08c0,82.788 -67.213,150.001 -150,150.001l-196.375,0c-82.788,0 -150,-67.212 -150,-150.001l0,-210.08c0,-82.786 67.213,-149.999 150,-149.999l196.375,0c82.788,0 150,67.212 150,149.999Z" style="fill:#fff;"/><path d="M496.375,150l0,210.08c0,82.788 -67.213,150.001 -150,150.001l-196.375,0c-82.788,0 -150,-67.212 -150,-150.001l0,-210.08c0,-82.786 67.213,-149.999 150,-149.999l196.375,0c82.788,0 150,67.212 150,149.999Zm-33.333,0c0,-64.39 -52.277,-116.665 -116.668,-116.665l-196.375,0c-64.391,0 -116.668,52.276 -116.668,116.665l0,210.08c0,64.392 52.277,116.667 116.668,116.667l196.375,0c64.391,0 116.668,-52.276 116.668,-116.667l0,-210.08Z" style="fill:#f36d21;"/></g><path d="M333.244,255.027c2.127,1.519 3.701,3.676 4.5,6.165c0.776,2.414 0.776,5.001 0.002,7.415c-0.797,2.487 -2.368,4.643 -4.491,6.163l-156,111.726c-3.698,2.649 -8.568,3.007 -12.614,0.928c-4.046,-2.079 -6.59,-6.246 -6.59,-10.796l0,-64.037c0,-4.046 2.017,-7.827 5.378,-10.081l56.129,-37.636l-56.155,-37.868c-3.346,-2.257 -5.352,-6.028 -5.352,-10.063l0,-63.493c0,-4.547 2.541,-8.712 6.584,-10.792c4.042,-2.08 8.909,-1.727 12.608,0.916l156.001,111.453Zm-91.935,9.876l-71.121,47.687l0,64.037l156,-111.724l-156,-111.453l0,63.493l71.121,47.96Z" style="fill:#f36d21;"/><path d="M170.188,216.944l0,-63.493l156,111.453l-84.879,0l-71.121,-47.96Zm0,95.648l71.121,-47.688l84.879,0l-156,111.725l0,-64.038Z" style="fill:#f36d21;fill-rule:nonzero;"/><path d="M345.67,234.549c2.612,1.597 4.519,4.113 5.35,7.06c0.608,2.155 0.609,4.428 0.003,6.583c-0.829,2.946 -2.733,5.461 -5.342,7.06l-182.302,111.726c-3.746,2.294 -8.44,2.388 -12.273,0.241c-3.833,-2.147 -6.207,-6.196 -6.207,-10.59l0,-64.037c0,-4.348 2.325,-8.364 6.097,-10.528l64.816,-37.19l-64.842,-37.417c-3.757,-2.168 -6.071,-6.175 -6.071,-10.512l0,-63.493c0,-4.391 2.371,-8.439 6.202,-10.586c3.829,-2.148 8.52,-2.059 12.267,0.231l182.302,111.453Zm-105.521,10.355l-83.112,47.687l0,64.037l182.302,-111.724l-182.302,-111.453l0,63.493l83.112,47.96Z" style="fill:#fff;"/><path d="M157.037,196.944l0,-63.493l182.303,111.453l-99.19,0l-83.113,-47.96Zm0,95.648l83.113,-47.688l99.19,0l-182.303,111.725l0,-64.038Z" style="fill:#231f20;fill-rule:nonzero;"/></g></g></svg>