<?xml version="1.0" encoding="UTF-8" standalone="no"?><!DOCTYPE svg PUBLIC "-//W3C//DTD SVG 1.1//EN" "http://www.w3.org/Graphics/SVG/1.1/DTD/svg11.dtd"><svg width="100%" height="100%" viewBox="0 0 341 91" version="1.1" xmlns="http://www.w3.org/2000/svg" xmlns:xlink="http://www.w3.org/1999/xlink" xml:space="preserve" xmlns:serif="http://www.serif.com/" style="fill-rule:evenodd;clip-rule:evenodd;stroke-linejoin:round;stroke-miterlimit:2;"><g><g transform="matrix(0.558727,0,0,0.660343,-4934.869521,-149.565383)"><g transform="matrix(0.976024,0,0,1,212.04519,0)"><g transform="matrix(151.436396,0,0,151.436396,8949.098503,357.692308)"><path d="M0.01,-0l0.13,-0.56l0.469,0l-0.028,0.119l-0.302,0l-0.024,0.102l0.236,0l-0.026,0.114l-0.236,0l-0.024,0.106l0.309,0l-0.029,0.119l-0.475,-0Zm0.399,-0.786l0.157,0l-0.126,0.163l-0.127,0l0.096,-0.163Z" style="fill:none;fill-rule:nonzero;stroke:#f36d21;stroke-width:0.07px;"/></g><g transform="matrix(151.436396,0,0,151.436396,8949.098503,357.692308)"></g><g transform="matrix(151.436396,0,0,151.436396,9040.41465,357.692308)"><path d="M0.299,0.01c-0.044,0 -0.085,-0.005 -0.122,-0.014c-0.037,-0.009 -0.071,-0.024 -0.101,-0.042c-0.03,-0.019 -0.056,-0.043 -0.078,-0.071l0.086,-0.1c0.015,0.023 0.033,0.042 0.056,0.058c0.023,0.016 0.047,0.028 0.074,0.037c0.027,0.009 0.052,0.013 0.077,0.013c0.017,0 0.032,-0.002 0.043,-0.007c0.011,-0.004 0.019,-0.01 0.024,-0.017c0.005,-0.007 0.008,-0.016 0.008,-0.025c-0,-0.011 -0.005,-0.021 -0.014,-0.028c-0.009,-0.007 -0.023,-0.014 -0.042,-0.019l-0.088,-0.026c-0.027,-0.008 -0.052,-0.019 -0.074,-0.032c-0.022,-0.013 -0.039,-0.03 -0.052,-0.051c-0.013,-0.021 -0.019,-0.045 -0.019,-0.073c0,-0.039 0.01,-0.071 0.031,-0.098c0.021,-0.027 0.049,-0.048 0.085,-0.062c0.036,-0.014 0.077,-0.021 0.123,-0.021c0.061,0 0.113,0.01 0.157,0.031c0.043,0.02 0.079,0.048 0.107,0.083l-0.093,0.09c-0.013,-0.019 -0.028,-0.034 -0.047,-0.047c-0.019,-0.012 -0.039,-0.021 -0.06,-0.027c-0.021,-0.006 -0.043,-0.009 -0.066,-0.009c-0.024,0 -0.042,0.004 -0.053,0.013c-0.012,0.009 -0.018,0.02 -0.018,0.033c0,0.01 0.005,0.019 0.015,0.028c0.01,0.008 0.026,0.016 0.047,0.022l0.088,0.026c0.046,0.013 0.081,0.031 0.104,0.054c0.024,0.023 0.036,0.054 0.036,0.093c0,0.041 -0.01,0.075 -0.031,0.103c-0.021,0.028 -0.049,0.049 -0.084,0.064c-0.035,0.014 -0.075,0.021 -0.118,0.021Z" style="fill:none;fill-rule:nonzero;stroke:#f36d21;stroke-width:0.07px;"/></g><g transform="matrix(151.436396,0,0,151.436396,9040.41465,357.692308)"></g><g transform="matrix(151.436396,0,0,151.436396,9126.733396,357.692308)"><path d="M0.302,0.008c-0.063,0 -0.115,-0.011 -0.155,-0.033c-0.04,-0.022 -0.068,-0.054 -0.083,-0.095c-0.015,-0.041 -0.016,-0.091 -0.003,-0.149l0.069,-0.291l0.17,0l-0.076,0.328c-0.008,0.034 -0.004,0.061 0.012,0.08c0.016,0.02 0.04,0.029 0.073,0.029c0.029,0 0.052,-0.008 0.069,-0.025c0.017,-0.017 0.029,-0.041 0.037,-0.073l0.079,-0.34l0.169,0l-0.082,0.356c-0.011,0.047 -0.029,0.086 -0.055,0.118c-0.026,0.032 -0.058,0.055 -0.096,0.071c-0.038,0.016 -0.08,0.024 -0.129,0.024Z" style="fill:none;fill-rule:nonzero;stroke:#f36d21;stroke-width:0.07px;"/></g><g transform="matrix(151.436396,0,0,151.436396,9126.733396,357.692308)"></g><g transform="matrix(151.436396,0,0,151.436396,9224.409871,357.692308)"><path d="M0.011,-0l0.13,-0.56l0.211,0l0.029,0.253l0.012,0.128l0.003,0l0.061,-0.128l0.139,-0.253l0.242,0l-0.13,0.56l-0.153,-0l0.051,-0.215l0.053,-0.195l-0.001,0l-0.237,0.41l-0.124,-0l-0.046,-0.41l-0.001,0l-0.035,0.195l-0.051,0.215l-0.153,-0Z" style="fill:none;fill-rule:nonzero;stroke:#f36d21;stroke-width:0.07px;"/></g><g transform="matrix(151.436396,0,0,151.436396,9224.409871,357.692308)"></g><g transform="matrix(151.436396,0,0,151.436396,9350.253516,357.692308)"><path d="M0.01,-0l0.13,-0.56l0.469,0l-0.028,0.119l-0.302,0l-0.024,0.102l0.236,0l-0.026,0.114l-0.236,0l-0.024,0.106l0.309,0l-0.029,0.119l-0.475,-0Zm0.399,-0.786l0.157,0l-0.126,0.163l-0.127,0l0.096,-0.163Z" style="fill:none;fill-rule:nonzero;stroke:#f36d21;stroke-width:0.07px;"/></g><g transform="matrix(151.436396,0,0,151.436396,9350.253516,357.692308)"></g><g transform="matrix(151.436396,0,0,151.436396,9437.026571,357.692308)"></g><text x="8844.153px" y="357.692px" style="font-family:'WorkSans-BoldItalic', 'Work Sans';font-weight:700;font-style:italic;font-size:151.436px;fill:none;stroke:#f36d21;stroke-width:10.02px;">R</text></g><g transform="matrix(0.976024,0,0,1,212.04519,0)"><g transform="matrix(151.436396,0,0,151.436396,8949.098503,357.692308)"><path d="M0.01,-0l0.13,-0.56l0.469,0l-0.028,0.119l-0.302,0l-0.024,0.102l0.236,0l-0.026,0.114l-0.236,0l-0.024,0.106l0.309,0l-0.029,0.119l-0.475,-0Zm0.399,-0.786l0.157,0l-0.126,0.163l-0.127,0l0.096,-0.163Z" style="fill:#f36d21;fill-rule:nonzero;"/></g><g transform="matrix(151.436396,0,0,151.436396,8949.098503,357.692308)"></g><g transform="matrix(151.436396,0,0,151.436396,9040.41465,357.692308)"><path d="M0.299,0.01c-0.044,0 -0.085,-0.005 -0.122,-0.014c-0.037,-0.009 -0.071,-0.024 -0.101,-0.042c-0.03,-0.019 -0.056,-0.043 -0.078,-0.071l0.086,-0.1c0.015,0.023 0.033,0.042 0.056,0.058c0.023,0.016 0.047,0.028 0.074,0.037c0.027,0.009 0.052,0.013 0.077,0.013c0.017,0 0.032,-0.002 0.043,-0.007c0.011,-0.004 0.019,-0.01 0.024,-0.017c0.005,-0.007 0.008,-0.016 0.008,-0.025c-0,-0.011 -0.005,-0.021 -0.014,-0.028c-0.009,-0.007 -0.023,-0.014 -0.042,-0.019l-0.088,-0.026c-0.027,-0.008 -0.052,-0.019 -0.074,-0.032c-0.022,-0.013 -0.039,-0.03 -0.052,-0.051c-0.013,-0.021 -0.019,-0.045 -0.019,-0.073c0,-0.039 0.01,-0.071 0.031,-0.098c0.021,-0.027 0.049,-0.048 0.085,-0.062c0.036,-0.014 0.077,-0.021 0.123,-0.021c0.061,0 0.113,0.01 0.157,0.031c0.043,0.02 0.079,0.048 0.107,0.083l-0.093,0.09c-0.013,-0.019 -0.028,-0.034 -0.047,-0.047c-0.019,-0.012 -0.039,-0.021 -0.06,-0.027c-0.021,-0.006 -0.043,-0.009 -0.066,-0.009c-0.024,0 -0.042,0.004 -0.053,0.013c-0.012,0.009 -0.018,0.02 -0.018,0.033c0,0.01 0.005,0.019 0.015,0.028c0.01,0.008 0.026,0.016 0.047,0.022l0.088,0.026c0.046,0.013 0.081,0.031 0.104,0.054c0.024,0.023 0.036,0.054 0.036,0.093c0,0.041 -0.01,0.075 -0.031,0.103c-0.021,0.028 -0.049,0.049 -0.084,0.064c-0.035,0.014 -0.075,0.021 -0.118,0.021Z" style="fill:#f36d21;fill-rule:nonzero;"/></g><g transform="matrix(151.436396,0,0,151.436396,9040.41465,357.692308)"></g><g transform="matrix(151.436396,0,0,151.436396,9126.733396,357.692308)"><path d="M0.302,0.008c-0.063,0 -0.115,-0.011 -0.155,-0.033c-0.04,-0.022 -0.068,-0.054 -0.083,-0.095c-0.015,-0.041 -0.016,-0.091 -0.003,-0.149l0.069,-0.291l0.17,0l-0.076,0.328c-0.008,0.034 -0.004,0.061 0.012,0.08c0.016,0.02 0.04,0.029 0.073,0.029c0.029,0 0.052,-0.008 0.069,-0.025c0.017,-0.017 0.029,-0.041 0.037,-0.073l0.079,-0.34l0.169,0l-0.082,0.356c-0.011,0.047 -0.029,0.086 -0.055,0.118c-0.026,0.032 -0.058,0.055 -0.096,0.071c-0.038,0.016 -0.08,0.024 -0.129,0.024Z" style="fill:#f36d21;fill-rule:nonzero;"/></g><g transform="matrix(151.436396,0,0,151.436396,9126.733396,357.692308)"></g><g transform="matrix(151.436396,0,0,151.436396,9224.409871,357.692308)"><path d="M0.011,-0l0.13,-0.56l0.211,0l0.029,0.253l0.012,0.128l0.003,0l0.061,-0.128l0.139,-0.253l0.242,0l-0.13,0.56l-0.153,-0l0.051,-0.215l0.053,-0.195l-0.001,0l-0.237,0.41l-0.124,-0l-0.046,-0.41l-0.001,0l-0.035,0.195l-0.051,0.215l-0.153,-0Z" style="fill:#f36d21;fill-rule:nonzero;"/></g><g transform="matrix(151.436396,0,0,151.436396,9224.409871,357.692308)"></g><g transform="matrix(151.436396,0,0,151.436396,9350.253516,357.692308)"><path d="M0.01,-0l0.13,-0.56l0.469,0l-0.028,0.119l-0.302,0l-0.024,0.102l0.236,0l-0.026,0.114l-0.236,0l-0.024,0.106l0.309,0l-0.029,0.119l-0.475,-0Zm0.399,-0.786l0.157,0l-0.126,0.163l-0.127,0l0.096,-0.163Z" style="fill:#f36d21;fill-rule:nonzero;"/></g><g transform="matrix(151.436396,0,0,151.436396,9350.253516,357.692308)"></g><g transform="matrix(151.436396,0,0,151.436396,9437.026571,357.692308)"></g><text x="8844.153px" y="357.692px" style="font-family:'WorkSans-BoldItalic', 'Work Sans';font-weight:700;font-style:italic;font-size:151.436px;fill:#f36d21;">R</text></g></g><g transform="matrix(0.57508,0,0,0.660343,-5084.248749,-154.565383)"><g transform="matrix(0.976024,0,0,1,212.04519,0)"><g transform="matrix(151.436396,0,0,151.436396,8949.098503,357.692308)"><path d="M0.01,-0l0.13,-0.56l0.469,0l-0.028,0.119l-0.302,0l-0.024,0.102l0.236,0l-0.026,0.114l-0.236,0l-0.024,0.106l0.309,0l-0.029,0.119l-0.475,-0Zm0.399,-0.786l0.157,0l-0.126,0.163l-0.127,0l0.096,-0.163Z" style="fill:none;fill-rule:nonzero;stroke:#fff;stroke-width:0.07px;"/></g><g transform="matrix(151.436396,0,0,151.436396,8949.098503,357.692308)"></g><g transform="matrix(151.436396,0,0,151.436396,9040.41465,357.692308)"><path d="M0.299,0.01c-0.044,0 -0.085,-0.005 -0.122,-0.014c-0.037,-0.009 -0.071,-0.024 -0.101,-0.042c-0.03,-0.019 -0.056,-0.043 -0.078,-0.071l0.086,-0.1c0.015,0.023 0.033,0.042 0.056,0.058c0.023,0.016 0.047,0.028 0.074,0.037c0.027,0.009 0.052,0.013 0.077,0.013c0.017,0 0.032,-0.002 0.043,-0.007c0.011,-0.004 0.019,-0.01 0.024,-0.017c0.005,-0.007 0.008,-0.016 0.008,-0.025c-0,-0.011 -0.005,-0.021 -0.014,-0.028c-0.009,-0.007 -0.023,-0.014 -0.042,-0.019l-0.088,-0.026c-0.027,-0.008 -0.052,-0.019 -0.074,-0.032c-0.022,-0.013 -0.039,-0.03 -0.052,-0.051c-0.013,-0.021 -0.019,-0.045 -0.019,-0.073c0,-0.039 0.01,-0.071 0.031,-0.098c0.021,-0.027 0.049,-0.048 0.085,-0.062c0.036,-0.014 0.077,-0.021 0.123,-0.021c0.061,0 0.113,0.01 0.157,0.031c0.043,0.02 0.079,0.048 0.107,0.083l-0.093,0.09c-0.013,-0.019 -0.028,-0.034 -0.047,-0.047c-0.019,-0.012 -0.039,-0.021 -0.06,-0.027c-0.021,-0.006 -0.043,-0.009 -0.066,-0.009c-0.024,0 -0.042,0.004 -0.053,0.013c-0.012,0.009 -0.018,0.02 -0.018,0.033c0,0.01 0.005,0.019 0.015,0.028c0.01,0.008 0.026,0.016 0.047,0.022l0.088,0.026c0.046,0.013 0.081,0.031 0.104,0.054c0.024,0.023 0.036,0.054 0.036,0.093c0,0.041 -0.01,0.075 -0.031,0.103c-0.021,0.028 -0.049,0.049 -0.084,0.064c-0.035,0.014 -0.075,0.021 -0.118,0.021Z" style="fill:none;fill-rule:nonzero;stroke:#fff;stroke-width:0.07px;"/></g><g transform="matrix(151.436396,0,0,151.436396,9040.41465,357.692308)"></g><g transform="matrix(151.436396,0,0,151.436396,9126.733396,357.692308)"><path d="M0.302,0.008c-0.063,0 -0.115,-0.011 -0.155,-0.033c-0.04,-0.022 -0.068,-0.054 -0.083,-0.095c-0.015,-0.041 -0.016,-0.091 -0.003,-0.149l0.069,-0.291l0.17,0l-0.076,0.328c-0.008,0.034 -0.004,0.061 0.012,0.08c0.016,0.02 0.04,0.029 0.073,0.029c0.029,0 0.052,-0.008 0.069,-0.025c0.017,-0.017 0.029,-0.041 0.037,-0.073l0.079,-0.34l0.169,0l-0.082,0.356c-0.011,0.047 -0.029,0.086 -0.055,0.118c-0.026,0.032 -0.058,0.055 -0.096,0.071c-0.038,0.016 -0.08,0.024 -0.129,0.024Z" style="fill:none;fill-rule:nonzero;stroke:#fff;stroke-width:0.07px;"/></g><g transform="matrix(151.436396,0,0,151.436396,9126.733396,357.692308)"></g><g transform="matrix(151.436396,0,0,151.436396,9224.409871,357.692308)"><path d="M0.011,-0l0.13,-0.56l0.211,0l0.029,0.253l0.012,0.128l0.003,0l0.061,-0.128l0.139,-0.253l0.242,0l-0.13,0.56l-0.153,-0l0.051,-0.215l0.053,-0.195l-0.001,0l-0.237,0.41l-0.124,-0l-0.046,-0.41l-0.001,0l-0.035,0.195l-0.051,0.215l-0.153,-0Z" style="fill:none;fill-rule:nonzero;stroke:#fff;stroke-width:0.07px;"/></g><g transform="matrix(151.436396,0,0,151.436396,9224.409871,357.692308)"></g><g transform="matrix(151.436396,0,0,151.436396,9350.253516,357.692308)"><path d="M0.01,-0l0.13,-0.56l0.469,0l-0.028,0.119l-0.302,0l-0.024,0.102l0.236,0l-0.026,0.114l-0.236,0l-0.024,0.106l0.309,0l-0.029,0.119l-0.475,-0Zm0.399,-0.786l0.157,0l-0.126,0.163l-0.127,0l0.096,-0.163Z" style="fill:none;fill-rule:nonzero;stroke:#fff;stroke-width:0.07px;"/></g><g transform="matrix(151.436396,0,0,151.436396,9350.253516,357.692308)"></g><g transform="matrix(151.436396,0,0,151.436396,9437.026571,357.692308)"></g><text x="8844.153px" y="357.692px" style="font-family:'WorkSans-BoldItalic', 'Work Sans';font-weight:700;font-style:italic;font-size:151.436px;fill:none;stroke:#fff;stroke-width:9.9px;">R</text></g><g transform="matrix(0.976024,0,0,1,212.04519,0)"><g transform="matrix(151.436396,0,0,151.436396,8949.098503,357.692308)"><path d="M0.01,-0l0.13,-0.56l0.469,0l-0.028,0.119l-0.302,0l-0.024,0.102l0.236,0l-0.026,0.114l-0.236,0l-0.024,0.106l0.309,0l-0.029,0.119l-0.475,-0Zm0.399,-0.786l0.157,0l-0.126,0.163l-0.127,0l0.096,-0.163Z" style="fill:#231f20;fill-rule:nonzero;"/></g><g transform="matrix(151.436396,0,0,151.436396,8949.098503,357.692308)"></g><g transform="matrix(151.436396,0,0,151.436396,9040.41465,357.692308)"><path d="M0.299,0.01c-0.044,0 -0.085,-0.005 -0.122,-0.014c-0.037,-0.009 -0.071,-0.024 -0.101,-0.042c-0.03,-0.019 -0.056,-0.043 -0.078,-0.071l0.086,-0.1c0.015,0.023 0.033,0.042 0.056,0.058c0.023,0.016 0.047,0.028 0.074,0.037c0.027,0.009 0.052,0.013 0.077,0.013c0.017,0 0.032,-0.002 0.043,-0.007c0.011,-0.004 0.019,-0.01 0.024,-0.017c0.005,-0.007 0.008,-0.016 0.008,-0.025c-0,-0.011 -0.005,-0.021 -0.014,-0.028c-0.009,-0.007 -0.023,-0.014 -0.042,-0.019l-0.088,-0.026c-0.027,-0.008 -0.052,-0.019 -0.074,-0.032c-0.022,-0.013 -0.039,-0.03 -0.052,-0.051c-0.013,-0.021 -0.019,-0.045 -0.019,-0.073c0,-0.039 0.01,-0.071 0.031,-0.098c0.021,-0.027 0.049,-0.048 0.085,-0.062c0.036,-0.014 0.077,-0.021 0.123,-0.021c0.061,0 0.113,0.01 0.157,0.031c0.043,0.02 0.079,0.048 0.107,0.083l-0.093,0.09c-0.013,-0.019 -0.028,-0.034 -0.047,-0.047c-0.019,-0.012 -0.039,-0.021 -0.06,-0.027c-0.021,-0.006 -0.043,-0.009 -0.066,-0.009c-0.024,0 -0.042,0.004 -0.053,0.013c-0.012,0.009 -0.018,0.02 -0.018,0.033c0,0.01 0.005,0.019 0.015,0.028c0.01,0.008 0.026,0.016 0.047,0.022l0.088,0.026c0.046,0.013 0.081,0.031 0.104,0.054c0.024,0.023 0.036,0.054 0.036,0.093c0,0.041 -0.01,0.075 -0.031,0.103c-0.021,0.028 -0.049,0.049 -0.084,0.064c-0.035,0.014 -0.075,0.021 -0.118,0.021Z" style="fill:#231f20;fill-rule:nonzero;"/></g><g transform="matrix(151.436396,0,0,151.436396,9040.41465,357.692308)"></g><g transform="matrix(151.436396,0,0,151.436396,9126.733396,357.692308)"><path d="M0.302,0.008c-0.063,0 -0.115,-0.011 -0.155,-0.033c-0.04,-0.022 -0.068,-0.054 -0.083,-0.095c-0.015,-0.041 -0.016,-0.091 -0.003,-0.149l0.069,-0.291l0.17,0l-0.076,0.328c-0.008,0.034 -0.004,0.061 0.012,0.08c0.016,0.02 0.04,0.029 0.073,0.029c0.029,0 0.052,-0.008 0.069,-0.025c0.017,-0.017 0.029,-0.041 0.037,-0.073l0.079,-0.34l0.169,0l-0.082,0.356c-0.011,0.047 -0.029,0.086 -0.055,0.118c-0.026,0.032 -0.058,0.055 -0.096,0.071c-0.038,0.016 -0.08,0.024 -0.129,0.024Z" style="fill:#231f20;fill-rule:nonzero;"/></g><g transform="matrix(151.436396,0,0,151.436396,9126.733396,357.692308)"></g><g transform="matrix(151.436396,0,0,151.436396,9224.409871,357.692308)"><path d="M0.011,-0l0.13,-0.56l0.211,0l0.029,0.253l0.012,0.128l0.003,0l0.061,-0.128l0.139,-0.253l0.242,0l-0.13,0.56l-0.153,-0l0.051,-0.215l0.053,-0.195l-0.001,0l-0.237,0.41l-0.124,-0l-0.046,-0.41l-0.001,0l-0.035,0.195l-0.051,0.215l-0.153,-0Z" style="fill:#231f20;fill-rule:nonzero;"/></g><g transform="matrix(151.436396,0,0,151.436396,9224.409871,357.692308)"></g><g transform="matrix(151.436396,0,0,151.436396,9350.253516,357.692308)"><path d="M0.01,-0l0.13,-0.56l0.469,0l-0.028,0.119l-0.302,0l-0.024,0.102l0.236,0l-0.026,0.114l-0.236,0l-0.024,0.106l0.309,0l-0.029,0.119l-0.475,-0Zm0.399,-0.786l0.157,0l-0.126,0.163l-0.127,0l0.096,-0.163Z" style="fill:#231f20;fill-rule:nonzero;"/></g><g transform="matrix(151.436396,0,0,151.436396,9350.253516,357.692308)"></g><g transform="matrix(151.436396,0,0,151.436396,9437.026571,357.692308)"></g><text x="8844.153px" y="357.692px" style="font-family:'WorkSans-BoldItalic', 'Work Sans';font-weight:700;font-style:italic;font-size:151.436px;fill:#231f20;">R</text></g></g></g></svg>