<?xml version="1.0" encoding="UTF-8" standalone="no"?><!DOCTYPE svg PUBLIC "-//W3C//DTD SVG 1.1//EN" "http://www.w3.org/Graphics/SVG/1.1/DTD/svg11.dtd"><svg width="100%" height="100%" viewBox="0 0 341 91" version="1.1" xmlns="http://www.w3.org/2000/svg" xmlns:xlink="http://www.w3.org/1999/xlink" xml:space="preserve" xmlns:serif="http://www.serif.com/" style="fill-rule:evenodd;clip-rule:evenodd;stroke-linejoin:round;stroke-miterlimit:2;"><g><path d="M64.652,86.634l10.736,-56l38.731,0l-2.312,11.9l-24.94,0l-1.982,10.2l19.49,0l-2.147,11.4l-19.49,0l-1.982,10.6l25.518,0l-2.395,11.9l-39.227,0Zm32.951,-78.6l12.966,0l-10.405,16.3l-10.488,0l7.928,-16.3Z" style="fill:#f36d21;fill-rule:nonzero;stroke:#f36d21;stroke-width:6.42px;"/><path d="M138.316,87.634c-3.634,0 -7.02,-0.5 -10.075,-1.4c-3.056,-0.9 -5.863,-2.4 -8.341,-4.2c-2.477,-1.9 -4.625,-4.3 -6.441,-7.1l7.102,-10c1.239,2.3 2.725,4.2 4.625,5.8c1.899,1.6 3.881,2.8 6.111,3.7c2.23,0.9 4.294,1.3 6.359,1.3c1.404,0 2.643,-0.2 3.551,-0.7c0.908,-0.4 1.569,-1 1.982,-1.7c0.413,-0.7 0.661,-1.6 0.661,-2.5c0,-1.1 -0.413,-2.1 -1.156,-2.8c-0.743,-0.7 -1.899,-1.4 -3.468,-1.9l-7.267,-2.6c-2.23,-0.8 -4.294,-1.9 -6.111,-3.2c-1.817,-1.3 -3.221,-3 -4.294,-5.1c-1.074,-2.1 -1.569,-4.5 -1.569,-7.3c0,-3.9 0.826,-7.1 2.56,-9.8c1.734,-2.7 4.047,-4.8 7.02,-6.2c2.973,-1.4 6.359,-2.1 10.158,-2.1c5.038,0 9.332,1 12.966,3.1c3.551,2 6.524,4.8 8.836,8.3l-7.68,9c-1.074,-1.9 -2.312,-3.4 -3.881,-4.7c-1.569,-1.2 -3.221,-2.1 -4.955,-2.7c-1.734,-0.6 -3.551,-0.9 -5.45,-0.9c-1.982,0 -3.468,0.4 -4.377,1.3c-0.991,0.9 -1.486,2 -1.486,3.3c0,1 0.413,1.9 1.239,2.8c0.826,0.8 2.147,1.6 3.881,2.2l7.267,2.6c3.799,1.3 6.689,3.1 8.589,5.4c1.982,2.3 2.973,5.4 2.973,9.3c0,4.1 -0.826,7.5 -2.56,10.3c-1.734,2.8 -4.047,4.9 -6.937,6.4c-2.89,1.4 -6.194,2.1 -9.745,2.1l-0.083,-0Z" style="fill:#f36d21;fill-rule:nonzero;stroke:#f36d21;stroke-width:6.42px;"/><path d="M185.636,87.434c-5.203,0 -9.497,-1.1 -12.8,-3.3c-3.303,-2.2 -5.616,-5.4 -6.854,-9.5c-1.239,-4.1 -1.321,-9.1 -0.248,-14.9l5.698,-29.1l14.039,0l-6.276,32.8c-0.661,3.4 -0.33,6.1 0.991,8c1.321,2 3.303,2.9 6.029,2.9c2.395,0 4.294,-0.8 5.698,-2.5c1.404,-1.7 2.395,-4.1 3.056,-7.3l6.524,-34l13.957,0l-6.772,35.6c-0.908,4.7 -2.395,8.6 -4.542,11.8c-2.147,3.2 -4.79,5.5 -7.928,7.1c-3.138,1.6 -6.607,2.4 -10.653,2.4l0.083,0Z" style="fill:#f36d21;fill-rule:nonzero;stroke:#f36d21;stroke-width:6.42px;"/><path d="M214.871,86.634l10.736,-56l17.425,0l2.395,25.3l0.991,12.8l0.248,0l5.038,-12.8l11.479,-25.3l19.985,0l-10.736,56l-12.635,0l4.212,-21.5l4.377,-19.5l-0.083,0l-19.572,41l-10.24,0l-3.799,-41l-0.083,0l-2.89,19.5l-4.212,21.5l-12.635,0Z" style="fill:#f36d21;fill-rule:nonzero;stroke:#f36d21;stroke-width:6.42px;"/><path d="M283.414,86.634l10.736,-56l38.731,0l-2.312,11.9l-24.94,0l-1.982,10.2l19.49,0l-2.147,11.4l-19.49,0l-1.982,10.6l25.518,0l-2.395,11.9l-39.227,0Zm32.951,-78.6l12.966,0l-10.405,16.3l-10.488,0l7.928,-16.3Z" style="fill:#f36d21;fill-rule:nonzero;stroke:#f36d21;stroke-width:6.42px;"/><path d="M7.752,86.634l12.635,-66l23.371,0c5.616,0 10.061,1.65 13.337,4.95c3.276,3.3 4.914,7.917 4.914,13.85c-0,4.8 -0.922,8.867 -2.767,12.2c-1.844,3.333 -4.336,5.917 -7.474,7.75c-3.138,1.833 -6.689,2.85 -10.653,3.05l-3.138,0.9l-13.048,0l2.312,-12.2l10.818,0c2.147,0 3.95,-0.433 5.409,-1.3c1.459,-0.867 2.574,-2.083 3.345,-3.65c0.771,-1.567 1.156,-3.283 1.156,-5.15c0,-2.6 -0.716,-4.483 -2.147,-5.65c-1.431,-1.167 -3.276,-1.75 -5.533,-1.75l-8.423,0l-10.158,53l-13.956,0Zm35.263,0l-8.919,-28.6l12.883,-2.4l10.405,31l-14.369,0Z" style="fill:#f36d21;fill-rule:nonzero;stroke:#f36d21;stroke-width:6.07px;"/><path d="M61.601,81.634l11.05,-56l39.865,0l-2.38,11.9l-25.67,0l-2.04,10.2l20.06,0l-2.21,11.4l-20.06,0l-2.04,10.6l26.265,0l-2.465,11.9l-40.375,0Zm33.915,-78.6l13.345,0l-10.71,16.3l-10.795,0l8.16,-16.3Z" style="fill:none;fill-rule:nonzero;stroke:#fff;stroke-width:6.5px;"/><path d="M137.421,82.634c-3.74,0 -7.225,-0.5 -10.37,-1.4c-3.145,-0.9 -6.035,-2.4 -8.585,-4.2c-2.55,-1.9 -4.76,-4.3 -6.63,-7.1l7.31,-10c1.275,2.3 2.805,4.2 4.76,5.8c1.955,1.6 3.995,2.8 6.29,3.7c2.295,0.9 4.42,1.3 6.545,1.3c1.445,0 2.72,-0.2 3.655,-0.7c0.935,-0.4 1.615,-1 2.04,-1.7c0.425,-0.7 0.68,-1.6 0.68,-2.5c0,-1.1 -0.425,-2.1 -1.19,-2.8c-0.765,-0.7 -1.955,-1.4 -3.57,-1.9l-7.48,-2.6c-2.295,-0.8 -4.42,-1.9 -6.29,-3.2c-1.87,-1.3 -3.315,-3 -4.42,-5.1c-1.105,-2.1 -1.615,-4.5 -1.615,-7.3c0,-3.9 0.85,-7.1 2.635,-9.8c1.785,-2.7 4.165,-4.8 7.225,-6.2c3.06,-1.4 6.545,-2.1 10.455,-2.1c5.185,0 9.605,1 13.345,3.1c3.655,2 6.715,4.8 9.095,8.3l-7.905,9c-1.105,-1.9 -2.38,-3.4 -3.995,-4.7c-1.615,-1.2 -3.315,-2.1 -5.1,-2.7c-1.785,-0.6 -3.655,-0.9 -5.61,-0.9c-2.04,0 -3.57,0.4 -4.505,1.3c-1.02,0.9 -1.53,2 -1.53,3.3c0,1 0.425,1.9 1.275,2.8c0.85,0.8 2.21,1.6 3.995,2.2l7.48,2.6c3.91,1.3 6.885,3.1 8.84,5.4c2.04,2.3 3.06,5.4 3.06,9.3c0,4.1 -0.85,7.5 -2.635,10.3c-1.785,2.8 -4.165,4.9 -7.14,6.4c-2.975,1.4 -6.375,2.1 -10.03,2.1l-0.085,-0Z" style="fill:none;fill-rule:nonzero;stroke:#fff;stroke-width:6.5px;"/><path d="M186.126,82.434c-5.355,0 -9.775,-1.1 -13.175,-3.3c-3.4,-2.2 -5.78,-5.4 -7.055,-9.5c-1.275,-4.1 -1.36,-9.1 -0.255,-14.9l5.865,-29.1l14.45,0l-6.46,32.8c-0.68,3.4 -0.34,6.1 1.02,8c1.36,2 3.4,2.9 6.205,2.9c2.465,0 4.42,-0.8 5.865,-2.5c1.445,-1.7 2.465,-4.1 3.145,-7.3l6.715,-34l14.365,0l-6.97,35.6c-0.935,4.7 -2.465,8.6 -4.675,11.8c-2.21,3.2 -4.93,5.5 -8.16,7.1c-3.23,1.6 -6.8,2.4 -10.965,2.4l0.085,0Z" style="fill:none;fill-rule:nonzero;stroke:#fff;stroke-width:6.5px;"/><path d="M216.216,81.634l11.05,-56l17.935,0l2.465,25.3l1.02,12.8l0.255,0l5.185,-12.8l11.815,-25.3l20.57,0l-11.05,56l-13.005,0l4.335,-21.5l4.505,-19.5l-0.085,0l-20.145,41l-10.54,0l-3.91,-41l-0.085,0l-2.975,19.5l-4.335,21.5l-13.005,0Z" style="fill:none;fill-rule:nonzero;stroke:#fff;stroke-width:6.5px;"/><path d="M286.766,81.634l11.05,-56l39.865,0l-2.38,11.9l-25.67,0l-2.04,10.2l20.06,0l-2.21,11.4l-20.06,0l-2.04,10.6l26.265,0l-2.465,11.9l-40.375,0Zm33.915,-78.6l13.345,0l-10.71,16.3l-10.795,0l8.16,-16.3Z" style="fill:none;fill-rule:nonzero;stroke:#fff;stroke-width:6.5px;"/><path d="M3.035,81.634l13.005,-66l24.055,0c5.78,0 10.356,1.65 13.727,4.95c3.372,3.3 5.057,7.917 5.057,13.85c-0,4.8 -0.949,8.867 -2.847,12.2c-1.898,3.333 -4.462,5.917 -7.692,7.75c-3.23,1.833 -6.885,2.85 -10.965,3.05l-3.23,0.9l-13.43,0l2.38,-12.2l11.135,0c2.21,0 4.066,-0.433 5.567,-1.3c1.502,-0.867 2.649,-2.083 3.442,-3.65c0.793,-1.567 1.19,-3.283 1.19,-5.15c0,-2.6 -0.737,-4.483 -2.21,-5.65c-1.473,-1.167 -3.372,-1.75 -5.695,-1.75l-8.67,0l-10.455,53l-14.365,0Zm36.295,0l-9.18,-28.6l13.26,-2.4l10.71,31l-14.79,0Z" style="fill:none;fill-rule:nonzero;stroke:#fff;stroke-width:6.07px;"/><path d="M61.601,81.634l11.05,-56l39.865,0l-2.38,11.9l-25.67,0l-2.04,10.2l20.06,0l-2.21,11.4l-20.06,0l-2.04,10.6l26.265,0l-2.465,11.9l-40.375,0Zm33.915,-78.6l13.345,0l-10.71,16.3l-10.795,0l8.16,-16.3Z" style="fill:#231f20;fill-rule:nonzero;"/><path d="M137.421,82.634c-3.74,0 -7.225,-0.5 -10.37,-1.4c-3.145,-0.9 -6.035,-2.4 -8.585,-4.2c-2.55,-1.9 -4.76,-4.3 -6.63,-7.1l7.31,-10c1.275,2.3 2.805,4.2 4.76,5.8c1.955,1.6 3.995,2.8 6.29,3.7c2.295,0.9 4.42,1.3 6.545,1.3c1.445,0 2.72,-0.2 3.655,-0.7c0.935,-0.4 1.615,-1 2.04,-1.7c0.425,-0.7 0.68,-1.6 0.68,-2.5c0,-1.1 -0.425,-2.1 -1.19,-2.8c-0.765,-0.7 -1.955,-1.4 -3.57,-1.9l-7.48,-2.6c-2.295,-0.8 -4.42,-1.9 -6.29,-3.2c-1.87,-1.3 -3.315,-3 -4.42,-5.1c-1.105,-2.1 -1.615,-4.5 -1.615,-7.3c0,-3.9 0.85,-7.1 2.635,-9.8c1.785,-2.7 4.165,-4.8 7.225,-6.2c3.06,-1.4 6.545,-2.1 10.455,-2.1c5.185,0 9.605,1 13.345,3.1c3.655,2 6.715,4.8 9.095,8.3l-7.905,9c-1.105,-1.9 -2.38,-3.4 -3.995,-4.7c-1.615,-1.2 -3.315,-2.1 -5.1,-2.7c-1.785,-0.6 -3.655,-0.9 -5.61,-0.9c-2.04,0 -3.57,0.4 -4.505,1.3c-1.02,0.9 -1.53,2 -1.53,3.3c0,1 0.425,1.9 1.275,2.8c0.85,0.8 2.21,1.6 3.995,2.2l7.48,2.6c3.91,1.3 6.885,3.1 8.84,5.4c2.04,2.3 3.06,5.4 3.06,9.3c0,4.1 -0.85,7.5 -2.635,10.3c-1.785,2.8 -4.165,4.9 -7.14,6.4c-2.975,1.4 -6.375,2.1 -10.03,2.1l-0.085,-0Z" style="fill:#231f20;fill-rule:nonzero;"/><path d="M186.126,82.434c-5.355,0 -9.775,-1.1 -13.175,-3.3c-3.4,-2.2 -5.78,-5.4 -7.055,-9.5c-1.275,-4.1 -1.36,-9.1 -0.255,-14.9l5.865,-29.1l14.45,0l-6.46,32.8c-0.68,3.4 -0.34,6.1 1.02,8c1.36,2 3.4,2.9 6.205,2.9c2.465,0 4.42,-0.8 5.865,-2.5c1.445,-1.7 2.465,-4.1 3.145,-7.3l6.715,-34l14.365,0l-6.97,35.6c-0.935,4.7 -2.465,8.6 -4.675,11.8c-2.21,3.2 -4.93,5.5 -8.16,7.1c-3.23,1.6 -6.8,2.4 -10.965,2.4l0.085,0Z" style="fill:#231f20;fill-rule:nonzero;"/><path d="M216.216,81.634l11.05,-56l17.935,0l2.465,25.3l1.02,12.8l0.255,0l5.185,-12.8l11.815,-25.3l20.57,0l-11.05,56l-13.005,0l4.335,-21.5l4.505,-19.5l-0.085,0l-20.145,41l-10.54,0l-3.91,-41l-0.085,0l-2.975,19.5l-4.335,21.5l-13.005,0Z" style="fill:#231f20;fill-rule:nonzero;"/><path d="M286.766,81.634l11.05,-56l39.865,0l-2.38,11.9l-25.67,0l-2.04,10.2l20.06,0l-2.21,11.4l-20.06,0l-2.04,10.6l26.265,0l-2.465,11.9l-40.375,0Zm33.915,-78.6l13.345,0l-10.71,16.3l-10.795,0l8.16,-16.3Z" style="fill:#231f20;fill-rule:nonzero;"/><path d="M3.035,81.634l13.005,-66l24.055,0c5.78,0 10.356,1.65 13.727,4.95c3.372,3.3 5.057,7.917 5.057,13.85c-0,4.8 -0.949,8.867 -2.847,12.2c-1.898,3.333 -4.462,5.917 -7.692,7.75c-3.23,1.833 -6.885,2.85 -10.965,3.05l-3.23,0.9l-13.43,0l2.38,-12.2l11.135,0c2.21,0 4.066,-0.433 5.567,-1.3c1.502,-0.867 2.649,-2.083 3.442,-3.65c0.793,-1.567 1.19,-3.283 1.19,-5.15c0,-2.6 -0.737,-4.483 -2.21,-5.65c-1.473,-1.167 -3.372,-1.75 -5.695,-1.75l-8.67,0l-10.455,53l-14.365,0Zm36.295,0l-9.18,-28.6l13.26,-2.4l10.71,31l-14.79,0Z" style="fill:#231f20;fill-rule:nonzero;"/></g></svg>