<?xml version="1.0" encoding="UTF-8" standalone="no"?><!DOCTYPE svg PUBLIC "-//W3C//DTD SVG 1.1//EN" "http://www.w3.org/Graphics/SVG/1.1/DTD/svg11.dtd"><svg width="100%" height="100%" viewBox="0 0 135 135" version="1.1" xmlns="http://www.w3.org/2000/svg" xmlns:xlink="http://www.w3.org/1999/xlink" xml:space="preserve" xmlns:serif="http://www.serif.com/" style="fill-rule:evenodd;clip-rule:evenodd;stroke-linecap:square;stroke-linejoin:round;stroke-miterlimit:2;"><rect id="logo" x="-83.267" y="-11.731" width="303.641" height="155.916" style="fill:none;"/><circle cx="68.553" cy="68.553" r="64.8" style="fill:#fff;"/><path d="M68.553,3.753c35.764,0 64.8,29.036 64.8,64.8c0,35.764 -29.036,64.8 -64.8,64.8c-35.764,0 -64.8,-29.036 -64.8,-64.8c0,-35.764 29.036,-64.8 64.8,-64.8Zm0,4c-33.556,0 -60.8,27.244 -60.8,60.8c0,33.556 27.244,60.8 60.8,60.8c33.556,0 60.8,-27.244 60.8,-60.8c0,-33.556 -27.244,-60.8 -60.8,-60.8Z" style="fill:#f4a81f;"/><path d="M67.353,2.553c35.764,0 64.8,29.036 64.8,64.8c0,35.764 -29.036,64.8 -64.8,64.8c-35.764,0 -64.8,-29.036 -64.8,-64.8c0,-35.764 29.036,-64.8 64.8,-64.8Zm0,4c-33.556,0 -60.8,27.244 -60.8,60.8c0,33.556 27.244,60.8 60.8,60.8c33.556,0 60.8,-27.244 60.8,-60.8c0,-33.556 -27.244,-60.8 -60.8,-60.8Z" style="fill:#f36d21;"/><path d="M66.033,0.633c36.095,0 65.4,29.305 65.4,65.4c0,36.095 -29.305,65.4 -65.4,65.4c-36.095,0 -65.4,-29.305 -65.4,-65.4c0,-36.095 29.305,-65.4 65.4,-65.4Zm0,4.666c-33.52,0 -60.734,27.214 -60.734,60.734c0,33.52 27.214,60.734 60.734,60.734c33.52,0 60.734,-27.214 60.734,-60.734c0,-33.52 -27.214,-60.734 -60.734,-60.734Z"/><path d="M66.008,1.207c35.765,0 64.801,29.036 64.801,64.801c0,35.765 -29.036,64.801 -64.801,64.801c-35.765,0 -64.801,-29.036 -64.801,-64.801c0,-35.765 29.036,-64.801 64.801,-64.801Zm0,4.666c-33.19,0 -60.135,26.946 -60.135,60.135c0,33.19 26.946,60.135 60.135,60.135c33.19,0 60.135,-26.946 60.135,-60.135c0,-33.19 -26.946,-60.135 -60.135,-60.135Z"/><path d="M66.153,1.353c35.764,0 64.8,29.036 64.8,64.8c0,35.764 -29.036,64.8 -64.8,64.8c-35.764,0 -64.8,-29.036 -64.8,-64.8c0,-35.764 29.036,-64.8 64.8,-64.8Zm0,4c-33.556,0 -60.8,27.244 -60.8,60.8c0,33.556 27.244,60.8 60.8,60.8c33.556,0 60.8,-27.244 60.8,-60.8c0,-33.556 -27.244,-60.8 -60.8,-60.8Z" style="fill:#fff;"/><g transform="matrix(0.199327,0,0,0.199327,-218.571517,-30.844518)"><g transform="matrix(172.472686,0,0,172.472686,1226.104077,420.855536)"><path d="M0,-0.667l0,0.167l0.5,0l0,0.5l0.167,-0l0,-0.5l0.5,0l0,-0.167l-1.167,0Z" style="fill:none;fill-rule:nonzero;stroke:#f4a81f;stroke-width:0.02px;"/></g><g transform="matrix(172.472686,0,0,172.472686,1441.579954,420.855536)"><path d="M0,-0.667l0,0.667l0.167,-0l0,-0.167l0.667,0l0,0.167l0.167,-0l0,-0.167l0.167,0l0,-0.5l-1.167,0Zm1,0.333l-0.833,0l0,-0.167l0.833,0l0,0.167Z" style="fill:none;fill-rule:nonzero;stroke:#f4a81f;stroke-width:0.02px;"/></g><g transform="matrix(172.472686,0,0,172.472686,1226.104077,550.1364)"><path d="M1.167,-0l0,-0.667l-0.167,0l0,0.5l-0.833,-0l0,-0.5l-0.167,0l0,0.667l1.167,-0Z" style="fill:none;fill-rule:nonzero;stroke:#f4a81f;stroke-width:0.02px;"/></g><g transform="matrix(172.472686,0,0,172.472686,1441.579954,550.1364)"><path d="M0,-0.667l0,0.667l1.167,-0l0,-0.167l-1,0l-0,-0.083l1,0l0,-0.167l-1,0l-0,-0.083l1,0l0,-0.167l-1.167,0Z" style="fill:none;fill-rule:nonzero;stroke:#f4a81f;stroke-width:0.02px;"/></g><g transform="matrix(172.472686,0,0,172.472686,1226.104077,679.417265)"><path d="M1,-0.667l0,0.25l-0.833,0l0,-0.25l-0.167,0l0,0.667l0.167,-0l0,-0.25l0.833,0l0,0.25l0.167,-0l0,-0.667l-0.167,0Z" style="fill:none;fill-rule:nonzero;stroke:#f4a81f;stroke-width:0.02px;"/></g><g transform="matrix(172.472686,0,0,172.472686,1441.579954,679.417265)"><path d="M1,-0.5l0.167,0l0,0.5l-1.167,-0l0,-0.667l1,0l0,0.167Zm0,0l-0.833,0l0,0.333l0.833,-0l0,-0.333Z" style="fill:none;fill-rule:nonzero;stroke:#f4a81f;stroke-width:0.02px;"/></g><g transform="matrix(172.472686,0,0,172.472686,1226.104077,420.855536)"><path d="M0,-0.667l0,0.167l0.5,0l0,0.5l0.167,-0l0,-0.5l0.5,0l0,-0.167l-1.167,0Z" style="fill:#f4a81f;fill-rule:nonzero;"/></g><g transform="matrix(172.472686,0,0,172.472686,1441.579954,420.855536)"><path d="M0,-0.667l0,0.667l0.167,-0l0,-0.167l0.667,0l0,0.167l0.167,-0l0,-0.167l0.167,0l0,-0.5l-1.167,0Zm1,0.333l-0.833,0l0,-0.167l0.833,0l0,0.167Z" style="fill:#f4a81f;fill-rule:nonzero;"/></g><g transform="matrix(172.472686,0,0,172.472686,1226.104077,550.1364)"><path d="M1.167,-0l0,-0.667l-0.167,0l0,0.5l-0.833,-0l0,-0.5l-0.167,0l0,0.667l1.167,-0Z" style="fill:#f4a81f;fill-rule:nonzero;"/></g><g transform="matrix(172.472686,0,0,172.472686,1441.579954,550.1364)"><path d="M0,-0.667l0,0.667l1.167,-0l0,-0.167l-1,0l-0,-0.083l1,0l0,-0.167l-1,0l-0,-0.083l1,0l0,-0.167l-1.167,0Z" style="fill:#f4a81f;fill-rule:nonzero;"/></g><g transform="matrix(172.472686,0,0,172.472686,1226.104077,679.417265)"><path d="M1,-0.667l0,0.25l-0.833,0l0,-0.25l-0.167,0l0,0.667l0.167,-0l0,-0.25l0.833,0l0,0.25l0.167,-0l0,-0.667l-0.167,0Z" style="fill:#f4a81f;fill-rule:nonzero;"/></g><g transform="matrix(172.472686,0,0,172.472686,1441.579954,679.417265)"><path d="M1,-0.5l0.167,0l0,0.5l-1.167,-0l0,-0.667l1,0l0,0.167Zm0,0l-0.833,0l0,0.333l0.833,-0l0,-0.333Z" style="fill:#f4a81f;fill-rule:nonzero;"/></g></g><g transform="matrix(0.199327,0,0,0.199327,-219.171517,-31.444518)"><g transform="matrix(172.472686,0,0,172.472686,1226.104077,420.855536)"><path d="M0,-0.667l0,0.167l0.5,0l0,0.5l0.167,-0l0,-0.5l0.5,0l0,-0.167l-1.167,0Z" style="fill:none;fill-rule:nonzero;stroke:#f36d21;stroke-width:0.02px;"/></g><g transform="matrix(172.472686,0,0,172.472686,1441.579954,420.855536)"><path d="M0,-0.667l0,0.667l0.167,-0l0,-0.167l0.667,0l0,0.167l0.167,-0l0,-0.167l0.167,0l0,-0.5l-1.167,0Zm1,0.333l-0.833,0l0,-0.167l0.833,0l0,0.167Z" style="fill:none;fill-rule:nonzero;stroke:#f36d21;stroke-width:0.02px;"/></g><g transform="matrix(172.472686,0,0,172.472686,1226.104077,550.1364)"><path d="M1.167,-0l0,-0.667l-0.167,0l0,0.5l-0.833,-0l0,-0.5l-0.167,0l0,0.667l1.167,-0Z" style="fill:none;fill-rule:nonzero;stroke:#f36d21;stroke-width:0.02px;"/></g><g transform="matrix(172.472686,0,0,172.472686,1441.579954,550.1364)"><path d="M0,-0.667l0,0.667l1.167,-0l0,-0.167l-1,0l-0,-0.083l1,0l0,-0.167l-1,0l-0,-0.083l1,0l0,-0.167l-1.167,0Z" style="fill:none;fill-rule:nonzero;stroke:#f36d21;stroke-width:0.02px;"/></g><g transform="matrix(172.472686,0,0,172.472686,1226.104077,679.417265)"><path d="M1,-0.667l0,0.25l-0.833,0l0,-0.25l-0.167,0l0,0.667l0.167,-0l0,-0.25l0.833,0l0,0.25l0.167,-0l0,-0.667l-0.167,0Z" style="fill:none;fill-rule:nonzero;stroke:#f36d21;stroke-width:0.02px;"/></g><g transform="matrix(172.472686,0,0,172.472686,1441.579954,679.417265)"><path d="M1,-0.5l0.167,0l0,0.5l-1.167,-0l0,-0.667l1,0l0,0.167Zm0,0l-0.833,0l0,0.333l0.833,-0l0,-0.333Z" style="fill:none;fill-rule:nonzero;stroke:#f36d21;stroke-width:0.02px;"/></g><g transform="matrix(172.472686,0,0,172.472686,1226.104077,420.855536)"><path d="M0,-0.667l0,0.167l0.5,0l0,0.5l0.167,-0l0,-0.5l0.5,0l0,-0.167l-1.167,0Z" style="fill:#f36d21;fill-rule:nonzero;"/></g><g transform="matrix(172.472686,0,0,172.472686,1441.579954,420.855536)"><path d="M0,-0.667l0,0.667l0.167,-0l0,-0.167l0.667,0l0,0.167l0.167,-0l0,-0.167l0.167,0l0,-0.5l-1.167,0Zm1,0.333l-0.833,0l0,-0.167l0.833,0l0,0.167Z" style="fill:#f36d21;fill-rule:nonzero;"/></g><g transform="matrix(172.472686,0,0,172.472686,1226.104077,550.1364)"><path d="M1.167,-0l0,-0.667l-0.167,0l0,0.5l-0.833,-0l0,-0.5l-0.167,0l0,0.667l1.167,-0Z" style="fill:#f36d21;fill-rule:nonzero;"/></g><g transform="matrix(172.472686,0,0,172.472686,1441.579954,550.1364)"><path d="M0,-0.667l0,0.667l1.167,-0l0,-0.167l-1,0l-0,-0.083l1,0l0,-0.167l-1,0l-0,-0.083l1,0l0,-0.167l-1.167,0Z" style="fill:#f36d21;fill-rule:nonzero;"/></g><g transform="matrix(172.472686,0,0,172.472686,1226.104077,679.417265)"><path d="M1,-0.667l0,0.25l-0.833,0l0,-0.25l-0.167,0l0,0.667l0.167,-0l0,-0.25l0.833,0l0,0.25l0.167,-0l0,-0.667l-0.167,0Z" style="fill:#f36d21;fill-rule:nonzero;"/></g><g transform="matrix(172.472686,0,0,172.472686,1441.579954,679.417265)"><path d="M1,-0.5l0.167,0l0,0.5l-1.167,-0l0,-0.667l1,0l0,0.167Zm0,0l-0.833,0l0,0.333l0.833,-0l0,-0.333Z" style="fill:#f36d21;fill-rule:nonzero;"/></g></g><g transform="matrix(0.199327,0,0,0.199327,-219.771517,-32.044518)"><g transform="matrix(172.472686,0,0,172.472686,1226.104077,420.855536)"><path d="M0,-0.667l0,0.167l0.5,0l0,0.5l0.167,-0l0,-0.5l0.5,0l0,-0.167l-1.167,0Z" style="fill:none;fill-rule:nonzero;stroke:#fff;stroke-width:0.02px;"/></g><g transform="matrix(172.472686,0,0,172.472686,1441.579954,420.855536)"><path d="M0,-0.667l0,0.667l0.167,-0l0,-0.167l0.667,0l0,0.167l0.167,-0l0,-0.167l0.167,0l0,-0.5l-1.167,0Zm1,0.333l-0.833,0l0,-0.167l0.833,0l0,0.167Z" style="fill:none;fill-rule:nonzero;stroke:#fff;stroke-width:0.02px;"/></g><g transform="matrix(172.472686,0,0,172.472686,1226.104077,550.1364)"><path d="M1.167,-0l0,-0.667l-0.167,0l0,0.5l-0.833,-0l0,-0.5l-0.167,0l0,0.667l1.167,-0Z" style="fill:none;fill-rule:nonzero;stroke:#fff;stroke-width:0.02px;"/></g><g transform="matrix(172.472686,0,0,172.472686,1441.579954,550.1364)"><path d="M0,-0.667l0,0.667l1.167,-0l0,-0.167l-1,0l-0,-0.083l1,0l0,-0.167l-1,0l-0,-0.083l1,0l0,-0.167l-1.167,0Z" style="fill:none;fill-rule:nonzero;stroke:#fff;stroke-width:0.02px;"/></g><g transform="matrix(172.472686,0,0,172.472686,1226.104077,679.417265)"><path d="M1,-0.667l0,0.25l-0.833,0l0,-0.25l-0.167,0l0,0.667l0.167,-0l0,-0.25l0.833,0l0,0.25l0.167,-0l0,-0.667l-0.167,0Z" style="fill:none;fill-rule:nonzero;stroke:#fff;stroke-width:0.02px;"/></g><g transform="matrix(172.472686,0,0,172.472686,1441.579954,679.417265)"><path d="M1,-0.5l0.167,0l0,0.5l-1.167,-0l0,-0.667l1,0l0,0.167Zm0,0l-0.833,0l0,0.333l0.833,-0l0,-0.333Z" style="fill:none;fill-rule:nonzero;stroke:#fff;stroke-width:0.02px;"/></g><g transform="matrix(172.472686,0,0,172.472686,1226.104077,420.855536)"><path d="M0,-0.667l0,0.167l0.5,0l0,0.5l0.167,-0l0,-0.5l0.5,0l0,-0.167l-1.167,0Z" style="fill-rule:nonzero;"/></g><g transform="matrix(172.472686,0,0,172.472686,1441.579954,420.855536)"><path d="M0,-0.667l0,0.667l0.167,-0l0,-0.167l0.667,0l0,0.167l0.167,-0l0,-0.167l0.167,0l0,-0.5l-1.167,0Zm1,0.333l-0.833,0l0,-0.167l0.833,0l0,0.167Z" style="fill-rule:nonzero;"/></g><g transform="matrix(172.472686,0,0,172.472686,1226.104077,550.1364)"><path d="M1.167,-0l0,-0.667l-0.167,0l0,0.5l-0.833,-0l0,-0.5l-0.167,0l0,0.667l1.167,-0Z" style="fill-rule:nonzero;"/></g><g transform="matrix(172.472686,0,0,172.472686,1441.579954,550.1364)"><path d="M0,-0.667l0,0.667l1.167,-0l0,-0.167l-1,0l-0,-0.083l1,0l0,-0.167l-1,0l-0,-0.083l1,0l0,-0.167l-1.167,0Z" style="fill-rule:nonzero;"/></g><g transform="matrix(172.472686,0,0,172.472686,1226.104077,679.417265)"><path d="M1,-0.667l0,0.25l-0.833,0l0,-0.25l-0.167,0l0,0.667l0.167,-0l0,-0.25l0.833,0l0,0.25l0.167,-0l0,-0.667l-0.167,0Z" style="fill-rule:nonzero;"/></g><g transform="matrix(172.472686,0,0,172.472686,1441.579954,679.417265)"><path d="M1,-0.5l0.167,0l0,0.5l-1.167,-0l0,-0.667l1,0l0,0.167Zm0,0l-0.833,0l0,0.333l0.833,-0l0,-0.333Z" style="fill-rule:nonzero;"/></g></g><circle cx="67.243" cy="67.243" r="67.243" style="fill:none;"/></svg>