<?xml version="1.0" encoding="UTF-8" standalone="no"?>
<!DOCTYPE svg PUBLIC "-//W3C//DTD SVG 1.1//EN" "http://www.w3.org/Graphics/SVG/1.1/DTD/svg11.dtd">
<svg width="100%" height="100%" viewBox="0 0 466 156" version="1.1" xmlns="http://www.w3.org/2000/svg" xmlns:xlink="http://www.w3.org/1999/xlink" xml:space="preserve" xmlns:serif="http://www.serif.com/" style="fill-rule:evenodd;clip-rule:evenodd;stroke-linejoin:round;stroke-miterlimit:2;">
    <g transform="matrix(1,0,0,1,-3985.414361,-3088.768515)">
        <g transform="matrix(0.938089,0,0,0.938089,-2064.928872,2367.03641)">
            <g transform="matrix(1,0,0,1,378.1015,629.544468)">
                <g transform="matrix(1.205672,0,0,1.411158,-4698.840124,-207.099944)">
                    <g transform="matrix(0.976024,0,0,1,214.039205,0)">
                        <g transform="matrix(151.081141,0,0,151.081141,9024.834146,357.692308)">
                            <path d="M0.302,-0.56L0.172,-0L0.011,-0L0.141,-0.56L0.302,-0.56Z" style="fill:none;fill-rule:nonzero;stroke:rgb(243,109,33);stroke-width:0.07px;"/>
                        </g>
                        <g transform="matrix(151.081141,0,0,151.081141,9024.834146,357.692308)">
                        </g>
                        <g transform="matrix(151.081141,0,0,151.081141,9069.403083,357.692308)">
                            <path d="M0.011,-0L0.141,-0.56L0.353,-0.56C0.408,-0.56 0.454,-0.55 0.493,-0.531C0.532,-0.512 0.561,-0.484 0.582,-0.449C0.602,-0.413 0.612,-0.37 0.612,-0.321C0.612,-0.257 0.599,-0.201 0.574,-0.152C0.549,-0.104 0.512,-0.067 0.465,-0.04C0.417,-0.013 0.359,-0 0.291,-0L0.011,-0ZM0.208,-0.127L0.283,-0.127C0.318,-0.127 0.348,-0.136 0.372,-0.153C0.396,-0.17 0.414,-0.193 0.426,-0.222C0.439,-0.25 0.445,-0.281 0.445,-0.315C0.445,-0.352 0.436,-0.381 0.419,-0.402C0.402,-0.423 0.374,-0.433 0.337,-0.433L0.279,-0.433L0.208,-0.127Z" style="fill:none;fill-rule:nonzero;stroke:rgb(243,109,33);stroke-width:0.07px;"/>
                        </g>
                        <g transform="matrix(151.081141,0,0,151.081141,9069.403083,357.692308)">
                        </g>
                        <g transform="matrix(151.081141,0,0,151.081141,9165.792851,357.692308)">
                            <path d="M0.01,-0L0.14,-0.56L0.609,-0.56L0.581,-0.441L0.279,-0.441L0.255,-0.339L0.491,-0.339L0.465,-0.225L0.229,-0.225L0.205,-0.119L0.514,-0.119L0.485,-0L0.01,-0Z" style="fill:none;fill-rule:nonzero;stroke:rgb(243,109,33);stroke-width:0.07px;"/>
                        </g>
                        <g transform="matrix(151.081141,0,0,151.081141,9164.244927,357.692308)">
                        </g>
                        <g transform="matrix(151.081141,0,0,151.081141,9250.814421,357.692308)">
                            <path d="M0.313,0.008C0.263,0.008 0.218,-0.002 0.177,-0.022C0.137,-0.041 0.105,-0.07 0.081,-0.107C0.057,-0.144 0.045,-0.189 0.045,-0.242C0.045,-0.289 0.052,-0.333 0.066,-0.372C0.079,-0.411 0.099,-0.446 0.126,-0.476C0.153,-0.505 0.186,-0.528 0.225,-0.544C0.264,-0.561 0.31,-0.569 0.361,-0.569C0.411,-0.569 0.456,-0.559 0.496,-0.539C0.537,-0.519 0.569,-0.49 0.593,-0.453C0.616,-0.416 0.628,-0.371 0.628,-0.318C0.628,-0.272 0.621,-0.229 0.608,-0.189C0.594,-0.149 0.574,-0.114 0.547,-0.085C0.52,-0.056 0.487,-0.033 0.449,-0.017C0.409,-0 0.364,0.008 0.313,0.008ZM0.317,-0.121C0.342,-0.121 0.363,-0.127 0.382,-0.14C0.4,-0.152 0.415,-0.168 0.427,-0.189C0.439,-0.209 0.448,-0.231 0.454,-0.255C0.459,-0.279 0.462,-0.302 0.462,-0.325C0.462,-0.35 0.458,-0.371 0.449,-0.389C0.44,-0.406 0.428,-0.418 0.412,-0.427C0.396,-0.436 0.377,-0.44 0.356,-0.44C0.331,-0.44 0.31,-0.434 0.291,-0.421C0.273,-0.409 0.258,-0.393 0.246,-0.372C0.234,-0.352 0.225,-0.33 0.219,-0.306C0.213,-0.282 0.21,-0.259 0.21,-0.236C0.21,-0.211 0.214,-0.19 0.224,-0.173C0.233,-0.155 0.245,-0.143 0.261,-0.134C0.277,-0.125 0.296,-0.121 0.317,-0.121Z" style="fill:none;fill-rule:nonzero;stroke:rgb(243,109,33);stroke-width:0.07px;"/>
                        </g>
                        <g transform="matrix(151.081141,0,0,151.081141,9250.814421,357.692308)">
                        </g>
                        <g transform="matrix(151.081141,0,0,151.081141,9349.772568,357.692308)">
                        </g>
                        <text x="8927.321px" y="357.692px" style="font-family:'WorkSans-BoldItalic', 'Work Sans';font-weight:700;font-style:italic;font-size:151.081px;fill:none;stroke:rgb(243,109,33);stroke-width:9.96px;">V</text>
                    </g>
                    <g transform="matrix(0.976024,0,0,1,214.039205,0)">
                        <g transform="matrix(151.081141,0,0,151.081141,9024.834146,357.692308)">
                            <path d="M0.302,-0.56L0.172,-0L0.011,-0L0.141,-0.56L0.302,-0.56Z" style="fill:rgb(243,109,33);fill-rule:nonzero;"/>
                        </g>
                        <g transform="matrix(151.081141,0,0,151.081141,9024.834146,357.692308)">
                        </g>
                        <g transform="matrix(151.081141,0,0,151.081141,9069.403083,357.692308)">
                            <path d="M0.011,-0L0.141,-0.56L0.353,-0.56C0.408,-0.56 0.454,-0.55 0.493,-0.531C0.532,-0.512 0.561,-0.484 0.582,-0.449C0.602,-0.413 0.612,-0.37 0.612,-0.321C0.612,-0.257 0.599,-0.201 0.574,-0.152C0.549,-0.104 0.512,-0.067 0.465,-0.04C0.417,-0.013 0.359,-0 0.291,-0L0.011,-0ZM0.208,-0.127L0.283,-0.127C0.318,-0.127 0.348,-0.136 0.372,-0.153C0.396,-0.17 0.414,-0.193 0.426,-0.222C0.439,-0.25 0.445,-0.281 0.445,-0.315C0.445,-0.352 0.436,-0.381 0.419,-0.402C0.402,-0.423 0.374,-0.433 0.337,-0.433L0.279,-0.433L0.208,-0.127Z" style="fill:rgb(243,109,33);fill-rule:nonzero;"/>
                        </g>
                        <g transform="matrix(151.081141,0,0,151.081141,9069.403083,357.692308)">
                        </g>
                        <g transform="matrix(151.081141,0,0,151.081141,9165.792851,357.692308)">
                            <path d="M0.01,-0L0.14,-0.56L0.609,-0.56L0.581,-0.441L0.279,-0.441L0.255,-0.339L0.491,-0.339L0.465,-0.225L0.229,-0.225L0.205,-0.119L0.514,-0.119L0.485,-0L0.01,-0Z" style="fill:rgb(243,109,33);fill-rule:nonzero;"/>
                        </g>
                        <g transform="matrix(151.081141,0,0,151.081141,9164.244927,357.692308)">
                        </g>
                        <g transform="matrix(151.081141,0,0,151.081141,9250.814421,357.692308)">
                            <path d="M0.313,0.008C0.263,0.008 0.218,-0.002 0.177,-0.022C0.137,-0.041 0.105,-0.07 0.081,-0.107C0.057,-0.144 0.045,-0.189 0.045,-0.242C0.045,-0.289 0.052,-0.333 0.066,-0.372C0.079,-0.411 0.099,-0.446 0.126,-0.476C0.153,-0.505 0.186,-0.528 0.225,-0.544C0.264,-0.561 0.31,-0.569 0.361,-0.569C0.411,-0.569 0.456,-0.559 0.496,-0.539C0.537,-0.519 0.569,-0.49 0.593,-0.453C0.616,-0.416 0.628,-0.371 0.628,-0.318C0.628,-0.272 0.621,-0.229 0.608,-0.189C0.594,-0.149 0.574,-0.114 0.547,-0.085C0.52,-0.056 0.487,-0.033 0.449,-0.017C0.409,-0 0.364,0.008 0.313,0.008ZM0.317,-0.121C0.342,-0.121 0.363,-0.127 0.382,-0.14C0.4,-0.152 0.415,-0.168 0.427,-0.189C0.439,-0.209 0.448,-0.231 0.454,-0.255C0.459,-0.279 0.462,-0.302 0.462,-0.325C0.462,-0.35 0.458,-0.371 0.449,-0.389C0.44,-0.406 0.428,-0.418 0.412,-0.427C0.396,-0.436 0.377,-0.44 0.356,-0.44C0.331,-0.44 0.31,-0.434 0.291,-0.421C0.273,-0.409 0.258,-0.393 0.246,-0.372C0.234,-0.352 0.225,-0.33 0.219,-0.306C0.213,-0.282 0.21,-0.259 0.21,-0.236C0.21,-0.211 0.214,-0.19 0.224,-0.173C0.233,-0.155 0.245,-0.143 0.261,-0.134C0.277,-0.125 0.296,-0.121 0.317,-0.121Z" style="fill:rgb(243,109,33);fill-rule:nonzero;"/>
                        </g>
                        <g transform="matrix(151.081141,0,0,151.081141,9250.814421,357.692308)">
                        </g>
                        <g transform="matrix(151.081141,0,0,151.081141,9349.772568,357.692308)">
                        </g>
                        <text x="8927.321px" y="357.692px" style="font-family:'WorkSans-BoldItalic', 'Work Sans';font-weight:700;font-style:italic;font-size:151.081px;fill:rgb(243,109,33);">V</text>
                    </g>
                </g>
                <g transform="matrix(1.22895,0,0,1.411158,-4911.514667,-217.759915)">
                    <g transform="matrix(0.976024,0,0,1,214.039205,0)">
                        <g transform="matrix(151.081141,0,0,151.081141,9024.834146,357.692308)">
                            <path d="M0.302,-0.56L0.172,-0L0.011,-0L0.141,-0.56L0.302,-0.56Z" style="fill:none;fill-rule:nonzero;stroke:white;stroke-width:0.07px;"/>
                        </g>
                        <g transform="matrix(151.081141,0,0,151.081141,9024.834146,357.692308)">
                        </g>
                        <g transform="matrix(151.081141,0,0,151.081141,9069.403083,357.692308)">
                            <path d="M0.011,-0L0.141,-0.56L0.353,-0.56C0.408,-0.56 0.454,-0.55 0.493,-0.531C0.532,-0.512 0.561,-0.484 0.582,-0.449C0.602,-0.413 0.612,-0.37 0.612,-0.321C0.612,-0.257 0.599,-0.201 0.574,-0.152C0.549,-0.104 0.512,-0.067 0.465,-0.04C0.417,-0.013 0.359,-0 0.291,-0L0.011,-0ZM0.208,-0.127L0.283,-0.127C0.318,-0.127 0.348,-0.136 0.372,-0.153C0.396,-0.17 0.414,-0.193 0.426,-0.222C0.439,-0.25 0.445,-0.281 0.445,-0.315C0.445,-0.352 0.436,-0.381 0.419,-0.402C0.402,-0.423 0.374,-0.433 0.337,-0.433L0.279,-0.433L0.208,-0.127Z" style="fill:none;fill-rule:nonzero;stroke:white;stroke-width:0.07px;"/>
                        </g>
                        <g transform="matrix(151.081141,0,0,151.081141,9069.403083,357.692308)">
                        </g>
                        <g transform="matrix(151.081141,0,0,151.081141,9165.792851,357.692308)">
                            <path d="M0.01,-0L0.14,-0.56L0.609,-0.56L0.581,-0.441L0.279,-0.441L0.255,-0.339L0.491,-0.339L0.465,-0.225L0.229,-0.225L0.205,-0.119L0.514,-0.119L0.485,-0L0.01,-0Z" style="fill:none;fill-rule:nonzero;stroke:white;stroke-width:0.07px;"/>
                        </g>
                        <g transform="matrix(151.081141,0,0,151.081141,9164.244927,357.692308)">
                        </g>
                        <g transform="matrix(151.081141,0,0,151.081141,9250.814421,357.692308)">
                            <path d="M0.313,0.008C0.263,0.008 0.218,-0.002 0.177,-0.022C0.137,-0.041 0.105,-0.07 0.081,-0.107C0.057,-0.144 0.045,-0.189 0.045,-0.242C0.045,-0.289 0.052,-0.333 0.066,-0.372C0.079,-0.411 0.099,-0.446 0.126,-0.476C0.153,-0.505 0.186,-0.528 0.225,-0.544C0.264,-0.561 0.31,-0.569 0.361,-0.569C0.411,-0.569 0.456,-0.559 0.496,-0.539C0.537,-0.519 0.569,-0.49 0.593,-0.453C0.616,-0.416 0.628,-0.371 0.628,-0.318C0.628,-0.272 0.621,-0.229 0.608,-0.189C0.594,-0.149 0.574,-0.114 0.547,-0.085C0.52,-0.056 0.487,-0.033 0.449,-0.017C0.409,-0 0.364,0.008 0.313,0.008ZM0.317,-0.121C0.342,-0.121 0.363,-0.127 0.382,-0.14C0.4,-0.152 0.415,-0.168 0.427,-0.189C0.439,-0.209 0.448,-0.231 0.454,-0.255C0.459,-0.279 0.462,-0.302 0.462,-0.325C0.462,-0.35 0.458,-0.371 0.449,-0.389C0.44,-0.406 0.428,-0.418 0.412,-0.427C0.396,-0.436 0.377,-0.44 0.356,-0.44C0.331,-0.44 0.31,-0.434 0.291,-0.421C0.273,-0.409 0.258,-0.393 0.246,-0.372C0.234,-0.352 0.225,-0.33 0.219,-0.306C0.213,-0.282 0.21,-0.259 0.21,-0.236C0.21,-0.211 0.214,-0.19 0.224,-0.173C0.233,-0.155 0.245,-0.143 0.261,-0.134C0.277,-0.125 0.296,-0.121 0.317,-0.121Z" style="fill:none;fill-rule:nonzero;stroke:white;stroke-width:0.07px;"/>
                        </g>
                        <g transform="matrix(151.081141,0,0,151.081141,9250.814421,357.692308)">
                        </g>
                        <g transform="matrix(151.081141,0,0,151.081141,9349.772568,357.692308)">
                        </g>
                        <text x="8927.321px" y="357.692px" style="font-family:'WorkSans-BoldItalic', 'Work Sans';font-weight:700;font-style:italic;font-size:151.081px;fill:none;stroke:white;stroke-width:9.88px;">V</text>
                    </g>
                    <g transform="matrix(0.976024,0,0,1,214.039205,0)">
                        <g transform="matrix(151.081141,0,0,151.081141,9024.834146,357.692308)">
                            <path d="M0.302,-0.56L0.172,-0L0.011,-0L0.141,-0.56L0.302,-0.56Z" style="fill:rgb(35,31,32);fill-rule:nonzero;"/>
                        </g>
                        <g transform="matrix(151.081141,0,0,151.081141,9024.834146,357.692308)">
                        </g>
                        <g transform="matrix(151.081141,0,0,151.081141,9069.403083,357.692308)">
                            <path d="M0.011,-0L0.141,-0.56L0.353,-0.56C0.408,-0.56 0.454,-0.55 0.493,-0.531C0.532,-0.512 0.561,-0.484 0.582,-0.449C0.602,-0.413 0.612,-0.37 0.612,-0.321C0.612,-0.257 0.599,-0.201 0.574,-0.152C0.549,-0.104 0.512,-0.067 0.465,-0.04C0.417,-0.013 0.359,-0 0.291,-0L0.011,-0ZM0.208,-0.127L0.283,-0.127C0.318,-0.127 0.348,-0.136 0.372,-0.153C0.396,-0.17 0.414,-0.193 0.426,-0.222C0.439,-0.25 0.445,-0.281 0.445,-0.315C0.445,-0.352 0.436,-0.381 0.419,-0.402C0.402,-0.423 0.374,-0.433 0.337,-0.433L0.279,-0.433L0.208,-0.127Z" style="fill:rgb(35,31,32);fill-rule:nonzero;"/>
                        </g>
                        <g transform="matrix(151.081141,0,0,151.081141,9069.403083,357.692308)">
                        </g>
                        <g transform="matrix(151.081141,0,0,151.081141,9165.792851,357.692308)">
                            <path d="M0.01,-0L0.14,-0.56L0.609,-0.56L0.581,-0.441L0.279,-0.441L0.255,-0.339L0.491,-0.339L0.465,-0.225L0.229,-0.225L0.205,-0.119L0.514,-0.119L0.485,-0L0.01,-0Z" style="fill:rgb(35,31,32);fill-rule:nonzero;"/>
                        </g>
                        <g transform="matrix(151.081141,0,0,151.081141,9164.244927,357.692308)">
                        </g>
                        <g transform="matrix(151.081141,0,0,151.081141,9250.814421,357.692308)">
                            <path d="M0.313,0.008C0.263,0.008 0.218,-0.002 0.177,-0.022C0.137,-0.041 0.105,-0.07 0.081,-0.107C0.057,-0.144 0.045,-0.189 0.045,-0.242C0.045,-0.289 0.052,-0.333 0.066,-0.372C0.079,-0.411 0.099,-0.446 0.126,-0.476C0.153,-0.505 0.186,-0.528 0.225,-0.544C0.264,-0.561 0.31,-0.569 0.361,-0.569C0.411,-0.569 0.456,-0.559 0.496,-0.539C0.537,-0.519 0.569,-0.49 0.593,-0.453C0.616,-0.416 0.628,-0.371 0.628,-0.318C0.628,-0.272 0.621,-0.229 0.608,-0.189C0.594,-0.149 0.574,-0.114 0.547,-0.085C0.52,-0.056 0.487,-0.033 0.449,-0.017C0.409,-0 0.364,0.008 0.313,0.008ZM0.317,-0.121C0.342,-0.121 0.363,-0.127 0.382,-0.14C0.4,-0.152 0.415,-0.168 0.427,-0.189C0.439,-0.209 0.448,-0.231 0.454,-0.255C0.459,-0.279 0.462,-0.302 0.462,-0.325C0.462,-0.35 0.458,-0.371 0.449,-0.389C0.44,-0.406 0.428,-0.418 0.412,-0.427C0.396,-0.436 0.377,-0.44 0.356,-0.44C0.331,-0.44 0.31,-0.434 0.291,-0.421C0.273,-0.409 0.258,-0.393 0.246,-0.372C0.234,-0.352 0.225,-0.33 0.219,-0.306C0.213,-0.282 0.21,-0.259 0.21,-0.236C0.21,-0.211 0.214,-0.19 0.224,-0.173C0.233,-0.155 0.245,-0.143 0.261,-0.134C0.277,-0.125 0.296,-0.121 0.317,-0.121Z" style="fill:rgb(35,31,32);fill-rule:nonzero;"/>
                        </g>
                        <g transform="matrix(151.081141,0,0,151.081141,9250.814421,357.692308)">
                        </g>
                        <g transform="matrix(151.081141,0,0,151.081141,9349.772568,357.692308)">
                        </g>
                        <text x="8927.321px" y="357.692px" style="font-family:'WorkSans-BoldItalic', 'Work Sans';font-weight:700;font-style:italic;font-size:151.081px;fill:rgb(35,31,32);">V</text>
                    </g>
                </g>
            </g>
        </g>
    </g>
</svg>
