<?xml version="1.0" encoding="UTF-8" standalone="no"?><!DOCTYPE svg PUBLIC "-//W3C//DTD SVG 1.1//EN" "http://www.w3.org/Graphics/SVG/1.1/DTD/svg11.dtd"><svg width="100%" height="100%" viewBox="0 0 466 156" version="1.1" xmlns="http://www.w3.org/2000/svg" xmlns:xlink="http://www.w3.org/1999/xlink" xml:space="preserve" xmlns:serif="http://www.serif.com/" style="fill-rule:evenodd;clip-rule:evenodd;stroke-linejoin:round;stroke-miterlimit:2;"><g><path d="M151.477,36.069l-21.681,112l-26.852,0l21.681,-112l26.852,0Z" style="fill:#f36d21;fill-rule:nonzero;stroke:#f36d21;stroke-width:12.89px;"/><path d="M150.047,148.069l21.681,-112l35.357,0c9.173,0 16.845,2 23.349,5.8c6.504,3.8 11.341,9.4 14.843,16.4c3.336,7.2 5.003,15.8 5.003,25.6c0,12.8 -2.168,24 -6.338,33.8c-4.17,9.6 -10.34,17 -18.179,22.4c-8.005,5.4 -17.679,8 -29.02,8l-46.698,0Zm32.856,-25.4l12.509,0c5.837,0 10.841,-1.8 14.843,-5.2c4.003,-3.4 7.005,-8 9.006,-13.8c2.168,-5.6 3.169,-11.8 3.169,-18.6c0,-7.4 -1.501,-13.2 -4.336,-17.4c-2.835,-4.2 -7.505,-6.2 -13.676,-6.2l-9.673,0l-11.841,61.2Z" style="fill:#f36d21;fill-rule:nonzero;stroke:#f36d21;stroke-width:12.89px;"/><path d="M256.286,148.069l21.681,-112l78.22,0l-4.67,23.8l-50.368,0l-4.003,20.4l39.36,0l-4.336,22.8l-39.36,0l-4.003,21.2l51.535,0l-4.837,23.8l-79.221,0Z" style="fill:#f36d21;fill-rule:nonzero;stroke:#f36d21;stroke-width:12.89px;"/><path d="M402.773,149.669c-8.339,0 -15.844,-2 -22.682,-6c-6.671,-3.8 -12.008,-9.6 -16.011,-17c-4.003,-7.4 -6.004,-16.4 -6.004,-27c0,-9.4 1.167,-18.2 3.502,-26c2.168,-7.8 5.504,-14.8 10.007,-20.8c4.503,-5.8 10.007,-10.4 16.511,-13.6c6.504,-3.4 14.176,-5 22.682,-5c8.339,0 15.844,2 22.515,6c6.838,4 12.175,9.8 16.178,17.2c3.836,7.4 5.837,16.4 5.837,27c0,9.2 -1.167,17.8 -3.336,25.8c-2.335,8 -5.671,15 -10.174,20.8c-4.503,5.8 -10.007,10.4 -16.344,13.6c-6.671,3.4 -14.176,5 -22.682,5Zm0.667,-25.8c4.17,0 7.672,-1.2 10.841,-3.8c3.002,-2.4 5.504,-5.6 7.505,-9.8c2.001,-4 3.502,-8.4 4.503,-13.2c0.834,-4.8 1.334,-9.4 1.334,-14c0,-5 -0.667,-9.2 -2.168,-12.8c-1.501,-3.4 -3.502,-5.8 -6.171,-7.6c-2.668,-1.8 -5.837,-2.6 -9.34,-2.6c-4.17,0 -7.672,1.2 -10.841,3.8c-3.002,2.4 -5.504,5.6 -7.505,9.8c-2.001,4 -3.502,8.4 -4.503,13.2c-1.001,4.8 -1.501,9.4 -1.501,14c0,5 0.667,9.2 2.335,12.6c1.501,3.6 3.502,6 6.171,7.8c2.668,1.8 5.837,2.6 9.34,2.6Z" style="fill:#f36d21;fill-rule:nonzero;stroke:#f36d21;stroke-width:12.89px;"/><path d="M119.549,16.068l-63.376,132l-33.69,0l-12.175,-132l27.352,0l5.003,79l1.001,26l10.007,-25.8l36.525,-79.2l29.353,0Z" style="fill:#f36d21;fill-rule:nonzero;stroke:#f36d21;stroke-width:12.14px;"/><path d="M149.964,26.069l-22.1,112l-27.37,0l22.1,-112l27.37,0Z" style="fill:none;fill-rule:nonzero;stroke:#fff;stroke-width:12.99px;"/><path d="M148.547,138.069l22.1,-112l36.04,0c9.35,0 17.17,2 23.8,5.8c6.63,3.8 11.56,9.4 15.13,16.4c3.4,7.2 5.1,15.8 5.1,25.6c0,12.8 -2.21,24 -6.46,33.8c-4.25,9.6 -10.54,17 -18.53,22.4c-8.16,5.4 -18.02,8 -29.58,8l-47.6,0Zm33.49,-25.4l12.75,0c5.95,0 11.05,-1.8 15.13,-5.2c4.08,-3.4 7.14,-8 9.18,-13.8c2.21,-5.6 3.23,-11.8 3.23,-18.6c0,-7.4 -1.53,-13.2 -4.42,-17.4c-2.89,-4.2 -7.65,-6.2 -13.94,-6.2l-9.86,0l-12.07,61.2Z" style="fill:none;fill-rule:nonzero;stroke:#fff;stroke-width:12.99px;"/><path d="M256.837,138.069l22.1,-112l79.73,0l-4.76,23.8l-51.34,0l-4.08,20.4l40.12,0l-4.42,22.8l-40.12,0l-4.08,21.2l52.53,0l-4.93,23.8l-80.75,0Z" style="fill:none;fill-rule:nonzero;stroke:#fff;stroke-width:12.99px;"/><path d="M406.113,139.669c-8.5,0 -16.15,-2 -23.12,-6c-6.8,-3.8 -12.24,-9.6 -16.32,-17c-4.08,-7.4 -6.12,-16.4 -6.12,-27c0,-9.4 1.19,-18.2 3.57,-26c2.21,-7.8 5.61,-14.8 10.2,-20.8c4.59,-5.8 10.2,-10.4 16.83,-13.6c6.63,-3.4 14.45,-5 23.12,-5c8.5,0 16.15,2 22.95,6c6.97,4 12.41,9.8 16.49,17.2c3.91,7.4 5.95,16.4 5.95,27c0,9.2 -1.19,17.8 -3.4,25.8c-2.38,8 -5.78,15 -10.37,20.8c-4.59,5.8 -10.2,10.4 -16.66,13.6c-6.8,3.4 -14.45,5 -23.12,5Zm0.68,-25.8c4.25,0 7.82,-1.2 11.05,-3.8c3.06,-2.4 5.61,-5.6 7.65,-9.8c2.04,-4 3.57,-8.4 4.59,-13.2c0.85,-4.8 1.36,-9.4 1.36,-14c0,-5 -0.68,-9.2 -2.21,-12.8c-1.53,-3.4 -3.57,-5.8 -6.29,-7.6c-2.72,-1.8 -5.95,-2.6 -9.52,-2.6c-4.25,0 -7.82,1.2 -11.05,3.8c-3.06,2.4 -5.61,5.6 -7.65,9.8c-2.04,4 -3.57,8.4 -4.59,13.2c-1.02,4.8 -1.53,9.4 -1.53,14c0,5 0.68,9.2 2.38,12.6c1.53,3.6 3.57,6 6.29,7.8c2.72,1.8 5.95,2.6 9.52,2.6Z" style="fill:none;fill-rule:nonzero;stroke:#fff;stroke-width:12.99px;"/><path d="M117.42,6.068l-64.6,132l-34.34,0l-12.41,-132l27.88,0l5.1,79l1.02,26l10.2,-25.8l37.23,-79.2l29.92,0Z" style="fill:none;fill-rule:nonzero;stroke:#fff;stroke-width:12.14px;"/><path d="M149.964,26.069l-22.1,112l-27.37,0l22.1,-112l27.37,0Z" style="fill:#231f20;fill-rule:nonzero;"/><path d="M148.547,138.069l22.1,-112l36.04,0c9.35,0 17.17,2 23.8,5.8c6.63,3.8 11.56,9.4 15.13,16.4c3.4,7.2 5.1,15.8 5.1,25.6c0,12.8 -2.21,24 -6.46,33.8c-4.25,9.6 -10.54,17 -18.53,22.4c-8.16,5.4 -18.02,8 -29.58,8l-47.6,0Zm33.49,-25.4l12.75,0c5.95,0 11.05,-1.8 15.13,-5.2c4.08,-3.4 7.14,-8 9.18,-13.8c2.21,-5.6 3.23,-11.8 3.23,-18.6c0,-7.4 -1.53,-13.2 -4.42,-17.4c-2.89,-4.2 -7.65,-6.2 -13.94,-6.2l-9.86,0l-12.07,61.2Z" style="fill:#231f20;fill-rule:nonzero;"/><path d="M256.837,138.069l22.1,-112l79.73,0l-4.76,23.8l-51.34,0l-4.08,20.4l40.12,0l-4.42,22.8l-40.12,0l-4.08,21.2l52.53,0l-4.93,23.8l-80.75,0Z" style="fill:#231f20;fill-rule:nonzero;"/><path d="M406.113,139.669c-8.5,0 -16.15,-2 -23.12,-6c-6.8,-3.8 -12.24,-9.6 -16.32,-17c-4.08,-7.4 -6.12,-16.4 -6.12,-27c0,-9.4 1.19,-18.2 3.57,-26c2.21,-7.8 5.61,-14.8 10.2,-20.8c4.59,-5.8 10.2,-10.4 16.83,-13.6c6.63,-3.4 14.45,-5 23.12,-5c8.5,0 16.15,2 22.95,6c6.97,4 12.41,9.8 16.49,17.2c3.91,7.4 5.95,16.4 5.95,27c0,9.2 -1.19,17.8 -3.4,25.8c-2.38,8 -5.78,15 -10.37,20.8c-4.59,5.8 -10.2,10.4 -16.66,13.6c-6.8,3.4 -14.45,5 -23.12,5Zm0.68,-25.8c4.25,0 7.82,-1.2 11.05,-3.8c3.06,-2.4 5.61,-5.6 7.65,-9.8c2.04,-4 3.57,-8.4 4.59,-13.2c0.85,-4.8 1.36,-9.4 1.36,-14c0,-5 -0.68,-9.2 -2.21,-12.8c-1.53,-3.4 -3.57,-5.8 -6.29,-7.6c-2.72,-1.8 -5.95,-2.6 -9.52,-2.6c-4.25,0 -7.82,1.2 -11.05,3.8c-3.06,2.4 -5.61,5.6 -7.65,9.8c-2.04,4 -3.57,8.4 -4.59,13.2c-1.02,4.8 -1.53,9.4 -1.53,14c0,5 0.68,9.2 2.38,12.6c1.53,3.6 3.57,6 6.29,7.8c2.72,1.8 5.95,2.6 9.52,2.6Z" style="fill:#231f20;fill-rule:nonzero;"/><path d="M117.42,6.068l-64.6,132l-34.34,0l-12.41,-132l27.88,0l5.1,79l1.02,26l10.2,-25.8l37.23,-79.2l29.92,0Z" style="fill:#231f20;fill-rule:nonzero;"/></g></svg>