<?xml version="1.0" encoding="UTF-8" standalone="no"?>
<!DOCTYPE svg PUBLIC "-//W3C//DTD SVG 1.1//EN" "http://www.w3.org/Graphics/SVG/1.1/DTD/svg11.dtd">
<svg width="100%" height="100%" viewBox="0 0 497 541" version="1.1" xmlns="http://www.w3.org/2000/svg" xmlns:xlink="http://www.w3.org/1999/xlink" xml:space="preserve" xmlns:serif="http://www.serif.com/" style="fill-rule:evenodd;clip-rule:evenodd;stroke-linejoin:round;stroke-miterlimit:2;">
    <g transform="matrix(1,0,0,1,-3492.108966,-3264.65775)">
        <g transform="matrix(1,0,0,1,-2569.327827,0)">
            <g transform="matrix(1.658991,0,0,1.880485,291.249013,-2844.481756)">
                <path d="M3763.358,3344.424L3763.358,3456.14C3763.358,3500.165 3722.844,3535.907 3672.942,3535.907L3582.525,3535.907C3532.623,3535.907 3492.109,3500.165 3492.109,3456.14L3492.109,3344.424C3492.109,3300.4 3532.623,3264.658 3582.525,3264.658L3672.942,3264.658C3722.844,3264.658 3763.358,3300.4 3763.358,3344.424Z" style="fill:rgb(35,31,32);"/>
                <path d="M3763.358,3344.424L3763.358,3456.14C3763.358,3500.165 3722.844,3535.907 3672.942,3535.907L3582.525,3535.907C3532.623,3535.907 3492.109,3500.165 3492.109,3456.14L3492.109,3344.424C3492.109,3300.4 3532.623,3264.658 3582.525,3264.658L3672.942,3264.658C3722.844,3264.658 3763.358,3300.4 3763.358,3344.424ZM3743.266,3344.424C3743.266,3310.183 3711.755,3282.384 3672.942,3282.384L3582.525,3282.384C3543.713,3282.384 3512.202,3310.183 3512.202,3344.424L3512.202,3456.14C3512.202,3490.382 3543.713,3518.181 3582.525,3518.181L3672.942,3518.181C3711.755,3518.181 3743.266,3490.382 3743.266,3456.14L3743.266,3344.424Z" style="fill:rgb(35,31,32);"/>
            </g>
            <g transform="matrix(1.829965,0,0,1.880485,-329.001252,-2874.481756)">
                <path d="M3763.358,3344.424L3763.358,3456.14C3763.358,3500.165 3726.629,3535.907 3681.389,3535.907L3574.078,3535.907C3528.838,3535.907 3492.109,3500.165 3492.109,3456.14L3492.109,3344.424C3492.109,3300.4 3528.838,3264.658 3574.078,3264.658L3681.389,3264.658C3726.629,3264.658 3763.358,3300.4 3763.358,3344.424Z" style="fill:rgb(243,109,33);"/>
                <path d="M3763.358,3344.424L3763.358,3456.14C3763.358,3500.165 3726.629,3535.907 3681.389,3535.907L3574.078,3535.907C3528.838,3535.907 3492.109,3500.165 3492.109,3456.14L3492.109,3344.424C3492.109,3300.4 3528.838,3264.658 3574.078,3264.658L3681.389,3264.658C3726.629,3264.658 3763.358,3300.4 3763.358,3344.424ZM3745.143,3344.424C3745.143,3310.183 3716.576,3282.384 3681.389,3282.384L3574.078,3282.384C3538.891,3282.384 3510.324,3310.183 3510.324,3344.424L3510.324,3456.14C3510.324,3490.382 3538.891,3518.181 3574.078,3518.181L3681.389,3518.181C3716.576,3518.181 3745.143,3490.382 3745.143,3456.14L3745.143,3344.424Z" style="fill:rgb(243,109,33);"/>
            </g>
            <g>
                <g transform="matrix(0.897125,0,0,1,2967.165515,256.880048)">
                    <path d="M3581.516,3377.434L3684.628,3264.392L3637.691,3165.26C3635.916,3161.511 3636.355,3157.214 3638.86,3153.817C3641.366,3150.421 3645.603,3148.378 3650.143,3148.378L3707.498,3148.378C3713.133,3148.378 3718.179,3151.512 3720.162,3156.244L3741.67,3207.577L3788.208,3153.129C3790.769,3150.134 3794.737,3148.378 3798.944,3148.378L3859.508,3148.378C3864.728,3148.378 3869.482,3151.072 3871.725,3155.301C3873.967,3159.53 3873.298,3164.539 3870.004,3168.173L3774.081,3273.992L3824.625,3380.361C3826.407,3384.11 3825.972,3388.411 3823.467,3391.812C3820.963,3395.212 3816.723,3397.258 3812.18,3397.258L3754.825,3397.258C3749.317,3397.258 3744.359,3394.262 3742.288,3389.683L3716.982,3333.711L3665.61,3392.601C3663.046,3395.54 3659.117,3397.258 3654.956,3397.258L3591.986,3397.258C3586.759,3397.258 3581.999,3394.556 3579.76,3390.318C3577.522,3386.079 3578.205,3381.064 3581.516,3377.434ZM3591.986,3385.121L3654.956,3385.121L3720.733,3309.717L3754.825,3385.121L3812.18,3385.121L3758.435,3272.016L3859.508,3160.515L3798.944,3160.515L3737.579,3232.309L3707.498,3160.515L3650.143,3160.515L3700.278,3266.4L3591.986,3385.121Z" style="fill:rgb(243,109,33);"/>
                    <g transform="matrix(401.081468,0,0,401.081468,3611.23819,3385.120584)">
                        <path d="M-0.048,-0L0.222,-0.296L0.097,-0.56L0.24,-0.56L0.315,-0.381L0.468,-0.56L0.619,-0.56L0.367,-0.282L0.501,-0L0.358,-0L0.273,-0.188L0.109,-0L-0.048,-0Z" style="fill:rgb(243,109,33);fill-rule:nonzero;"/>
                    </g>
                    <g transform="matrix(401.081468,0,0,401.081468,3611.23819,3385.120584)">
                    </g>
                    <g transform="matrix(401.081468,0,0,401.081468,3840.255709,3385.120584)">
                    </g>
                </g>
                <g transform="matrix(1,0,0,1,2583.87821,246.880048)">
                    <path d="M3583.019,3376.941L3685.824,3264.236L3639.173,3165.709C3637.393,3161.949 3637.663,3157.539 3639.888,3154.024C3642.112,3150.508 3645.983,3148.378 3650.143,3148.378L3707.498,3148.378C3712.389,3148.378 3716.802,3151.313 3718.692,3155.825L3741.157,3209.442L3789.718,3152.629C3792.024,3149.931 3795.395,3148.378 3798.944,3148.378L3859.508,3148.378C3864.309,3148.378 3868.658,3151.208 3870.604,3155.597C3872.549,3159.986 3871.725,3165.109 3868.5,3168.666L3772.885,3274.146L3823.143,3379.911C3824.929,3383.672 3824.664,3388.085 3822.44,3391.605C3820.216,3395.124 3816.343,3397.258 3812.18,3397.258L3754.825,3397.258C3750.057,3397.258 3745.73,3394.466 3743.766,3390.121L3717.458,3331.935L3664.102,3393.099C3661.797,3395.741 3658.462,3397.258 3654.956,3397.258L3591.986,3397.258C3587.178,3397.258 3582.824,3394.42 3580.882,3390.021C3578.941,3385.623 3579.779,3380.493 3583.019,3376.941ZM3591.986,3385.121L3654.956,3385.121L3720.733,3309.717L3754.825,3385.121L3812.18,3385.121L3758.435,3272.016L3859.508,3160.515L3798.944,3160.515L3737.579,3232.309L3707.498,3160.515L3650.143,3160.515L3700.278,3266.4L3591.986,3385.121Z" style="fill:white;"/>
                    <g transform="matrix(401.081468,0,0,401.081468,3611.23819,3385.120584)">
                        <path d="M-0.048,-0L0.222,-0.296L0.097,-0.56L0.24,-0.56L0.315,-0.381L0.468,-0.56L0.619,-0.56L0.367,-0.282L0.501,-0L0.358,-0L0.273,-0.188L0.109,-0L-0.048,-0Z" style="fill:rgb(35,31,32);fill-rule:nonzero;"/>
                    </g>
                    <g transform="matrix(401.081468,0,0,401.081468,3611.23819,3385.120584)">
                    </g>
                    <g transform="matrix(401.081468,0,0,401.081468,3840.255709,3385.120584)">
                    </g>
                </g>
            </g>
        </g>
    </g>
</svg>
