<?xml version="1.0" encoding="UTF-8" standalone="no"?>
<!DOCTYPE svg PUBLIC "-//W3C//DTD SVG 1.1//EN" "http://www.w3.org/Graphics/SVG/1.1/DTD/svg11.dtd">
<svg width="100%" height="100%" viewBox="0 0 497 541" version="1.1" xmlns="http://www.w3.org/2000/svg" xmlns:xlink="http://www.w3.org/1999/xlink" xml:space="preserve" xmlns:serif="http://www.serif.com/" style="fill-rule:evenodd;clip-rule:evenodd;stroke-linejoin:round;stroke-miterlimit:2;">
    <g transform="matrix(1,0,0,1,-3492.108966,-3264.65775)">
        <g transform="matrix(1,0,0,1,-2569.327827,0)">
            <g transform="matrix(1.658991,0,0,1.880485,291.249013,-2844.481756)">
                <path d="M3763.358,3344.424L3763.358,3456.14C3763.358,3500.165 3722.844,3535.907 3672.942,3535.907L3582.525,3535.907C3532.623,3535.907 3492.109,3500.165 3492.109,3456.14L3492.109,3344.424C3492.109,3300.4 3532.623,3264.658 3582.525,3264.658L3672.942,3264.658C3722.844,3264.658 3763.358,3300.4 3763.358,3344.424Z" style="fill:rgb(35,31,32);"/>
                <path d="M3763.358,3344.424L3763.358,3456.14C3763.358,3500.165 3722.844,3535.907 3672.942,3535.907L3582.525,3535.907C3532.623,3535.907 3492.109,3500.165 3492.109,3456.14L3492.109,3344.424C3492.109,3300.4 3532.623,3264.658 3582.525,3264.658L3672.942,3264.658C3722.844,3264.658 3763.358,3300.4 3763.358,3344.424ZM3743.266,3344.424C3743.266,3310.183 3711.755,3282.384 3672.942,3282.384L3582.525,3282.384C3543.713,3282.384 3512.202,3310.183 3512.202,3344.424L3512.202,3456.14C3512.202,3490.382 3543.713,3518.181 3582.525,3518.181L3672.942,3518.181C3711.755,3518.181 3743.266,3490.382 3743.266,3456.14L3743.266,3344.424Z" style="fill:rgb(35,31,32);"/>
            </g>
            <g transform="matrix(1.829965,0,0,1.880485,-329.001252,-2874.481756)">
                <path d="M3763.358,3344.424L3763.358,3456.14C3763.358,3500.165 3726.629,3535.907 3681.389,3535.907L3574.078,3535.907C3528.838,3535.907 3492.109,3500.165 3492.109,3456.14L3492.109,3344.424C3492.109,3300.4 3528.838,3264.658 3574.078,3264.658L3681.389,3264.658C3726.629,3264.658 3763.358,3300.4 3763.358,3344.424Z" style="fill:white;"/>
                <path d="M3763.358,3344.424L3763.358,3456.14C3763.358,3500.165 3726.629,3535.907 3681.389,3535.907L3574.078,3535.907C3528.838,3535.907 3492.109,3500.165 3492.109,3456.14L3492.109,3344.424C3492.109,3300.4 3528.838,3264.658 3574.078,3264.658L3681.389,3264.658C3726.629,3264.658 3763.358,3300.4 3763.358,3344.424ZM3745.143,3344.424C3745.143,3310.183 3716.576,3282.384 3681.389,3282.384L3574.078,3282.384C3538.891,3282.384 3510.324,3310.183 3510.324,3344.424L3510.324,3456.14C3510.324,3490.382 3538.891,3518.181 3574.078,3518.181L3681.389,3518.181C3716.576,3518.181 3745.143,3490.382 3745.143,3456.14L3745.143,3344.424Z" style="fill:rgb(243,109,33);"/>
            </g>
            <g>
                <g transform="matrix(0.897125,0,0,1,2967.165515,256.880048)">
                    <path d="M3679.546,3271.037L3606.795,3166.963C3604.18,3163.223 3604.036,3158.503 3606.419,3154.639C3608.802,3150.776 3613.335,3148.378 3618.257,3148.378L3681.227,3148.378C3686.052,3148.378 3690.513,3150.683 3692.932,3154.429L3728.51,3209.501L3763.75,3154.469C3766.163,3150.701 3770.637,3148.378 3775.481,3148.378L3833.237,3148.378C3838.187,3148.378 3842.741,3150.803 3845.112,3154.701C3847.484,3158.599 3847.293,3163.347 3844.615,3167.082L3770.601,3270.293L3846.689,3378.651C3849.315,3382.391 3849.468,3387.116 3847.087,3390.985C3844.706,3394.855 3840.169,3397.258 3835.242,3397.258L3772.272,3397.258C3767.458,3397.258 3763.007,3394.963 3760.583,3391.232L3722.183,3332.116L3684.116,3391.195C3681.698,3394.947 3677.234,3397.258 3672.403,3397.258L3613.043,3397.258C3608.082,3397.258 3603.519,3394.822 3601.153,3390.91C3598.786,3386.999 3598.996,3382.239 3601.699,3378.507L3679.546,3271.037ZM3722.136,3307.937L3711.308,3291.268L3704.891,3284.449L3695.596,3271.153L3613.043,3385.121L3672.403,3385.121L3722.136,3307.937ZM3695.596,3271.153L3703.687,3259.983L3716.923,3251.962L3728.562,3233.786L3681.227,3160.515L3618.257,3160.515L3695.596,3271.153ZM3728.562,3233.786L3739.785,3251.159L3745.4,3257.176L3754.563,3270.225L3833.237,3160.515L3775.481,3160.515L3728.562,3233.786ZM3754.563,3270.225L3745.801,3282.444L3734.17,3289.262L3722.136,3307.937L3772.272,3385.121L3835.242,3385.121L3754.563,3270.225ZM3738.525,3270.157L3734.44,3264.339L3729.412,3258.951C3729.137,3258.657 3728.878,3258.351 3728.636,3258.035C3727.611,3259.627 3726.195,3260.989 3724.497,3262.019L3713.536,3268.662L3711.647,3271.269L3715.845,3277.274L3721.645,3283.437C3721.775,3283.575 3721.901,3283.716 3722.024,3283.859L3722.457,3283.188C3723.518,3281.542 3724.995,3280.142 3726.769,3279.102L3735.985,3273.7L3738.525,3270.157Z" style="fill:rgb(243,109,33);"/>
                    <g transform="matrix(401.081468,0,0,401.081468,3609.834405,3385.120584)">
                        <path d="M0.008,-0L0.234,-0.312L0.267,-0.332L0.413,-0.56L0.557,-0.56L0.339,-0.256L0.31,-0.239L0.156,-0L0.008,-0ZM0.405,-0L0.253,-0.234L0.237,-0.251L0.021,-0.56L0.178,-0.56L0.324,-0.334L0.338,-0.319L0.562,-0L0.405,-0Z" style="fill:rgb(243,109,33);fill-rule:nonzero;"/>
                    </g>
                    <g transform="matrix(401.081468,0,0,401.081468,3609.834405,3385.120584)">
                    </g>
                    <g transform="matrix(401.081468,0,0,401.081468,3841.659494,3385.120584)">
                    </g>
                </g>
                <g transform="matrix(1,0,0,1,2583.87821,246.880048)">
                    <path d="M3680.7,3271.028L3608.309,3167.469C3605.717,3163.761 3605.403,3158.919 3607.493,3154.906C3609.584,3150.894 3613.733,3148.378 3618.257,3148.378L3681.227,3148.378C3685.347,3148.378 3689.186,3150.468 3691.422,3153.929L3728.517,3211.35L3765.26,3153.97C3767.491,3150.485 3771.344,3148.378 3775.481,3148.378L3833.237,3148.378C3837.787,3148.378 3841.956,3150.923 3844.034,3154.971C3846.112,3159.019 3845.752,3163.89 3843.1,3167.588L3769.446,3270.299L3845.175,3378.146C3847.778,3381.852 3848.1,3386.699 3846.012,3390.718C3843.923,3394.736 3839.771,3397.258 3835.242,3397.258L3772.272,3397.258C3768.163,3397.258 3764.333,3395.178 3762.094,3391.732L3722.177,3330.282L3682.606,3391.695C3680.371,3395.162 3676.528,3397.258 3672.403,3397.258L3613.043,3397.258C3608.482,3397.258 3604.306,3394.701 3602.233,3390.639C3600.159,3386.576 3600.538,3381.694 3603.214,3378.001L3680.7,3271.028ZM3722.136,3307.937L3711.308,3291.268L3704.891,3284.449L3695.596,3271.153L3613.043,3385.121L3672.403,3385.121L3722.136,3307.937ZM3695.596,3271.153L3703.687,3259.983L3716.923,3251.962L3728.562,3233.786L3681.227,3160.515L3618.257,3160.515L3695.596,3271.153ZM3728.562,3233.786L3739.785,3251.159L3745.4,3257.176L3754.563,3270.225L3833.237,3160.515L3775.481,3160.515L3728.562,3233.786ZM3754.563,3270.225L3745.801,3282.444L3734.17,3289.262L3722.136,3307.937L3772.272,3385.121L3835.242,3385.121L3754.563,3270.225ZM3739.681,3270.151L3735.952,3264.841L3730.912,3259.441C3730.422,3258.916 3729.98,3258.349 3729.59,3257.745L3728.607,3256.223L3727.144,3258.507C3726.144,3260.068 3724.8,3261.38 3723.214,3262.341L3712.077,3269.091L3710.493,3271.278L3714.333,3276.773L3720.146,3282.949C3720.643,3283.477 3721.092,3284.048 3721.486,3284.656L3722.095,3285.593L3723.967,3282.688C3724.998,3281.088 3726.39,3279.754 3728.032,3278.791L3737.44,3273.276L3739.681,3270.151Z" style="fill:white;"/>
                    <g transform="matrix(401.081468,0,0,401.081468,3609.834405,3385.120584)">
                        <path d="M0.008,-0L0.234,-0.312L0.267,-0.332L0.413,-0.56L0.557,-0.56L0.339,-0.256L0.31,-0.239L0.156,-0L0.008,-0ZM0.405,-0L0.253,-0.234L0.237,-0.251L0.021,-0.56L0.178,-0.56L0.324,-0.334L0.338,-0.319L0.562,-0L0.405,-0Z" style="fill:rgb(35,31,32);fill-rule:nonzero;"/>
                    </g>
                    <g transform="matrix(401.081468,0,0,401.081468,3609.834405,3385.120584)">
                    </g>
                    <g transform="matrix(401.081468,0,0,401.081468,3841.659494,3385.120584)">
                    </g>
                </g>
            </g>
        </g>
    </g>
</svg>
