<?xml version="1.0" encoding="UTF-8" standalone="no"?><!DOCTYPE svg PUBLIC "-//W3C//DTD SVG 1.1//EN" "http://www.w3.org/Graphics/SVG/1.1/DTD/svg11.dtd"><svg width="100%" height="100%" viewBox="0 0 16 16" version="1.1" xmlns="http://www.w3.org/2000/svg" xmlns:xlink="http://www.w3.org/1999/xlink" xml:space="preserve" xmlns:serif="http://www.serif.com/" style="fill-rule:evenodd;clip-rule:evenodd;stroke-linejoin:round;stroke-miterlimit:2;"><rect id="sm-logo" serif:id="sm logo" x="0" y="0" width="15.36" height="15.36" style="fill:none;"/><path d="M13.503,14.16l-11.645,0c-0.363,0 -0.657,-0.295 -0.657,-0.657l0,-11.645c0,-0.363 0.295,-0.657 0.657,-0.657l11.645,0c0.363,0 0.657,0.295 0.657,0.657l0,11.645c0,0.363 -0.295,0.657 -0.657,0.657Z" style="fill:#fff;"/><path d="M13.503,15.133l-11.645,0c-0.9,0 -1.631,-0.731 -1.631,-1.631l0,-11.645c0,-0.9 0.731,-1.631 1.631,-1.631l11.645,-0c0.9,0 1.631,0.731 1.631,1.631l0,11.645c0,0.9 -0.731,1.631 -1.631,1.631Zm0,-0.973c0.363,0 0.657,-0.295 0.657,-0.657l-0,-11.645c0,-0.363 -0.295,-0.657 -0.657,-0.657l-11.645,0c-0.363,0 -0.657,0.295 -0.657,0.657l-0,11.645c0,0.363 0.295,0.657 0.657,0.657l11.645,0Z" style="fill:#f36d21;"/><g><path d="M2.16,2.52l0,0.6l2.16,0l0,2.16l0.6,0l0,-2.16l2.04,0l0,-0.6l-4.8,0Z" style="fill-rule:nonzero;"/><path d="M8.4,2.52l0,2.76l0.6,0l0,-0.72l2.88,0l0,0.72l0.6,0l0,-0.72l0.721,0l-0.001,-2.04l-4.8,0Zm4.08,1.32l-3.48,0l0,-0.72l3.48,0l0,0.72Z" style="fill-rule:nonzero;"/><path d="M6.96,9.12l0,-2.76l-0.6,0l0,2.16l-3.6,0l0,-2.16l-0.6,0l0,2.76l4.8,0Z" style="fill-rule:nonzero;"/><path d="M8.4,6.36l0,2.76l4.801,0l0,-0.6l-4.201,0l0,-0.48l4.201,0l0,-0.6l-4.201,0l0,-0.48l4.201,0l0,-0.6l-4.801,0Z" style="fill-rule:nonzero;"/><path d="M6.36,10.2l0,1.08l-3.6,0l0,-1.08l-0.6,0l0,2.76l0.6,0l0,-1.08l3.6,0l0,1.08l0.6,0l0,-2.76l-0.6,0Z" style="fill-rule:nonzero;"/><path d="M12.48,10.92l0.721,0l0,2.04l-4.801,0l0,-2.76l4.08,0l-0,0.72Zm0,0l-3.48,0l0,1.44l3.48,0l0,-1.44Z" style="fill-rule:nonzero;"/></g></svg>